<?xml version="1.0" encoding="UTF-8" standalone="no"?>
<svg
   viewBox="0 0 1280 1280"
   version="1.1"
   id="svg5949"
   xmlns="http://www.w3.org/2000/svg"
   xmlns:svg="http://www.w3.org/2000/svg">
  <defs
     id="defs5953" />
  <path
     d="m 448.35398,273.32001 c -0.95199,-1.28001 -0.68799,-3.08001 0.588,-4.04001 1.272,-0.96 3.08001,-0.68001 4.02801,0.6 0.95199,1.28001 0.69201,3.08001 -0.58401,4.04001 -1.27599,0.96 -3.084,0.67998 -4.032,-0.6"
     style="fill:#ffffff;fill-opacity:0.25;fill-rule:nonzero;stroke:none;stroke-width:0.399999"
     id="path1420" />
  <path
     d="m 612.69398,347.44002 c 0.072,-1.52001 1.392,-2.72001 2.94,-2.64 1.55202,0.0399 2.74401,1.35999 2.66802,2.91999 -0.0759,1.56 -1.392,2.76 -2.94,2.67999 -1.55202,-0.0801 -2.74401,-1.39998 -2.66802,-2.95998"
     style="fill:#ffffff;fill-opacity:0.25;fill-rule:nonzero;stroke:none;stroke-width:0.399999"
     id="path1422" />
  <path
     d="m 599.88599,342.16002 c 0.0759,-1.52001 1.39599,-2.72001 2.94399,-2.64 1.548,0.0801 2.74401,1.39998 2.67201,2.91999 -0.0759,1.56 -1.392,2.76 -2.94399,2.67999 -1.548,-0.0801 -2.74401,-1.39998 -2.67201,-2.95998"
     style="fill:#ffffff;fill-opacity:0.25;fill-rule:nonzero;stroke:none;stroke-width:0.399999"
     id="path1424" />
  <path
     d="m 586.874,336.80001 c 0.0759,-1.52001 1.392,-2.72001 2.94,-2.64 1.55199,0.0801 2.74398,1.35999 2.67198,2.91999 -0.0759,1.56 -1.392,2.76 -2.94399,2.68002 -1.548,-0.0801 -2.74401,-1.40001 -2.66799,-2.96001"
     style="fill:#ffffff;fill-opacity:0.25;fill-rule:nonzero;stroke:none;stroke-width:0.399999"
     id="path1426" />
  <path
     d="m 574.42199,331.68 c 0.0759,-1.56 1.392,-2.76 2.94399,-2.67999 1.548,0.0801 2.74401,1.40001 2.66802,2.96001 -0.0759,1.56 -1.392,2.76 -2.94,2.67999 -1.55202,-0.0801 -2.748,-1.40001 -2.67201,-2.96001"
     style="fill:#ffffff;fill-opacity:0.25;fill-rule:nonzero;stroke:none;stroke-width:0.399999"
     id="path1428" />
  <path
     d="m 562.04999,326.60001 c 0.0759,-1.56 1.392,-2.76 2.94,-2.67999 1.55199,0.0801 2.748,1.39998 2.67201,2.91999 -0.0759,1.56 -1.392,2.76 -2.94402,2.67999 -1.548,-0.0801 -2.74398,-1.39998 -2.66799,-2.91999"
     style="fill:#ffffff;fill-opacity:0.25;fill-rule:nonzero;stroke:none;stroke-width:0.399999"
     id="path1430" />
  <path
     d="m 433.80998,399.12 c -1.37601,0.72 -3.072,0.1599 -3.78399,-1.2 -0.71601,-1.39998 -0.1761,-3.07998 1.2,-3.79998 1.37598,-0.72 3.072,-0.1599 3.78798,1.2 0.71202,1.35999 0.1761,3.07998 -1.20399,3.79998"
     style="fill:#ffffff;fill-opacity:0.25;fill-rule:nonzero;stroke:none;stroke-width:0.399999"
     id="path1440" />
  <path
     d="m 435.72599,413.08002 c -1.37601,0.72 -3.072,0.1599 -3.78801,-1.2 -0.71601,-1.40001 -0.1761,-3.08001 1.2,-3.80001 1.38,-0.72 3.072,-0.1599 3.78801,1.2 0.71199,1.35999 0.1761,3.08001 -1.2,3.80001"
     style="fill:#ffffff;fill-opacity:0.25;fill-rule:nonzero;stroke:none;stroke-width:0.399999"
     id="path1442" />
  <path
     d="m 424.74197,327.72 c -1.37598,0.72 -3.072,0.2001 -3.78798,-1.2 -0.71202,-1.35999 -0.1719,-3.07998 1.20399,-3.75999 1.37601,-0.72 3.072,-0.2001 3.78801,1.2 0.71199,1.35999 0.1719,3.03999 -1.20402,3.75999"
     style="fill:#ffffff;fill-opacity:0.25;fill-rule:nonzero;stroke:none;stroke-width:0.399999"
     id="path1444" />
  <path
     d="m 426.61397,341.44002 c -1.37598,0.72 -3.072,0.2001 -3.78399,-1.2 -0.71199,-1.36002 -0.1761,-3.08001 1.2,-3.80001 1.38,-0.68001 3.07599,-0.1599 3.78801,1.23999 0.71199,1.36002 0.1761,3.04002 -1.20402,3.76002"
     style="fill:#ffffff;fill-opacity:0.25;fill-rule:nonzero;stroke:none;stroke-width:0.399999"
     id="path1446" />
  <path
     d="m 428.51798,355.40001 c -1.38,0.72 -3.072,0.1599 -3.78801,-1.2 -0.71199,-1.40001 -0.1761,-3.08001 1.20402,-3.80001 1.37598,-0.72 3.072,-0.1599 3.78399,1.2 0.71601,1.40001 0.1761,3.08001 -1.2,3.80001"
     style="fill:#ffffff;fill-opacity:0.25;fill-rule:nonzero;stroke:none;stroke-width:0.399999"
     id="path1448" />
  <path
     d="m 430.33799,368.76 c -1.38,0.68001 -3.072,0.1599 -3.78801,-1.23999 -0.71199,-1.35999 -0.1761,-3.03999 1.20399,-3.75999 1.37601,-0.72 3.072,-0.2001 3.78402,1.2 0.71598,1.35999 0.1761,3.07998 -1.2,3.79998"
     style="fill:#ffffff;fill-opacity:0.25;fill-rule:nonzero;stroke:none;stroke-width:0.399999"
     id="path1450" />
  <path
     d="m 432.14597,382.00002 c -1.37598,0.72 -3.072,0.1599 -3.78399,-1.2 -0.71601,-1.36002 -0.1761,-3.08001 1.2,-3.80001 1.38,-0.72 3.072,-0.1599 3.78801,1.2 0.71199,1.40001 0.1761,3.08001 -1.20402,3.80001"
     style="fill:#ffffff;fill-opacity:0.25;fill-rule:nonzero;stroke:none;stroke-width:0.399999"
     id="path1452" />
  <g
     transform="matrix(6.4,0,0,6.4,945.34998,-547.55999)"
     id="use9385-6"
     style="fill:#7fa7ca;fill-opacity:1">
    <path
       d="m -70.999999,118 0.708122,1.79188 L -68.5,120.5 -70.291877,121.20812 -70.999999,123 -71.708122,121.20812 -73.5,120.5 l 1.791878,-0.70812 z"
       id="path10536-5"
       style="display:inline;overflow:visible;opacity:0.2;fill-rule:evenodd;stroke:none;stroke-width:4;stroke-linecap:butt;stroke-linejoin:miter;stroke-miterlimit:4;stroke-dashoffset:0;stroke-opacity:1;marker:none;marker-start:none;marker-mid:none;marker-end:none;enable-background:accumulate" />
    <path
       d="m -69.653643,120.5 c 0,0.74319 -0.603167,1.34636 -1.346356,1.34636 -0.743189,0 -1.346357,-0.60317 -1.346357,-1.34636 0,-0.74319 0.603168,-1.34636 1.346357,-1.34636 0.743189,0 1.346356,0.60317 1.346356,1.34636 z"
       id="path10538-2"
       style="display:inline;overflow:visible;opacity:0.3;fill-rule:evenodd;stroke:none;stroke-width:4;stroke-linecap:butt;stroke-linejoin:miter;stroke-miterlimit:4;stroke-dashoffset:0;stroke-opacity:1;marker:none;marker-start:none;marker-mid:none;marker-end:none;enable-background:accumulate" />
    <path
       d="m -71.956621,120.5 c 0,0.52806 0.428567,0.95662 0.956622,0.95662 0.528055,0 0.956622,-0.42856 0.956622,-0.95662 0,-0.52806 -0.428567,-0.95662 -0.956622,-0.95662 -0.528055,0 -0.956622,0.42856 -0.956622,0.95662 z"
       id="path10540-3"
       style="display:inline;overflow:visible;fill-rule:evenodd;stroke:none;stroke-width:4;stroke-linecap:butt;stroke-linejoin:miter;stroke-miterlimit:4;stroke-dashoffset:0;stroke-opacity:1;marker:none;marker-start:none;marker-mid:none;marker-end:none;enable-background:accumulate" />
  </g>
  <path
     d="m 480.81398,247.35999 c -1.55199,0.0399 -2.856,-1.15998 -2.91198,-2.71998 -0.0561,-1.56 1.152,-2.84001 2.70399,-2.92002 1.548,-0.0399 2.85201,1.16001 2.91201,2.72001 0.0561,1.56 -1.152,2.84001 -2.70402,2.91999"
     style="fill:#ffffff;fill-opacity:0.25;fill-rule:nonzero;stroke:none;stroke-width:0.399999"
     id="path1456" />
  <path
     d="m 476.58599,260.76 c -1.55199,0.0801 -2.856,-1.11999 -2.91201,-2.67999 -0.0561,-1.56 1.152,-2.88 2.7,-2.92002 1.55202,-0.0399 2.856,1.16001 2.91201,2.72001 0.06,1.52001 -1.152,2.84001 -2.7,2.88"
     style="fill:#ffffff;fill-opacity:0.25;fill-rule:nonzero;stroke:none;stroke-width:0.399999"
     id="path1458" />
  <path
     d="m 674.52599,164.36001 c 1.14801,1.11999 1.18002,2.91999 0.0801,4.08 -1.10001,1.15998 -2.92401,1.2 -4.07199,0.0801 -1.14801,-1.08 -1.18401,-2.91999 -0.084,-4.08 1.104,-1.11999 2.92398,-1.15998 4.07598,-0.0801"
     style="fill:#ffffff;fill-opacity:0.25;fill-rule:nonzero;stroke:none;stroke-width:0.399999"
     id="path1460" />
  <path
     d="m 687.23,158.04 c 1.14801,1.08 1.18401,2.91999 0.084,4.04001 -1.104,1.15998 -2.928,1.2 -4.07601,0.12 -1.14798,-1.12002 -1.18398,-2.96001 -0.0801,-4.08 1.09998,-1.16001 2.92398,-1.2 4.07199,-0.0801"
     style="fill:#ffffff;fill-opacity:0.25;fill-rule:nonzero;stroke:none;stroke-width:0.399999"
     id="path1462" />
  <path
     d="m 700.14599,151.56 c 1.14801,1.11999 1.18401,2.96001 0.0801,4.08 -1.10001,1.16001 -2.92401,1.2 -4.07199,0.0801 -1.14402,-1.08 -1.18401,-2.92002 -0.084,-4.08 1.10799,-1.12002 2.928,-1.16001 4.07598,-0.0801"
     style="fill:#ffffff;fill-opacity:0.25;fill-rule:nonzero;stroke:none;stroke-width:0.399999"
     id="path1464" />
  <path
     d="m 712.502,145.40001 c 1.14801,1.11999 1.18401,2.91999 0.0801,4.08 -1.10001,1.15998 -2.92401,1.2 -4.07202,0.0801 -1.14798,-1.11999 -1.18398,-2.91999 -0.084,-4.08 1.104,-1.11999 2.928,-1.15998 4.07601,-0.0801"
     style="fill:#ffffff;fill-opacity:0.25;fill-rule:nonzero;stroke:none;stroke-width:0.399999"
     id="path1466" />
  <path
     d="m 724.778,139.28001 c 1.14801,1.08 1.18401,2.91999 0.084,4.08 -1.104,1.11999 -2.928,1.15998 -4.07601,0.0801 -1.14399,-1.11999 -1.18398,-2.91999 -0.084,-4.08 1.10802,-1.15998 2.928,-1.2 4.07601,-0.0801"
     style="fill:#ffffff;fill-opacity:0.25;fill-rule:nonzero;stroke:none;stroke-width:0.399999"
     id="path1468" />
  <path
     d="m 737.486,132.92001 c 1.14801,1.11999 1.18401,2.91999 0.0801,4.08 -1.10001,1.15998 -2.92401,1.2 -4.07202,0.0801 -1.14798,-1.08 -1.18398,-2.91999 -0.084,-4.08 1.104,-1.11999 2.928,-1.15998 4.07601,-0.0801"
     style="fill:#ffffff;fill-opacity:0.25;fill-rule:nonzero;stroke:none;stroke-width:0.399999"
     id="path1470" />
  <path
     d="m 751.27001,126.03999 c 1.14798,1.12002 1.18398,2.92002 0.084,4.08 -1.104,1.16001 -2.928,1.16001 -4.07601,0.0801 -1.14801,-1.11999 -1.18401,-2.91999 -0.0801,-4.08 1.10001,-1.16001 2.92401,-1.2 4.07202,-0.0801"
     style="fill:#ffffff;fill-opacity:0.25;fill-rule:nonzero;stroke:none;stroke-width:0.399999"
     id="path1472" />
  <path
     d="m 764.57,120.63999 c 1.14801,1.12002 1.18401,2.96001 0.084,4.08 -1.104,1.16001 -2.928,1.2 -4.07601,0.0801 -1.14399,-1.08 -1.18398,-2.91999 -0.0801,-4.04001 1.104,-1.15998 2.92398,-1.2 4.07199,-0.12"
     style="fill:#ffffff;fill-opacity:0.25;fill-rule:nonzero;stroke:none;stroke-width:0.399999"
     id="path1474" />
  <path
     d="m 777.278,114.32001 c 1.14801,1.08 1.18401,2.91999 0.084,4.08 -1.104,1.11999 -2.928,1.15998 -4.07601,0.0801 -1.14798,-1.11999 -1.18398,-2.91999 -0.084,-4.08 1.104,-1.15998 2.928,-1.2 4.07601,-0.0801"
     style="fill:#ffffff;fill-opacity:0.25;fill-rule:nonzero;stroke:none;stroke-width:0.399999"
     id="path1476" />
  <path
     d="m 791.06201,107.43999 c 1.14798,1.08 1.18398,2.92002 0.084,4.04001 -1.104,1.16001 -2.928,1.2 -4.07601,0.12 -1.14801,-1.11999 -1.18401,-2.96001 -0.0801,-4.08 1.10001,-1.16001 2.92401,-1.2 4.07202,-0.0801"
     style="fill:#ffffff;fill-opacity:0.25;fill-rule:nonzero;stroke:none;stroke-width:0.399999"
     id="path1478" />
  <g
     transform="matrix(6.4,0,0,6.4,1264.618,-672.66804)"
     id="use9385"
     style="fill:#7fa7ca;fill-opacity:1">
    <path
       d="m -70.999999,118 0.708122,1.79188 L -68.5,120.5 -70.291877,121.20812 -70.999999,123 -71.708122,121.20812 -73.5,120.5 l 1.791878,-0.70812 z"
       id="path10536"
       style="display:inline;overflow:visible;opacity:0.2;fill-rule:evenodd;stroke:none;stroke-width:4;stroke-linecap:butt;stroke-linejoin:miter;stroke-miterlimit:4;stroke-dashoffset:0;stroke-opacity:1;marker:none;marker-start:none;marker-mid:none;marker-end:none;enable-background:accumulate" />
    <path
       d="m -69.653643,120.5 c 0,0.74319 -0.603167,1.34636 -1.346356,1.34636 -0.743189,0 -1.346357,-0.60317 -1.346357,-1.34636 0,-0.74319 0.603168,-1.34636 1.346357,-1.34636 0.743189,0 1.346356,0.60317 1.346356,1.34636 z"
       id="path10538"
       style="display:inline;overflow:visible;opacity:0.3;fill-rule:evenodd;stroke:none;stroke-width:4;stroke-linecap:butt;stroke-linejoin:miter;stroke-miterlimit:4;stroke-dashoffset:0;stroke-opacity:1;marker:none;marker-start:none;marker-mid:none;marker-end:none;enable-background:accumulate" />
    <path
       d="m -71.956621,120.5 c 0,0.52806 0.428567,0.95662 0.956622,0.95662 0.528055,0 0.956622,-0.42856 0.956622,-0.95662 0,-0.52806 -0.428567,-0.95662 -0.956622,-0.95662 -0.528055,0 -0.956622,0.42856 -0.956622,0.95662 z"
       id="path10540"
       style="display:inline;overflow:visible;fill-rule:evenodd;stroke:none;stroke-width:4;stroke-linecap:butt;stroke-linejoin:miter;stroke-miterlimit:4;stroke-dashoffset:0;stroke-opacity:1;marker:none;marker-start:none;marker-mid:none;marker-end:none;enable-background:accumulate" />
  </g>
  <path
     d="m 593.366,192.80001 c -0.93201,-1.24002 -0.68001,-3 0.55998,-3.96 1.24002,-0.92001 3,-0.68001 3.93201,0.55998 0.93201,1.24002 0.68001,3 -0.56001,3.96 -1.23999,0.92001 -3,0.68001 -3.93198,-0.55998"
     style="fill:#ffffff;fill-opacity:0.25;fill-rule:nonzero;stroke:none;stroke-width:0.399999"
     id="path1486" />
  <path
     d="m 580.142,196.92 c -0.93201,-1.28001 -0.68001,-3 0.55998,-3.96 1.24401,-0.92001 3,-0.68001 3.93201,0.56001 0.93201,1.23999 0.684,3 -0.55599,3.91998 -1.24002,0.96 -3.00402,0.72 -3.936,-0.51999"
     style="fill:#ffffff;fill-opacity:0.25;fill-rule:nonzero;stroke:none;stroke-width:0.399999"
     id="path1488" />
  <path
     d="m 566.702,201.08001 c -0.92802,-1.24002 -0.68001,-3 0.55998,-3.92001 1.24002,-0.92001 3.00402,-0.68001 3.936,0.56001 0.92802,1.23999 0.67602,3 -0.564,3.91998 -1.23999,0.92001 -3,0.68001 -3.93198,-0.55998"
     style="fill:#ffffff;fill-opacity:0.25;fill-rule:nonzero;stroke:none;stroke-width:0.399999"
     id="path1490" />
  <path
     d="m 553.84598,205.08 c -0.93198,-1.23999 -0.67998,-3 0.56001,-3.92001 1.23999,-0.91998 3,-0.67998 3.93201,0.56001 0.93198,1.23999 0.67998,3 -0.56001,3.92001 -1.23999,0.91998 -3,0.67998 -3.93201,-0.56001"
     style="fill:#ffffff;fill-opacity:0.25;fill-rule:nonzero;stroke:none;stroke-width:0.399999"
     id="path1492" />
  <path
     d="m 541.07,209.07999 c -0.93201,-1.23999 -0.684,-3 0.55599,-3.96 1.24401,-0.91998 3.00399,-0.67998 3.936,0.56001 0.93201,1.23999 0.68001,3 -0.56001,3.96 -1.23999,0.92001 -3,0.68001 -3.93198,-0.56001"
     style="fill:#ffffff;fill-opacity:0.25;fill-rule:nonzero;stroke:none;stroke-width:0.399999"
     id="path1494" />
  <path
     d="m 527.846,213.15999 c -0.93201,-1.23999 -0.68001,-3 0.55998,-3.91998 1.24002,-0.92001 3,-0.68001 3.93201,0.55998 0.93201,1.24002 0.684,3 -0.56001,3.96 -1.23999,0.92001 -3,0.68001 -3.93198,-0.6"
     style="fill:#ffffff;fill-opacity:0.25;fill-rule:nonzero;stroke:none;stroke-width:0.399999"
     id="path1496" />
  <path
     d="m 512.94998,217.64001 c -0.93198,-1.24002 -0.67998,-3 0.56001,-3.92001 1.23999,-0.96 3,-0.72 3.93201,0.51999 0.93198,1.28001 0.67998,3 -0.56001,3.96 -1.23999,0.92001 -3,0.68001 -3.93201,-0.55998"
     style="fill:#ffffff;fill-opacity:0.25;fill-rule:nonzero;stroke:none;stroke-width:0.399999"
     id="path1498" />
  <path
     d="m 620.45,186.08001 c -0.93201,-1.24002 -0.68001,-3 0.55998,-3.92001 1.24002,-0.92001 3,-0.68001 3.93201,0.56001 0.92799,1.23999 0.68001,3 -0.56001,3.91998 -1.23999,0.96 -3.00399,0.68001 -3.93198,-0.55998"
     style="fill:#ffffff;fill-opacity:0.25;fill-rule:nonzero;stroke:none;stroke-width:0.399999"
     id="path1500" />
  <path
     d="m 605.846,188.76 c -0.93201,-1.23999 -0.68001,-3 0.55998,-3.92001 1.24002,-0.96 3,-0.67998 3.93201,0.56001 0.93201,1.23999 0.68001,3 -0.56001,3.92001 -1.23999,0.91998 -3,0.67998 -3.93198,-0.56001"
     style="fill:#ffffff;fill-opacity:0.25;fill-rule:nonzero;stroke:none;stroke-width:0.399999"
     id="path1502" />
  <path
     d="m 531.206,290.96001 c 0.93198,-1.28001 2.73198,-1.60002 4.02399,-0.64002 1.28799,0.92001 1.58001,2.72001 0.648,4.00002 -0.92799,1.28001 -2.73201,1.59999 -4.02,0.63999 -1.29201,-0.91998 -1.58001,-2.71998 -0.65199,-3.99999"
     style="fill:#ffffff;fill-opacity:0.25;fill-rule:nonzero;stroke:none;stroke-width:0.399999"
     id="path1504" />
  <path
     d="m 522.46199,278.28 c 0.93201,-1.32 2.736,-1.59999 4.02399,-0.68001 1.29201,0.96 1.58001,2.76 0.65202,4.04001 -0.93201,1.28001 -2.73201,1.59999 -4.02402,0.63999 -1.28799,-0.91998 -1.57998,-2.71998 -0.65199,-3.99999"
     style="fill:#ffffff;fill-opacity:0.25;fill-rule:nonzero;stroke:none;stroke-width:0.399999"
     id="path1506" />
  <path
     d="m 513.64199,265.44 c 0.93201,-1.28001 2.73201,-1.56 4.02399,-0.63999 1.28802,0.96 1.58001,2.76 0.648,4.03998 -0.93198,1.28001 -2.73198,1.56 -4.02399,0.64002 C 513.002,268.56 512.70998,266.76 513.64199,265.44"
     style="fill:#ffffff;fill-opacity:0.25;fill-rule:nonzero;stroke:none;stroke-width:0.399999"
     id="path1508" />
  <path
     d="m 505.34198,253.40001 c 0.93201,-1.28001 2.73201,-1.56 4.02402,-0.64002 1.28799,0.92001 1.57998,2.72001 0.648,4.04001 -0.93201,1.28001 -2.73201,1.56 -4.02402,0.63999 -1.28799,-0.91998 -1.57998,-2.71998 -0.648,-4.03998"
     style="fill:#ffffff;fill-opacity:0.25;fill-rule:nonzero;stroke:none;stroke-width:0.399999"
     id="path1510" />
  <path
     d="m 497.10998,241.44 c 0.92802,-1.28001 2.73201,-1.56 4.02,-0.63999 1.29201,0.96 1.58001,2.76 0.65202,4.03998 -0.93201,1.28001 -2.73201,1.56 -4.02402,0.64002 C 496.466,244.56 496.178,242.76 497.10998,241.44"
     style="fill:#ffffff;fill-opacity:0.25;fill-rule:nonzero;stroke:none;stroke-width:0.399999"
     id="path1512" />
  <path
     d="m 542.96999,572.36001 c 1.30401,-0.91998 3.09999,-0.6 4.01601,0.68001 0.91599,1.32 0.60399,3.08001 -0.70002,3.99999 -1.29999,0.92001 -3.096,0.64002 -4.01199,-0.67998 -0.91599,-1.28001 -0.60399,-3.12 0.696,-4.00002"
     style="fill:#ffffff;fill-opacity:0.25;fill-rule:nonzero;stroke:none;stroke-width:0.399999"
     id="path1516" />
  <path
     d="m 538.84199,557.48001 c 1.29999,-0.87999 3.09999,-0.6 4.01601,0.72 0.91599,1.28001 0.6,3.08001 -0.70002,4.00002 -1.29999,0.91998 -3.096,0.6 -4.01199,-0.68001 -0.91599,-1.32 -0.60801,-3.12 0.696,-4.04001"
     style="fill:#ffffff;fill-opacity:0.25;fill-rule:nonzero;stroke:none;stroke-width:0.399999"
     id="path1518" />
  <path
     d="m 534.674,542.52003 c 1.29999,-0.92001 3.09999,-0.6 4.01598,0.67998 0.91602,1.32 0.60402,3.12 -0.696,4.04001 -1.29999,0.92001 -3.09999,0.6 -4.01598,-0.72 -0.91602,-1.28001 -0.60402,-3.08001 0.696,-3.99999"
     style="fill:#ffffff;fill-opacity:0.25;fill-rule:nonzero;stroke:none;stroke-width:0.399999"
     id="path1520" />
  <path
     d="m 492.998,471.80001 c 0.45198,-1.47999 2.01999,-2.31999 3.504,-1.83999 1.48398,0.43998 2.31999,1.99998 1.86798,3.48 -0.45198,1.47999 -2.01999,2.31999 -3.504,1.87998 -1.488,-0.43998 -2.32398,-1.99998 -1.86798,-3.51999"
     style="fill:#ffffff;fill-opacity:0.25;fill-rule:nonzero;stroke:none;stroke-width:0.399999"
     id="path1526" />
  <path
     d="m 482.18198,463.8 c 0.45201,-1.47999 2.02002,-2.31999 3.50802,-1.87998 1.48398,0.43998 2.31999,2.04 1.86399,3.51999 -0.45201,1.47999 -2.01999,2.31999 -3.504,1.83999 -1.48401,-0.43998 -2.31999,-1.99998 -1.86801,-3.48"
     style="fill:#ffffff;fill-opacity:0.25;fill-rule:nonzero;stroke:none;stroke-width:0.399999"
     id="path1528" />
  <path
     d="m 471.434,455.84001 c 0.45198,-1.52001 2.02398,-2.31999 3.50799,-1.88001 1.48401,0.44001 2.31999,2.00001 1.86801,3.48 -0.45201,1.52001 -2.02401,2.32002 -3.50802,1.88001 -1.48398,-0.44001 -2.31999,-2.00001 -1.86798,-3.48"
     style="fill:#ffffff;fill-opacity:0.25;fill-rule:nonzero;stroke:none;stroke-width:0.399999"
     id="path1530" />
  <path
     d="m 460.31399,447.56001 c 0.45201,-1.47999 2.02401,-2.31999 3.504,-1.83999 1.48401,0.43998 2.31999,1.99998 1.872,3.48 -0.456,1.47999 -2.02401,2.31999 -3.50799,1.87998 -1.48401,-0.43998 -2.32002,-2.04 -1.86801,-3.51999"
     style="fill:#ffffff;fill-opacity:0.25;fill-rule:nonzero;stroke:none;stroke-width:0.399999"
     id="path1532" />
  <g
     transform="matrix(9.2070901,4.1487754,-4.1487754,9.2070901,1802.4244,-640.17149)"
     id="use9385-2"
     style="fill:#7fa7ca;fill-opacity:1">
    <path
       d="m -70.999999,118 0.708122,1.79188 L -68.5,120.5 -70.291877,121.20812 -70.999999,123 -71.708122,121.20812 -73.5,120.5 l 1.791878,-0.70812 z"
       id="path10536-8"
       style="display:inline;overflow:visible;opacity:0.2;fill-rule:evenodd;stroke:none;stroke-width:4;stroke-linecap:butt;stroke-linejoin:miter;stroke-miterlimit:4;stroke-dashoffset:0;stroke-opacity:1;marker:none;marker-start:none;marker-mid:none;marker-end:none;enable-background:accumulate" />
    <path
       d="m -69.653643,120.5 c 0,0.74319 -0.603167,1.34636 -1.346356,1.34636 -0.743189,0 -1.346357,-0.60317 -1.346357,-1.34636 0,-0.74319 0.603168,-1.34636 1.346357,-1.34636 0.743189,0 1.346356,0.60317 1.346356,1.34636 z"
       id="path10538-8"
       style="display:inline;overflow:visible;opacity:0.3;fill-rule:evenodd;stroke:none;stroke-width:4;stroke-linecap:butt;stroke-linejoin:miter;stroke-miterlimit:4;stroke-dashoffset:0;stroke-opacity:1;marker:none;marker-start:none;marker-mid:none;marker-end:none;enable-background:accumulate" />
    <path
       d="m -71.956621,120.5 c 0,0.52806 0.428567,0.95662 0.956622,0.95662 0.528055,0 0.956622,-0.42856 0.956622,-0.95662 0,-0.52806 -0.428567,-0.95662 -0.956622,-0.95662 -0.528055,0 -0.956622,0.42856 -0.956622,0.95662 z"
       id="path10540-0"
       style="display:inline;overflow:visible;fill-rule:evenodd;stroke:none;stroke-width:4;stroke-linecap:butt;stroke-linejoin:miter;stroke-miterlimit:4;stroke-dashoffset:0;stroke-opacity:1;marker:none;marker-start:none;marker-mid:none;marker-end:none;enable-background:accumulate" />
  </g>
  <g
     transform="matrix(2.9320741,3.9999982,-3.9999982,2.9320741,1157.8491,203.44873)"
     id="use9385-64"
     style="fill:#7fa7ca;fill-opacity:1">
    <path
       d="m -70.999999,118 0.708122,1.79188 L -68.5,120.5 -70.291877,121.20812 -70.999999,123 -71.708122,121.20812 -73.5,120.5 l 1.791878,-0.70812 z"
       id="path10536-1"
       style="display:inline;overflow:visible;opacity:0.2;fill-rule:evenodd;stroke:none;stroke-width:4;stroke-linecap:butt;stroke-linejoin:miter;stroke-miterlimit:4;stroke-dashoffset:0;stroke-opacity:1;marker:none;marker-start:none;marker-mid:none;marker-end:none;enable-background:accumulate" />
    <path
       d="m -69.653643,120.5 c 0,0.74319 -0.603167,1.34636 -1.346356,1.34636 -0.743189,0 -1.346357,-0.60317 -1.346357,-1.34636 0,-0.74319 0.603168,-1.34636 1.346357,-1.34636 0.743189,0 1.346356,0.60317 1.346356,1.34636 z"
       id="path10538-1"
       style="display:inline;overflow:visible;opacity:0.3;fill-rule:evenodd;stroke:none;stroke-width:4;stroke-linecap:butt;stroke-linejoin:miter;stroke-miterlimit:4;stroke-dashoffset:0;stroke-opacity:1;marker:none;marker-start:none;marker-mid:none;marker-end:none;enable-background:accumulate" />
    <path
       d="m -71.956621,120.5 c 0,0.52806 0.428567,0.95662 0.956622,0.95662 0.528055,0 0.956622,-0.42856 0.956622,-0.95662 0,-0.52806 -0.428567,-0.95662 -0.956622,-0.95662 -0.528055,0 -0.956622,0.42856 -0.956622,0.95662 z"
       id="path10540-2"
       style="display:inline;overflow:visible;fill-rule:evenodd;stroke:none;stroke-width:4;stroke-linecap:butt;stroke-linejoin:miter;stroke-miterlimit:4;stroke-dashoffset:0;stroke-opacity:1;marker:none;marker-start:none;marker-mid:none;marker-end:none;enable-background:accumulate" />
  </g>
  <g
     transform="matrix(5.0419922,1.2721298,-1.2721298,5.0419922,948.13104,-238.13083)"
     id="use9385-5"
     style="fill:#7fa7ca;fill-opacity:1">
    <path
       d="m -70.999999,118 0.708122,1.79188 L -68.5,120.5 -70.291877,121.20812 -70.999999,123 -71.708122,121.20812 -73.5,120.5 l 1.791878,-0.70812 z"
       id="path10536-6"
       style="display:inline;overflow:visible;opacity:0.2;fill-rule:evenodd;stroke:none;stroke-width:4;stroke-linecap:butt;stroke-linejoin:miter;stroke-miterlimit:4;stroke-dashoffset:0;stroke-opacity:1;marker:none;marker-start:none;marker-mid:none;marker-end:none;enable-background:accumulate" />
    <path
       d="m -69.653643,120.5 c 0,0.74319 -0.603167,1.34636 -1.346356,1.34636 -0.743189,0 -1.346357,-0.60317 -1.346357,-1.34636 0,-0.74319 0.603168,-1.34636 1.346357,-1.34636 0.743189,0 1.346356,0.60317 1.346356,1.34636 z"
       id="path10538-7"
       style="display:inline;overflow:visible;opacity:0.3;fill-rule:evenodd;stroke:none;stroke-width:4;stroke-linecap:butt;stroke-linejoin:miter;stroke-miterlimit:4;stroke-dashoffset:0;stroke-opacity:1;marker:none;marker-start:none;marker-mid:none;marker-end:none;enable-background:accumulate" />
    <path
       d="m -71.956621,120.5 c 0,0.52806 0.428567,0.95662 0.956622,0.95662 0.528055,0 0.956622,-0.42856 0.956622,-0.95662 0,-0.52806 -0.428567,-0.95662 -0.956622,-0.95662 -0.528055,0 -0.956622,0.42856 -0.956622,0.95662 z"
       id="path10540-7"
       style="display:inline;overflow:visible;fill-rule:evenodd;stroke:none;stroke-width:4;stroke-linecap:butt;stroke-linejoin:miter;stroke-miterlimit:4;stroke-dashoffset:0;stroke-opacity:1;marker:none;marker-start:none;marker-mid:none;marker-end:none;enable-background:accumulate" />
  </g>
  <g
     transform="matrix(6.3674476,0.64467927,-0.64467927,6.3674476,951.50821,-424.19353)"
     id="use9385-8"
     style="fill:#7fa7ca;fill-opacity:1">
    <path
       d="m -70.999999,118 0.708122,1.79188 L -68.5,120.5 -70.291877,121.20812 -70.999999,123 -71.708122,121.20812 -73.5,120.5 l 1.791878,-0.70812 z"
       id="path10536-61"
       style="display:inline;overflow:visible;opacity:0.2;fill-rule:evenodd;stroke:none;stroke-width:4;stroke-linecap:butt;stroke-linejoin:miter;stroke-miterlimit:4;stroke-dashoffset:0;stroke-opacity:1;marker:none;marker-start:none;marker-mid:none;marker-end:none;enable-background:accumulate" />
    <path
       d="m -69.653643,120.5 c 0,0.74319 -0.603167,1.34636 -1.346356,1.34636 -0.743189,0 -1.346357,-0.60317 -1.346357,-1.34636 0,-0.74319 0.603168,-1.34636 1.346357,-1.34636 0.743189,0 1.346356,0.60317 1.346356,1.34636 z"
       id="path10538-14"
       style="display:inline;overflow:visible;opacity:0.3;fill-rule:evenodd;stroke:none;stroke-width:4;stroke-linecap:butt;stroke-linejoin:miter;stroke-miterlimit:4;stroke-dashoffset:0;stroke-opacity:1;marker:none;marker-start:none;marker-mid:none;marker-end:none;enable-background:accumulate" />
    <path
       d="m -71.956621,120.5 c 0,0.52806 0.428567,0.95662 0.956622,0.95662 0.528055,0 0.956622,-0.42856 0.956622,-0.95662 0,-0.52806 -0.428567,-0.95662 -0.956622,-0.95662 -0.528055,0 -0.956622,0.42856 -0.956622,0.95662 z"
       id="path10540-4"
       style="display:inline;overflow:visible;fill-rule:evenodd;stroke:none;stroke-width:4;stroke-linecap:butt;stroke-linejoin:miter;stroke-miterlimit:4;stroke-dashoffset:0;stroke-opacity:1;marker:none;marker-start:none;marker-mid:none;marker-end:none;enable-background:accumulate" />
  </g>
  <g
     transform="matrix(7.2,0,0,7.2,1059.33,-557.88656)"
     id="use9385-67"
     style="fill:#7fa7ca;fill-opacity:1">
    <path
       d="m -70.999999,118 0.708122,1.79188 L -68.5,120.5 -70.291877,121.20812 -70.999999,123 -71.708122,121.20812 -73.5,120.5 l 1.791878,-0.70812 z"
       id="path10536-63"
       style="display:inline;overflow:visible;opacity:0.2;fill-rule:evenodd;stroke:none;stroke-width:4;stroke-linecap:butt;stroke-linejoin:miter;stroke-miterlimit:4;stroke-dashoffset:0;stroke-opacity:1;marker:none;marker-start:none;marker-mid:none;marker-end:none;enable-background:accumulate" />
    <path
       d="m -69.653643,120.5 c 0,0.74319 -0.603167,1.34636 -1.346356,1.34636 -0.743189,0 -1.346357,-0.60317 -1.346357,-1.34636 0,-0.74319 0.603168,-1.34636 1.346357,-1.34636 0.743189,0 1.346356,0.60317 1.346356,1.34636 z"
       id="path10538-22"
       style="display:inline;overflow:visible;opacity:0.3;fill-rule:evenodd;stroke:none;stroke-width:4;stroke-linecap:butt;stroke-linejoin:miter;stroke-miterlimit:4;stroke-dashoffset:0;stroke-opacity:1;marker:none;marker-start:none;marker-mid:none;marker-end:none;enable-background:accumulate" />
    <path
       d="m -71.956621,120.5 c 0,0.52806 0.428567,0.95662 0.956622,0.95662 0.528055,0 0.956622,-0.42856 0.956622,-0.95662 0,-0.52806 -0.428567,-0.95662 -0.956622,-0.95662 -0.528055,0 -0.956622,0.42856 -0.956622,0.95662 z"
       id="path10540-05"
       style="display:inline;overflow:visible;fill-rule:evenodd;stroke:none;stroke-width:4;stroke-linecap:butt;stroke-linejoin:miter;stroke-miterlimit:4;stroke-dashoffset:0;stroke-opacity:1;marker:none;marker-start:none;marker-mid:none;marker-end:none;enable-background:accumulate" />
  </g>
  <g
     transform="matrix(7,-2.7199413,2.7199413,7,803.45226,-682.57903)"
     id="use9385-9"
     style="fill:#7fa7ca;fill-opacity:1">
    <path
       d="m -70.999999,118 0.708122,1.79188 L -68.5,120.5 -70.291877,121.20812 -70.999999,123 -71.708122,121.20812 -73.5,120.5 l 1.791878,-0.70812 z"
       id="path10536-4"
       style="display:inline;overflow:visible;opacity:0.2;fill-rule:evenodd;stroke:none;stroke-width:4;stroke-linecap:butt;stroke-linejoin:miter;stroke-miterlimit:4;stroke-dashoffset:0;stroke-opacity:1;marker:none;marker-start:none;marker-mid:none;marker-end:none;enable-background:accumulate" />
    <path
       d="m -69.653643,120.5 c 0,0.74319 -0.603167,1.34636 -1.346356,1.34636 -0.743189,0 -1.346357,-0.60317 -1.346357,-1.34636 0,-0.74319 0.603168,-1.34636 1.346357,-1.34636 0.743189,0 1.346356,0.60317 1.346356,1.34636 z"
       id="path10538-78"
       style="display:inline;overflow:visible;opacity:0.3;fill-rule:evenodd;stroke:none;stroke-width:4;stroke-linecap:butt;stroke-linejoin:miter;stroke-miterlimit:4;stroke-dashoffset:0;stroke-opacity:1;marker:none;marker-start:none;marker-mid:none;marker-end:none;enable-background:accumulate" />
    <path
       d="m -71.956621,120.5 c 0,0.52806 0.428567,0.95662 0.956622,0.95662 0.528055,0 0.956622,-0.42856 0.956622,-0.95662 0,-0.52806 -0.428567,-0.95662 -0.956622,-0.95662 -0.528055,0 -0.956622,0.42856 -0.956622,0.95662 z"
       id="path10540-5"
       style="display:inline;overflow:visible;fill-rule:evenodd;stroke:none;stroke-width:4;stroke-linecap:butt;stroke-linejoin:miter;stroke-miterlimit:4;stroke-dashoffset:0;stroke-opacity:1;marker:none;marker-start:none;marker-mid:none;marker-end:none;enable-background:accumulate" />
  </g>
  <g
     transform="matrix(8.4,1.1903381,-1.1903381,8.4,1187.0423,-497.0934)"
     id="use9385-1"
     style="fill:#7fa7ca;fill-opacity:1">
    <path
       d="m -70.999999,118 0.708122,1.79188 L -68.5,120.5 -70.291877,121.20812 -70.999999,123 -71.708122,121.20812 -73.5,120.5 l 1.791878,-0.70812 z"
       id="path10536-87"
       style="display:inline;overflow:visible;opacity:0.2;fill-rule:evenodd;stroke:none;stroke-width:4;stroke-linecap:butt;stroke-linejoin:miter;stroke-miterlimit:4;stroke-dashoffset:0;stroke-opacity:1;marker:none;marker-start:none;marker-mid:none;marker-end:none;enable-background:accumulate" />
    <path
       d="m -69.653643,120.5 c 0,0.74319 -0.603167,1.34636 -1.346356,1.34636 -0.743189,0 -1.346357,-0.60317 -1.346357,-1.34636 0,-0.74319 0.603168,-1.34636 1.346357,-1.34636 0.743189,0 1.346356,0.60317 1.346356,1.34636 z"
       id="path10538-5"
       style="display:inline;overflow:visible;opacity:0.3;fill-rule:evenodd;stroke:none;stroke-width:4;stroke-linecap:butt;stroke-linejoin:miter;stroke-miterlimit:4;stroke-dashoffset:0;stroke-opacity:1;marker:none;marker-start:none;marker-mid:none;marker-end:none;enable-background:accumulate" />
    <path
       d="m -71.956621,120.5 c 0,0.52806 0.428567,0.95662 0.956622,0.95662 0.528055,0 0.956622,-0.42856 0.956622,-0.95662 0,-0.52806 -0.428567,-0.95662 -0.956622,-0.95662 -0.528055,0 -0.956622,0.42856 -0.956622,0.95662 z"
       id="path10540-9"
       style="display:inline;overflow:visible;fill-rule:evenodd;stroke:none;stroke-width:4;stroke-linecap:butt;stroke-linejoin:miter;stroke-miterlimit:4;stroke-dashoffset:0;stroke-opacity:1;marker:none;marker-start:none;marker-mid:none;marker-end:none;enable-background:accumulate" />
  </g>
  <g
     transform="matrix(6.2951365,1.1538007,-1.1538007,6.2951365,1094.4803,-190.81939)"
     id="use9385-85"
     style="fill:#7fa7ca;fill-opacity:1">
    <path
       d="m -70.999999,118 0.708122,1.79188 L -68.5,120.5 -70.291877,121.20812 -70.999999,123 -71.708122,121.20812 -73.5,120.5 l 1.791878,-0.70812 z"
       id="path10536-15"
       style="display:inline;overflow:visible;opacity:0.2;fill-rule:evenodd;stroke:none;stroke-width:4;stroke-linecap:butt;stroke-linejoin:miter;stroke-miterlimit:4;stroke-dashoffset:0;stroke-opacity:1;marker:none;marker-start:none;marker-mid:none;marker-end:none;enable-background:accumulate" />
    <path
       d="m -69.653643,120.5 c 0,0.74319 -0.603167,1.34636 -1.346356,1.34636 -0.743189,0 -1.346357,-0.60317 -1.346357,-1.34636 0,-0.74319 0.603168,-1.34636 1.346357,-1.34636 0.743189,0 1.346356,0.60317 1.346356,1.34636 z"
       id="path10538-89"
       style="display:inline;overflow:visible;opacity:0.3;fill-rule:evenodd;stroke:none;stroke-width:4;stroke-linecap:butt;stroke-linejoin:miter;stroke-miterlimit:4;stroke-dashoffset:0;stroke-opacity:1;marker:none;marker-start:none;marker-mid:none;marker-end:none;enable-background:accumulate" />
    <path
       d="m -71.956621,120.5 c 0,0.52806 0.428567,0.95662 0.956622,0.95662 0.528055,0 0.956622,-0.42856 0.956622,-0.95662 0,-0.52806 -0.428567,-0.95662 -0.956622,-0.95662 -0.528055,0 -0.956622,0.42856 -0.956622,0.95662 z"
       id="path10540-20"
       style="display:inline;overflow:visible;fill-rule:evenodd;stroke:none;stroke-width:4;stroke-linecap:butt;stroke-linejoin:miter;stroke-miterlimit:4;stroke-dashoffset:0;stroke-opacity:1;marker:none;marker-start:none;marker-mid:none;marker-end:none;enable-background:accumulate" />
  </g>
  <g
     transform="matrix(8,0,0,8,1092.3693,-446.05199)"
     id="use9385-0"
     style="fill:#7fa7ca;fill-opacity:1">
    <path
       d="m -70.999999,118 0.708122,1.79188 L -68.5,120.5 -70.291877,121.20812 -70.999999,123 -71.708122,121.20812 -73.5,120.5 l 1.791878,-0.70812 z"
       id="path10536-0"
       style="display:inline;overflow:visible;opacity:0.2;fill-rule:evenodd;stroke:none;stroke-width:4;stroke-linecap:butt;stroke-linejoin:miter;stroke-miterlimit:4;stroke-dashoffset:0;stroke-opacity:1;marker:none;marker-start:none;marker-mid:none;marker-end:none;enable-background:accumulate" />
    <path
       d="m -69.653643,120.5 c 0,0.74319 -0.603167,1.34636 -1.346356,1.34636 -0.743189,0 -1.346357,-0.60317 -1.346357,-1.34636 0,-0.74319 0.603168,-1.34636 1.346357,-1.34636 0.743189,0 1.346356,0.60317 1.346356,1.34636 z"
       id="path10538-3"
       style="display:inline;overflow:visible;opacity:0.3;fill-rule:evenodd;stroke:none;stroke-width:4;stroke-linecap:butt;stroke-linejoin:miter;stroke-miterlimit:4;stroke-dashoffset:0;stroke-opacity:1;marker:none;marker-start:none;marker-mid:none;marker-end:none;enable-background:accumulate" />
    <path
       d="m -71.956621,120.5 c 0,0.52806 0.428567,0.95662 0.956622,0.95662 0.528055,0 0.956622,-0.42856 0.956622,-0.95662 0,-0.52806 -0.428567,-0.95662 -0.956622,-0.95662 -0.528055,0 -0.956622,0.42856 -0.956622,0.95662 z"
       id="path10540-1"
       style="display:inline;overflow:visible;fill-rule:evenodd;stroke:none;stroke-width:4;stroke-linecap:butt;stroke-linejoin:miter;stroke-miterlimit:4;stroke-dashoffset:0;stroke-opacity:1;marker:none;marker-start:none;marker-mid:none;marker-end:none;enable-background:accumulate" />
  </g>
  <g
     transform="matrix(5.4,2.1708543,-2.1708543,5.4,1195.7253,94.817981)"
     id="use9385-54"
     style="fill:#7fa7ca;fill-opacity:1">
    <path
       d="m -70.999999,118 0.708122,1.79188 L -68.5,120.5 -70.291877,121.20812 -70.999999,123 -71.708122,121.20812 -73.5,120.5 l 1.791878,-0.70812 z"
       id="path10536-9"
       style="display:inline;overflow:visible;opacity:0.2;fill-rule:evenodd;stroke:none;stroke-width:4;stroke-linecap:butt;stroke-linejoin:miter;stroke-miterlimit:4;stroke-dashoffset:0;stroke-opacity:1;marker:none;marker-start:none;marker-mid:none;marker-end:none;enable-background:accumulate" />
    <path
       d="m -69.653643,120.5 c 0,0.74319 -0.603167,1.34636 -1.346356,1.34636 -0.743189,0 -1.346357,-0.60317 -1.346357,-1.34636 0,-0.74319 0.603168,-1.34636 1.346357,-1.34636 0.743189,0 1.346356,0.60317 1.346356,1.34636 z"
       id="path10538-20"
       style="display:inline;overflow:visible;opacity:0.3;fill-rule:evenodd;stroke:none;stroke-width:4;stroke-linecap:butt;stroke-linejoin:miter;stroke-miterlimit:4;stroke-dashoffset:0;stroke-opacity:1;marker:none;marker-start:none;marker-mid:none;marker-end:none;enable-background:accumulate" />
    <path
       d="m -71.956621,120.5 c 0,0.52806 0.428567,0.95662 0.956622,0.95662 0.528055,0 0.956622,-0.42856 0.956622,-0.95662 0,-0.52806 -0.428567,-0.95662 -0.956622,-0.95662 -0.528055,0 -0.956622,0.42856 -0.956622,0.95662 z"
       id="path10540-08"
       style="display:inline;overflow:visible;fill-rule:evenodd;stroke:none;stroke-width:4;stroke-linecap:butt;stroke-linejoin:miter;stroke-miterlimit:4;stroke-dashoffset:0;stroke-opacity:1;marker:none;marker-start:none;marker-mid:none;marker-end:none;enable-background:accumulate" />
  </g>
</svg>
