<?xml version="1.0" encoding="UTF-8" standalone="no"?>
<svg
   viewBox="0 0 1280 1280"
   version="1.1"
   id="svg3032"
   xmlns="http://www.w3.org/2000/svg"
   xmlns:svg="http://www.w3.org/2000/svg">
  <defs
     id="defs3036" />
  <path
     d="m 824.608,233.69601 c 1.416,1.38399 3.6801,1.35999 5.0679,-0.0519 1.3842,-1.41198 1.3602,-3.67998 -0.057,-5.064 -1.4121,-1.38399 -3.6801,-1.36398 -5.064,0.0519 -1.3842,1.416 -1.3602,3.67998 0.051,5.064"
     style="fill:#ffffff;fill-opacity:0.25;fill-rule:nonzero;stroke:none;stroke-width:0.399999"
     id="path1746" />
  <path
     d="m 807.3121,238.24401 c 1.416,1.38399 3.684,1.35999 5.064,-0.0519 1.3878,-1.416 1.3638,-3.684 -0.048,-5.06799 -1.416,-1.38399 -3.684,-1.35999 -5.0682,0.0519 -1.3839,1.416 -1.3599,3.684 0.051,5.06802"
     style="fill:#ffffff;fill-opacity:0.25;fill-rule:nonzero;stroke:none;stroke-width:0.399999"
     id="path1748" />
  <path
     d="m 791.0359,244.32 c 1.4121,1.38801 3.6801,1.36401 5.064,-0.0519 1.3842,-1.41201 1.3602,-3.68001 -0.051,-5.064 -1.4121,-1.38402 -3.6801,-1.36002 -5.064,0.0519 -1.3839,1.41201 -1.3641,3.68001 0.051,5.064"
     style="fill:#ffffff;fill-opacity:0.25;fill-rule:nonzero;stroke:none;stroke-width:0.399999"
     id="path1750" />
  <path
     d="m 774.1081,249.53601 c 1.416,1.38399 3.6798,1.35999 5.0679,-0.0519 1.3839,-1.416 1.3599,-3.684 -0.057,-5.06799 -1.4118,-1.38 -3.6798,-1.35999 -5.064,0.0519 -1.3839,1.416 -1.3599,3.684 0.051,5.06802"
     style="fill:#ffffff;fill-opacity:0.25;fill-rule:nonzero;stroke:none;stroke-width:0.399999"
     id="path1752" />
  <path
     d="m 719.1601,249.96801 c 1.416,1.38399 3.684,1.35999 5.0679,-0.0519 1.38,-1.416 1.3599,-3.684 -0.051,-5.064 -1.416,-1.38798 -3.684,-1.36398 -5.0682,0.048 -1.3839,1.416 -1.3599,3.684 0.051,5.06802"
     style="fill:#ffffff;fill-opacity:0.25;fill-rule:nonzero;stroke:none;stroke-width:0.399999"
     id="path1754" />
  <path
     d="m 699.5479,242.844 c 1.4121,1.38399 3.6801,1.35999 5.064,-0.0519 1.3881,-1.41201 1.3641,-3.68001 -0.051,-5.06802 -1.4121,-1.38399 -3.6801,-1.35999 -5.064,0.0561 -1.3839,1.41201 -1.3599,3.68001 0.051,5.064"
     style="fill:#ffffff;fill-opacity:0.25;fill-rule:nonzero;stroke:none;stroke-width:0.399999"
     id="path1756" />
  <path
     d="m 681.988,237.192 c 1.4121,1.38399 3.6801,1.35999 5.064,-0.0561 1.3839,-1.41198 1.3599,-3.67998 -0.051,-5.064 -1.4121,-1.38399 -3.6801,-1.35999 -5.064,0.0519 -1.3881,1.416 -1.3641,3.67998 0.051,5.06799"
     style="fill:#ffffff;fill-opacity:0.25;fill-rule:nonzero;stroke:none;stroke-width:0.399999"
     id="path1758" />
  <path
     d="m 662.608,230.58399 c 1.416,1.38402 3.684,1.36002 5.0679,-0.0519 1.3842,-1.41201 1.3602,-3.68001 -0.051,-5.06799 -1.416,-1.38402 -3.684,-1.36002 -5.0679,0.0561 -1.38,1.41201 -1.3602,3.68001 0.051,5.064"
     style="fill:#ffffff;fill-opacity:0.25;fill-rule:nonzero;stroke:none;stroke-width:0.399999"
     id="path1760" />
  <path
     d="m 643.5439,223.99599 c 1.416,1.38402 3.684,1.36002 5.0682,-0.0519 1.3839,-1.41201 1.3599,-3.68001 -0.051,-5.064 -1.4118,-1.38399 -3.684,-1.35999 -5.064,0.0519 -1.3878,1.41201 -1.3638,3.68001 0.048,5.064"
     style="fill:#ffffff;fill-opacity:0.25;fill-rule:nonzero;stroke:none;stroke-width:0.399999"
     id="path1762" />
  <path
     d="m 623.2681,217.82799 c 1.4118,1.38402 3.6759,1.36401 5.064,-0.0519 1.3839,-1.41201 1.3599,-3.68001 -0.057,-5.064 -1.4121,-1.38399 -3.6759,-1.35999 -5.064,0.0519 -1.3839,1.41201 -1.3599,3.68001 0.057,5.064"
     style="fill:#ffffff;fill-opacity:0.25;fill-rule:nonzero;stroke:none;stroke-width:0.399999"
     id="path1764" />
  <path
     d="m 604.6081,211.37199 c 1.416,1.38402 3.684,1.36002 5.0679,-0.0519 1.3839,-1.41201 1.3599,-3.68001 -0.051,-5.064 -1.416,-1.38399 -3.684,-1.36401 -5.0682,0.0519 -1.3839,1.41201 -1.3599,3.68001 0.051,5.064"
     style="fill:#ffffff;fill-opacity:0.25;fill-rule:nonzero;stroke:none;stroke-width:0.399999"
     id="path1766" />
  <path
     d="m 558.9439,230.29599 c 1.4121,1.38801 3.6801,1.36401 5.064,-0.0519 1.3842,-1.41201 1.3602,-3.68001 -0.051,-5.064 -1.4121,-1.38399 -3.6801,-1.35999 -5.064,0.0519 -1.3839,1.41201 -1.3641,3.68001 0.051,5.064"
     style="fill:#ffffff;fill-opacity:0.25;fill-rule:nonzero;stroke:none;stroke-width:0.399999"
     id="path1768" />
  <path
     d="m 551.3719,246.252 c 1.416,1.38399 3.684,1.35999 5.0682,-0.0519 1.3839,-1.41201 1.3599,-3.68001 -0.051,-5.06802 -1.416,-1.38399 -3.684,-1.35999 -5.064,0.0561 -1.3839,1.41201 -1.3638,3.68001 0.048,5.064"
     style="fill:#ffffff;fill-opacity:0.25;fill-rule:nonzero;stroke:none;stroke-width:0.399999"
     id="path1770" />
  <path
     d="m 544.9441,263.052 c 1.4118,1.38399 3.6798,1.35999 5.0679,-0.0519 1.3839,-1.41201 1.3599,-3.68001 -0.057,-5.064 -1.4118,-1.38801 -3.6798,-1.36401 -5.064,0.0519 -1.3839,1.41201 -1.3599,3.68001 0.051,5.064"
     style="fill:#ffffff;fill-opacity:0.25;fill-rule:nonzero;stroke:none;stroke-width:0.399999"
     id="path1772" />
  <path
     d="m 538.4161,278.952 c 1.4118,1.38 3.6798,1.35999 5.064,-0.0561 1.3839,-1.41198 1.3599,-3.67998 -0.051,-5.064 -1.4118,-1.38399 -3.6798,-1.35999 -5.0679,0.0519 -1.3839,1.41198 -1.356,3.67998 0.057,5.06799"
     style="fill:#ffffff;fill-opacity:0.25;fill-rule:nonzero;stroke:none;stroke-width:0.399999"
     id="path1774" />
  <path
     d="m 531.6559,294.624 c 1.416,1.38399 3.684,1.35999 5.064,-0.0519 1.3842,-1.416 1.3641,-3.684 -0.048,-5.064 -1.416,-1.38402 -3.684,-1.36401 -5.0679,0.048 -1.3839,1.416 -1.3599,3.684 0.051,5.06799"
     style="fill:#ffffff;fill-opacity:0.25;fill-rule:nonzero;stroke:none;stroke-width:0.399999"
     id="path1776" />
  <path
     d="m 524.0881,310.57602 c 1.4118,1.38798 3.6798,1.36398 5.064,-0.0519 1.3839,-1.41198 1.3638,-3.67998 -0.051,-5.064 -1.4118,-1.38399 -3.6798,-1.35999 -5.064,0.0519 -1.3839,1.41198 -1.3599,3.67998 0.051,5.064"
     style="fill:#ffffff;fill-opacity:0.25;fill-rule:nonzero;stroke:none;stroke-width:0.399999"
     id="path1778" />
  <path
     d="m 516.0799,327.98001 c 1.4121,1.38801 3.684,1.36401 5.064,-0.0519 1.3842,-1.41201 1.3641,-3.68001 -0.048,-5.064 -1.416,-1.38402 -3.684,-1.36002 -5.0679,0.0519 -1.3839,1.41201 -1.3599,3.68001 0.051,5.064"
     style="fill:#ffffff;fill-opacity:0.25;fill-rule:nonzero;stroke:none;stroke-width:0.399999"
     id="path1780" />
  <path
     d="m 508.6201,345.83601 c 1.416,1.38 3.684,1.35999 5.0679,-0.0519 1.3839,-1.416 1.3599,-3.684 -0.051,-5.06802 -1.416,-1.38399 -3.684,-1.35999 -5.0682,0.0519 -1.3839,1.416 -1.3599,3.684 0.051,5.06799"
     style="fill:#ffffff;fill-opacity:0.25;fill-rule:nonzero;stroke:none;stroke-width:0.399999"
     id="path1782" />
  <path
     d="m 502.012,362.81601 c 1.416,1.38801 3.6801,1.36401 5.0679,-0.048 1.38,-1.416 1.3602,-3.684 -0.057,-5.06799 -1.4121,-1.38402 -3.6801,-1.36002 -5.064,0.0519 -1.3842,1.41201 -1.3602,3.684 0.051,5.064"
     style="fill:#ffffff;fill-opacity:0.25;fill-rule:nonzero;stroke:none;stroke-width:0.399999"
     id="path1784" />
  <path
     d="m 494.836,379.38 c 1.4121,1.38402 3.6801,1.36002 5.064,-0.0561 1.3839,-1.41201 1.3599,-3.68001 -0.051,-5.064 -1.4121,-1.38402 -3.6801,-1.36002 -5.0682,0.0519 -1.3839,1.41201 -1.3599,3.68001 0.057,5.06799"
     style="fill:#ffffff;fill-opacity:0.25;fill-rule:nonzero;stroke:none;stroke-width:0.399999"
     id="path1786" />
  <path
     d="m 487.4959,395.78001 c 1.4121,1.38399 3.6801,1.35999 5.064,-0.0519 1.3842,-1.416 1.3602,-3.68001 -0.051,-5.06802 -1.4121,-1.38 -3.6801,-1.35999 -5.0679,0.0519 -1.3842,1.416 -1.3602,3.684 0.057,5.06799"
     style="fill:#ffffff;fill-opacity:0.25;fill-rule:nonzero;stroke:none;stroke-width:0.399999"
     id="path1788" />
  <path
     d="m 474.6601,465.03201 c 1.4118,1.38399 3.6798,1.35999 5.064,-0.0519 1.3839,-1.416 1.3638,-3.684 -0.051,-5.06802 -1.4118,-1.38399 -3.6798,-1.35999 -5.064,0.0519 -1.3839,1.416 -1.3599,3.684 0.051,5.06799"
     style="fill:#ffffff;fill-opacity:0.25;fill-rule:nonzero;stroke:none;stroke-width:0.399999"
     id="path1790" />
  <path
     d="m 475.7839,477.26001 c 1.4121,1.38399 3.6801,1.35999 5.064,-0.0519 1.3842,-1.41201 1.3602,-3.68001 -0.051,-5.06802 -1.4121,-1.38399 -3.6801,-1.35999 -5.064,0.0561 -1.3839,1.41201 -1.3641,3.68001 0.051,5.064"
     style="fill:#ffffff;fill-opacity:0.25;fill-rule:nonzero;stroke:none;stroke-width:0.399999"
     id="path1792" />
  <path
     d="m 483.6799,523.00002 c 1.9722,-0.1041 3.492,-1.79199 3.384,-3.768 -0.105,-1.97199 -1.7919,-3.492 -3.768,-3.384 -1.9719,0.1041 -3.492,1.79199 -3.384,3.768 0.105,1.97199 1.7922,3.492 3.768,3.384"
     style="fill:#ffffff;fill-opacity:0.25;fill-rule:nonzero;stroke:none;stroke-width:0.399999"
     id="path1794" />
  <path
     d="m 482.008,411.62001 c 1.4121,1.38399 3.6801,1.35999 5.064,-0.0519 1.3839,-1.416 1.3599,-3.684 -0.051,-5.064 -1.416,-1.38402 -3.6801,-1.36401 -5.0682,0.048 -1.3839,1.416 -1.3599,3.684 0.057,5.06799"
     style="fill:#ffffff;fill-opacity:0.25;fill-rule:nonzero;stroke:none;stroke-width:0.399999"
     id="path1796" />
  <g
     transform="matrix(5.6,1.5320861,-1.5320861,5.6,1427.3753,-342.84237)"
     id="use9385"
     style="fill:#7fa7ca;fill-opacity:1">
    <path
       d="m -70.999999,118 0.708122,1.79188 L -68.5,120.5 -70.291877,121.20812 -70.999999,123 -71.708122,121.20812 -73.5,120.5 l 1.791878,-0.70812 z"
       id="path10536"
       style="display:inline;overflow:visible;opacity:0.2;fill-rule:evenodd;stroke:none;stroke-width:4;stroke-linecap:butt;stroke-linejoin:miter;stroke-miterlimit:4;stroke-dashoffset:0;stroke-opacity:1;marker:none;marker-start:none;marker-mid:none;marker-end:none;enable-background:accumulate" />
    <path
       d="m -69.653643,120.5 c 0,0.74319 -0.603167,1.34636 -1.346356,1.34636 -0.743189,0 -1.346357,-0.60317 -1.346357,-1.34636 0,-0.74319 0.603168,-1.34636 1.346357,-1.34636 0.743189,0 1.346356,0.60317 1.346356,1.34636 z"
       id="path10538"
       style="display:inline;overflow:visible;opacity:0.3;fill-rule:evenodd;stroke:none;stroke-width:4;stroke-linecap:butt;stroke-linejoin:miter;stroke-miterlimit:4;stroke-dashoffset:0;stroke-opacity:1;marker:none;marker-start:none;marker-mid:none;marker-end:none;enable-background:accumulate" />
    <path
       d="m -71.956621,120.5 c 0,0.52806 0.428567,0.95662 0.956622,0.95662 0.528055,0 0.956622,-0.42856 0.956622,-0.95662 0,-0.52806 -0.428567,-0.95662 -0.956622,-0.95662 -0.528055,0 -0.956622,0.42856 -0.956622,0.95662 z"
       id="path10540"
       style="display:inline;overflow:visible;fill-rule:evenodd;stroke:none;stroke-width:4;stroke-linecap:butt;stroke-linejoin:miter;stroke-miterlimit:4;stroke-dashoffset:0;stroke-opacity:1;marker:none;marker-start:none;marker-mid:none;marker-end:none;enable-background:accumulate" />
  </g>
  <g
     transform="matrix(8.4,5.5447179,-5.5447179,8.4,2014.0447,-366.05615)"
     id="use9385-3"
     style="fill:#7fa7ca;fill-opacity:1">
    <path
       d="m -70.999999,118 0.708122,1.79188 L -68.5,120.5 -70.291877,121.20812 -70.999999,123 -71.708122,121.20812 -73.5,120.5 l 1.791878,-0.70812 z"
       id="path10536-3"
       style="display:inline;overflow:visible;opacity:0.2;fill-rule:evenodd;stroke:none;stroke-width:4;stroke-linecap:butt;stroke-linejoin:miter;stroke-miterlimit:4;stroke-dashoffset:0;stroke-opacity:1;marker:none;marker-start:none;marker-mid:none;marker-end:none;enable-background:accumulate" />
    <path
       d="m -69.653643,120.5 c 0,0.74319 -0.603167,1.34636 -1.346356,1.34636 -0.743189,0 -1.346357,-0.60317 -1.346357,-1.34636 0,-0.74319 0.603168,-1.34636 1.346357,-1.34636 0.743189,0 1.346356,0.60317 1.346356,1.34636 z"
       id="path10538-3"
       style="display:inline;overflow:visible;opacity:0.3;fill-rule:evenodd;stroke:none;stroke-width:4;stroke-linecap:butt;stroke-linejoin:miter;stroke-miterlimit:4;stroke-dashoffset:0;stroke-opacity:1;marker:none;marker-start:none;marker-mid:none;marker-end:none;enable-background:accumulate" />
    <path
       d="m -71.956621,120.5 c 0,0.52806 0.428567,0.95662 0.956622,0.95662 0.528055,0 0.956622,-0.42856 0.956622,-0.95662 0,-0.52806 -0.428567,-0.95662 -0.956622,-0.95662 -0.528055,0 -0.956622,0.42856 -0.956622,0.95662 z"
       id="path10540-7"
       style="display:inline;overflow:visible;fill-rule:evenodd;stroke:none;stroke-width:4;stroke-linecap:butt;stroke-linejoin:miter;stroke-miterlimit:4;stroke-dashoffset:0;stroke-opacity:1;marker:none;marker-start:none;marker-mid:none;marker-end:none;enable-background:accumulate" />
  </g>
  <g
     transform="matrix(8.8,-3.9191617,3.9191617,8.8,731.17379,-1134.2765)"
     id="use9385-8"
     style="fill:#7fa7ca;fill-opacity:1">
    <path
       d="m -70.999999,118 0.708122,1.79188 L -68.5,120.5 -70.291877,121.20812 -70.999999,123 -71.708122,121.20812 -73.5,120.5 l 1.791878,-0.70812 z"
       id="path10536-1"
       style="display:inline;overflow:visible;opacity:0.2;fill-rule:evenodd;stroke:none;stroke-width:4;stroke-linecap:butt;stroke-linejoin:miter;stroke-miterlimit:4;stroke-dashoffset:0;stroke-opacity:1;marker:none;marker-start:none;marker-mid:none;marker-end:none;enable-background:accumulate" />
    <path
       d="m -69.653643,120.5 c 0,0.74319 -0.603167,1.34636 -1.346356,1.34636 -0.743189,0 -1.346357,-0.60317 -1.346357,-1.34636 0,-0.74319 0.603168,-1.34636 1.346357,-1.34636 0.743189,0 1.346356,0.60317 1.346356,1.34636 z"
       id="path10538-6"
       style="display:inline;overflow:visible;opacity:0.3;fill-rule:evenodd;stroke:none;stroke-width:4;stroke-linecap:butt;stroke-linejoin:miter;stroke-miterlimit:4;stroke-dashoffset:0;stroke-opacity:1;marker:none;marker-start:none;marker-mid:none;marker-end:none;enable-background:accumulate" />
    <path
       d="m -71.956621,120.5 c 0,0.52806 0.428567,0.95662 0.956622,0.95662 0.528055,0 0.956622,-0.42856 0.956622,-0.95662 0,-0.52806 -0.428567,-0.95662 -0.956622,-0.95662 -0.528055,0 -0.956622,0.42856 -0.956622,0.95662 z"
       id="path10540-4"
       style="display:inline;overflow:visible;fill-rule:evenodd;stroke:none;stroke-width:4;stroke-linecap:butt;stroke-linejoin:miter;stroke-miterlimit:4;stroke-dashoffset:0;stroke-opacity:1;marker:none;marker-start:none;marker-mid:none;marker-end:none;enable-background:accumulate" />
  </g>
  <g
     transform="matrix(4.5167725,7.6,-7.6,4.5167725,1715.449,430.29208)"
     id="use9385-7"
     style="fill:#7fa7ca;fill-opacity:1">
    <path
       d="m -70.999999,118 0.708122,1.79188 L -68.5,120.5 -70.291877,121.20812 -70.999999,123 -71.708122,121.20812 -73.5,120.5 l 1.791878,-0.70812 z"
       id="path10536-14"
       style="display:inline;overflow:visible;opacity:0.2;fill-rule:evenodd;stroke:none;stroke-width:4;stroke-linecap:butt;stroke-linejoin:miter;stroke-miterlimit:4;stroke-dashoffset:0;stroke-opacity:1;marker:none;marker-start:none;marker-mid:none;marker-end:none;enable-background:accumulate" />
    <path
       d="m -69.653643,120.5 c 0,0.74319 -0.603167,1.34636 -1.346356,1.34636 -0.743189,0 -1.346357,-0.60317 -1.346357,-1.34636 0,-0.74319 0.603168,-1.34636 1.346357,-1.34636 0.743189,0 1.346356,0.60317 1.346356,1.34636 z"
       id="path10538-1"
       style="display:inline;overflow:visible;opacity:0.3;fill-rule:evenodd;stroke:none;stroke-width:4;stroke-linecap:butt;stroke-linejoin:miter;stroke-miterlimit:4;stroke-dashoffset:0;stroke-opacity:1;marker:none;marker-start:none;marker-mid:none;marker-end:none;enable-background:accumulate" />
    <path
       d="m -71.956621,120.5 c 0,0.52806 0.428567,0.95662 0.956622,0.95662 0.528055,0 0.956622,-0.42856 0.956622,-0.95662 0,-0.52806 -0.428567,-0.95662 -0.956622,-0.95662 -0.528055,0 -0.956622,0.42856 -0.956622,0.95662 z"
       id="path10540-1"
       style="display:inline;overflow:visible;fill-rule:evenodd;stroke:none;stroke-width:4;stroke-linecap:butt;stroke-linejoin:miter;stroke-miterlimit:4;stroke-dashoffset:0;stroke-opacity:1;marker:none;marker-start:none;marker-mid:none;marker-end:none;enable-background:accumulate" />
  </g>
  <g
     transform="matrix(5.5105844,2.3734909,-2.3734909,5.5105844,1156.105,0.7005403)"
     id="use9385-1"
     style="fill:#7fa7ca;fill-opacity:1">
    <path
       d="m -70.999999,118 0.708122,1.79188 L -68.5,120.5 -70.291877,121.20812 -70.999999,123 -71.708122,121.20812 -73.5,120.5 l 1.791878,-0.70812 z"
       id="path10536-17"
       style="display:inline;overflow:visible;opacity:0.2;fill-rule:evenodd;stroke:none;stroke-width:4;stroke-linecap:butt;stroke-linejoin:miter;stroke-miterlimit:4;stroke-dashoffset:0;stroke-opacity:1;marker:none;marker-start:none;marker-mid:none;marker-end:none;enable-background:accumulate" />
    <path
       d="m -69.653643,120.5 c 0,0.74319 -0.603167,1.34636 -1.346356,1.34636 -0.743189,0 -1.346357,-0.60317 -1.346357,-1.34636 0,-0.74319 0.603168,-1.34636 1.346357,-1.34636 0.743189,0 1.346356,0.60317 1.346356,1.34636 z"
       id="path10538-2"
       style="display:inline;overflow:visible;opacity:0.3;fill-rule:evenodd;stroke:none;stroke-width:4;stroke-linecap:butt;stroke-linejoin:miter;stroke-miterlimit:4;stroke-dashoffset:0;stroke-opacity:1;marker:none;marker-start:none;marker-mid:none;marker-end:none;enable-background:accumulate" />
    <path
       d="m -71.956621,120.5 c 0,0.52806 0.428567,0.95662 0.956622,0.95662 0.528055,0 0.956622,-0.42856 0.956622,-0.95662 0,-0.52806 -0.428567,-0.95662 -0.956622,-0.95662 -0.528055,0 -0.956622,0.42856 -0.956622,0.95662 z"
       id="path10540-9"
       style="display:inline;overflow:visible;fill-rule:evenodd;stroke:none;stroke-width:4;stroke-linecap:butt;stroke-linejoin:miter;stroke-miterlimit:4;stroke-dashoffset:0;stroke-opacity:1;marker:none;marker-start:none;marker-mid:none;marker-end:none;enable-background:accumulate" />
  </g>
  <g
     transform="matrix(4.6,0,0,4.6,823.16932,-21.794563)"
     id="use9385-6"
     style="fill:#7fa7ca;fill-opacity:1">
    <path
       d="m -70.999999,118 0.708122,1.79188 L -68.5,120.5 -70.291877,121.20812 -70.999999,123 -71.708122,121.20812 -73.5,120.5 l 1.791878,-0.70812 z"
       id="path10536-9"
       style="display:inline;overflow:visible;opacity:0.2;fill-rule:evenodd;stroke:none;stroke-width:4;stroke-linecap:butt;stroke-linejoin:miter;stroke-miterlimit:4;stroke-dashoffset:0;stroke-opacity:1;marker:none;marker-start:none;marker-mid:none;marker-end:none;enable-background:accumulate" />
    <path
       d="m -69.653643,120.5 c 0,0.74319 -0.603167,1.34636 -1.346356,1.34636 -0.743189,0 -1.346357,-0.60317 -1.346357,-1.34636 0,-0.74319 0.603168,-1.34636 1.346357,-1.34636 0.743189,0 1.346356,0.60317 1.346356,1.34636 z"
       id="path10538-9"
       style="display:inline;overflow:visible;opacity:0.3;fill-rule:evenodd;stroke:none;stroke-width:4;stroke-linecap:butt;stroke-linejoin:miter;stroke-miterlimit:4;stroke-dashoffset:0;stroke-opacity:1;marker:none;marker-start:none;marker-mid:none;marker-end:none;enable-background:accumulate" />
    <path
       d="m -71.956621,120.5 c 0,0.52806 0.428567,0.95662 0.956622,0.95662 0.528055,0 0.956622,-0.42856 0.956622,-0.95662 0,-0.52806 -0.428567,-0.95662 -0.956622,-0.95662 -0.528055,0 -0.956622,0.42856 -0.956622,0.95662 z"
       id="path10540-91"
       style="display:inline;overflow:visible;fill-rule:evenodd;stroke:none;stroke-width:4;stroke-linecap:butt;stroke-linejoin:miter;stroke-miterlimit:4;stroke-dashoffset:0;stroke-opacity:1;marker:none;marker-start:none;marker-mid:none;marker-end:none;enable-background:accumulate" />
  </g>
</svg>
