<?xml version="1.0" encoding="UTF-8" standalone="no"?>
<svg
   viewBox="0 0 1280 1280"
   version="1.1"
   id="svg9569"
   xmlns="http://www.w3.org/2000/svg"
   xmlns:svg="http://www.w3.org/2000/svg">
  <defs
     id="defs9573" />
  <path
     d="m 795.84604,205.68801 c -1.62801,-1.00398 -2.088,-3.01998 -1.02,-4.49199 1.06398,-1.476 3.24798,-1.86 4.87599,-0.852 1.62801,1.008 2.08401,3.024 1.02,4.49601 -1.06401,1.476 -3.24801,1.85598 -4.87599,0.84798"
     style="fill:#ffffff;fill-opacity:0.25;fill-rule:nonzero;stroke:none;stroke-width:0.399999"
     id="path1176" />
  <path
     d="m 782.01004,215.08002 c -1.62801,-1.008 -2.08401,-3.02001 -1.01601,-4.49601 1.06401,-1.476 3.24801,-1.85598 4.87599,-0.84798 1.62801,1.008 2.08401,3.01998 1.02,4.49598 -1.06398,1.476 -3.24798,1.85202 -4.87998,0.84801"
     style="fill:#ffffff;fill-opacity:0.25;fill-rule:nonzero;stroke:none;stroke-width:0.399999"
     id="path1178" />
  <path
     d="m 767.95003,224.62401 c -1.62801,-1.008 -2.08401,-3.01998 -1.02,-4.49598 1.068,-1.476 3.24801,-1.85601 4.87599,-0.84801 1.62801,1.008 2.088,3.02001 1.02,4.49601 -1.06398,1.476 -3.24798,1.85598 -4.87599,0.84798"
     style="fill:#ffffff;fill-opacity:0.25;fill-rule:nonzero;stroke:none;stroke-width:0.399999"
     id="path1180" />
  <path
     d="m 754.49803,233.75202 c -1.62801,-1.00401 -2.08401,-3.02001 -1.02,-4.49199 1.06398,-1.476 3.24798,-1.85601 4.87599,-0.852 1.62801,1.008 2.08401,3.024 1.02,4.49598 -1.06401,1.48002 -3.24801,1.85601 -4.87599,0.84801"
     style="fill:#ffffff;fill-opacity:0.25;fill-rule:nonzero;stroke:none;stroke-width:0.399999"
     id="path1182" />
  <path
     d="m 741.13003,242.82801 c -1.62801,-1.008 -2.08401,-3.01998 -1.02,-4.49598 1.06398,-1.476 3.24798,-1.85601 4.87599,-0.84801 1.62801,1.008 2.088,3.02001 1.02,4.49601 -1.06401,1.476 -3.24801,1.85598 -4.87599,0.84798"
     style="fill:#ffffff;fill-opacity:0.25;fill-rule:nonzero;stroke:none;stroke-width:0.399999"
     id="path1184" />
  <path
     d="m 727.29802,252.21603 c -1.632,-1.00401 -2.08401,-3.02001 -1.02,-4.49202 1.06401,-1.47999 3.24801,-1.85598 4.87599,-0.852 1.62801,1.008 2.08401,3.024 1.02,4.49601 -1.06398,1.476 -3.24798,1.85601 -4.87599,0.84801"
     style="fill:#ffffff;fill-opacity:0.25;fill-rule:nonzero;stroke:none;stroke-width:0.399999"
     id="path1186" />
  <path
     d="m 712.28602,262.40403 c -1.62399,-1.00401 -2.08401,-3.02001 -1.02,-4.49601 1.06401,-1.476 3.24801,-1.85199 4.88001,-0.84399 1.62798,1.00398 2.08398,3.01599 1.01598,4.49199 -1.06398,1.476 -3.24798,1.85601 -4.87599,0.84801"
     style="fill:#ffffff;fill-opacity:0.25;fill-rule:nonzero;stroke:none;stroke-width:0.399999"
     id="path1188" />
  <path
     d="m 697.14202,272.68803 c -1.632,-1.008 -2.088,-3.024 -1.02399,-4.49601 1.068,-1.476 3.252,-1.85601 4.87998,-0.84801 1.62801,1.00401 2.08401,3.02001 1.02,4.49202 -1.068,1.47999 -3.252,1.86 -4.87599,0.852"
     style="fill:#ffffff;fill-opacity:0.25;fill-rule:nonzero;stroke:none;stroke-width:0.399999"
     id="path1190" />
  <path
     d="m 546.202,308.50401 c -0.288,-1.81599 1.07202,-3.48 3.04401,-3.71199 1.97601,-0.2319 3.816,1.05201 4.104,2.868 0.2961,1.82001 -1.068,3.48399 -3.03999,3.71601 -1.97601,0.2319 -3.81201,-1.056 -4.10802,-2.87202"
     style="fill:#ffffff;fill-opacity:0.25;fill-rule:nonzero;stroke:none;stroke-width:0.399999"
     id="path1192" />
  <path
     d="m 528.73402,305.01603 c -0.2961,-1.81602 1.068,-3.48 3.04398,-3.71202 1.97202,-0.2361 3.80802,1.05201 4.104,2.868 0.288,1.82001 -1.07199,3.48 -3.048,3.71202 -1.97199,0.2361 -3.81198,-1.05201 -4.09998,-2.868"
     style="fill:#ffffff;fill-opacity:0.25;fill-rule:nonzero;stroke:none;stroke-width:0.399999"
     id="path1194" />
  <path
     d="m 510.97,301.46802 c -0.2919,-1.82001 1.07202,-3.48 3.04401,-3.71199 1.97601,-0.2319 3.81201,1.05198 4.104,2.87199 0.2961,1.81599 -1.07199,3.47601 -3.04401,3.708 -1.97598,0.2319 -3.81198,-1.04799 -4.104,-2.868"
     style="fill:#ffffff;fill-opacity:0.25;fill-rule:nonzero;stroke:none;stroke-width:0.399999"
     id="path1196" />
  <path
     d="m 493.98202,298.07601 c -0.2961,-1.81998 1.068,-3.48 3.04398,-3.71199 1.97202,-0.2319 3.80802,1.05201 4.104,2.868 0.288,1.82001 -1.07199,3.48 -3.048,3.71199 -1.97199,0.2319 -3.81198,-1.05198 -4.09998,-2.868"
     style="fill:#ffffff;fill-opacity:0.25;fill-rule:nonzero;stroke:none;stroke-width:0.399999"
     id="path1198" />
  <path
     d="m 477.094,294.70401 c -0.2919,-1.81599 1.07202,-3.48 3.048,-3.71199 1.97202,-0.2319 3.80802,1.05201 4.104,2.868 0.288,1.82001 -1.07598,3.48 -3.048,3.71199 -1.97199,0.2361 -3.81198,-1.05198 -4.104,-2.868"
     style="fill:#ffffff;fill-opacity:0.25;fill-rule:nonzero;stroke:none;stroke-width:0.399999"
     id="path1200" />
  <path
     d="m 459.622,291.21603 c -0.2919,-1.82001 1.07202,-3.48402 3.04401,-3.71601 1.97601,-0.2319 3.81201,1.056 4.104,2.87199 0.2919,1.81602 -1.07199,3.48 -3.04401,3.71202 -1.97598,0.2319 -3.81198,-1.05201 -4.104,-2.868"
     style="fill:#ffffff;fill-opacity:0.25;fill-rule:nonzero;stroke:none;stroke-width:0.399999"
     id="path1202" />
  <path
     d="m 440.662,287.42802 c -0.288,-1.81599 1.07202,-3.48 3.048,-3.71199 1.97202,-0.2319 3.80802,1.05198 4.104,2.868 0.2919,1.81599 -1.07199,3.48 -3.048,3.71598 -1.97199,0.2319 -3.80799,-1.056 -4.104,-2.87199"
     style="fill:#ffffff;fill-opacity:0.25;fill-rule:nonzero;stroke:none;stroke-width:0.399999"
     id="path1204" />
  <path
     d="m 835.98604,178.24803 c -1.62801,-1.008 -2.08401,-3.01602 -1.02,-4.49601 1.068,-1.476 3.252,-1.85199 4.87599,-0.84801 1.632,1.008 2.088,3.02001 1.02,4.49601 -1.06401,1.476 -3.24801,1.85601 -4.87599,0.84801"
     style="fill:#ffffff;fill-opacity:0.25;fill-rule:nonzero;stroke:none;stroke-width:0.399999"
     id="path1206" />
  <path
     d="m 821.91004,187.80402 c -1.62801,-1.008 -2.08401,-3.02001 -1.02,-4.49601 1.06398,-1.476 3.24798,-1.85598 4.87599,-0.84798 1.632,1.008 2.08401,3.01998 1.02,4.49598 -1.06401,1.476 -3.24801,1.85601 -4.87599,0.84801"
     style="fill:#ffffff;fill-opacity:0.25;fill-rule:nonzero;stroke:none;stroke-width:0.399999"
     id="path1208" />
  <path
     d="m 808.84204,196.67601 c -1.62801,-1.008 -2.088,-3.024 -1.02,-4.49598 1.06398,-1.476 3.24798,-1.85601 4.87599,-0.84801 1.62801,1.00401 2.08401,3.02001 1.02,4.49601 -1.06401,1.476 -3.24801,1.85199 -4.87599,0.84798"
     style="fill:#ffffff;fill-opacity:0.25;fill-rule:nonzero;stroke:none;stroke-width:0.399999"
     id="path1210" />
  <path
     d="m 655.40203,298.42401 c -1.056,-1.572 -0.53601,-3.60798 1.15599,-4.548 1.692,-0.936 3.924,-0.42 4.98,1.152 1.05201,1.57602 0.53601,3.612 -1.15599,4.548 -1.69602,0.94002 -3.924,0.42402 -4.98,-1.152"
     style="fill:#ffffff;fill-opacity:0.25;fill-rule:nonzero;stroke:none;stroke-width:0.399999"
     id="path1212" />
  <path
     d="m 637.61803,301.66401 c -1.05201,-1.572 -0.53601,-3.60798 1.15998,-4.548 1.692,-0.936 3.92001,-0.42 4.97601,1.152 1.056,1.57602 0.53601,3.612 -1.15599,4.548 -1.692,0.94002 -3.924,0.42402 -4.98,-1.152"
     style="fill:#ffffff;fill-opacity:0.25;fill-rule:nonzero;stroke:none;stroke-width:0.399999"
     id="path1214" />
  <path
     d="m 619.91401,304.89603 c -1.056,-1.57602 -0.54,-3.612 1.15602,-4.55202 1.692,-0.936 3.91998,-0.42399 4.97598,1.152 1.056,1.572 0.53601,3.612 -1.15599,4.548 -1.69599,0.936 -3.924,0.42402 -4.97601,-1.14798"
     style="fill:#ffffff;fill-opacity:0.25;fill-rule:nonzero;stroke:none;stroke-width:0.399999"
     id="path1216" />
  <path
     d="m 603.47401,307.88802 c -1.05999,-1.572 -0.54,-3.60801 1.15602,-4.548 1.692,-0.93999 3.91998,-0.42399 4.97598,1.152 1.056,1.572 0.53601,3.612 -1.15599,4.548 -1.69599,0.93999 -3.924,0.42399 -4.97601,-1.152"
     style="fill:#ffffff;fill-opacity:0.25;fill-rule:nonzero;stroke:none;stroke-width:0.399999"
     id="path1218" />
  <path
     d="m 543.646,394.93602 c -1.92,-0.30399 -3.24399,-1.97598 -2.95599,-3.73599 0.2919,-1.76001 2.088,-2.94399 4.01199,-2.64 1.92402,0.3 3.24801,1.97199 2.95602,3.73599 -0.2919,1.76001 -2.08401,2.94 -4.01202,2.64"
     style="fill:#ffffff;fill-opacity:0.25;fill-rule:nonzero;stroke:none;stroke-width:0.399999"
     id="path1222" />
  <path
     d="m 535.43401,408.83604 c -1.92399,-0.30402 -3.24801,-1.97601 -2.95599,-3.73602 0.2919,-1.764 2.088,-2.94399 4.01199,-2.64 1.92399,0.3 3.24801,1.97202 2.95599,3.732 -0.2919,1.764 -2.088,2.94402 -4.01199,2.64402"
     style="fill:#ffffff;fill-opacity:0.25;fill-rule:nonzero;stroke:none;stroke-width:0.399999"
     id="path1224" />
  <path
     d="m 527.08201,422.96403 c -1.92,-0.30399 -3.24801,-1.97601 -2.952,-3.73599 0.288,-1.76001 2.08401,-2.94402 4.008,-2.64 1.92399,0.30399 3.24801,1.97598 2.95599,3.732 -0.2919,1.764 -2.088,2.94798 -4.01199,2.64399"
     style="fill:#ffffff;fill-opacity:0.25;fill-rule:nonzero;stroke:none;stroke-width:0.399999"
     id="path1226" />
  <path
     d="m 519.09802,436.48002 c -1.92402,-0.30399 -3.24801,-1.97598 -2.95602,-3.73599 0.288,-1.76001 2.088,-2.94399 4.01202,-2.64 1.92399,0.3 3.24399,1.97199 2.952,3.73599 -0.288,1.76001 -2.088,2.94402 -4.008,2.64"
     style="fill:#ffffff;fill-opacity:0.25;fill-rule:nonzero;stroke:none;stroke-width:0.399999"
     id="path1228" />
  <path
     d="m 511.162,449.91204 c -1.92399,-0.30402 -3.24798,-1.97601 -2.95998,-3.73602 0.2961,-1.75998 2.088,-2.94399 4.01199,-2.64 1.92399,0.3 3.24801,1.97601 2.95599,3.73602 -0.2919,1.75998 -2.088,2.94399 -4.008,2.64"
     style="fill:#ffffff;fill-opacity:0.25;fill-rule:nonzero;stroke:none;stroke-width:0.399999"
     id="path1230" />
  <path
     d="m 502.94602,463.81203 c -1.92402,-0.30399 -3.24801,-1.97601 -2.95602,-3.73599 0.2919,-1.76001 2.088,-2.94402 4.008,-2.64 1.92402,0.3 3.24801,1.97199 2.96001,3.73599 -0.2961,1.76001 -2.088,2.94399 -4.01199,2.64"
     style="fill:#ffffff;fill-opacity:0.25;fill-rule:nonzero;stroke:none;stroke-width:0.399999"
     id="path1232" />
  <path
     d="m 494.03401,478.89603 c -1.92399,-0.30399 -3.24801,-1.98 -2.95599,-3.74001 0.2919,-1.75998 2.08398,-2.94 4.008,-2.64 1.92399,0.3 3.24798,1.97601 2.95998,3.73602 -0.2961,1.75998 -2.088,2.94399 -4.01199,2.64399"
     style="fill:#ffffff;fill-opacity:0.25;fill-rule:nonzero;stroke:none;stroke-width:0.399999"
     id="path1234" />
  <path
     d="m 485.038,494.11203 c -1.92399,-0.3 -3.24399,-1.97199 -2.95599,-3.732 0.2919,-1.764 2.088,-2.94801 4.01199,-2.64399 1.92402,0.30399 3.24801,1.97598 2.95602,3.73599 -0.2919,1.76001 -2.088,2.94399 -4.01202,2.64"
     style="fill:#ffffff;fill-opacity:0.25;fill-rule:nonzero;stroke:none;stroke-width:0.399999"
     id="path1236" />
  <path
     d="m 567.39403,354.42402 c -1.92402,-0.30399 -3.24402,-1.97598 -2.95602,-3.73599 0.2919,-1.764 2.088,-2.94399 4.01202,-2.64 1.92399,0.3 3.24798,1.97199 2.95599,3.732 -0.2919,1.764 -2.088,2.94801 -4.01199,2.64399"
     style="fill:#ffffff;fill-opacity:0.25;fill-rule:nonzero;stroke:none;stroke-width:0.399999"
     id="path1238" />
  <path
     d="m 559.03801,368.56803 c -1.92399,-0.30399 -3.24801,-1.97601 -2.96001,-3.73599 0.2961,-1.764 2.088,-2.94402 4.01202,-2.64 1.92399,0.3 3.24798,1.97199 2.95599,3.732 -0.2919,1.764 -2.08401,2.94399 -4.008,2.64399"
     style="fill:#ffffff;fill-opacity:0.25;fill-rule:nonzero;stroke:none;stroke-width:0.399999"
     id="path1240" />
  <path
     d="m 551.278,381.70002 c -1.92399,-0.30399 -3.24798,-1.97598 -2.95599,-3.73599 0.2919,-1.76001 2.088,-2.94399 4.008,-2.64399 1.92399,0.30399 3.24801,1.97598 2.95599,3.73998 -0.288,1.75602 -2.088,2.94 -4.008,2.64"
     style="fill:#ffffff;fill-opacity:0.25;fill-rule:nonzero;stroke:none;stroke-width:0.399999"
     id="path1242" />
  <g
     transform="matrix(8.3446569,7.4930935,-7.4930935,8.3446569,2076.2842,-154.80262)"
     id="use9385"
     style="fill:#7fa7ca;fill-opacity:1">
    <path
       d="m -70.999999,118 0.708122,1.79188 L -68.5,120.5 -70.291877,121.20812 -70.999999,123 -71.708122,121.20812 -73.5,120.5 l 1.791878,-0.70812 z"
       id="path10536"
       style="display:inline;overflow:visible;opacity:0.2;fill-rule:evenodd;stroke:none;stroke-width:4;stroke-linecap:butt;stroke-linejoin:miter;stroke-miterlimit:4;stroke-dashoffset:0;stroke-opacity:1;marker:none;marker-start:none;marker-mid:none;marker-end:none;enable-background:accumulate" />
    <path
       d="m -69.653643,120.5 c 0,0.74319 -0.603167,1.34636 -1.346356,1.34636 -0.743189,0 -1.346357,-0.60317 -1.346357,-1.34636 0,-0.74319 0.603168,-1.34636 1.346357,-1.34636 0.743189,0 1.346356,0.60317 1.346356,1.34636 z"
       id="path10538"
       style="display:inline;overflow:visible;opacity:0.3;fill-rule:evenodd;stroke:none;stroke-width:4;stroke-linecap:butt;stroke-linejoin:miter;stroke-miterlimit:4;stroke-dashoffset:0;stroke-opacity:1;marker:none;marker-start:none;marker-mid:none;marker-end:none;enable-background:accumulate" />
    <path
       d="m -71.956621,120.5 c 0,0.52806 0.428567,0.95662 0.956622,0.95662 0.528055,0 0.956622,-0.42856 0.956622,-0.95662 0,-0.52806 -0.428567,-0.95662 -0.956622,-0.95662 -0.528055,0 -0.956622,0.42856 -0.956622,0.95662 z"
       id="path10540"
       style="display:inline;overflow:visible;fill-rule:evenodd;stroke:none;stroke-width:4;stroke-linecap:butt;stroke-linejoin:miter;stroke-miterlimit:4;stroke-dashoffset:0;stroke-opacity:1;marker:none;marker-start:none;marker-mid:none;marker-end:none;enable-background:accumulate" />
  </g>
  <g
     transform="matrix(6.1506359,-1.7690898,1.7690898,6.1506359,648.14336,-586.42998)"
     id="use9385-0"
     style="fill:#7fa7ca;fill-opacity:1">
    <path
       d="m -70.999999,118 0.708122,1.79188 L -68.5,120.5 -70.291877,121.20812 -70.999999,123 -71.708122,121.20812 -73.5,120.5 l 1.791878,-0.70812 z"
       id="path10536-6"
       style="display:inline;overflow:visible;opacity:0.2;fill-rule:evenodd;stroke:none;stroke-width:4;stroke-linecap:butt;stroke-linejoin:miter;stroke-miterlimit:4;stroke-dashoffset:0;stroke-opacity:1;marker:none;marker-start:none;marker-mid:none;marker-end:none;enable-background:accumulate" />
    <path
       d="m -69.653643,120.5 c 0,0.74319 -0.603167,1.34636 -1.346356,1.34636 -0.743189,0 -1.346357,-0.60317 -1.346357,-1.34636 0,-0.74319 0.603168,-1.34636 1.346357,-1.34636 0.743189,0 1.346356,0.60317 1.346356,1.34636 z"
       id="path10538-6"
       style="display:inline;overflow:visible;opacity:0.3;fill-rule:evenodd;stroke:none;stroke-width:4;stroke-linecap:butt;stroke-linejoin:miter;stroke-miterlimit:4;stroke-dashoffset:0;stroke-opacity:1;marker:none;marker-start:none;marker-mid:none;marker-end:none;enable-background:accumulate" />
    <path
       d="m -71.956621,120.5 c 0,0.52806 0.428567,0.95662 0.956622,0.95662 0.528055,0 0.956622,-0.42856 0.956622,-0.95662 0,-0.52806 -0.428567,-0.95662 -0.956622,-0.95662 -0.528055,0 -0.956622,0.42856 -0.956622,0.95662 z"
       id="path10540-8"
       style="display:inline;overflow:visible;fill-rule:evenodd;stroke:none;stroke-width:4;stroke-linecap:butt;stroke-linejoin:miter;stroke-miterlimit:4;stroke-dashoffset:0;stroke-opacity:1;marker:none;marker-start:none;marker-mid:none;marker-end:none;enable-background:accumulate" />
  </g>
  <g
     transform="matrix(7.6,0,0,7.6,1219.1925,-632.01986)"
     id="use9385-7"
     style="fill:#7fa7ca;fill-opacity:1">
    <path
       d="m -70.999999,118 0.708122,1.79188 L -68.5,120.5 -70.291877,121.20812 -70.999999,123 -71.708122,121.20812 -73.5,120.5 l 1.791878,-0.70812 z"
       id="path10536-65"
       style="display:inline;overflow:visible;opacity:0.2;fill-rule:evenodd;stroke:none;stroke-width:4;stroke-linecap:butt;stroke-linejoin:miter;stroke-miterlimit:4;stroke-dashoffset:0;stroke-opacity:1;marker:none;marker-start:none;marker-mid:none;marker-end:none;enable-background:accumulate" />
    <path
       d="m -69.653643,120.5 c 0,0.74319 -0.603167,1.34636 -1.346356,1.34636 -0.743189,0 -1.346357,-0.60317 -1.346357,-1.34636 0,-0.74319 0.603168,-1.34636 1.346357,-1.34636 0.743189,0 1.346356,0.60317 1.346356,1.34636 z"
       id="path10538-8"
       style="display:inline;overflow:visible;opacity:0.3;fill-rule:evenodd;stroke:none;stroke-width:4;stroke-linecap:butt;stroke-linejoin:miter;stroke-miterlimit:4;stroke-dashoffset:0;stroke-opacity:1;marker:none;marker-start:none;marker-mid:none;marker-end:none;enable-background:accumulate" />
    <path
       d="m -71.956621,120.5 c 0,0.52806 0.428567,0.95662 0.956622,0.95662 0.528055,0 0.956622,-0.42856 0.956622,-0.95662 0,-0.52806 -0.428567,-0.95662 -0.956622,-0.95662 -0.528055,0 -0.956622,0.42856 -0.956622,0.95662 z"
       id="path10540-7"
       style="display:inline;overflow:visible;fill-rule:evenodd;stroke:none;stroke-width:4;stroke-linecap:butt;stroke-linejoin:miter;stroke-miterlimit:4;stroke-dashoffset:0;stroke-opacity:1;marker:none;marker-start:none;marker-mid:none;marker-end:none;enable-background:accumulate" />
  </g>
  <g
     transform="matrix(8,1.3427031,-1.3427031,8,1590.4494,-707.5941)"
     id="use9385-3"
     style="fill:#7fa7ca;fill-opacity:1">
    <path
       d="m -70.999999,118 0.708122,1.79188 L -68.5,120.5 -70.291877,121.20812 -70.999999,123 -71.708122,121.20812 -73.5,120.5 l 1.791878,-0.70812 z"
       id="path10536-0"
       style="display:inline;overflow:visible;opacity:0.2;fill-rule:evenodd;stroke:none;stroke-width:4;stroke-linecap:butt;stroke-linejoin:miter;stroke-miterlimit:4;stroke-dashoffset:0;stroke-opacity:1;marker:none;marker-start:none;marker-mid:none;marker-end:none;enable-background:accumulate" />
    <path
       d="m -69.653643,120.5 c 0,0.74319 -0.603167,1.34636 -1.346356,1.34636 -0.743189,0 -1.346357,-0.60317 -1.346357,-1.34636 0,-0.74319 0.603168,-1.34636 1.346357,-1.34636 0.743189,0 1.346356,0.60317 1.346356,1.34636 z"
       id="path10538-4"
       style="display:inline;overflow:visible;opacity:0.3;fill-rule:evenodd;stroke:none;stroke-width:4;stroke-linecap:butt;stroke-linejoin:miter;stroke-miterlimit:4;stroke-dashoffset:0;stroke-opacity:1;marker:none;marker-start:none;marker-mid:none;marker-end:none;enable-background:accumulate" />
    <path
       d="m -71.956621,120.5 c 0,0.52806 0.428567,0.95662 0.956622,0.95662 0.528055,0 0.956622,-0.42856 0.956622,-0.95662 0,-0.52806 -0.428567,-0.95662 -0.956622,-0.95662 -0.528055,0 -0.956622,0.42856 -0.956622,0.95662 z"
       id="path10540-2"
       style="display:inline;overflow:visible;fill-rule:evenodd;stroke:none;stroke-width:4;stroke-linecap:butt;stroke-linejoin:miter;stroke-miterlimit:4;stroke-dashoffset:0;stroke-opacity:1;marker:none;marker-start:none;marker-mid:none;marker-end:none;enable-background:accumulate" />
  </g>
  <g
     transform="matrix(6,0,0,6,900.30026,-214.97793)"
     id="use9385-03"
     style="fill:#7fa7ca;fill-opacity:1">
    <path
       d="m -70.999999,118 0.708122,1.79188 L -68.5,120.5 -70.291877,121.20812 -70.999999,123 -71.708122,121.20812 -73.5,120.5 l 1.791878,-0.70812 z"
       id="path10536-1"
       style="display:inline;overflow:visible;opacity:0.2;fill-rule:evenodd;stroke:none;stroke-width:4;stroke-linecap:butt;stroke-linejoin:miter;stroke-miterlimit:4;stroke-dashoffset:0;stroke-opacity:1;marker:none;marker-start:none;marker-mid:none;marker-end:none;enable-background:accumulate" />
    <path
       d="m -69.653643,120.5 c 0,0.74319 -0.603167,1.34636 -1.346356,1.34636 -0.743189,0 -1.346357,-0.60317 -1.346357,-1.34636 0,-0.74319 0.603168,-1.34636 1.346357,-1.34636 0.743189,0 1.346356,0.60317 1.346356,1.34636 z"
       id="path10538-9"
       style="display:inline;overflow:visible;opacity:0.3;fill-rule:evenodd;stroke:none;stroke-width:4;stroke-linecap:butt;stroke-linejoin:miter;stroke-miterlimit:4;stroke-dashoffset:0;stroke-opacity:1;marker:none;marker-start:none;marker-mid:none;marker-end:none;enable-background:accumulate" />
    <path
       d="m -71.956621,120.5 c 0,0.52806 0.428567,0.95662 0.956622,0.95662 0.528055,0 0.956622,-0.42856 0.956622,-0.95662 0,-0.52806 -0.428567,-0.95662 -0.956622,-0.95662 -0.528055,0 -0.956622,0.42856 -0.956622,0.95662 z"
       id="path10540-6"
       style="display:inline;overflow:visible;fill-rule:evenodd;stroke:none;stroke-width:4;stroke-linecap:butt;stroke-linejoin:miter;stroke-miterlimit:4;stroke-dashoffset:0;stroke-opacity:1;marker:none;marker-start:none;marker-mid:none;marker-end:none;enable-background:accumulate" />
  </g>
</svg>
