<?xml version="1.0" encoding="UTF-8" standalone="no"?>
<svg
   viewBox="0 0 1280 1280"
   version="1.1"
   id="svg11466"
   xmlns="http://www.w3.org/2000/svg"
   xmlns:svg="http://www.w3.org/2000/svg">
  <defs
     id="defs11470" />
  <path
     d="m 554.58594,278.44 c -0.504,-1.51998 0.33201,-3.19998 1.86,-3.67998 1.53201,-0.52002 3.18,0.31998 3.68001,1.83999 0.504,1.56 -0.33201,3.20001 -1.86,3.68001 -1.53201,0.51999 -3.18,-0.32001 -3.68001,-1.84002"
     style="fill:#ffffff;fill-opacity:0.25;fill-rule:nonzero;stroke:none;stroke-width:0.399999"
     id="path1264" />
  <path
     d="m 497.73795,277 c -0.504,-1.51998 0.33201,-3.19998 1.86,-3.67998 1.53201,-0.52002 3.18,0.31998 3.68001,1.83999 0.504,1.56 -0.33201,3.20001 -1.86,3.68001 -1.53201,0.51999 -3.18,-0.32001 -3.68001,-1.84002"
     style="fill:#ffffff;fill-opacity:0.25;fill-rule:nonzero;stroke:none;stroke-width:0.399999"
     id="path1266" />
  <path
     d="m 483.36195,276.64 c -0.50001,-1.56 0.33201,-3.19998 1.86399,-3.67998 1.53201,-0.52002 3.18,0.31998 3.68001,1.83999 0.504,1.56 -0.33201,3.20001 -1.86,3.68001 -1.53201,0.51999 -3.18,-0.32001 -3.684,-1.84002"
     style="fill:#ffffff;fill-opacity:0.25;fill-rule:nonzero;stroke:none;stroke-width:0.399999"
     id="path1268" />
  <path
     d="m 467.76996,276.24001 c -0.50001,-1.52001 0.33198,-3.20001 1.86,-3.68001 1.53198,-0.51999 3.18,0.32001 3.684,1.84002 0.49998,1.56 -0.33201,3.19998 -1.86402,3.67998 -1.53198,0.52002 -3.18,-0.31998 -3.67998,-1.83999"
     style="fill:#ffffff;fill-opacity:0.25;fill-rule:nonzero;stroke:none;stroke-width:0.399999"
     id="path1270" />
  <path
     d="m 452.02995,275.84002 c -0.50001,-1.52001 0.33201,-3.20001 1.86399,-3.68001 1.53201,-0.51999 3.17601,0.32001 3.68001,1.83999 0.50001,1.56 -0.33201,3.20001 -1.86399,3.68001 -1.52802,0.51999 -3.17601,-0.32001 -3.68001,-1.83999"
     style="fill:#ffffff;fill-opacity:0.25;fill-rule:nonzero;stroke:none;stroke-width:0.399999"
     id="path1272" />
  <path
     d="m 407.46195,276.04 c -0.50001,-1.51998 0.33201,-3.19998 1.86399,-3.67998 1.52802,-0.52002 3.17601,0.31998 3.68001,1.83999 0.50001,1.56 -0.33201,3.20001 -1.86399,3.68001 -1.53201,0.51999 -3.17601,-0.32001 -3.68001,-1.84002"
     style="fill:#ffffff;fill-opacity:0.25;fill-rule:nonzero;stroke:none;stroke-width:0.399999"
     id="path1274" />
  <path
     d="m 581.77395,279.00001 c -0.49998,-1.56 0.33201,-3.20001 1.86402,-3.68001 1.53198,-0.51999 3.18,0.32001 3.67998,1.84002 0.504,1.51998 -0.33198,3.19998 -1.86399,3.67998 -1.52799,0.52002 -3.17601,-0.31998 -3.68001,-1.83999"
     style="fill:#ffffff;fill-opacity:0.25;fill-rule:nonzero;stroke:none;stroke-width:0.399999"
     id="path1276" />
  <path
     d="m 568.19796,278.64001 c -0.504,-1.52001 0.33198,-3.15999 1.86,-3.68001 1.53201,-0.51999 3.18,0.32001 3.68001,1.88001 0.504,1.52001 -0.32802,3.15999 -1.86,3.68001 -1.53201,0.48 -3.18,-0.36 -3.68001,-1.88001"
     style="fill:#ffffff;fill-opacity:0.25;fill-rule:nonzero;stroke:none;stroke-width:0.399999"
     id="path1278" />
  <path
     d="m 647.64195,525.56002 c 0.2361,-1.59999 1.716,-2.67999 3.312,-2.47998 1.59201,0.24 2.69601,1.71999 2.46,3.31998 -0.2319,1.60002 -1.716,2.68002 -3.30798,2.48001 -1.59201,-0.24 -2.69601,-1.71999 -2.46402,-3.32001"
     style="fill:#ffffff;fill-opacity:0.25;fill-rule:nonzero;stroke:none;stroke-width:0.399999"
     id="path1282" />
  <path
     d="m 634.94595,518.80003 c 0.2361,-1.56 1.716,-2.67999 3.30801,-2.43999 1.596,0.24 2.69601,1.71999 2.46399,3.31998 -0.2361,1.56 -1.716,2.68002 -3.312,2.44002 -1.59198,-0.24 -2.69598,-1.72002 -2.46,-3.32001"
     style="fill:#ffffff;fill-opacity:0.25;fill-rule:nonzero;stroke:none;stroke-width:0.399999"
     id="path1284" />
  <path
     d="m 622.03797,511.96003 c 0.2319,-1.59999 1.716,-2.67999 3.30798,-2.48001 1.59201,0.24 2.69601,1.72002 2.46402,3.32001 -0.2361,1.59999 -1.716,2.72001 -3.312,2.48001 -1.59201,-0.24 -2.69601,-1.72002 -2.46,-3.32001"
     style="fill:#ffffff;fill-opacity:0.25;fill-rule:nonzero;stroke:none;stroke-width:0.399999"
     id="path1286" />
  <path
     d="m 609.68997,505.40002 c 0.2319,-1.59999 1.716,-2.67999 3.30798,-2.43999 1.596,0.2001 2.69601,1.68 2.46,3.27999 -0.2319,1.60002 -1.71198,2.72001 -3.30798,2.48001 -1.59201,-0.24 -2.69601,-1.71999 -2.46,-3.32001"
     style="fill:#ffffff;fill-opacity:0.25;fill-rule:nonzero;stroke:none;stroke-width:0.399999"
     id="path1288" />
  <path
     d="m 597.41796,498.88003 c 0.2361,-1.59999 1.716,-2.67999 3.30801,-2.43999 1.596,0.24 2.7,1.71999 2.46399,3.27999 -0.2361,1.59999 -1.716,2.72001 -3.312,2.48001 -1.59201,-0.24 -2.69199,-1.72002 -2.46,-3.32001"
     style="fill:#ffffff;fill-opacity:0.25;fill-rule:nonzero;stroke:none;stroke-width:0.399999"
     id="path1290" />
  <path
     d="m 696.94995,510.16003 c -1.43598,-0.72 -2.01198,-2.48001 -1.27998,-3.92001 0.72798,-1.44 2.484,-1.99998 3.91998,-1.27998 1.43601,0.72 2.01201,2.47998 1.28001,3.91998 -0.72801,1.44 -2.484,2.04 -3.92001,1.28001"
     style="fill:#ffffff;fill-opacity:0.25;fill-rule:nonzero;stroke:none;stroke-width:0.399999"
     id="path1294" />
  <path
     d="m 685.52196,521.00002 c -1.43601,-0.72 -2.00799,-2.47998 -1.28001,-3.91998 0.732,-1.44 2.48802,-2.00001 3.924,-1.28001 1.43601,0.72 2.00802,2.48001 1.27602,3.92001 -0.72801,1.44 -2.484,1.99998 -3.92001,1.27998"
     style="fill:#ffffff;fill-opacity:0.25;fill-rule:nonzero;stroke:none;stroke-width:0.399999"
     id="path1296" />
  <path
     d="m 508.27794,441.96001 c -0.2841,1.56 -1.8,2.64 -3.38799,2.32002 -1.584,-0.2799 -2.63601,-1.8 -2.352,-3.36 0.2841,-1.60002 1.80399,-2.64 3.38799,-2.36001 1.584,0.2799 2.64,1.8 2.352,3.39999"
     style="fill:#ffffff;fill-opacity:0.25;fill-rule:nonzero;stroke:none;stroke-width:0.399999"
     id="path1298" />
  <path
     d="m 520.75395,449.08003 c -0.288,1.59999 -1.80399,2.64 -3.38799,2.35998 -1.58802,-0.2799 -2.64,-1.8 -2.352,-3.39999 0.2841,-1.56 1.8,-2.60001 3.384,-2.31999 1.58799,0.2799 2.64,1.8 2.35599,3.36"
     style="fill:#ffffff;fill-opacity:0.25;fill-rule:nonzero;stroke:none;stroke-width:0.399999"
     id="path1300" />
  <path
     d="m 533.43396,456.36001 c -0.288,1.60002 -1.80402,2.64 -3.38802,2.36001 -1.58799,-0.2799 -2.64,-1.8 -2.35599,-3.39999 0.288,-1.56 1.80399,-2.64 3.38799,-2.36001 1.58802,0.2799 2.64,1.8 2.35602,3.39999"
     style="fill:#ffffff;fill-opacity:0.25;fill-rule:nonzero;stroke:none;stroke-width:0.399999"
     id="path1302" />
  <path
     d="m 545.56194,463.32001 c -0.288,1.56 -1.8,2.64 -3.38799,2.36001 -1.584,-0.32001 -2.64,-1.8 -2.352,-3.39999 0.2841,-1.60002 1.8,-2.64 3.384,-2.36001 1.58799,0.2799 2.64399,1.8 2.35599,3.39999"
     style="fill:#ffffff;fill-opacity:0.25;fill-rule:nonzero;stroke:none;stroke-width:0.399999"
     id="path1304" />
  <path
     d="m 557.61396,470.20003 c -0.2841,1.59999 -1.8,2.64 -3.384,2.35998 -1.58802,-0.2799 -2.64,-1.8 -2.35602,-3.36 0.288,-1.59999 1.80402,-2.64 3.38802,-2.35998 1.58799,0.2799 2.64,1.8 2.352,3.36"
     style="fill:#ffffff;fill-opacity:0.25;fill-rule:nonzero;stroke:none;stroke-width:0.399999"
     id="path1306" />
  <path
     d="m 748.37397,418.00003 c -1.60002,-0.2001 -2.75202,-1.64001 -2.57202,-3.24 0.1839,-1.60002 1.62801,-2.76 3.228,-2.56002 1.60005,0.1599 2.74815,1.64001 2.57205,3.24 -0.183,1.60002 -1.62804,2.72001 -3.22803,2.56002"
     style="fill:#ffffff;fill-opacity:0.25;fill-rule:nonzero;stroke:none;stroke-width:0.399999"
     id="path1314" />
  <path
     d="m 742.05795,430.92001 c -1.59999,-0.2001 -2.75199,-1.63998 -2.57199,-3.24 0.1839,-1.59999 1.62399,-2.76 3.228,-2.55999 1.59999,0.1599 2.75199,1.59999 2.568,3.20001 -0.18,1.59999 -1.62399,2.76 -3.22401,2.59998"
     style="fill:#ffffff;fill-opacity:0.25;fill-rule:nonzero;stroke:none;stroke-width:0.399999"
     id="path1316" />
  <path
     d="m 735.63795,444.04003 c -1.59999,-0.2001 -2.75199,-1.64001 -2.57199,-3.24 0.1839,-1.60002 1.62399,-2.72001 3.228,-2.56002 1.59999,0.2001 2.75199,1.64001 2.568,3.24 -0.1761,1.60002 -1.62399,2.72001 -3.22401,2.56002"
     style="fill:#ffffff;fill-opacity:0.25;fill-rule:nonzero;stroke:none;stroke-width:0.399999"
     id="path1318" />
  <path
     d="m 729.49797,456.60001 c -1.60002,-0.2001 -2.75202,-1.63998 -2.57202,-3.24 0.18,-1.59999 1.62402,-2.76 3.22401,-2.55999 1.60401,0.2001 2.75199,1.64001 2.57199,3.24 -0.18,1.59999 -1.62399,2.72001 -3.22398,2.55999"
     style="fill:#ffffff;fill-opacity:0.25;fill-rule:nonzero;stroke:none;stroke-width:0.399999"
     id="path1320" />
  <path
     d="m 723.39396,469.08001 c -1.59999,-0.2001 -2.75199,-1.63998 -2.57199,-3.24 0.1839,-1.59999 1.62399,-2.76 3.228,-2.55999 1.59999,0.2001 2.75199,1.64001 2.568,3.24 -0.18,1.59999 -1.62402,2.72001 -3.22401,2.55999"
     style="fill:#ffffff;fill-opacity:0.25;fill-rule:nonzero;stroke:none;stroke-width:0.399999"
     id="path1322" />
  <path
     d="m 850.194,200.04001 c -1.608,-0.0801 -2.856,-1.44 -2.7879,-3.03999 0.069,-1.64001 1.4319,-2.88 3.0399,-2.80002 1.608,0.0801 2.856,1.44 2.7879,3.04002 -0.069,1.59999 -1.4319,2.83998 -3.0399,2.79999"
     style="fill:#ffffff;fill-opacity:0.25;fill-rule:nonzero;stroke:none;stroke-width:0.399999"
     id="path1324" />
  <path
     d="m 844.326,214.48 c -1.608,-0.0801 -2.856,-1.44 -2.7879,-3.03999 0.072,-1.59999 1.4319,-2.84001 3.0438,-2.79999 1.6041,0.0801 2.856,1.44 2.784,3.03999 -0.069,1.59999 -1.428,2.88 -3.0399,2.79999"
     style="fill:#ffffff;fill-opacity:0.25;fill-rule:nonzero;stroke:none;stroke-width:0.399999"
     id="path1326" />
  <path
     d="m 767.9705,379.5253 c -1.6002,-0.2001 -2.7522,-1.64001 -2.5722,-3.24 0.183,-1.59999 1.6281,-2.72001 3.228,-2.55999 1.6002,0.2001 2.7522,1.63998 2.5722,3.24 -0.183,1.59999 -1.6281,2.71998 -3.228,2.55999"
     style="fill:#ffffff;fill-opacity:0.25;fill-rule:nonzero;stroke:none;stroke-width:0.399999"
     id="path1328" />
  <path
     d="m 760.194,393.48001 c -1.5999,-0.1599 -2.7519,-1.59999 -2.568,-3.19998 0.18,-1.60002 1.6239,-2.76 3.2241,-2.56002 1.5999,0.1599 2.7519,1.60002 2.5719,3.20001 -0.18,1.59999 -1.6281,2.76 -3.228,2.55999"
     style="fill:#ffffff;fill-opacity:0.25;fill-rule:nonzero;stroke:none;stroke-width:0.399999"
     id="path1330" />
  <path
     d="m 754.23,405.72001 c -1.5999,-0.2001 -2.7519,-1.63998 -2.5719,-3.24 0.18,-1.59999 1.6239,-2.76 3.2238,-2.55999 1.6041,0.1599 2.7522,1.59999 2.5722,3.20001 -0.18,1.59999 -1.6242,2.76 -3.2241,2.59998"
     style="fill:#ffffff;fill-opacity:0.25;fill-rule:nonzero;stroke:none;stroke-width:0.399999"
     id="path1332" />
  <path
     d="m 800.0979,313.56001 c -1.5999,-0.1599 -2.7519,-1.59999 -2.5719,-3.19998 0.183,-1.60002 1.6281,-2.76 3.228,-2.60001 1.5999,0.2001 2.7519,1.64001 2.568,3.24 -0.18,1.59999 -1.6239,2.76 -3.2241,2.55999"
     style="fill:#ffffff;fill-opacity:0.25;fill-rule:nonzero;stroke:none;stroke-width:0.399999"
     id="path1334" />
  <path
     d="m 793.77,326.48002 c -1.596,-0.1599 -2.748,-1.59999 -2.568,-3.24 0.183,-1.59999 1.6281,-2.72001 3.2319,-2.55999 1.596,0.2001 2.748,1.63998 2.568,3.24 -0.183,1.59999 -1.6278,2.76 -3.2319,2.55999"
     style="fill:#ffffff;fill-opacity:0.25;fill-rule:nonzero;stroke:none;stroke-width:0.399999"
     id="path1336" />
  <path
     d="m 787.3461,339.60001 c -1.6041,-0.1599 -2.7522,-1.59999 -2.5722,-3.19998 0.183,-1.60002 1.6281,-2.76 3.228,-2.60001 1.6002,0.2001 2.7522,1.64001 2.568,3.24 -0.18,1.59999 -1.6239,2.76 -3.2238,2.55999"
     style="fill:#ffffff;fill-opacity:0.25;fill-rule:nonzero;stroke:none;stroke-width:0.399999"
     id="path1338" />
  <path
     d="m 781.194,352.16002 c -1.5999,-0.1599 -2.7519,-1.59999 -2.568,-3.24 0.18,-1.59999 1.6281,-2.72001 3.228,-2.55999 1.5999,0.2001 2.748,1.63998 2.568,3.24 -0.18,1.59999 -1.6281,2.76 -3.228,2.55999"
     style="fill:#ffffff;fill-opacity:0.25;fill-rule:nonzero;stroke:none;stroke-width:0.399999"
     id="path1340" />
  <path
     d="m 775.086,364.64002 c -1.6041,-0.1599 -2.7519,-1.64001 -2.568,-3.24 0.18,-1.59999 1.6239,-2.72001 3.2241,-2.55999 1.5999,0.2001 2.7519,1.63998 2.568,3.24 -0.18,1.59999 -1.6242,2.76 -3.2241,2.55999"
     style="fill:#ffffff;fill-opacity:0.25;fill-rule:nonzero;stroke:none;stroke-width:0.399999"
     id="path1342" />
  <path
     d="m 825.5661,257.88001 c -1.6002,-0.2001 -2.7402,-1.64001 -2.5482,-3.24 0.195,-1.59999 1.6482,-2.76 3.2481,-2.55999 1.596,0.2001 2.7399,1.63998 2.544,3.24 -0.192,1.59999 -1.644,2.76 -3.2439,2.55999"
     style="fill:#ffffff;fill-opacity:0.25;fill-rule:nonzero;stroke:none;stroke-width:0.399999"
     id="path1350" />
  <path
     d="m 819.15,270.76 c -1.596,-0.2001 -2.736,-1.68 -2.544,-3.24 0.192,-1.59999 1.6479,-2.76 3.2439,-2.55999 1.6002,0.2001 2.7402,1.64001 2.5482,3.24 -0.195,1.59999 -1.6482,2.72001 -3.2481,2.55999"
     style="fill:#ffffff;fill-opacity:0.25;fill-rule:nonzero;stroke:none;stroke-width:0.399999"
     id="path1352" />
  <path
     d="m 411.56994,313.72003 c 1.07202,-1.2 2.91201,-1.32 4.116,-0.24 1.20801,1.03998 1.31601,2.88 0.2481,4.11999 -1.07199,1.2 -2.91201,1.28001 -4.116,0.24 -1.20801,-1.08 -1.31601,-2.91999 -0.2481,-4.11999"
     style="fill:#ffffff;fill-opacity:0.25;fill-rule:nonzero;stroke:none;stroke-width:0.399999"
     id="path1354" />
  <path
     d="m 404.52195,300.88003 c 1.07199,-1.2 2.916,-1.32 4.11999,-0.24 1.20402,1.08 1.31202,2.91999 0.2439,4.11999 -1.068,1.2 -2.91201,1.32 -4.116,0.24 -1.20402,-1.08 -1.31601,-2.91999 -0.2481,-4.11999"
     style="fill:#ffffff;fill-opacity:0.25;fill-rule:nonzero;stroke:none;stroke-width:0.399999"
     id="path1356" />
  <path
     d="m 397.98195,289 c 1.068,-1.23999 2.91201,-1.32 4.116,-0.24 1.20399,1.04001 1.31601,2.88003 0.2439,4.08003 -1.068,1.23999 -2.91198,1.32 -4.116,0.2799 -1.20798,-1.08 -1.31598,-2.92002 -0.2439,-4.12002"
     style="fill:#ffffff;fill-opacity:0.25;fill-rule:nonzero;stroke:none;stroke-width:0.399999"
     id="path1358" />
  <path
     d="m 439.98996,366.92002 c 1.07199,-1.2 2.916,-1.32 4.116,-0.24 1.20798,1.08 1.31598,2.91999 0.2481,4.11999 -1.07199,1.2 -2.916,1.32 -4.11999,0.24 -1.20399,-1.08 -1.31199,-2.91999 -0.2439,-4.11999"
     style="fill:#ffffff;fill-opacity:0.25;fill-rule:nonzero;stroke:none;stroke-width:0.399999"
     id="path1360" />
  <path
     d="m 432.95796,354.12001 c 1.07199,-1.2 2.916,-1.32 4.11999,-0.24 1.20399,1.04001 1.31199,2.88 0.24,4.12002 -1.068,1.2 -2.91201,1.27998 -4.116,0.24 -1.20399,-1.08 -1.31199,-2.92002 -0.2439,-4.12002"
     style="fill:#ffffff;fill-opacity:0.25;fill-rule:nonzero;stroke:none;stroke-width:0.399999"
     id="path1362" />
  <path
     d="m 426.23394,341.84002 c 1.068,-1.2 2.91201,-1.28001 4.116,-0.24 1.20402,1.08 1.31202,2.91999 0.2439,4.11999 -1.07202,1.2 -2.91201,1.32 -4.12002,0.24 -1.20399,-1.03998 -1.31199,-2.91999 -0.24,-4.11999"
     style="fill:#ffffff;fill-opacity:0.25;fill-rule:nonzero;stroke:none;stroke-width:0.399999"
     id="path1364" />
  <path
     d="m 419.54595,329.68003 c 1.07199,-1.2 2.916,-1.32 4.11999,-0.24 1.20402,1.03998 1.31202,2.91999 0.24,4.11999 -1.068,1.2 -2.91198,1.32 -4.116,0.24 -1.20399,-1.08 -1.31199,-2.91999 -0.2439,-4.11999"
     style="fill:#ffffff;fill-opacity:0.25;fill-rule:nonzero;stroke:none;stroke-width:0.399999"
     id="path1366" />
  <path
     d="m 762.5061,248.76001 c -0.8442,-1.44 -0.372,-3.27999 1.0479,-4.11999 1.4199,-0.84 3.2559,-0.36 4.0959,1.03998 0.8442,1.44 0.3762,3.28002 -1.0479,4.12002 -1.416,0.84 -3.252,0.36 -4.0959,-1.04001"
     style="fill:#ffffff;fill-opacity:0.25;fill-rule:nonzero;stroke:none;stroke-width:0.399999"
     id="path1368" />
  <path
     d="m 748.03395,251.56 c -0.84399,-1.39998 -0.372,-3.24 1.04802,-4.08 1.41993,-0.84 3.25593,-0.39999 4.10013,1.04001 0.84,1.44 0.372,3.24 -1.0482,4.08 C 750.7101,253.48 748.87797,253 748.03395,251.56"
     style="fill:#ffffff;fill-opacity:0.25;fill-rule:nonzero;stroke:none;stroke-width:0.399999"
     id="path1370" />
  <path
     d="m 733.32195,254.44 c -0.84,-1.39998 -0.372,-3.24 1.04802,-4.08 1.41999,-0.84 3.25599,-0.39999 4.09998,1.04001 0.84402,1.40001 0.372,3.24 -1.04799,4.08 -1.41999,0.84 -3.25599,0.39999 -4.10001,-1.04001"
     style="fill:#ffffff;fill-opacity:0.25;fill-rule:nonzero;stroke:none;stroke-width:0.399999"
     id="path1372" />
  <path
     d="m 719.24997,257.2 c -0.84,-1.44 -0.372,-3.27999 1.04799,-4.11999 1.41999,-0.84 3.25599,-0.36 4.10001,1.08 0.84,1.40001 0.372,3.24 -1.04802,4.08 -1.41999,0.84 -3.25599,0.36 -4.09998,-1.04001"
     style="fill:#ffffff;fill-opacity:0.25;fill-rule:nonzero;stroke:none;stroke-width:0.399999"
     id="path1374" />
  <path
     d="m 796.0701,242.40001 c -0.8442,-1.44 -0.3762,-3.27999 1.0479,-4.11999 1.4199,-0.84 3.2559,-0.36 4.0959,1.08 0.8442,1.39998 0.3762,3.24 -1.044,4.08 -1.4238,0.84 -3.2559,0.36 -4.0998,-1.04001"
     style="fill:#ffffff;fill-opacity:0.25;fill-rule:nonzero;stroke:none;stroke-width:0.399999"
     id="path1376" />
  <path
     d="m 781.5981,245.24002 c -0.84,-1.44 -0.372,-3.28002 1.0479,-4.12002 1.4199,-0.84 3.2559,-0.36 4.1001,1.04001 0.84,1.44 0.372,3.27999 -1.0521,4.11999 -1.4199,0.84 -3.2559,0.36 -4.0959,-1.03998"
     style="fill:#ffffff;fill-opacity:0.25;fill-rule:nonzero;stroke:none;stroke-width:0.399999"
     id="path1378" />
  <path
     d="m 705.26595,259.92001 c -0.84,-1.40001 -0.372,-3.24 1.04802,-4.08 1.41999,-0.84 3.25599,-0.39999 4.09998,1.04001 0.84,1.39998 0.372,3.24 -1.04799,4.08 -1.42401,0.84 -3.25599,0.39999 -4.10001,-1.04001"
     style="fill:#ffffff;fill-opacity:0.25;fill-rule:nonzero;stroke:none;stroke-width:0.399999"
     id="path1380" />
  <path
     d="m 690.79395,262.76002 c -0.84399,-1.44 -0.372,-3.28002 1.04802,-4.12002 1.42398,-0.84 3.25599,-0.36 4.09599,1.08 0.84399,1.40001 0.37599,3.24 -1.044,4.08 -1.41999,0.84 -3.25599,0.36 -4.10001,-1.03998"
     style="fill:#ffffff;fill-opacity:0.25;fill-rule:nonzero;stroke:none;stroke-width:0.399999"
     id="path1382" />
  <path
     d="m 675.09396,265.80001 c -0.84399,-1.40001 -0.37599,-3.24 1.04799,-4.08 1.42002,-0.84 3.25602,-0.36 4.09602,1.04001 0.84399,1.44 0.372,3.27999 -1.04802,4.11999 -1.41999,0.84 -3.252,0.36 -4.09599,-1.08"
     style="fill:#ffffff;fill-opacity:0.25;fill-rule:nonzero;stroke:none;stroke-width:0.399999"
     id="path1384" />
  <path
     d="m 660.28995,267.52 c -0.84,-1.44 -0.372,-3.24 1.04802,-4.08 1.42398,-0.84 3.25599,-0.39999 4.09998,1.04001 0.84,1.40001 0.372,3.24 -1.04799,4.08 -1.41999,0.84 -3.25599,0.36 -4.10001,-1.04001"
     style="fill:#ffffff;fill-opacity:0.25;fill-rule:nonzero;stroke:none;stroke-width:0.399999"
     id="path1386" />
  <path
     d="m 645.82197,270.36001 c -0.84402,-1.44 -0.37602,-3.27999 1.044,-4.11999 1.41999,-0.84 3.25599,-0.36 4.09998,1.03998 0.84402,1.44 0.37602,3.28002 -1.04799,4.12002 -1.41999,0.84 -3.25599,0.36 -4.09599,-1.04001"
     style="fill:#ffffff;fill-opacity:0.25;fill-rule:nonzero;stroke:none;stroke-width:0.399999"
     id="path1388" />
  <path
     d="m 630.11796,273.4 c -0.84399,-1.39998 -0.372,-3.24 1.04799,-4.08 1.42002,-0.84 3.25602,-0.39999 4.10001,1.04001 0.84,1.44 0.372,3.24 -1.04799,4.08 -1.42401,0.87999 -3.26001,0.39999 -4.10001,-1.04001"
     style="fill:#ffffff;fill-opacity:0.25;fill-rule:nonzero;stroke:none;stroke-width:0.399999"
     id="path1390" />
  <g
     transform="matrix(5.6,0,0,5.6,1257.0034,-492.60366)"
     id="use9385"
     style="fill:#7fa7ca;fill-opacity:1">
    <path
       d="m -70.999999,118 0.708122,1.79188 L -68.5,120.5 -70.291877,121.20812 -70.999999,123 -71.708122,121.20812 -73.5,120.5 l 1.791878,-0.70812 z"
       id="path10536"
       style="display:inline;overflow:visible;opacity:0.2;fill-rule:evenodd;stroke:none;stroke-width:4;stroke-linecap:butt;stroke-linejoin:miter;stroke-miterlimit:4;stroke-dashoffset:0;stroke-opacity:1;marker:none;marker-start:none;marker-mid:none;marker-end:none;enable-background:accumulate" />
    <path
       d="m -69.653643,120.5 c 0,0.74319 -0.603167,1.34636 -1.346356,1.34636 -0.743189,0 -1.346357,-0.60317 -1.346357,-1.34636 0,-0.74319 0.603168,-1.34636 1.346357,-1.34636 0.743189,0 1.346356,0.60317 1.346356,1.34636 z"
       id="path10538"
       style="display:inline;overflow:visible;opacity:0.3;fill-rule:evenodd;stroke:none;stroke-width:4;stroke-linecap:butt;stroke-linejoin:miter;stroke-miterlimit:4;stroke-dashoffset:0;stroke-opacity:1;marker:none;marker-start:none;marker-mid:none;marker-end:none;enable-background:accumulate" />
    <path
       d="m -71.956621,120.5 c 0,0.52806 0.428567,0.95662 0.956622,0.95662 0.528055,0 0.956622,-0.42856 0.956622,-0.95662 0,-0.52806 -0.428567,-0.95662 -0.956622,-0.95662 -0.528055,0 -0.956622,0.42856 -0.956622,0.95662 z"
       id="path10540"
       style="display:inline;overflow:visible;fill-rule:evenodd;stroke:none;stroke-width:4;stroke-linecap:butt;stroke-linejoin:miter;stroke-miterlimit:4;stroke-dashoffset:0;stroke-opacity:1;marker:none;marker-start:none;marker-mid:none;marker-end:none;enable-background:accumulate" />
  </g>
  <g
     transform="matrix(6.4,0,0,6.4,1285.7689,-540.71644)"
     id="use9385-0"
     style="fill:#7fa7ca;fill-opacity:1">
    <path
       d="m -70.999999,118 0.708122,1.79188 L -68.5,120.5 -70.291877,121.20812 -70.999999,123 -71.708122,121.20812 -73.5,120.5 l 1.791878,-0.70812 z"
       id="path10536-9"
       style="display:inline;overflow:visible;opacity:0.2;fill-rule:evenodd;stroke:none;stroke-width:4;stroke-linecap:butt;stroke-linejoin:miter;stroke-miterlimit:4;stroke-dashoffset:0;stroke-opacity:1;marker:none;marker-start:none;marker-mid:none;marker-end:none;enable-background:accumulate" />
    <path
       d="m -69.653643,120.5 c 0,0.74319 -0.603167,1.34636 -1.346356,1.34636 -0.743189,0 -1.346357,-0.60317 -1.346357,-1.34636 0,-0.74319 0.603168,-1.34636 1.346357,-1.34636 0.743189,0 1.346356,0.60317 1.346356,1.34636 z"
       id="path10538-4"
       style="display:inline;overflow:visible;opacity:0.3;fill-rule:evenodd;stroke:none;stroke-width:4;stroke-linecap:butt;stroke-linejoin:miter;stroke-miterlimit:4;stroke-dashoffset:0;stroke-opacity:1;marker:none;marker-start:none;marker-mid:none;marker-end:none;enable-background:accumulate" />
    <path
       d="m -71.956621,120.5 c 0,0.52806 0.428567,0.95662 0.956622,0.95662 0.528055,0 0.956622,-0.42856 0.956622,-0.95662 0,-0.52806 -0.428567,-0.95662 -0.956622,-0.95662 -0.528055,0 -0.956622,0.42856 -0.956622,0.95662 z"
       id="path10540-8"
       style="display:inline;overflow:visible;fill-rule:evenodd;stroke:none;stroke-width:4;stroke-linecap:butt;stroke-linejoin:miter;stroke-miterlimit:4;stroke-dashoffset:0;stroke-opacity:1;marker:none;marker-start:none;marker-mid:none;marker-end:none;enable-background:accumulate" />
  </g>
  <g
     transform="matrix(8,-3.2309117,3.2309117,8,988.88054,-901.92809)"
     id="use9385-9"
     style="fill:#7fa7ca;fill-opacity:1">
    <path
       d="m -70.999999,118 0.708122,1.79188 L -68.5,120.5 -70.291877,121.20812 -70.999999,123 -71.708122,121.20812 -73.5,120.5 l 1.791878,-0.70812 z"
       id="path10536-8"
       style="display:inline;overflow:visible;opacity:0.2;fill-rule:evenodd;stroke:none;stroke-width:4;stroke-linecap:butt;stroke-linejoin:miter;stroke-miterlimit:4;stroke-dashoffset:0;stroke-opacity:1;marker:none;marker-start:none;marker-mid:none;marker-end:none;enable-background:accumulate" />
    <path
       d="m -69.653643,120.5 c 0,0.74319 -0.603167,1.34636 -1.346356,1.34636 -0.743189,0 -1.346357,-0.60317 -1.346357,-1.34636 0,-0.74319 0.603168,-1.34636 1.346357,-1.34636 0.743189,0 1.346356,0.60317 1.346356,1.34636 z"
       id="path10538-49"
       style="display:inline;overflow:visible;opacity:0.3;fill-rule:evenodd;stroke:none;stroke-width:4;stroke-linecap:butt;stroke-linejoin:miter;stroke-miterlimit:4;stroke-dashoffset:0;stroke-opacity:1;marker:none;marker-start:none;marker-mid:none;marker-end:none;enable-background:accumulate" />
    <path
       d="m -71.956621,120.5 c 0,0.52806 0.428567,0.95662 0.956622,0.95662 0.528055,0 0.956622,-0.42856 0.956622,-0.95662 0,-0.52806 -0.428567,-0.95662 -0.956622,-0.95662 -0.528055,0 -0.956622,0.42856 -0.956622,0.95662 z"
       id="path10540-1"
       style="display:inline;overflow:visible;fill-rule:evenodd;stroke:none;stroke-width:4;stroke-linecap:butt;stroke-linejoin:miter;stroke-miterlimit:4;stroke-dashoffset:0;stroke-opacity:1;marker:none;marker-start:none;marker-mid:none;marker-end:none;enable-background:accumulate" />
  </g>
  <g
     transform="matrix(5.6,0,0,5.6,1110.2373,-187.70479)"
     id="use9385-1"
     style="fill:#7fa7ca;fill-opacity:1">
    <path
       d="m -70.999999,118 0.708122,1.79188 L -68.5,120.5 -70.291877,121.20812 -70.999999,123 -71.708122,121.20812 -73.5,120.5 l 1.791878,-0.70812 z"
       id="path10536-81"
       style="display:inline;overflow:visible;opacity:0.2;fill-rule:evenodd;stroke:none;stroke-width:4;stroke-linecap:butt;stroke-linejoin:miter;stroke-miterlimit:4;stroke-dashoffset:0;stroke-opacity:1;marker:none;marker-start:none;marker-mid:none;marker-end:none;enable-background:accumulate" />
    <path
       d="m -69.653643,120.5 c 0,0.74319 -0.603167,1.34636 -1.346356,1.34636 -0.743189,0 -1.346357,-0.60317 -1.346357,-1.34636 0,-0.74319 0.603168,-1.34636 1.346357,-1.34636 0.743189,0 1.346356,0.60317 1.346356,1.34636 z"
       id="path10538-1"
       style="display:inline;overflow:visible;opacity:0.3;fill-rule:evenodd;stroke:none;stroke-width:4;stroke-linecap:butt;stroke-linejoin:miter;stroke-miterlimit:4;stroke-dashoffset:0;stroke-opacity:1;marker:none;marker-start:none;marker-mid:none;marker-end:none;enable-background:accumulate" />
    <path
       d="m -71.956621,120.5 c 0,0.52806 0.428567,0.95662 0.956622,0.95662 0.528055,0 0.956622,-0.42856 0.956622,-0.95662 0,-0.52806 -0.428567,-0.95662 -0.956622,-0.95662 -0.528055,0 -0.956622,0.42856 -0.956622,0.95662 z"
       id="path10540-17"
       style="display:inline;overflow:visible;fill-rule:evenodd;stroke:none;stroke-width:4;stroke-linecap:butt;stroke-linejoin:miter;stroke-miterlimit:4;stroke-dashoffset:0;stroke-opacity:1;marker:none;marker-start:none;marker-mid:none;marker-end:none;enable-background:accumulate" />
  </g>
  <g
     transform="matrix(7.6,0,0,7.6,1212.014,-382.39998)"
     id="use9385-4"
     style="fill:#7fa7ca;fill-opacity:1">
    <path
       d="m -70.999999,118 0.708122,1.79188 L -68.5,120.5 -70.291877,121.20812 -70.999999,123 -71.708122,121.20812 -73.5,120.5 l 1.791878,-0.70812 z"
       id="path10536-82"
       style="display:inline;overflow:visible;opacity:0.2;fill-rule:evenodd;stroke:none;stroke-width:4;stroke-linecap:butt;stroke-linejoin:miter;stroke-miterlimit:4;stroke-dashoffset:0;stroke-opacity:1;marker:none;marker-start:none;marker-mid:none;marker-end:none;enable-background:accumulate" />
    <path
       d="m -69.653643,120.5 c 0,0.74319 -0.603167,1.34636 -1.346356,1.34636 -0.743189,0 -1.346357,-0.60317 -1.346357,-1.34636 0,-0.74319 0.603168,-1.34636 1.346357,-1.34636 0.743189,0 1.346356,0.60317 1.346356,1.34636 z"
       id="path10538-5"
       style="display:inline;overflow:visible;opacity:0.3;fill-rule:evenodd;stroke:none;stroke-width:4;stroke-linecap:butt;stroke-linejoin:miter;stroke-miterlimit:4;stroke-dashoffset:0;stroke-opacity:1;marker:none;marker-start:none;marker-mid:none;marker-end:none;enable-background:accumulate" />
    <path
       d="m -71.956621,120.5 c 0,0.52806 0.428567,0.95662 0.956622,0.95662 0.528055,0 0.956622,-0.42856 0.956622,-0.95662 0,-0.52806 -0.428567,-0.95662 -0.956622,-0.95662 -0.528055,0 -0.956622,0.42856 -0.956622,0.95662 z"
       id="path10540-7"
       style="display:inline;overflow:visible;fill-rule:evenodd;stroke:none;stroke-width:4;stroke-linecap:butt;stroke-linejoin:miter;stroke-miterlimit:4;stroke-dashoffset:0;stroke-opacity:1;marker:none;marker-start:none;marker-mid:none;marker-end:none;enable-background:accumulate" />
  </g>
  <g
     transform="matrix(8,-1.7046779,1.7046779,8,938.55516,-600.11922)"
     id="use9385-90"
     style="fill:#7fa7ca;fill-opacity:1">
    <path
       d="m -70.999999,118 0.708122,1.79188 L -68.5,120.5 -70.291877,121.20812 -70.999999,123 -71.708122,121.20812 -73.5,120.5 l 1.791878,-0.70812 z"
       id="path10536-7"
       style="display:inline;overflow:visible;opacity:0.2;fill-rule:evenodd;stroke:none;stroke-width:4;stroke-linecap:butt;stroke-linejoin:miter;stroke-miterlimit:4;stroke-dashoffset:0;stroke-opacity:1;marker:none;marker-start:none;marker-mid:none;marker-end:none;enable-background:accumulate" />
    <path
       d="m -69.653643,120.5 c 0,0.74319 -0.603167,1.34636 -1.346356,1.34636 -0.743189,0 -1.346357,-0.60317 -1.346357,-1.34636 0,-0.74319 0.603168,-1.34636 1.346357,-1.34636 0.743189,0 1.346356,0.60317 1.346356,1.34636 z"
       id="path10538-7"
       style="display:inline;overflow:visible;opacity:0.3;fill-rule:evenodd;stroke:none;stroke-width:4;stroke-linecap:butt;stroke-linejoin:miter;stroke-miterlimit:4;stroke-dashoffset:0;stroke-opacity:1;marker:none;marker-start:none;marker-mid:none;marker-end:none;enable-background:accumulate" />
    <path
       d="m -71.956621,120.5 c 0,0.52806 0.428567,0.95662 0.956622,0.95662 0.528055,0 0.956622,-0.42856 0.956622,-0.95662 0,-0.52806 -0.428567,-0.95662 -0.956622,-0.95662 -0.528055,0 -0.956622,0.42856 -0.956622,0.95662 z"
       id="path10540-6"
       style="display:inline;overflow:visible;fill-rule:evenodd;stroke:none;stroke-width:4;stroke-linecap:butt;stroke-linejoin:miter;stroke-miterlimit:4;stroke-dashoffset:0;stroke-opacity:1;marker:none;marker-start:none;marker-mid:none;marker-end:none;enable-background:accumulate" />
  </g>
  <g
     transform="matrix(9.6,0,0,9.6,1163.9253,-732.46366)"
     id="use9385-49"
     style="fill:#7fa7ca;fill-opacity:1">
    <path
       d="m -70.999999,118 0.708122,1.79188 L -68.5,120.5 -70.291877,121.20812 -70.999999,123 -71.708122,121.20812 -73.5,120.5 l 1.791878,-0.70812 z"
       id="path10536-91"
       style="display:inline;overflow:visible;opacity:0.2;fill-rule:evenodd;stroke:none;stroke-width:4;stroke-linecap:butt;stroke-linejoin:miter;stroke-miterlimit:4;stroke-dashoffset:0;stroke-opacity:1;marker:none;marker-start:none;marker-mid:none;marker-end:none;enable-background:accumulate" />
    <path
       d="m -69.653643,120.5 c 0,0.74319 -0.603167,1.34636 -1.346356,1.34636 -0.743189,0 -1.346357,-0.60317 -1.346357,-1.34636 0,-0.74319 0.603168,-1.34636 1.346357,-1.34636 0.743189,0 1.346356,0.60317 1.346356,1.34636 z"
       id="path10538-9"
       style="display:inline;overflow:visible;opacity:0.3;fill-rule:evenodd;stroke:none;stroke-width:4;stroke-linecap:butt;stroke-linejoin:miter;stroke-miterlimit:4;stroke-dashoffset:0;stroke-opacity:1;marker:none;marker-start:none;marker-mid:none;marker-end:none;enable-background:accumulate" />
    <path
       d="m -71.956621,120.5 c 0,0.52806 0.428567,0.95662 0.956622,0.95662 0.528055,0 0.956622,-0.42856 0.956622,-0.95662 0,-0.52806 -0.428567,-0.95662 -0.956622,-0.95662 -0.528055,0 -0.956622,0.42856 -0.956622,0.95662 z"
       id="path10540-65"
       style="display:inline;overflow:visible;fill-rule:evenodd;stroke:none;stroke-width:4;stroke-linecap:butt;stroke-linejoin:miter;stroke-miterlimit:4;stroke-dashoffset:0;stroke-opacity:1;marker:none;marker-start:none;marker-mid:none;marker-end:none;enable-background:accumulate" />
  </g>
  <g
     transform="matrix(6,0,0,6,882.48241,-329.17139)"
     id="use9385-2"
     style="fill:#7fa7ca;fill-opacity:1">
    <path
       d="m -70.999999,118 0.708122,1.79188 L -68.5,120.5 -70.291877,121.20812 -70.999999,123 -71.708122,121.20812 -73.5,120.5 l 1.791878,-0.70812 z"
       id="path10536-2"
       style="display:inline;overflow:visible;opacity:0.2;fill-rule:evenodd;stroke:none;stroke-width:4;stroke-linecap:butt;stroke-linejoin:miter;stroke-miterlimit:4;stroke-dashoffset:0;stroke-opacity:1;marker:none;marker-start:none;marker-mid:none;marker-end:none;enable-background:accumulate" />
    <path
       d="m -69.653643,120.5 c 0,0.74319 -0.603167,1.34636 -1.346356,1.34636 -0.743189,0 -1.346357,-0.60317 -1.346357,-1.34636 0,-0.74319 0.603168,-1.34636 1.346357,-1.34636 0.743189,0 1.346356,0.60317 1.346356,1.34636 z"
       id="path10538-2"
       style="display:inline;overflow:visible;opacity:0.3;fill-rule:evenodd;stroke:none;stroke-width:4;stroke-linecap:butt;stroke-linejoin:miter;stroke-miterlimit:4;stroke-dashoffset:0;stroke-opacity:1;marker:none;marker-start:none;marker-mid:none;marker-end:none;enable-background:accumulate" />
    <path
       d="m -71.956621,120.5 c 0,0.52806 0.428567,0.95662 0.956622,0.95662 0.528055,0 0.956622,-0.42856 0.956622,-0.95662 0,-0.52806 -0.428567,-0.95662 -0.956622,-0.95662 -0.528055,0 -0.956622,0.42856 -0.956622,0.95662 z"
       id="path10540-9"
       style="display:inline;overflow:visible;fill-rule:evenodd;stroke:none;stroke-width:4;stroke-linecap:butt;stroke-linejoin:miter;stroke-miterlimit:4;stroke-dashoffset:0;stroke-opacity:1;marker:none;marker-start:none;marker-mid:none;marker-end:none;enable-background:accumulate" />
  </g>
  <g
     transform="matrix(4.6945995,-3.0529881,3.0529881,4.6945995,397.66756,-506.77467)"
     id="use9385-10"
     style="fill:#7fa7ca;fill-opacity:1">
    <path
       d="m -70.999999,118 0.708122,1.79188 L -68.5,120.5 -70.291877,121.20812 -70.999999,123 -71.708122,121.20812 -73.5,120.5 l 1.791878,-0.70812 z"
       id="path10536-4"
       style="display:inline;overflow:visible;opacity:0.2;fill-rule:evenodd;stroke:none;stroke-width:4;stroke-linecap:butt;stroke-linejoin:miter;stroke-miterlimit:4;stroke-dashoffset:0;stroke-opacity:1;marker:none;marker-start:none;marker-mid:none;marker-end:none;enable-background:accumulate" />
    <path
       d="m -69.653643,120.5 c 0,0.74319 -0.603167,1.34636 -1.346356,1.34636 -0.743189,0 -1.346357,-0.60317 -1.346357,-1.34636 0,-0.74319 0.603168,-1.34636 1.346357,-1.34636 0.743189,0 1.346356,0.60317 1.346356,1.34636 z"
       id="path10538-3"
       style="display:inline;overflow:visible;opacity:0.3;fill-rule:evenodd;stroke:none;stroke-width:4;stroke-linecap:butt;stroke-linejoin:miter;stroke-miterlimit:4;stroke-dashoffset:0;stroke-opacity:1;marker:none;marker-start:none;marker-mid:none;marker-end:none;enable-background:accumulate" />
    <path
       d="m -71.956621,120.5 c 0,0.52806 0.428567,0.95662 0.956622,0.95662 0.528055,0 0.956622,-0.42856 0.956622,-0.95662 0,-0.52806 -0.428567,-0.95662 -0.956622,-0.95662 -0.528055,0 -0.956622,0.42856 -0.956622,0.95662 z"
       id="path10540-0"
       style="display:inline;overflow:visible;fill-rule:evenodd;stroke:none;stroke-width:4;stroke-linecap:butt;stroke-linejoin:miter;stroke-miterlimit:4;stroke-dashoffset:0;stroke-opacity:1;marker:none;marker-start:none;marker-mid:none;marker-end:none;enable-background:accumulate" />
  </g>
  <g
     transform="matrix(4.8082354,-6.4,6.4,4.8082354,-37.632666,-759.839)"
     id="use9385-7"
     style="fill:#7fa7ca;fill-opacity:1">
    <path
       d="m -70.999999,118 0.708122,1.79188 L -68.5,120.5 -70.291877,121.20812 -70.999999,123 -71.708122,121.20812 -73.5,120.5 l 1.791878,-0.70812 z"
       id="path10536-45"
       style="display:inline;overflow:visible;opacity:0.2;fill-rule:evenodd;stroke:none;stroke-width:4;stroke-linecap:butt;stroke-linejoin:miter;stroke-miterlimit:4;stroke-dashoffset:0;stroke-opacity:1;marker:none;marker-start:none;marker-mid:none;marker-end:none;enable-background:accumulate" />
    <path
       d="m -69.653643,120.5 c 0,0.74319 -0.603167,1.34636 -1.346356,1.34636 -0.743189,0 -1.346357,-0.60317 -1.346357,-1.34636 0,-0.74319 0.603168,-1.34636 1.346357,-1.34636 0.743189,0 1.346356,0.60317 1.346356,1.34636 z"
       id="path10538-30"
       style="display:inline;overflow:visible;opacity:0.3;fill-rule:evenodd;stroke:none;stroke-width:4;stroke-linecap:butt;stroke-linejoin:miter;stroke-miterlimit:4;stroke-dashoffset:0;stroke-opacity:1;marker:none;marker-start:none;marker-mid:none;marker-end:none;enable-background:accumulate" />
    <path
       d="m -71.956621,120.5 c 0,0.52806 0.428567,0.95662 0.956622,0.95662 0.528055,0 0.956622,-0.42856 0.956622,-0.95662 0,-0.52806 -0.428567,-0.95662 -0.956622,-0.95662 -0.528055,0 -0.956622,0.42856 -0.956622,0.95662 z"
       id="path10540-82"
       style="display:inline;overflow:visible;fill-rule:evenodd;stroke:none;stroke-width:4;stroke-linecap:butt;stroke-linejoin:miter;stroke-miterlimit:4;stroke-dashoffset:0;stroke-opacity:1;marker:none;marker-start:none;marker-mid:none;marker-end:none;enable-background:accumulate" />
  </g>
  <g
     transform="matrix(8.4,0,0,8.4,1124.4442,-734.05358)"
     id="use9385-16"
     style="fill:#7fa7ca;fill-opacity:1">
    <path
       d="m -70.999999,118 0.708122,1.79188 L -68.5,120.5 -70.291877,121.20812 -70.999999,123 -71.708122,121.20812 -73.5,120.5 l 1.791878,-0.70812 z"
       id="path10536-3"
       style="display:inline;overflow:visible;opacity:0.2;fill-rule:evenodd;stroke:none;stroke-width:4;stroke-linecap:butt;stroke-linejoin:miter;stroke-miterlimit:4;stroke-dashoffset:0;stroke-opacity:1;marker:none;marker-start:none;marker-mid:none;marker-end:none;enable-background:accumulate" />
    <path
       d="m -69.653643,120.5 c 0,0.74319 -0.603167,1.34636 -1.346356,1.34636 -0.743189,0 -1.346357,-0.60317 -1.346357,-1.34636 0,-0.74319 0.603168,-1.34636 1.346357,-1.34636 0.743189,0 1.346356,0.60317 1.346356,1.34636 z"
       id="path10538-92"
       style="display:inline;overflow:visible;opacity:0.3;fill-rule:evenodd;stroke:none;stroke-width:4;stroke-linecap:butt;stroke-linejoin:miter;stroke-miterlimit:4;stroke-dashoffset:0;stroke-opacity:1;marker:none;marker-start:none;marker-mid:none;marker-end:none;enable-background:accumulate" />
    <path
       d="m -71.956621,120.5 c 0,0.52806 0.428567,0.95662 0.956622,0.95662 0.528055,0 0.956622,-0.42856 0.956622,-0.95662 0,-0.52806 -0.428567,-0.95662 -0.956622,-0.95662 -0.528055,0 -0.956622,0.42856 -0.956622,0.95662 z"
       id="path10540-824"
       style="display:inline;overflow:visible;fill-rule:evenodd;stroke:none;stroke-width:4;stroke-linecap:butt;stroke-linejoin:miter;stroke-miterlimit:4;stroke-dashoffset:0;stroke-opacity:1;marker:none;marker-start:none;marker-mid:none;marker-end:none;enable-background:accumulate" />
  </g>
  <g
     transform="matrix(6,2.8576915,-2.8576915,6,1379.8382,-243.51195)"
     id="use9385-72"
     style="fill:#7fa7ca;fill-opacity:1">
    <path
       d="m -70.999999,118 0.708122,1.79188 L -68.5,120.5 -70.291877,121.20812 -70.999999,123 -71.708122,121.20812 -73.5,120.5 l 1.791878,-0.70812 z"
       id="path10536-30"
       style="display:inline;overflow:visible;opacity:0.2;fill-rule:evenodd;stroke:none;stroke-width:4;stroke-linecap:butt;stroke-linejoin:miter;stroke-miterlimit:4;stroke-dashoffset:0;stroke-opacity:1;marker:none;marker-start:none;marker-mid:none;marker-end:none;enable-background:accumulate" />
    <path
       d="m -69.653643,120.5 c 0,0.74319 -0.603167,1.34636 -1.346356,1.34636 -0.743189,0 -1.346357,-0.60317 -1.346357,-1.34636 0,-0.74319 0.603168,-1.34636 1.346357,-1.34636 0.743189,0 1.346356,0.60317 1.346356,1.34636 z"
       id="path10538-0"
       style="display:inline;overflow:visible;opacity:0.3;fill-rule:evenodd;stroke:none;stroke-width:4;stroke-linecap:butt;stroke-linejoin:miter;stroke-miterlimit:4;stroke-dashoffset:0;stroke-opacity:1;marker:none;marker-start:none;marker-mid:none;marker-end:none;enable-background:accumulate" />
    <path
       d="m -71.956621,120.5 c 0,0.52806 0.428567,0.95662 0.956622,0.95662 0.528055,0 0.956622,-0.42856 0.956622,-0.95662 0,-0.52806 -0.428567,-0.95662 -0.956622,-0.95662 -0.528055,0 -0.956622,0.42856 -0.956622,0.95662 z"
       id="path10540-5"
       style="display:inline;overflow:visible;fill-rule:evenodd;stroke:none;stroke-width:4;stroke-linecap:butt;stroke-linejoin:miter;stroke-miterlimit:4;stroke-dashoffset:0;stroke-opacity:1;marker:none;marker-start:none;marker-mid:none;marker-end:none;enable-background:accumulate" />
  </g>
</svg>
