<?xml version="1.0" encoding="UTF-8" standalone="no"?>
<svg
   viewBox="0 0 1280 1280"
   version="1.1"
   id="svg14441"
   xmlns="http://www.w3.org/2000/svg"
   xmlns:svg="http://www.w3.org/2000/svg">
  <defs
     id="defs14445" />
  <path
     d="m 804.14,334.22802 c 1.116,0.89199 1.296,2.51601 0.40401,3.63201 -0.89199,1.116 -2.52,1.29198 -3.63201,0.40398 -1.116,-0.89199 -1.296,-2.52 -0.40398,-3.636 0.89199,-1.11198 2.52,-1.296 3.63198,-0.39999"
     style="fill:#ffffff;fill-opacity:0.25;fill-rule:nonzero;stroke:none;stroke-width:0.399999"
     id="path338" />
  <path
     d="m 797.33201,320.796 c 1.11201,0.89202 1.296,2.52 0.40401,3.63201 -0.89202,1.116 -2.52,1.296 -3.636,0.40401 -1.11201,-0.89202 -1.29201,-2.52 -0.40002,-3.63201 0.89202,-1.116 2.52,-1.296 3.63201,-0.40401"
     style="fill:#ffffff;fill-opacity:0.25;fill-rule:nonzero;stroke:none;stroke-width:0.399999"
     id="path340" />
  <path
     d="m 791.756,308.70402 c 1.116,0.89199 1.296,2.52 0.40401,3.63198 -0.89601,1.116 -2.52,1.296 -3.636,0.40401 C 787.412,311.84802 787.232,310.224 788.12,309.108 c 0.89601,-1.116 2.52,-1.296 3.636,-0.40398"
     style="fill:#ffffff;fill-opacity:0.25;fill-rule:nonzero;stroke:none;stroke-width:0.399999"
     id="path342" />
  <path
     d="m 727.60802,263.87601 c -1.42401,0.1119 -2.66802,-0.95601 -2.77602,-2.37999 -0.108,-1.42401 0.95601,-2.664 2.38002,-2.77602 1.41999,-0.108 2.664,0.95601 2.77599,2.38002 0.108,1.42398 -0.95601,2.66799 -2.37999,2.77599"
     style="fill:#ffffff;fill-opacity:0.25;fill-rule:nonzero;stroke:none;stroke-width:0.399999"
     id="path344" />
  <path
     d="m 741.75602,269.03601 c -1.42401,0.1119 -2.664,-0.95601 -2.77602,-2.37999 -0.108,-1.42002 0.95202,-2.66802 2.38002,-2.77602 1.41999,-0.108 2.664,0.95601 2.772,2.38002 0.1119,1.42398 -0.95202,2.664 -2.376,2.77599"
     style="fill:#ffffff;fill-opacity:0.25;fill-rule:nonzero;stroke:none;stroke-width:0.399999"
     id="path346" />
  <path
     d="m 754.088,274.06002 c -1.42398,0.108 -2.66799,-0.95601 -2.77998,-2.38002 -0.108,-1.42398 0.95598,-2.66799 2.37999,-2.77599 1.42401,-0.1119 2.66799,0.95601 2.77599,2.37999 0.1119,1.42002 -0.95598,2.664 -2.376,2.77602"
     style="fill:#ffffff;fill-opacity:0.25;fill-rule:nonzero;stroke:none;stroke-width:0.399999"
     id="path348" />
  <path
     d="m 785.34002,295.40001 c 1.11198,0.888 1.29198,2.51601 0.40398,3.63201 -0.89598,1.116 -2.52,1.29198 -3.636,0.39999 -1.116,-0.888 -1.296,-2.51601 -0.40398,-3.63201 0.89199,-1.116 2.52,-1.296 3.636,-0.39999"
     style="fill:#ffffff;fill-opacity:0.25;fill-rule:nonzero;stroke:none;stroke-width:0.399999"
     id="path350" />
  <path
     d="m 700.496,236.028 c 0.996,1.02801 0.96801,2.664 -0.06,3.65601 -1.02,0.99201 -2.65998,0.96801 -3.65598,-0.06 -0.99201,-1.02399 -0.96402,-2.66001 0.0639,-3.65601 1.02399,-0.99198 2.66001,-0.96399 3.65199,0.06"
     style="fill:#ffffff;fill-opacity:0.25;fill-rule:nonzero;stroke:none;stroke-width:0.399999"
     id="path352" />
  <path
     d="m 696.13202,221.36802 c 0.996,1.02399 0.96798,2.65998 -0.0561,3.65199 -1.02801,0.996 -2.66001,0.96801 -3.65601,-0.0561 -0.99198,-1.02798 -0.96798,-2.664 0.06,-3.65598 1.02402,-0.99201 2.66001,-0.96801 3.65202,0.06"
     style="fill:#ffffff;fill-opacity:0.25;fill-rule:nonzero;stroke:none;stroke-width:0.399999"
     id="path354" />
  <path
     d="m 663.98801,397.95603 c -0.79599,-1.14 -0.52401,-2.712 0.61599,-3.51201 1.14402,-0.79599 2.71602,-0.51999 3.51201,0.62001 0.804,1.14 0.52401,2.712 -0.61599,3.50799 -1.14,0.80001 -2.712,0.52401 -3.51201,-0.61599"
     style="fill:#ffffff;fill-opacity:0.25;fill-rule:nonzero;stroke:none;stroke-width:0.399999"
     id="path356" />
  <path
     d="m 652.00802,401.25603 c -0.79602,-1.14 -0.52002,-2.712 0.61998,-3.51201 1.14,-0.80001 2.712,-0.51999 3.51201,0.62001 0.79599,1.14 0.51999,2.70798 -0.62001,3.50799 -1.14,0.80001 -2.712,0.52401 -3.51198,-0.61599"
     style="fill:#ffffff;fill-opacity:0.25;fill-rule:nonzero;stroke:none;stroke-width:0.399999"
     id="path358" />
  <path
     d="m 639.83201,404.60802 c -0.79599,-1.14 -0.51999,-2.712 0.62001,-3.51201 1.14,-0.79599 2.712,-0.51999 3.50799,0.62001 0.804,1.14 0.52401,2.712 -0.61599,3.51201 -1.14,0.79599 -2.712,0.51999 -3.51201,-0.62001"
     style="fill:#ffffff;fill-opacity:0.25;fill-rule:nonzero;stroke:none;stroke-width:0.399999"
     id="path360" />
  <path
     d="m 628.184,407.81601 c -0.80001,-1.14 -0.51999,-2.712 0.62001,-3.50799 1.14,-0.80001 2.70798,-0.52401 3.50799,0.61599 0.80001,1.14 0.52401,2.712 -0.61599,3.51201 -1.14,0.80001 -2.712,0.51999 -3.51201,-0.62001"
     style="fill:#ffffff;fill-opacity:0.25;fill-rule:nonzero;stroke:none;stroke-width:0.399999"
     id="path362" />
  <path
     d="m 616.60799,411.00402 c -0.79599,-1.14 -0.51999,-2.712 0.62001,-3.51201 1.14,-0.79599 2.712,-0.51999 3.50799,0.62001 0.80001,1.14 0.52401,2.712 -0.61599,3.51201 -1.14,0.79599 -2.712,0.51999 -3.51201,-0.62001"
     style="fill:#ffffff;fill-opacity:0.25;fill-rule:nonzero;stroke:none;stroke-width:0.399999"
     id="path364" />
  <path
     d="m 604.628,414.30402 c -0.79599,-1.14 -0.51999,-2.712 0.62001,-3.51201 1.14,-0.79998 2.712,-0.51999 3.51198,0.62001 0.79602,1.14 0.52002,2.712 -0.61998,3.50799 -1.14,0.80001 -2.712,0.52401 -3.51201,-0.61599"
     style="fill:#ffffff;fill-opacity:0.25;fill-rule:nonzero;stroke:none;stroke-width:0.399999"
     id="path366" />
  <path
     d="m 591.632,417.88401 c -0.79599,-1.14399 -0.52401,-2.712 0.62001,-3.51198 1.14,-0.80001 2.712,-0.52002 3.51198,0.61599 0.79602,1.14399 0.52002,2.71599 -0.61998,3.51201 -1.14,0.79998 -2.71602,0.52398 -3.51201,-0.61602"
     style="fill:#ffffff;fill-opacity:0.25;fill-rule:nonzero;stroke:none;stroke-width:0.399999"
     id="path368" />
  <path
     d="m 578.516,421.49601 c -0.80001,-1.14 -0.51999,-2.712 0.61599,-3.51198 1.14,-0.80001 2.712,-0.52002 3.51201,0.61998 0.80001,1.14 0.52401,2.712 -0.62001,3.50802 -1.14,0.79998 -2.70798,0.52398 -3.50799,-0.61602"
     style="fill:#ffffff;fill-opacity:0.25;fill-rule:nonzero;stroke:none;stroke-width:0.399999"
     id="path370" />
  <path
     d="m 532.68401,438.98802 c -1.14402,-0.852 -1.38,-2.472 -0.52401,-3.61599 0.852,-1.14402 2.472,-1.38 3.61599,-0.528 1.14402,0.85599 1.38,2.47599 0.528,3.61998 -0.85599,1.14402 -2.47599,1.38 -3.61998,0.52401"
     style="fill:#ffffff;fill-opacity:0.25;fill-rule:nonzero;stroke:none;stroke-width:0.399999"
     id="path372" />
  <path
     d="m 522.07601,446.05203 c -1.14402,-0.85602 -1.38,-2.47602 -0.52401,-3.62001 0.852,-1.14399 2.472,-1.38 3.61599,-0.528 1.14402,0.85599 1.38,2.47599 0.52401,3.62001 -0.852,1.14399 -2.472,1.38 -3.61599,0.528"
     style="fill:#ffffff;fill-opacity:0.25;fill-rule:nonzero;stroke:none;stroke-width:0.399999"
     id="path374" />
  <path
     d="m 511.292,453.22803 c -1.14,-0.85602 -1.37601,-2.47602 -0.52401,-3.62001 0.852,-1.14 2.47602,-1.37601 3.62001,-0.52401 1.14,0.852 1.37601,2.47602 0.52401,3.62001 -0.85602,1.14 -2.47602,1.37601 -3.62001,0.52401"
     style="fill:#ffffff;fill-opacity:0.25;fill-rule:nonzero;stroke:none;stroke-width:0.399999"
     id="path376" />
  <path
     d="m 500.98001,460.09203 c -1.14402,-0.852 -1.38,-2.472 -0.528,-3.61602 0.85599,-1.14399 2.47599,-1.38 3.61998,-0.52398 1.14402,0.852 1.37601,2.472 0.52401,3.61599 -0.852,1.14399 -2.472,1.38 -3.61599,0.52401"
     style="fill:#ffffff;fill-opacity:0.25;fill-rule:nonzero;stroke:none;stroke-width:0.399999"
     id="path378" />
  <path
     d="m 490.72799,466.91601 c -1.14399,-0.852 -1.38,-2.472 -0.52398,-3.61599 0.852,-1.14801 2.472,-1.38 3.61599,-0.528 1.14399,0.85599 1.38,2.47599 0.52401,3.62001 -0.852,1.14399 -2.472,1.38 -3.61602,0.52398"
     style="fill:#ffffff;fill-opacity:0.25;fill-rule:nonzero;stroke:none;stroke-width:0.399999"
     id="path380" />
  <path
     d="m 480.12,473.97603 c -1.144,-0.852 -1.38,-2.472 -0.524,-3.61602 0.852,-1.14399 2.472,-1.38 3.616,-0.528 1.14399,0.85602 1.38,2.47602 0.528,3.62001 -0.85599,1.14399 -2.476,1.38 -3.62,0.52401"
     style="fill:#ffffff;fill-opacity:0.25;fill-rule:nonzero;stroke:none;stroke-width:0.399999"
     id="path382" />
  <path
     d="m 468.612,481.64001 c -1.144,-0.85599 -1.38,-2.47599 -0.524,-3.61998 0.852,-1.14402 2.472,-1.37601 3.616,-0.52401 1.144,0.852 1.38,2.472 0.524,3.61599 -0.852,1.14402 -2.472,1.38 -3.616,0.528"
     style="fill:#ffffff;fill-opacity:0.25;fill-rule:nonzero;stroke:none;stroke-width:0.399999"
     id="path384" />
  <path
     d="m 457.364,487.90803 c -1.144,-0.852 -1.376,-2.472 -0.524,-3.61602 0.85599,-1.14399 2.47599,-1.38 3.61599,-0.52398 1.14401,0.852 1.38401,2.472 0.528,3.61599 -0.85599,1.14399 -2.472,1.38 -3.61999,0.52401"
     style="fill:#ffffff;fill-opacity:0.25;fill-rule:nonzero;stroke:none;stroke-width:0.399999"
     id="path386" />
  <path
     d="m 446.76,494.97201 c -1.14801,-0.85599 -1.38,-2.47599 -0.528,-3.61998 0.85599,-1.14402 2.47599,-1.37601 3.61599,-0.52401 1.14801,0.852 1.38401,2.47599 0.528,3.62001 -0.85599,1.14 -2.472,1.37598 -3.61599,0.52398"
     style="fill:#ffffff;fill-opacity:0.25;fill-rule:nonzero;stroke:none;stroke-width:0.399999"
     id="path388" />
  <path
     d="m 435.24799,502.63203 c -1.144,-0.852 -1.38,-2.47602 -0.52399,-3.61602 0.85599,-1.14399 2.472,-1.38 3.61599,-0.528 1.144,0.85602 1.38,2.47602 0.52401,3.62001 -0.852,1.14399 -2.472,1.38 -3.61601,0.52401"
     style="fill:#ffffff;fill-opacity:0.25;fill-rule:nonzero;stroke:none;stroke-width:0.399999"
     id="path390" />
  <path
     d="m 698.804,388.24002 c -0.79599,-1.13601 -0.51999,-2.70801 0.624,-3.50799 1.13601,-0.80001 2.70801,-0.52002 3.504,0.61998 0.804,1.13601 0.52401,2.712 -0.61599,3.50802 -1.14,0.79998 -2.712,0.52398 -3.51201,-0.62001"
     style="fill:#ffffff;fill-opacity:0.25;fill-rule:nonzero;stroke:none;stroke-width:0.399999"
     id="path392" />
  <path
     d="m 686.61602,391.60002 c -0.80001,-1.14 -0.52002,-2.712 0.61998,-3.51201 1.14,-0.79599 2.70801,-0.51999 3.51201,0.62001 0.79599,1.14 0.516,2.712 -0.624,3.51201 -1.13601,0.79599 -2.70801,0.51999 -3.50799,-0.62001"
     style="fill:#ffffff;fill-opacity:0.25;fill-rule:nonzero;stroke:none;stroke-width:0.399999"
     id="path394" />
  <path
     d="m 675.30002,394.71603 c -0.80001,-1.14 -0.52401,-2.712 0.61998,-3.50802 1.14,-0.79998 2.70801,-0.52398 3.50802,0.61602 0.79998,1.14 0.51999,2.712 -0.62001,3.51198 -1.14,0.79602 -2.712,0.52002 -3.50799,-0.61998"
     style="fill:#ffffff;fill-opacity:0.25;fill-rule:nonzero;stroke:none;stroke-width:0.399999"
     id="path396" />
  <path
     d="m 761.21201,371.71602 c -0.79599,-1.14399 -0.51999,-2.712 0.62001,-3.51201 1.14,-0.79599 2.71599,-0.51999 3.51198,0.62001 0.79602,1.14399 0.52002,2.71599 -0.61998,3.51201 -1.14,0.79998 -2.712,0.51999 -3.51201,-0.62001"
     style="fill:#ffffff;fill-opacity:0.25;fill-rule:nonzero;stroke:none;stroke-width:0.399999"
     id="path398" />
  <path
     d="m 749.23202,375.00801 c -0.80001,-1.14 -0.52002,-2.712 0.61998,-3.51198 1.14,-0.79602 2.712,-0.52002 3.51201,0.61998 0.79599,1.14 0.51999,2.712 -0.62001,3.51201 -1.14399,0.79599 -2.71599,0.51999 -3.51198,-0.62001"
     style="fill:#ffffff;fill-opacity:0.25;fill-rule:nonzero;stroke:none;stroke-width:0.399999"
     id="path400" />
  <path
     d="m 737.05202,378.35202 c -0.79602,-1.14 -0.52002,-2.712 0.61998,-3.51201 1.14,-0.79599 2.71602,-0.51999 3.51201,0.624 0.79599,1.14 0.51999,2.712 -0.62001,3.50802 -1.14,0.79998 -2.712,0.51999 -3.51198,-0.62001"
     style="fill:#ffffff;fill-opacity:0.25;fill-rule:nonzero;stroke:none;stroke-width:0.399999"
     id="path402" />
  <path
     d="m 725.40401,381.55203 c -0.80001,-1.14 -0.51999,-2.712 0.62001,-3.50802 1.14,-0.79998 2.712,-0.51999 3.50799,0.62001 0.79599,1.14 0.51999,2.712 -0.62001,3.50799 -1.14399,0.80001 -2.712,0.52002 -3.50799,-0.61998"
     style="fill:#ffffff;fill-opacity:0.25;fill-rule:nonzero;stroke:none;stroke-width:0.399999"
     id="path404" />
  <path
     d="m 713.82401,384.73602 c -0.79599,-1.14399 -0.51999,-2.71599 0.62001,-3.51201 1.14399,-0.79998 2.712,-0.51999 3.50799,0.62001 0.804,1.14 0.51999,2.712 -0.62001,3.51201 -1.14,0.79599 -2.712,0.51999 -3.50799,-0.62001"
     style="fill:#ffffff;fill-opacity:0.25;fill-rule:nonzero;stroke:none;stroke-width:0.399999"
     id="path406" />
  <path
     d="m 783.84401,365.37603 c -0.79599,-1.14 -0.51999,-2.71602 0.62001,-3.51201 1.14,-0.79599 2.712,-0.51999 3.50799,0.62001 0.80001,1.14 0.52401,2.712 -0.61599,3.50799 -1.14,0.80001 -2.71602,0.52401 -3.51201,-0.61599"
     style="fill:#ffffff;fill-opacity:0.25;fill-rule:nonzero;stroke:none;stroke-width:0.399999"
     id="path408" />
  <path
     d="m 772.52402,368.48403 c -0.79602,-1.14 -0.52002,-2.712 0.61998,-3.51201 1.14,-0.79599 2.712,-0.51999 3.51201,0.62001 0.79599,1.14399 0.51999,2.71599 -0.62001,3.51198 -1.14,0.80001 -2.712,0.52002 -3.51198,-0.61998"
     style="fill:#ffffff;fill-opacity:0.25;fill-rule:nonzero;stroke:none;stroke-width:0.399999"
     id="path410" />
  <path
     d="m 574.20401,321.22401 c -1.008,-0.96 -1.04802,-2.556 -0.0921,-3.56799 0.96,-1.00401 2.556,-1.04802 3.56799,-0.0879 1.00401,0.95601 1.04802,2.55201 0.0879,3.564 -0.95601,1.008 -2.55201,1.04802 -3.564,0.0921"
     style="fill:#ffffff;fill-opacity:0.25;fill-rule:nonzero;stroke:none;stroke-width:0.399999"
     id="path412" />
  <path
     d="m 563.12399,326.83602 c -1.01199,-0.95601 -1.05198,-2.55201 -0.0921,-3.56001 0.95598,-1.01199 2.55198,-1.05201 3.564,-0.0921 1.008,0.95601 1.04799,2.55201 0.0879,3.56001 -0.95601,1.01199 -2.55201,1.05201 -3.56001,0.0921"
     style="fill:#ffffff;fill-opacity:0.25;fill-rule:nonzero;stroke:none;stroke-width:0.399999"
     id="path414" />
  <path
     d="m 551.85599,332.54802 c -1.008,-0.96 -1.05198,-2.556 -0.0921,-3.564 0.96,-1.008 2.556,-1.05201 3.564,-0.0921 1.008,0.95601 1.05198,2.55201 0.0921,3.564 -0.96,1.008 -2.556,1.04802 -3.564,0.0921"
     style="fill:#ffffff;fill-opacity:0.25;fill-rule:nonzero;stroke:none;stroke-width:0.399999"
     id="path416" />
  <path
     d="m 541.07999,338.00802 c -1.01199,-0.95601 -1.05198,-2.55201 -0.0921,-3.564 0.95598,-1.008 2.55198,-1.04799 3.55998,-0.0921 1.01202,0.96 1.05201,2.55201 0.096,3.564 -0.96,1.008 -2.556,1.05201 -3.564,0.0921"
     style="fill:#ffffff;fill-opacity:0.25;fill-rule:nonzero;stroke:none;stroke-width:0.399999"
     id="path418" />
  <path
     d="m 530.36801,343.43601 c -1.008,-0.96 -1.04802,-2.55198 -0.0921,-3.564 0.96,-1.008 2.556,-1.05198 3.564,-0.0921 1.008,0.95598 1.05201,2.55198 0.0921,3.564 -0.96,1.008 -2.55201,1.05198 -3.564,0.0921"
     style="fill:#ffffff;fill-opacity:0.25;fill-rule:nonzero;stroke:none;stroke-width:0.399999"
     id="path420" />
  <path
     d="m 519.284,349.05201 c -1.008,-0.96 -1.04799,-2.556 -0.0921,-3.564 0.96,-1.008 2.556,-1.05198 3.564,-0.0921 1.008,0.96 1.05201,2.556 0.0921,3.564 -0.95601,1.008 -2.55201,1.04799 -3.564,0.0921"
     style="fill:#ffffff;fill-opacity:0.25;fill-rule:nonzero;stroke:none;stroke-width:0.399999"
     id="path422" />
  <path
     d="m 507.26,355.14801 c -1.008,-0.96 -1.05201,-2.556 -0.0921,-3.56799 0.95601,-1.008 2.55201,-1.04799 3.564,-0.0921 1.008,0.96 1.04802,2.556 0.0921,3.564 -0.96,1.01202 -2.556,1.05201 -3.564,0.096"
     style="fill:#ffffff;fill-opacity:0.25;fill-rule:nonzero;stroke:none;stroke-width:0.399999"
     id="path424" />
  <path
     d="m 495.12401,361.29603 c -1.01202,-0.96 -1.05201,-2.556 -0.0921,-3.564 0.96,-1.008 2.55201,-1.05201 3.564,-0.0921 1.008,0.95601 1.04799,2.55201 0.0921,3.564 -0.96,1.008 -2.556,1.04799 -3.564,0.0921"
     style="fill:#ffffff;fill-opacity:0.25;fill-rule:nonzero;stroke:none;stroke-width:0.399999"
     id="path426" />
  <path
     d="m 606.39599,304.776 c -1.01199,-0.95598 -1.05198,-2.55198 -0.0921,-3.564 0.96,-1.008 2.55198,-1.05198 3.55998,-0.0921 1.01202,0.96 1.05201,2.556 0.096,3.564 -0.96,1.008 -2.556,1.05198 -3.564,0.0921"
     style="fill:#ffffff;fill-opacity:0.25;fill-rule:nonzero;stroke:none;stroke-width:0.399999"
     id="path428" />
  <path
     d="m 595.11599,310.49202 c -1.008,-0.96 -1.04799,-2.556 -0.0921,-3.564 0.96,-1.008 2.556,-1.05201 3.564,-0.0921 1.008,0.96 1.05198,2.556 0.0921,3.564 -0.96,1.008 -2.55198,1.05201 -3.564,0.0921"
     style="fill:#ffffff;fill-opacity:0.25;fill-rule:nonzero;stroke:none;stroke-width:0.399999"
     id="path430" />
  <path
     d="m 584.648,315.80001 c -1.01199,-0.96 -1.05201,-2.556 -0.096,-3.564 0.96,-1.01199 2.556,-1.05201 3.564,-0.0921 1.01199,0.95601 1.05201,2.55201 0.0921,3.56001 -0.95601,1.01199 -2.55201,1.05201 -3.56001,0.096"
     style="fill:#ffffff;fill-opacity:0.25;fill-rule:nonzero;stroke:none;stroke-width:0.399999"
     id="path432" />
  <path
     d="m 664.26401,276.16401 c -1.00401,-0.95601 -1.04799,-2.55201 -0.0879,-3.564 0.96,-1.008 2.556,-1.04799 3.564,-0.0879 1.01199,0.96 1.04799,2.556 0.0879,3.564 -0.95601,1.008 -2.556,1.04799 -3.564,0.0879"
     style="fill:#ffffff;fill-opacity:0.25;fill-rule:nonzero;stroke:none;stroke-width:0.399999"
     id="path434" />
  <path
     d="m 653.18,281.77602 c -1.008,-0.96 -1.05198,-2.556 -0.0879,-3.564 0.95601,-1.008 2.55201,-1.05201 3.56001,-0.0921 1.008,0.96 1.05198,2.556 0.0921,3.564 -0.96,1.008 -2.556,1.05201 -3.564,0.0921"
     style="fill:#ffffff;fill-opacity:0.25;fill-rule:nonzero;stroke:none;stroke-width:0.399999"
     id="path436" />
  <path
     d="m 641.912,287.47602 c -1.008,-0.96 -1.05198,-2.556 -0.0921,-3.564 0.95598,-1.008 2.556,-1.04802 3.564,-0.0921 1.008,0.96 1.044,2.556 0.0879,3.56799 -0.96,1.008 -2.55201,1.04802 -3.56001,0.0879"
     style="fill:#ffffff;fill-opacity:0.25;fill-rule:nonzero;stroke:none;stroke-width:0.399999"
     id="path438" />
  <path
     d="m 631.12799,292.932 c -1.008,-0.96 -1.04799,-2.556 -0.0921,-3.564 0.96399,-1.01199 2.556,-1.04799 3.564,-0.0921 1.01199,0.96 1.05198,2.556 0.0921,3.564 -0.96,1.008 -2.556,1.05198 -3.564,0.0921"
     style="fill:#ffffff;fill-opacity:0.25;fill-rule:nonzero;stroke:none;stroke-width:0.399999"
     id="path440" />
  <path
     d="m 620.41601,298.35201 c -1.008,-0.96 -1.05201,-2.556 -0.0921,-3.564 0.96,-1.008 2.556,-1.05201 3.564,-0.0921 1.008,0.96 1.04799,2.556 0.0921,3.564 -0.96402,1.008 -2.556,1.05201 -3.564,0.0921"
     style="fill:#ffffff;fill-opacity:0.25;fill-rule:nonzero;stroke:none;stroke-width:0.399999"
     id="path442" />
  <path
     d="m 685.184,265.44801 c -1.008,-0.96 -1.05198,-2.55201 -0.0879,-3.564 0.96,-1.008 2.55201,-1.04799 3.56001,-0.0879 1.008,0.95598 1.05198,2.55198 0.0921,3.55998 -0.96,1.01202 -2.556,1.05201 -3.564,0.0921"
     style="fill:#ffffff;fill-opacity:0.25;fill-rule:nonzero;stroke:none;stroke-width:0.399999"
     id="path444" />
  <path
     d="m 674.71202,270.74802 c -1.01202,-0.96 -1.05201,-2.556 -0.0921,-3.564 0.96,-1.008 2.55201,-1.04802 3.564,-0.0921 1.008,0.96 1.04799,2.556 0.0879,3.564 -0.96,1.008 -2.55198,1.05201 -3.55998,0.0921"
     style="fill:#ffffff;fill-opacity:0.25;fill-rule:nonzero;stroke:none;stroke-width:0.399999"
     id="path446" />
  <path
     d="m 474.296,387.78003 c -0.844,1.152 -2.46,1.39998 -3.612,0.55599 -1.152,-0.84801 -1.4,-2.46399 -0.556,-3.612 0.848,-1.152 2.464,-1.40001 3.616,-0.55599 1.148,0.84399 1.396,2.46399 0.552,3.612"
     style="fill:#ffffff;fill-opacity:0.25;fill-rule:nonzero;stroke:none;stroke-width:0.399999"
     id="path448" />
  <path
     d="m 450.75999,433.40001 c -1.39199,-0.0999 -2.436,-1.30398 -2.33599,-2.69598 0.096,-1.38402 1.3,-2.43201 2.688,-2.33601 1.392,0.0999 2.436,1.30401 2.33599,2.69199 -0.096,1.38801 -1.29999,2.436 -2.688,2.34"
     style="fill:#ffffff;fill-opacity:0.25;fill-rule:nonzero;stroke:none;stroke-width:0.399999"
     id="path454" />
  <path
     d="m 445.77199,444.78003 c -1.38399,-0.0999 -2.43199,-1.30401 -2.33599,-2.69202 0.1,-1.38798 1.30399,-2.436 2.692,-2.34 1.388,0.0999 2.43599,1.308 2.33999,2.69202 -0.1,1.392 -1.30399,2.436 -2.696,2.34"
     style="fill:#ffffff;fill-opacity:0.25;fill-rule:nonzero;stroke:none;stroke-width:0.399999"
     id="path456" />
  <path
     d="m 440.70799,456.34803 c -1.38799,-0.096 -2.436,-1.30002 -2.33599,-2.69202 0.096,-1.38798 1.30399,-2.43198 2.69199,-2.33598 1.38801,0.096 2.43601,1.30398 2.33601,2.69199 -0.096,1.38801 -1.304,2.436 -2.69201,2.33601"
     style="fill:#ffffff;fill-opacity:0.25;fill-rule:nonzero;stroke:none;stroke-width:0.399999"
     id="path458" />
  <path
     d="m 435.864,467.41602 c -1.392,-0.096 -2.436,-1.30401 -2.34,-2.69199 0.1,-1.38801 1.30399,-2.43201 2.692,-2.33601 1.388,0.0999 2.436,1.30401 2.34,2.69199 -0.1,1.38801 -1.30401,2.436 -2.692,2.33601"
     style="fill:#ffffff;fill-opacity:0.25;fill-rule:nonzero;stroke:none;stroke-width:0.399999"
     id="path460" />
  <path
     d="m 431.04799,478.41603 c -1.38799,-0.096 -2.436,-1.30401 -2.34,-2.69202 0.1,-1.38798 1.30401,-2.436 2.69201,-2.33598 1.38799,0.096 2.436,1.29999 2.34,2.688 -0.1,1.392 -1.30401,2.436 -2.69201,2.34"
     style="fill:#ffffff;fill-opacity:0.25;fill-rule:nonzero;stroke:none;stroke-width:0.399999"
     id="path462" />
  <path
     d="m 426.06399,489.79602 c -1.388,-0.096 -2.43599,-1.30401 -2.336,-2.69199 0.096,-1.38801 1.3,-2.436 2.692,-2.33601 1.388,0.0999 2.432,1.30401 2.336,2.69199 -0.1,1.38801 -1.30399,2.436 -2.692,2.33601"
     style="fill:#ffffff;fill-opacity:0.25;fill-rule:nonzero;stroke:none;stroke-width:0.399999"
     id="path464" />
  <path
     d="m 757.42001,118.77201 c 0.1119,1.38798 -0.92001,2.604 -2.31201,2.71599 -1.38399,0.1161 -2.59998,-0.91599 -2.712,-2.304 -0.1161,-1.38801 0.91602,-2.604 2.30802,-2.71599 1.38798,-0.1161 2.59998,0.91998 2.71599,2.304"
     style="fill:#ffffff;fill-opacity:0.25;fill-rule:nonzero;stroke:none;stroke-width:0.399999"
     id="path466" />
  <path
     d="m 770.564,122.28399 c 0.1119,1.38402 -0.91998,2.604 -2.304,2.71602 -1.38798,0.1119 -2.60799,-0.92001 -2.71998,-2.30802 -0.1119,-1.38798 0.91599,-2.604 2.30799,-2.71599 1.38801,-0.1161 2.60001,0.92001 2.71599,2.30799"
     style="fill:#ffffff;fill-opacity:0.25;fill-rule:nonzero;stroke:none;stroke-width:0.399999"
     id="path468" />
  <path
     d="m 465.148,400.23603 c -1.388,-0.096 -2.43601,-1.30002 -2.34001,-2.688 0.1,-1.392 1.30401,-2.436 2.69201,-2.34 1.388,0.0999 2.436,1.30398 2.34,2.69199 -0.1,1.38801 -1.304,2.436 -2.692,2.33601"
     style="fill:#ffffff;fill-opacity:0.25;fill-rule:nonzero;stroke:none;stroke-width:0.399999"
     id="path470" />
  <path
     d="m 460.076,411.82002 c -1.392,-0.096 -2.436,-1.30401 -2.336,-2.69199 0.096,-1.38801 1.29999,-2.436 2.688,-2.33601 1.392,0.096 2.436,1.29999 2.336,2.69199 -0.096,1.38801 -1.30001,2.43201 -2.688,2.33601"
     style="fill:#ffffff;fill-opacity:0.25;fill-rule:nonzero;stroke:none;stroke-width:0.399999"
     id="path472" />
  <path
     d="m 455.368,422.57202 c -1.388,-0.096 -2.436,-1.30401 -2.34,-2.69199 0.1,-1.38801 1.304,-2.43201 2.692,-2.33601 1.38799,0.0999 2.436,1.30401 2.34,2.69199 -0.1,1.38801 -1.304,2.43201 -2.692,2.33601"
     style="fill:#ffffff;fill-opacity:0.25;fill-rule:nonzero;stroke:none;stroke-width:0.399999"
     id="path474" />
  <path
     d="m 696.97601,182.48001 c 1.40799,0.2439 2.352,1.58001 2.112,2.988 -0.2481,1.40799 -1.584,2.352 -2.99199,2.10399 -1.404,-0.24 -2.34801,-1.57998 -2.10801,-2.98398 0.2481,-1.40802 1.584,-2.352 2.988,-2.10801"
     style="fill:#ffffff;fill-opacity:0.25;fill-rule:nonzero;stroke:none;stroke-width:0.399999"
     id="path484" />
  <path
     d="m 703.23602,171.38001 c 1.404,0.2439 2.352,1.58001 2.10798,2.988 -0.2481,1.404 -1.57998,2.352 -2.988,2.10801 -1.40799,-0.2439 -2.352,-1.58001 -2.10798,-2.988 0.2439,-1.40802 1.57998,-2.352 2.988,-2.10801"
     style="fill:#ffffff;fill-opacity:0.25;fill-rule:nonzero;stroke:none;stroke-width:0.399999"
     id="path486" />
  <path
     d="m 710.024,159.336 c 1.404,0.2439 2.352,1.58001 2.10801,2.988 -0.24,1.40802 -1.58001,2.34801 -2.988,2.10801 -1.404,-0.2439 -2.352,-1.584 -2.10399,-2.988 0.24,-1.40799 1.57599,-2.352 2.98398,-2.10801"
     style="fill:#ffffff;fill-opacity:0.25;fill-rule:nonzero;stroke:none;stroke-width:0.399999"
     id="path488" />
  <path
     d="m 716.88002,147.18 c 1.404,0.2439 2.34798,1.58001 2.10399,2.988 -0.24,1.40802 -1.58001,2.352 -2.988,2.10801 -1.404,-0.2439 -2.34801,-1.58001 -2.10399,-2.988 0.24,-1.404 1.57599,-2.352 2.988,-2.10801"
     style="fill:#ffffff;fill-opacity:0.25;fill-rule:nonzero;stroke:none;stroke-width:0.399999"
     id="path490" />
  <path
     d="m 723.32402,135.744 c 1.40799,0.2439 2.352,1.58001 2.10399,2.99202 -0.24,1.404 -1.57599,2.34798 -2.98401,2.10399 -1.404,-0.2439 -2.34798,-1.58001 -2.10798,-2.988 0.2439,-1.404 1.584,-2.34801 2.988,-2.10801"
     style="fill:#ffffff;fill-opacity:0.25;fill-rule:nonzero;stroke:none;stroke-width:0.399999"
     id="path492" />
  <g
     transform="matrix(5.3909201,-1.5159091,1.5159091,5.3909201,984.08588,-628.30281)"
     id="use9385"
     style="display:inline;fill:#7fa7ca;fill-opacity:1">
    <path
       d="m -70.999999,118 0.708122,1.79188 L -68.5,120.5 -70.291877,121.20812 -70.999999,123 -71.708122,121.20812 -73.5,120.5 l 1.791878,-0.70812 z"
       id="path10536"
       style="display:inline;overflow:visible;opacity:0.2;fill-rule:evenodd;stroke:none;stroke-width:4;stroke-linecap:butt;stroke-linejoin:miter;stroke-miterlimit:4;stroke-dashoffset:0;stroke-opacity:1;marker:none;marker-start:none;marker-mid:none;marker-end:none;enable-background:accumulate" />
    <path
       d="m -69.653643,120.5 c 0,0.74319 -0.603167,1.34636 -1.346356,1.34636 -0.743189,0 -1.346357,-0.60317 -1.346357,-1.34636 0,-0.74319 0.603168,-1.34636 1.346357,-1.34636 0.743189,0 1.346356,0.60317 1.346356,1.34636 z"
       id="path10538"
       style="display:inline;overflow:visible;opacity:0.3;fill-rule:evenodd;stroke:none;stroke-width:4;stroke-linecap:butt;stroke-linejoin:miter;stroke-miterlimit:4;stroke-dashoffset:0;stroke-opacity:1;marker:none;marker-start:none;marker-mid:none;marker-end:none;enable-background:accumulate" />
    <path
       d="m -71.956621,120.5 c 0,0.52806 0.428567,0.95662 0.956622,0.95662 0.528055,0 0.956622,-0.42856 0.956622,-0.95662 0,-0.52806 -0.428567,-0.95662 -0.956622,-0.95662 -0.528055,0 -0.956622,0.42856 -0.956622,0.95662 z"
       id="path10540"
       style="display:inline;overflow:visible;fill-rule:evenodd;stroke:none;stroke-width:4;stroke-linecap:butt;stroke-linejoin:miter;stroke-miterlimit:4;stroke-dashoffset:0;stroke-opacity:1;marker:none;marker-start:none;marker-mid:none;marker-end:none;enable-background:accumulate" />
  </g>
  <g
     transform="matrix(6.4,4.8398971,-4.8398971,6.4,1770.6122,-311.23047)"
     id="use9385-3"
     style="fill:#7fa7ca;fill-opacity:1">
    <path
       d="m -70.999999,118 0.708122,1.79188 L -68.5,120.5 -70.291877,121.20812 -70.999999,123 -71.708122,121.20812 -73.5,120.5 l 1.791878,-0.70812 z"
       id="path10536-4"
       style="display:inline;overflow:visible;opacity:0.2;fill-rule:evenodd;stroke:none;stroke-width:4;stroke-linecap:butt;stroke-linejoin:miter;stroke-miterlimit:4;stroke-dashoffset:0;stroke-opacity:1;marker:none;marker-start:none;marker-mid:none;marker-end:none;enable-background:accumulate" />
    <path
       d="m -69.653643,120.5 c 0,0.74319 -0.603167,1.34636 -1.346356,1.34636 -0.743189,0 -1.346357,-0.60317 -1.346357,-1.34636 0,-0.74319 0.603168,-1.34636 1.346357,-1.34636 0.743189,0 1.346356,0.60317 1.346356,1.34636 z"
       id="path10538-0"
       style="display:inline;overflow:visible;opacity:0.3;fill-rule:evenodd;stroke:none;stroke-width:4;stroke-linecap:butt;stroke-linejoin:miter;stroke-miterlimit:4;stroke-dashoffset:0;stroke-opacity:1;marker:none;marker-start:none;marker-mid:none;marker-end:none;enable-background:accumulate" />
    <path
       d="m -71.956621,120.5 c 0,0.52806 0.428567,0.95662 0.956622,0.95662 0.528055,0 0.956622,-0.42856 0.956622,-0.95662 0,-0.52806 -0.428567,-0.95662 -0.956622,-0.95662 -0.528055,0 -0.956622,0.42856 -0.956622,0.95662 z"
       id="path10540-0"
       style="display:inline;overflow:visible;fill-rule:evenodd;stroke:none;stroke-width:4;stroke-linecap:butt;stroke-linejoin:miter;stroke-miterlimit:4;stroke-dashoffset:0;stroke-opacity:1;marker:none;marker-start:none;marker-mid:none;marker-end:none;enable-background:accumulate" />
  </g>
  <g
     transform="matrix(5.6,0,0,5.6,1086.2561,-470.35705)"
     id="use9385-32"
     style="fill:#7fa7ca;fill-opacity:1">
    <path
       d="m -70.999999,118 0.708122,1.79188 L -68.5,120.5 -70.291877,121.20812 -70.999999,123 -71.708122,121.20812 -73.5,120.5 l 1.791878,-0.70812 z"
       id="path10536-43"
       style="display:inline;overflow:visible;opacity:0.2;fill-rule:evenodd;stroke:none;stroke-width:4;stroke-linecap:butt;stroke-linejoin:miter;stroke-miterlimit:4;stroke-dashoffset:0;stroke-opacity:1;marker:none;marker-start:none;marker-mid:none;marker-end:none;enable-background:accumulate" />
    <path
       d="m -69.653643,120.5 c 0,0.74319 -0.603167,1.34636 -1.346356,1.34636 -0.743189,0 -1.346357,-0.60317 -1.346357,-1.34636 0,-0.74319 0.603168,-1.34636 1.346357,-1.34636 0.743189,0 1.346356,0.60317 1.346356,1.34636 z"
       id="path10538-1"
       style="display:inline;overflow:visible;opacity:0.3;fill-rule:evenodd;stroke:none;stroke-width:4;stroke-linecap:butt;stroke-linejoin:miter;stroke-miterlimit:4;stroke-dashoffset:0;stroke-opacity:1;marker:none;marker-start:none;marker-mid:none;marker-end:none;enable-background:accumulate" />
    <path
       d="m -71.956621,120.5 c 0,0.52806 0.428567,0.95662 0.956622,0.95662 0.528055,0 0.956622,-0.42856 0.956622,-0.95662 0,-0.52806 -0.428567,-0.95662 -0.956622,-0.95662 -0.528055,0 -0.956622,0.42856 -0.956622,0.95662 z"
       id="path10540-5"
       style="display:inline;overflow:visible;fill-rule:evenodd;stroke:none;stroke-width:4;stroke-linecap:butt;stroke-linejoin:miter;stroke-miterlimit:4;stroke-dashoffset:0;stroke-opacity:1;marker:none;marker-start:none;marker-mid:none;marker-end:none;enable-background:accumulate" />
  </g>
  <g
     transform="matrix(6.8,0,0,6.8,1188.6916,-564.33263)"
     id="use9385-36"
     style="fill:#7fa7ca;fill-opacity:1">
    <path
       d="m -70.999999,118 0.708122,1.79188 L -68.5,120.5 -70.291877,121.20812 -70.999999,123 -71.708122,121.20812 -73.5,120.5 l 1.791878,-0.70812 z"
       id="path10536-2"
       style="display:inline;overflow:visible;opacity:0.2;fill-rule:evenodd;stroke:none;stroke-width:4;stroke-linecap:butt;stroke-linejoin:miter;stroke-miterlimit:4;stroke-dashoffset:0;stroke-opacity:1;marker:none;marker-start:none;marker-mid:none;marker-end:none;enable-background:accumulate" />
    <path
       d="m -69.653643,120.5 c 0,0.74319 -0.603167,1.34636 -1.346356,1.34636 -0.743189,0 -1.346357,-0.60317 -1.346357,-1.34636 0,-0.74319 0.603168,-1.34636 1.346357,-1.34636 0.743189,0 1.346356,0.60317 1.346356,1.34636 z"
       id="path10538-7"
       style="display:inline;overflow:visible;opacity:0.3;fill-rule:evenodd;stroke:none;stroke-width:4;stroke-linecap:butt;stroke-linejoin:miter;stroke-miterlimit:4;stroke-dashoffset:0;stroke-opacity:1;marker:none;marker-start:none;marker-mid:none;marker-end:none;enable-background:accumulate" />
    <path
       d="m -71.956621,120.5 c 0,0.52806 0.428567,0.95662 0.956622,0.95662 0.528055,0 0.956622,-0.42856 0.956622,-0.95662 0,-0.52806 -0.428567,-0.95662 -0.956622,-0.95662 -0.528055,0 -0.956622,0.42856 -0.956622,0.95662 z"
       id="path10540-06"
       style="display:inline;overflow:visible;fill-rule:evenodd;stroke:none;stroke-width:4;stroke-linecap:butt;stroke-linejoin:miter;stroke-miterlimit:4;stroke-dashoffset:0;stroke-opacity:1;marker:none;marker-start:none;marker-mid:none;marker-end:none;enable-background:accumulate" />
  </g>
  <g
     transform="matrix(4.4472139,3.4032761,-3.4032761,4.4472139,1499.5711,-14.688649)"
     id="use9385-5"
     style="fill:#7fa7ca;fill-opacity:1">
    <path
       d="m -70.999999,118 0.708122,1.79188 L -68.5,120.5 -70.291877,121.20812 -70.999999,123 -71.708122,121.20812 -73.5,120.5 l 1.791878,-0.70812 z"
       id="path10536-7"
       style="display:inline;overflow:visible;opacity:0.2;fill-rule:evenodd;stroke:none;stroke-width:4;stroke-linecap:butt;stroke-linejoin:miter;stroke-miterlimit:4;stroke-dashoffset:0;stroke-opacity:1;marker:none;marker-start:none;marker-mid:none;marker-end:none;enable-background:accumulate" />
    <path
       d="m -69.653643,120.5 c 0,0.74319 -0.603167,1.34636 -1.346356,1.34636 -0.743189,0 -1.346357,-0.60317 -1.346357,-1.34636 0,-0.74319 0.603168,-1.34636 1.346357,-1.34636 0.743189,0 1.346356,0.60317 1.346356,1.34636 z"
       id="path10538-3"
       style="display:inline;overflow:visible;opacity:0.3;fill-rule:evenodd;stroke:none;stroke-width:4;stroke-linecap:butt;stroke-linejoin:miter;stroke-miterlimit:4;stroke-dashoffset:0;stroke-opacity:1;marker:none;marker-start:none;marker-mid:none;marker-end:none;enable-background:accumulate" />
    <path
       d="m -71.956621,120.5 c 0,0.52806 0.428567,0.95662 0.956622,0.95662 0.528055,0 0.956622,-0.42856 0.956622,-0.95662 0,-0.52806 -0.428567,-0.95662 -0.956622,-0.95662 -0.528055,0 -0.956622,0.42856 -0.956622,0.95662 z"
       id="path10540-1"
       style="display:inline;overflow:visible;fill-rule:evenodd;stroke:none;stroke-width:4;stroke-linecap:butt;stroke-linejoin:miter;stroke-miterlimit:4;stroke-dashoffset:0;stroke-opacity:1;marker:none;marker-start:none;marker-mid:none;marker-end:none;enable-background:accumulate" />
  </g>
  <g
     transform="matrix(7.6,4.4937449,-4.4937449,7.6,1888.9752,-239.94624)"
     id="use9385-56"
     style="fill:#7fa7ca;fill-opacity:1">
    <path
       d="m -70.999999,118 0.708122,1.79188 L -68.5,120.5 -70.291877,121.20812 -70.999999,123 -71.708122,121.20812 -73.5,120.5 l 1.791878,-0.70812 z"
       id="path10536-5"
       style="display:inline;overflow:visible;opacity:0.2;fill-rule:evenodd;stroke:none;stroke-width:4;stroke-linecap:butt;stroke-linejoin:miter;stroke-miterlimit:4;stroke-dashoffset:0;stroke-opacity:1;marker:none;marker-start:none;marker-mid:none;marker-end:none;enable-background:accumulate" />
    <path
       d="m -69.653643,120.5 c 0,0.74319 -0.603167,1.34636 -1.346356,1.34636 -0.743189,0 -1.346357,-0.60317 -1.346357,-1.34636 0,-0.74319 0.603168,-1.34636 1.346357,-1.34636 0.743189,0 1.346356,0.60317 1.346356,1.34636 z"
       id="path10538-30"
       style="display:inline;overflow:visible;opacity:0.3;fill-rule:evenodd;stroke:none;stroke-width:4;stroke-linecap:butt;stroke-linejoin:miter;stroke-miterlimit:4;stroke-dashoffset:0;stroke-opacity:1;marker:none;marker-start:none;marker-mid:none;marker-end:none;enable-background:accumulate" />
    <path
       d="m -71.956621,120.5 c 0,0.52806 0.428567,0.95662 0.956622,0.95662 0.528055,0 0.956622,-0.42856 0.956622,-0.95662 0,-0.52806 -0.428567,-0.95662 -0.956622,-0.95662 -0.528055,0 -0.956622,0.42856 -0.956622,0.95662 z"
       id="path10540-54"
       style="display:inline;overflow:visible;fill-rule:evenodd;stroke:none;stroke-width:4;stroke-linecap:butt;stroke-linejoin:miter;stroke-miterlimit:4;stroke-dashoffset:0;stroke-opacity:1;marker:none;marker-start:none;marker-mid:none;marker-end:none;enable-background:accumulate" />
  </g>
  <g
     transform="matrix(8.8,5.0197386,-5.0197386,8.8,1785.774,-276.19359)"
     id="use9385-2"
     style="fill:#7fa7ca;fill-opacity:1">
    <path
       d="m -70.999999,118 0.708122,1.79188 L -68.5,120.5 -70.291877,121.20812 -70.999999,123 -71.708122,121.20812 -73.5,120.5 l 1.791878,-0.70812 z"
       id="path10536-0"
       style="display:inline;overflow:visible;opacity:0.2;fill-rule:evenodd;stroke:none;stroke-width:4;stroke-linecap:butt;stroke-linejoin:miter;stroke-miterlimit:4;stroke-dashoffset:0;stroke-opacity:1;marker:none;marker-start:none;marker-mid:none;marker-end:none;enable-background:accumulate" />
    <path
       d="m -69.653643,120.5 c 0,0.74319 -0.603167,1.34636 -1.346356,1.34636 -0.743189,0 -1.346357,-0.60317 -1.346357,-1.34636 0,-0.74319 0.603168,-1.34636 1.346357,-1.34636 0.743189,0 1.346356,0.60317 1.346356,1.34636 z"
       id="path10538-9"
       style="display:inline;overflow:visible;opacity:0.3;fill-rule:evenodd;stroke:none;stroke-width:4;stroke-linecap:butt;stroke-linejoin:miter;stroke-miterlimit:4;stroke-dashoffset:0;stroke-opacity:1;marker:none;marker-start:none;marker-mid:none;marker-end:none;enable-background:accumulate" />
    <path
       d="m -71.956621,120.5 c 0,0.52806 0.428567,0.95662 0.956622,0.95662 0.528055,0 0.956622,-0.42856 0.956622,-0.95662 0,-0.52806 -0.428567,-0.95662 -0.956622,-0.95662 -0.528055,0 -0.956622,0.42856 -0.956622,0.95662 z"
       id="path10540-51"
       style="display:inline;overflow:visible;fill-rule:evenodd;stroke:none;stroke-width:4;stroke-linecap:butt;stroke-linejoin:miter;stroke-miterlimit:4;stroke-dashoffset:0;stroke-opacity:1;marker:none;marker-start:none;marker-mid:none;marker-end:none;enable-background:accumulate" />
  </g>
  <g
     transform="matrix(4.8,4.3335901,-4.3335901,4.8,1283.5634,232.86404)"
     id="use9385-4"
     style="fill:#7fa7ca;fill-opacity:1">
    <path
       d="m -70.999999,118 0.708122,1.79188 L -68.5,120.5 -70.291877,121.20812 -70.999999,123 -71.708122,121.20812 -73.5,120.5 l 1.791878,-0.70812 z"
       id="path10536-06"
       style="display:inline;overflow:visible;opacity:0.2;fill-rule:evenodd;stroke:none;stroke-width:4;stroke-linecap:butt;stroke-linejoin:miter;stroke-miterlimit:4;stroke-dashoffset:0;stroke-opacity:1;marker:none;marker-start:none;marker-mid:none;marker-end:none;enable-background:accumulate" />
    <path
       d="m -69.653643,120.5 c 0,0.74319 -0.603167,1.34636 -1.346356,1.34636 -0.743189,0 -1.346357,-0.60317 -1.346357,-1.34636 0,-0.74319 0.603168,-1.34636 1.346357,-1.34636 0.743189,0 1.346356,0.60317 1.346356,1.34636 z"
       id="path10538-4"
       style="display:inline;overflow:visible;opacity:0.3;fill-rule:evenodd;stroke:none;stroke-width:4;stroke-linecap:butt;stroke-linejoin:miter;stroke-miterlimit:4;stroke-dashoffset:0;stroke-opacity:1;marker:none;marker-start:none;marker-mid:none;marker-end:none;enable-background:accumulate" />
    <path
       d="m -71.956621,120.5 c 0,0.52806 0.428567,0.95662 0.956622,0.95662 0.528055,0 0.956622,-0.42856 0.956622,-0.95662 0,-0.52806 -0.428567,-0.95662 -0.956622,-0.95662 -0.528055,0 -0.956622,0.42856 -0.956622,0.95662 z"
       id="path10540-9"
       style="display:inline;overflow:visible;fill-rule:evenodd;stroke:none;stroke-width:4;stroke-linecap:butt;stroke-linejoin:miter;stroke-miterlimit:4;stroke-dashoffset:0;stroke-opacity:1;marker:none;marker-start:none;marker-mid:none;marker-end:none;enable-background:accumulate" />
  </g>
  <g
     transform="matrix(5.6,0,0,5.6,877.93766,-305.85287)"
     id="use9385-9"
     style="fill:#7fa7ca;fill-opacity:1">
    <path
       d="m -70.999999,118 0.708122,1.79188 L -68.5,120.5 -70.291877,121.20812 -70.999999,123 -71.708122,121.20812 -73.5,120.5 l 1.791878,-0.70812 z"
       id="path10536-437"
       style="display:inline;overflow:visible;opacity:0.2;fill-rule:evenodd;stroke:none;stroke-width:4;stroke-linecap:butt;stroke-linejoin:miter;stroke-miterlimit:4;stroke-dashoffset:0;stroke-opacity:1;marker:none;marker-start:none;marker-mid:none;marker-end:none;enable-background:accumulate" />
    <path
       d="m -69.653643,120.5 c 0,0.74319 -0.603167,1.34636 -1.346356,1.34636 -0.743189,0 -1.346357,-0.60317 -1.346357,-1.34636 0,-0.74319 0.603168,-1.34636 1.346357,-1.34636 0.743189,0 1.346356,0.60317 1.346356,1.34636 z"
       id="path10538-42"
       style="display:inline;overflow:visible;opacity:0.3;fill-rule:evenodd;stroke:none;stroke-width:4;stroke-linecap:butt;stroke-linejoin:miter;stroke-miterlimit:4;stroke-dashoffset:0;stroke-opacity:1;marker:none;marker-start:none;marker-mid:none;marker-end:none;enable-background:accumulate" />
    <path
       d="m -71.956621,120.5 c 0,0.52806 0.428567,0.95662 0.956622,0.95662 0.528055,0 0.956622,-0.42856 0.956622,-0.95662 0,-0.52806 -0.428567,-0.95662 -0.956622,-0.95662 -0.528055,0 -0.956622,0.42856 -0.956622,0.95662 z"
       id="path10540-3"
       style="display:inline;overflow:visible;fill-rule:evenodd;stroke:none;stroke-width:4;stroke-linecap:butt;stroke-linejoin:miter;stroke-miterlimit:4;stroke-dashoffset:0;stroke-opacity:1;marker:none;marker-start:none;marker-mid:none;marker-end:none;enable-background:accumulate" />
  </g>
</svg>
