<?xml version="1.0" encoding="UTF-8" standalone="no"?>
<svg
   viewBox="0 0 1280 1280"
   version="1.1"
   id="svg16713"
   xmlns="http://www.w3.org/2000/svg"
   xmlns:svg="http://www.w3.org/2000/svg">
  <defs
     id="defs16717" />
  <path
     d="m 638.45,265.996 c -0.484,-1.424 0.284,-2.972 1.708,-3.452 1.428,-0.48 2.976,0.284 3.456,1.712 0.48,1.424 -0.284,2.972 -1.712,3.452 -1.424,0.484 -2.972,-0.284 -3.452,-1.712"
     style="fill:#ffffff;fill-opacity:0.25;fill-rule:nonzero;stroke:none;stroke-width:0.4"
     id="path666" />
  <path
     d="m 625.01,265.768 c -0.48,-1.428 0.288,-2.976 1.716,-3.456 1.424,-0.48 2.972,0.288 3.452,1.712 0.48,1.428 -0.284,2.976 -1.712,3.456 -1.428,0.48 -2.972,-0.284 -3.456,-1.712"
     style="fill:#ffffff;fill-opacity:0.25;fill-rule:nonzero;stroke:none;stroke-width:0.4"
     id="path668" />
  <path
     d="m 611.354,265.536 c -0.48,-1.428 0.284,-2.972 1.712,-3.452 1.424,-0.484 2.972,0.284 3.452,1.708 0.48,1.428 -0.284,2.976 -1.708,3.456 -1.428,0.48 -2.976,-0.288 -3.456,-1.712"
     style="fill:#ffffff;fill-opacity:0.25;fill-rule:nonzero;stroke:none;stroke-width:0.4"
     id="path670" />
  <path
     d="m 598.286,265.312 c -0.48,-1.424 0.284,-2.972 1.712,-3.452 1.428,-0.484 2.976,0.284 3.456,1.712 0.48,1.424 -0.288,2.972 -1.712,3.452 -1.428,0.48 -2.976,-0.284 -3.456,-1.712"
     style="fill:#ffffff;fill-opacity:0.25;fill-rule:nonzero;stroke:none;stroke-width:0.4"
     id="path672" />
  <path
     d="m 585.302,265.092 c -0.48,-1.428 0.284,-2.976 1.712,-3.456 1.428,-0.48 2.972,0.288 3.456,1.712 0.48,1.424 -0.288,2.972 -1.712,3.456 -1.428,0.48 -2.976,-0.288 -3.456,-1.712"
     style="fill:#ffffff;fill-opacity:0.25;fill-rule:nonzero;stroke:none;stroke-width:0.4"
     id="path674" />
  <path
     d="m 571.866,264.864 c -0.48,-1.428 0.284,-2.976 1.712,-3.456 1.428,-0.48 2.972,0.284 3.456,1.712 0.48,1.428 -0.288,2.976 -1.716,3.456 -1.424,0.48 -2.972,-0.288 -3.452,-1.712"
     style="fill:#ffffff;fill-opacity:0.25;fill-rule:nonzero;stroke:none;stroke-width:0.4"
     id="path676" />
  <path
     d="m 557.28599,264.612 c -0.48,-1.424 0.284,-2.972 1.712,-3.452 1.428,-0.484 2.976,0.284 3.456,1.712 0.48,1.424 -0.288,2.972 -1.712,3.452 -1.428,0.48 -2.972,-0.284 -3.456,-1.712"
     style="fill:#ffffff;fill-opacity:0.25;fill-rule:nonzero;stroke:none;stroke-width:0.4"
     id="path678" />
  <path
     d="m 542.57399,264.364 c -0.48,-1.428 0.284,-2.972 1.712,-3.456 1.428,-0.48 2.972,0.284 3.452,1.712 0.484,1.428 -0.284,2.976 -1.708,3.456 -1.428,0.48 -2.972,-0.288 -3.456,-1.712"
     style="fill:#ffffff;fill-opacity:0.25;fill-rule:nonzero;stroke:none;stroke-width:0.4"
     id="path680" />
  <path
     d="m 527.64599,265.344 c -0.484,-1.424 0.284,-2.972 1.708,-3.452 1.428,-0.48 2.972,0.284 3.456,1.708 0.48,1.428 -0.284,2.976 -1.712,3.46 -1.428,0.48 -2.972,-0.292 -3.452,-1.716"
     style="fill:#ffffff;fill-opacity:0.25;fill-rule:nonzero;stroke:none;stroke-width:0.4"
     id="path682" />
  <path
     d="m 513.98199,265.112 c -0.48,-1.428 0.288,-2.972 1.716,-3.456 1.428,-0.48 2.972,0.284 3.452,1.716 0.484,1.424 -0.284,2.972 -1.712,3.452 -1.424,0.48 -2.972,-0.284 -3.456,-1.712"
     style="fill:#ffffff;fill-opacity:0.25;fill-rule:nonzero;stroke:none;stroke-width:0.4"
     id="path684" />
  <path
     d="m 500.91799,264.892 c -0.48,-1.432 0.288,-2.976 1.712,-3.456 1.428,-0.484 2.972,0.284 3.456,1.712 0.48,1.428 -0.284,2.972 -1.712,3.452 -1.428,0.484 -2.976,-0.284 -3.456,-1.708"
     style="fill:#ffffff;fill-opacity:0.25;fill-rule:nonzero;stroke:none;stroke-width:0.4"
     id="path686" />
  <path
     d="m 487.93399,264.668 c -0.48,-1.424 0.288,-2.972 1.712,-3.452 1.428,-0.484 2.972,0.284 3.456,1.712 0.48,1.424 -0.288,2.972 -1.712,3.452 -1.428,0.48 -2.976,-0.284 -3.456,-1.712"
     style="fill:#ffffff;fill-opacity:0.25;fill-rule:nonzero;stroke:none;stroke-width:0.4"
     id="path688" />
  <path
     d="m 474.49799,264.436 c -0.48,-1.424 0.284,-2.972 1.712,-3.452 1.428,-0.48 2.972,0.284 3.452,1.712 0.484,1.428 -0.284,2.972 -1.708,3.456 -1.428,0.48 -2.972,-0.284 -3.456,-1.716"
     style="fill:#ffffff;fill-opacity:0.25;fill-rule:nonzero;stroke:none;stroke-width:0.4"
     id="path690" />
  <path
     d="m 459.91799,264.192 c -0.48,-1.428 0.288,-2.972 1.712,-3.456 1.428,-0.48 2.976,0.284 3.456,1.712 0.48,1.428 -0.284,2.976 -1.712,3.456 -1.428,0.48 -2.976,-0.288 -3.456,-1.712"
     style="fill:#ffffff;fill-opacity:0.25;fill-rule:nonzero;stroke:none;stroke-width:0.4"
     id="path692" />
  <path
     d="m 445.20599,263.94 c -0.48,-1.428 0.284,-2.976 1.712,-3.456 1.428,-0.48 2.976,0.284 3.456,1.712 0.48,1.428 -0.288,2.976 -1.716,3.456 -1.424,0.48 -2.972,-0.284 -3.452,-1.712"
     style="fill:#ffffff;fill-opacity:0.25;fill-rule:nonzero;stroke:none;stroke-width:0.4"
     id="path694" />
  <path
     d="m 430.42199,264.1 c -0.484,-1.428 0.284,-2.976 1.712,-3.456 1.428,-0.48 2.972,0.288 3.452,1.712 0.48,1.424 -0.284,2.972 -1.712,3.456 -1.424,0.48 -2.972,-0.284 -3.452,-1.712"
     style="fill:#ffffff;fill-opacity:0.25;fill-rule:nonzero;stroke:none;stroke-width:0.4"
     id="path696" />
  <path
     d="m 677.542,266.532 c -0.484,-1.428 0.284,-2.972 1.708,-3.452 1.428,-0.48 2.976,0.284 3.456,1.708 0.48,1.432 -0.284,2.976 -1.712,3.46 -1.428,0.48 -2.972,-0.288 -3.452,-1.716"
     style="fill:#ffffff;fill-opacity:0.25;fill-rule:nonzero;stroke:none;stroke-width:0.4"
     id="path698" />
  <path
     d="m 663.866,266.3 c -0.48,-1.424 0.284,-2.972 1.712,-3.456 1.428,-0.48 2.976,0.284 3.456,1.716 0.48,1.424 -0.288,2.972 -1.716,3.452 -1.424,0.48 -2.972,-0.284 -3.452,-1.712"
     style="fill:#ffffff;fill-opacity:0.25;fill-rule:nonzero;stroke:none;stroke-width:0.4"
     id="path700" />
  <path
     d="m 651.174,266.084 c -0.484,-1.428 0.284,-2.976 1.712,-3.456 1.428,-0.48 2.972,0.288 3.452,1.712 0.48,1.428 -0.284,2.972 -1.712,3.456 -1.424,0.48 -2.972,-0.284 -3.452,-1.712"
     style="fill:#ffffff;fill-opacity:0.25;fill-rule:nonzero;stroke:none;stroke-width:0.4"
     id="path702" />
  <path
     d="m 747.338,268.412 c -0.48,-1.428 0.288,-2.976 1.716,-3.456 1.428,-0.48 2.972,0.292 3.452,1.716 0.48,1.428 -0.288,2.972 -1.716,3.452 -1.424,0.48 -2.972,-0.288 -3.452,-1.712"
     style="fill:#ffffff;fill-opacity:0.25;fill-rule:nonzero;stroke:none;stroke-width:0.4"
     id="path704" />
  <path
     d="m 733.902,268.172 c -0.48,-1.424 0.288,-2.972 1.716,-3.452 1.424,-0.48 2.972,0.288 3.452,1.716 0.48,1.424 -0.288,2.972 -1.716,3.452 -1.428,0.48 -2.972,-0.288 -3.452,-1.716"
     style="fill:#ffffff;fill-opacity:0.25;fill-rule:nonzero;stroke:none;stroke-width:0.4"
     id="path706" />
  <path
     d="m 720.242,267.932 c -0.48,-1.428 0.288,-2.976 1.716,-3.456 1.428,-0.48 2.972,0.292 3.452,1.716 0.48,1.428 -0.284,2.972 -1.712,3.452 -1.428,0.48 -2.972,-0.284 -3.456,-1.712"
     style="fill:#ffffff;fill-opacity:0.25;fill-rule:nonzero;stroke:none;stroke-width:0.4"
     id="path708" />
  <path
     d="m 707.178,267.7 c -0.48,-1.428 0.288,-2.972 1.716,-3.452 1.424,-0.48 2.972,0.288 3.452,1.712 0.48,1.428 -0.288,2.976 -1.716,3.456 -1.428,0.48 -2.972,-0.288 -3.452,-1.716"
     style="fill:#ffffff;fill-opacity:0.25;fill-rule:nonzero;stroke:none;stroke-width:0.4"
     id="path710" />
  <path
     d="m 694.194,267.468 c -0.48,-1.424 0.288,-2.972 1.712,-3.452 1.428,-0.476 2.976,0.288 3.456,1.716 0.48,1.428 -0.288,2.972 -1.716,3.452 -1.424,0.48 -2.972,-0.284 -3.452,-1.716"
     style="fill:#ffffff;fill-opacity:0.25;fill-rule:nonzero;stroke:none;stroke-width:0.4"
     id="path712" />
  <path
     d="m 772.75801,268.732 c -0.48,-1.428 0.288,-2.972 1.712,-3.456 1.428,-0.48 2.972,0.288 3.452,1.716 0.48,1.428 -0.284,2.972 -1.712,3.452 -1.428,0.484 -2.976,-0.288 -3.452,-1.712"
     style="fill:#ffffff;fill-opacity:0.25;fill-rule:nonzero;stroke:none;stroke-width:0.4"
     id="path714" />
  <path
     d="m 760.062,268.504 c -0.48,-1.424 0.288,-2.972 1.716,-3.452 1.424,-0.48 2.972,0.288 3.452,1.716 0.48,1.428 -0.288,2.972 -1.716,3.452 -1.424,0.48 -2.972,-0.284 -3.452,-1.716"
     style="fill:#ffffff;fill-opacity:0.25;fill-rule:nonzero;stroke:none;stroke-width:0.4"
     id="path716" />
  <path
     d="m 424.06199,285.72 c 0.468,1.472 -0.34,3.044 -1.812,3.516 -1.472,0.468 -3.044,-0.344 -3.516,-1.812 -0.468,-1.476 0.344,-3.048 1.816,-3.516 1.468,-0.472 3.044,0.344 3.512,1.812"
     style="fill:#ffffff;fill-opacity:0.25;fill-rule:nonzero;stroke:none;stroke-width:0.4"
     id="path718" />
  <path
     d="m 449.00999,335.31601 c -0.968,1.152 -2.688,1.3 -3.84,0.332 -1.156,-0.968 -1.304,-2.688 -0.336,-3.84 0.972,-1.152 2.688,-1.3 3.844,-0.332 1.152,0.968 1.3,2.688 0.332,3.84"
     style="fill:#ffffff;fill-opacity:0.25;fill-rule:nonzero;stroke:none;stroke-width:0.4"
     id="path720" />
  <path
     d="m 455.80199,346.91601 c -0.972,1.152 -2.688,1.3 -3.844,0.332 -1.152,-0.972 -1.3,-2.688 -0.332,-3.84 0.968,-1.152 2.688,-1.304 3.84,-0.336 1.152,0.968 1.304,2.692 0.336,3.844"
     style="fill:#ffffff;fill-opacity:0.25;fill-rule:nonzero;stroke:none;stroke-width:0.4"
     id="path722" />
  <path
     d="m 462.70199,358.70401 c -0.968,1.152 -2.688,1.3 -3.84,0.332 -1.152,-0.968 -1.3,-2.688 -0.332,-3.84 0.968,-1.152 2.688,-1.304 3.84,-0.336 1.152,0.968 1.3,2.688 0.332,3.844"
     style="fill:#ffffff;fill-opacity:0.25;fill-rule:nonzero;stroke:none;stroke-width:0.4"
     id="path724" />
  <path
     d="m 469.30599,369.97601 c -0.968,1.156 -2.688,1.304 -3.84,0.336 -1.152,-0.968 -1.304,-2.688 -0.336,-3.84 0.968,-1.152 2.688,-1.304 3.844,-0.336 1.152,0.968 1.3,2.688 0.332,3.84"
     style="fill:#ffffff;fill-opacity:0.25;fill-rule:nonzero;stroke:none;stroke-width:0.4"
     id="path726" />
  <path
     d="m 475.86599,381.18401 c -0.968,1.152 -2.688,1.304 -3.84,0.336 -1.152,-0.968 -1.3,-2.688 -0.332,-3.844 0.968,-1.152 2.688,-1.3 3.84,-0.332 1.152,0.968 1.3,2.688 0.332,3.84"
     style="fill:#ffffff;fill-opacity:0.25;fill-rule:nonzero;stroke:none;stroke-width:0.4"
     id="path728" />
  <path
     d="m 482.65799,392.78001 c -0.968,1.156 -2.688,1.304 -3.844,0.332 -1.152,-0.964 -1.3,-2.684 -0.332,-3.84 0.968,-1.152 2.688,-1.3 3.84,-0.332 1.156,0.972 1.304,2.688 0.336,3.84"
     style="fill:#ffffff;fill-opacity:0.25;fill-rule:nonzero;stroke:none;stroke-width:0.4"
     id="path730" />
  <path
     d="m 429.14599,301.644 c -0.972,1.152 -2.692,1.3 -3.844,0.332 -1.152,-0.968 -1.304,-2.688 -0.332,-3.84 0.968,-1.152 2.688,-1.3 3.84,-0.332 1.152,0.968 1.304,2.688 0.336,3.84"
     style="fill:#ffffff;fill-opacity:0.25;fill-rule:nonzero;stroke:none;stroke-width:0.4"
     id="path732" />
  <path
     d="m 436.05399,313.44401 c -0.968,1.156 -2.688,1.304 -3.84,0.332 -1.152,-0.964 -1.304,-2.684 -0.336,-3.84 0.968,-1.152 2.688,-1.3 3.844,-0.332 1.152,0.972 1.3,2.688 0.332,3.84"
     style="fill:#ffffff;fill-opacity:0.25;fill-rule:nonzero;stroke:none;stroke-width:0.4"
     id="path734" />
  <path
     d="m 442.46999,324.40401 c -0.972,1.152 -2.688,1.3 -3.844,0.332 -1.152,-0.968 -1.3,-2.688 -0.332,-3.84 0.968,-1.152 2.688,-1.3 3.84,-0.332 1.152,0.964 1.304,2.688 0.336,3.84"
     style="fill:#ffffff;fill-opacity:0.25;fill-rule:nonzero;stroke:none;stroke-width:0.4"
     id="path736" />
  <path
     d="m 704.186,198.004 c -0.352,1.464 -1.824,2.368 -3.288,2.012 -1.464,-0.352 -2.364,-1.824 -2.012,-3.284 0.348,-1.464 1.824,-2.368 3.284,-2.016 1.468,0.352 2.368,1.824 2.016,3.288"
     style="fill:#ffffff;fill-opacity:0.25;fill-rule:nonzero;stroke:none;stroke-width:0.4"
     id="path744" />
  <path
     d="m 715.438,205.348 c -0.352,1.464 -1.824,2.368 -3.288,2.016 -1.464,-0.352 -2.364,-1.824 -2.012,-3.288 0.352,-1.468 1.824,-2.368 3.288,-2.012 1.464,0.352 2.364,1.824 2.012,3.284"
     style="fill:#ffffff;fill-opacity:0.25;fill-rule:nonzero;stroke:none;stroke-width:0.4"
     id="path746" />
  <path
     d="m 726.878,212.816 c -0.352,1.46 -1.824,2.364 -3.288,2.012 -1.464,-0.352 -2.364,-1.824 -2.012,-3.288 0.352,-1.46 1.824,-2.364 3.288,-2.012 1.464,0.352 2.364,1.824 2.012,3.288"
     style="fill:#ffffff;fill-opacity:0.25;fill-rule:nonzero;stroke:none;stroke-width:0.4"
     id="path748" />
  <path
     d="m 737.822,219.956 c -0.352,1.468 -1.824,2.364 -3.288,2.012 -1.464,-0.352 -2.364,-1.824 -2.012,-3.284 0.352,-1.464 1.824,-2.368 3.288,-2.016 1.464,0.352 2.364,1.824 2.012,3.288"
     style="fill:#ffffff;fill-opacity:0.25;fill-rule:nonzero;stroke:none;stroke-width:0.4"
     id="path750" />
  <path
     d="m 748.698,227.056 c -0.352,1.464 -1.824,2.368 -3.288,2.012 -1.464,-0.352 -2.364,-1.824 -2.012,-3.288 0.348,-1.464 1.824,-2.364 3.284,-2.012 1.464,0.348 2.368,1.824 2.016,3.288"
     style="fill:#ffffff;fill-opacity:0.25;fill-rule:nonzero;stroke:none;stroke-width:0.4"
     id="path752" />
  <path
     d="m 759.95,234.4 c -0.352,1.464 -1.824,2.368 -3.288,2.016 -1.464,-0.352 -2.364,-1.824 -2.012,-3.292 0.352,-1.464 1.824,-2.364 3.288,-2.012 1.464,0.352 2.364,1.824 2.012,3.288"
     style="fill:#ffffff;fill-opacity:0.25;fill-rule:nonzero;stroke:none;stroke-width:0.4"
     id="path754" />
  <path
     d="m 772.16201,242.368 c -0.352,1.464 -1.824,2.368 -3.288,2.016 -1.46401,-0.352 -2.36801,-1.824 -2.01201,-3.288 0.352,-1.468 1.82,-2.364 3.28401,-2.012 1.464,0.352 2.368,1.824 2.016,3.284"
     style="fill:#ffffff;fill-opacity:0.25;fill-rule:nonzero;stroke:none;stroke-width:0.4"
     id="path756" />
  <path
     d="m 784.48201,250.412 c -0.348,1.464 -1.824,2.364 -3.284,2.016 -1.468,-0.352 -2.368,-1.828 -2.016,-3.292 0.352,-1.464 1.824,-2.368 3.288,-2.012 1.464,0.352 2.364,1.82 2.012,3.288"
     style="fill:#ffffff;fill-opacity:0.25;fill-rule:nonzero;stroke:none;stroke-width:0.4"
     id="path758" />
  <path
     d="m 671.374,176.748 c -0.352,1.464 -1.824,2.36 -3.288,2.012 -1.464,-0.352 -2.364,-1.824 -2.012,-3.288 0.352,-1.464 1.824,-2.368 3.288,-2.016 1.464,0.352 2.364,1.824 2.012,3.292"
     style="fill:#ffffff;fill-opacity:0.25;fill-rule:nonzero;stroke:none;stroke-width:0.4"
     id="path760" />
  <path
     d="m 682.826,184.22 c -0.352,1.464 -1.824,2.368 -3.288,2.016 -1.464,-0.356 -2.364,-1.824 -2.012,-3.292 0.352,-1.464 1.824,-2.364 3.288,-2.012 1.464,0.352 2.364,1.824 2.012,3.288"
     style="fill:#ffffff;fill-opacity:0.25;fill-rule:nonzero;stroke:none;stroke-width:0.4"
     id="path762" />
  <path
     d="m 693.458,191.16 c -0.352,1.46 -1.824,2.364 -3.288,2.012 -1.464,-0.352 -2.364,-1.824 -2.012,-3.288 0.352,-1.46 1.824,-2.364 3.288,-2.012 1.464,0.352 2.364,1.824 2.012,3.288"
     style="fill:#ffffff;fill-opacity:0.25;fill-rule:nonzero;stroke:none;stroke-width:0.4"
     id="path764" />
  <path
     d="m 613.282,138.008 c -0.352,1.464 -1.824,2.368 -3.292,2.012 -1.46,-0.352 -2.36,-1.824 -2.008,-3.288 0.352,-1.464 1.824,-2.364 3.288,-2.012 1.464,0.356 2.364,1.828 2.012,3.288"
     style="fill:#ffffff;fill-opacity:0.25;fill-rule:nonzero;stroke:none;stroke-width:0.4"
     id="path766" />
  <path
     d="m 624.53,145.36 c -0.352,1.464 -1.824,2.368 -3.288,2.012 -1.464,-0.352 -2.364,-1.824 -2.012,-3.288 0.352,-1.464 1.828,-2.364 3.288,-2.012 1.464,0.356 2.364,1.828 2.012,3.288"
     style="fill:#ffffff;fill-opacity:0.25;fill-rule:nonzero;stroke:none;stroke-width:0.4"
     id="path768" />
  <path
     d="m 635.966,152.836 c -0.352,1.46 -1.824,2.364 -3.292,2.012 -1.46,-0.356 -2.36,-1.828 -2.008,-3.288 0.352,-1.464 1.824,-2.368 3.288,-2.012 1.464,0.352 2.364,1.824 2.012,3.288"
     style="fill:#ffffff;fill-opacity:0.25;fill-rule:nonzero;stroke:none;stroke-width:0.4"
     id="path770" />
  <path
     d="m 646.902,159.984 c -0.352,1.464 -1.824,2.364 -3.288,2.012 -1.464,-0.356 -2.364,-1.828 -2.012,-3.288 0.356,-1.464 1.828,-2.364 3.292,-2.012 1.464,0.352 2.364,1.824 2.008,3.288"
     style="fill:#ffffff;fill-opacity:0.25;fill-rule:nonzero;stroke:none;stroke-width:0.4"
     id="path772" />
  <path
     d="m 657.774,167.092 c -0.352,1.46 -1.824,2.36 -3.288,2.008 -1.464,-0.352 -2.364,-1.828 -2.012,-3.292 0.352,-1.46 1.828,-2.364 3.288,-2.008 1.464,0.352 2.364,1.824 2.012,3.292"
     style="fill:#ffffff;fill-opacity:0.25;fill-rule:nonzero;stroke:none;stroke-width:0.4"
     id="path774" />
  <path
     d="m 490.05399,199.672 c -1.292,-0.776 -1.704,-2.452 -0.928,-3.74 0.776,-1.292 2.452,-1.704 3.744,-0.928 1.288,0.776 1.7,2.452 0.924,3.744 -0.776,1.288 -2.452,1.7 -3.74,0.924"
     style="fill:#ffffff;fill-opacity:0.25;fill-rule:nonzero;stroke:none;stroke-width:0.4"
     id="path776" />
  <path
     d="m 479.64999,208.18 c -1.288,-0.776 -1.704,-2.452 -0.924,-3.744 0.776,-1.288 2.452,-1.7 3.74,-0.924 1.292,0.776 1.704,2.452 0.928,3.744 -0.78,1.288 -2.456,1.7 -3.744,0.924"
     style="fill:#ffffff;fill-opacity:0.25;fill-rule:nonzero;stroke:none;stroke-width:0.4"
     id="path778" />
  <path
     d="m 469.07799,216.828 c -1.288,-0.776 -1.704,-2.452 -0.928,-3.74 0.78,-1.292 2.456,-1.704 3.744,-0.928 1.288,0.776 1.704,2.452 0.924,3.744 -0.776,1.288 -2.452,1.7 -3.74,0.924"
     style="fill:#ffffff;fill-opacity:0.25;fill-rule:nonzero;stroke:none;stroke-width:0.4"
     id="path780" />
  <path
     d="m 458.96199,225.1 c -1.288,-0.776 -1.704,-2.452 -0.924,-3.74 0.776,-1.288 2.452,-1.704 3.74,-0.924 1.288,0.776 1.704,2.452 0.928,3.74 -0.78,1.288 -2.456,1.708 -3.744,0.924"
     style="fill:#ffffff;fill-opacity:0.25;fill-rule:nonzero;stroke:none;stroke-width:0.4"
     id="path782" />
  <path
     d="m 448.90999,233.324 c -1.288,-0.776 -1.704,-2.452 -0.928,-3.74 0.78,-1.292 2.456,-1.704 3.748,-0.928 1.288,0.78 1.7,2.452 0.924,3.744 -0.776,1.288 -2.452,1.704 -3.744,0.924"
     style="fill:#ffffff;fill-opacity:0.25;fill-rule:nonzero;stroke:none;stroke-width:0.4"
     id="path784" />
  <path
     d="m 438.50999,241.836 c -1.288,-0.776 -1.704,-2.452 -0.928,-3.74 0.78,-1.292 2.456,-1.708 3.744,-0.932 1.288,0.78 1.704,2.456 0.924,3.748 -0.776,1.288 -2.452,1.7 -3.74,0.924"
     style="fill:#ffffff;fill-opacity:0.25;fill-rule:nonzero;stroke:none;stroke-width:0.4"
     id="path786" />
  <path
     d="m 427.22599,251.068 c -1.292,-0.78 -1.708,-2.456 -0.928,-3.744 0.776,-1.288 2.452,-1.704 3.744,-0.924 1.288,0.776 1.7,2.452 0.924,3.74 -0.78,1.292 -2.452,1.704 -3.74,0.928"
     style="fill:#ffffff;fill-opacity:0.25;fill-rule:nonzero;stroke:none;stroke-width:0.4"
     id="path788" />
  <path
     d="m 520.22999,174.816 c -1.288,-0.776 -1.704,-2.452 -0.924,-3.74 0.776,-1.292 2.452,-1.704 3.74,-0.928 1.288,0.78 1.704,2.452 0.928,3.744 -0.78,1.288 -2.456,1.704 -3.744,0.924"
     style="fill:#ffffff;fill-opacity:0.25;fill-rule:nonzero;stroke:none;stroke-width:0.4"
     id="path790" />
  <path
     d="m 509.64599,183.476 c -1.288,-0.776 -1.704,-2.452 -0.924,-3.74 0.776,-1.292 2.452,-1.708 3.74,-0.928 1.288,0.78 1.704,2.456 0.928,3.744 -0.78,1.288 -2.456,1.704 -3.744,0.924"
     style="fill:#ffffff;fill-opacity:0.25;fill-rule:nonzero;stroke:none;stroke-width:0.4"
     id="path792" />
  <path
     d="m 499.81799,191.516 c -1.288,-0.78 -1.704,-2.456 -0.924,-3.748 0.776,-1.288 2.452,-1.7 3.74,-0.924 1.288,0.78 1.704,2.452 0.928,3.748 -0.78,1.288 -2.456,1.7 -3.744,0.924"
     style="fill:#ffffff;fill-opacity:0.25;fill-rule:nonzero;stroke:none;stroke-width:0.4"
     id="path794" />
  <path
     d="m 564.30199,139.644 c -1.292,-0.78 -1.704,-2.456 -0.924,-3.74 0.776,-1.292 2.452,-1.704 3.744,-0.928 1.288,0.78 1.70001,2.456 0.924,3.744 -0.78,1.288 -2.456,1.704 -3.744,0.924"
     style="fill:#ffffff;fill-opacity:0.25;fill-rule:nonzero;stroke:none;stroke-width:0.4"
     id="path796" />
  <path
     d="m 553.72199,148.284 c -1.288,-0.776 -1.704,-2.452 -0.924,-3.74 0.776,-1.288 2.452,-1.704 3.744,-0.924 1.288,0.78 1.7,2.456 0.924,3.744 -0.78,1.288 -2.456,1.7 -3.744,0.92"
     style="fill:#ffffff;fill-opacity:0.25;fill-rule:nonzero;stroke:none;stroke-width:0.4"
     id="path798" />
  <path
     d="m 543.60199,156.556 c -1.288,-0.784 -1.704,-2.456 -0.924,-3.748 0.78,-1.284 2.456,-1.7 3.744,-0.92 1.288,0.776 1.7,2.452 0.924,3.74 -0.78,1.292 -2.456,1.704 -3.744,0.928"
     style="fill:#ffffff;fill-opacity:0.25;fill-rule:nonzero;stroke:none;stroke-width:0.4"
     id="path800" />
  <path
     d="m 533.54599,164.768 c -1.292,-0.776 -1.704,-2.452 -0.924,-3.74 0.776,-1.288 2.452,-1.704 3.744,-0.928 1.284,0.784 1.7,2.46 0.92,3.748 -0.776,1.288 -2.452,1.7 -3.74,0.92"
     style="fill:#ffffff;fill-opacity:0.25;fill-rule:nonzero;stroke:none;stroke-width:0.4"
     id="path802" />
  <path
     d="m 806.57801,296.96 c -0.416,1.488 -1.96,2.352 -3.448,1.936 -1.484,-0.424 -2.352,-1.964 -1.932,-3.452 0.42,-1.488 1.964,-2.348 3.448,-1.932 1.488,0.42 2.352,1.964 1.932,3.448"
     style="fill:#ffffff;fill-opacity:0.25;fill-rule:nonzero;stroke:none;stroke-width:0.4"
     id="path804" />
  <path
     d="m 800.05001,352.09601 c -1.444,0.428 -2.96,-0.396 -3.388,-1.84 -0.428,-1.444 0.396,-2.964 1.84,-3.388 1.444,-0.432 2.96,0.396 3.388,1.84 0.428,1.44 -0.396,2.956 -1.84,3.388"
     style="fill:#ffffff;fill-opacity:0.25;fill-rule:nonzero;stroke:none;stroke-width:0.4"
     id="path806" />
  <path
     d="m 799.32201,365.51201 c -1.444,0.428 -2.96,-0.396 -3.388,-1.84 -0.428,-1.44 0.396,-2.96 1.84,-3.388 1.444,-0.428 2.96,0.396 3.388,1.84 0.428,1.444 -0.396,2.964 -1.84,3.388"
     style="fill:#ffffff;fill-opacity:0.25;fill-rule:nonzero;stroke:none;stroke-width:0.4"
     id="path808" />
  <path
     d="m 798.58201,379.15201 c -1.444,0.432 -2.96,-0.392 -3.388,-1.84 -0.428,-1.44 0.396,-2.96 1.84,-3.384 1.444,-0.432 2.96,0.392 3.384,1.84 0.432,1.44 -0.392,2.96 -1.836,3.384"
     style="fill:#ffffff;fill-opacity:0.25;fill-rule:nonzero;stroke:none;stroke-width:0.4"
     id="path810" />
  <path
     d="m 797.87401,392.20401 c -1.444,0.424 -2.964,-0.4 -3.392,-1.84 -0.424,-1.444 0.4,-2.96 1.84,-3.392 1.444,-0.424 2.964,0.4 3.392,1.84 0.428,1.448 -0.4,2.96 -1.84,3.392"
     style="fill:#ffffff;fill-opacity:0.25;fill-rule:nonzero;stroke:none;stroke-width:0.4"
     id="path812" />
  <path
     d="m 797.17001,405.16801 c -1.444,0.432 -2.96,-0.396 -3.388,-1.84 -0.428,-1.44 0.396,-2.96 1.84,-3.388 1.44,-0.428 2.956,0.396 3.384,1.84 0.428,1.444 -0.392,2.964 -1.836,3.388"
     style="fill:#ffffff;fill-opacity:0.25;fill-rule:nonzero;stroke:none;stroke-width:0.4"
     id="path814" />
  <path
     d="m 796.44201,418.58801 c -1.444,0.428 -2.96,-0.396 -3.388,-1.836 -0.428,-1.448 0.396,-2.964 1.84,-3.392 1.44,-0.424 2.956,0.396 3.384,1.84 0.432,1.444 -0.392,2.96 -1.836,3.388"
     style="fill:#ffffff;fill-opacity:0.25;fill-rule:nonzero;stroke:none;stroke-width:0.4"
     id="path816" />
  <path
     d="m 802.04201,313.05201 c -1.448,0.424 -2.964,-0.4 -3.392,-1.84 -0.424,-1.444 0.396,-2.96 1.84,-3.392 1.444,-0.424 2.96,0.4 3.388,1.84 0.428,1.444 -0.396,2.96 -1.836,3.392"
     style="fill:#ffffff;fill-opacity:0.25;fill-rule:nonzero;stroke:none;stroke-width:0.4"
     id="path818" />
  <path
     d="m 801.29801,326.70401 c -1.444,0.428 -2.96,-0.396 -3.388,-1.84 -0.428,-1.44 0.396,-2.956 1.84,-3.388 1.444,-0.428 2.96,0.396 3.388,1.84 0.428,1.444 -0.396,2.96 -1.84,3.388"
     style="fill:#ffffff;fill-opacity:0.25;fill-rule:nonzero;stroke:none;stroke-width:0.4"
     id="path820" />
  <path
     d="m 800.61001,339.38401 c -1.444,0.424 -2.96,-0.4 -3.388,-1.84 -0.428,-1.444 0.396,-2.96 1.84,-3.392 1.444,-0.424 2.96,0.4 3.388,1.84 0.428,1.444 -0.396,2.96 -1.84,3.392"
     style="fill:#ffffff;fill-opacity:0.25;fill-rule:nonzero;stroke:none;stroke-width:0.4"
     id="path822" />
  <path
     d="m 493.27799,435.13601 c -1.444,0.428 -2.96,-0.396 -3.388,-1.84 -0.428,-1.444 0.396,-2.96 1.84,-3.388 1.444,-0.428 2.96,0.396 3.388,1.84 0.428,1.444 -0.396,2.96 -1.84,3.388"
     style="fill:#ffffff;fill-opacity:0.25;fill-rule:nonzero;stroke:none;stroke-width:0.4"
     id="path826" />
  <path
     d="m 492.56999,448.18401 c -1.444,0.428 -2.96,-0.396 -3.388,-1.84 -0.428,-1.44 0.396,-2.96 1.84,-3.388 1.444,-0.428 2.96,0.396 3.388,1.84 0.424,1.444 -0.396,2.964 -1.84,3.388"
     style="fill:#ffffff;fill-opacity:0.25;fill-rule:nonzero;stroke:none;stroke-width:0.4"
     id="path828" />
  <path
     d="m 491.86599,461.15201 c -1.444,0.428 -2.96,-0.396 -3.388,-1.84 -0.428,-1.444 0.396,-2.96 1.836,-3.388 1.444,-0.428 2.964,0.396 3.392,1.84 0.428,1.444 -0.396,2.96 -1.84,3.388"
     style="fill:#ffffff;fill-opacity:0.25;fill-rule:nonzero;stroke:none;stroke-width:0.4"
     id="path830" />
  <path
     d="m 491.13799,474.57201 c -1.444,0.424 -2.96,-0.396 -3.388,-1.84 -0.428,-1.448 0.396,-2.964 1.836,-3.388 1.444,-0.428 2.964,0.396 3.392,1.836 0.424,1.444 -0.396,2.96 -1.84,3.392"
     style="fill:#ffffff;fill-opacity:0.25;fill-rule:nonzero;stroke:none;stroke-width:0.4"
     id="path832" />
  <path
     d="m 821.39001,460.38401 c 0.04,1.544 -1.176,2.828 -2.72,2.872 -1.544,0.04 -2.828,-1.176 -2.868,-2.72 -0.044,-1.544 1.172,-2.828 2.716,-2.872 1.544,-0.044 2.828,1.176 2.872,2.72"
     style="fill:#ffffff;fill-opacity:0.25;fill-rule:nonzero;stroke:none;stroke-width:0.4"
     id="path838" />
  <g
     transform="matrix(7.6,0,0,7.6,1374.4009,-439.13714)"
     id="use9385-36"
     style="fill:#7fa7ca;fill-opacity:1">
    <path
       d="m -70.999999,118 0.708122,1.79188 L -68.5,120.5 -70.291877,121.20812 -70.999999,123 -71.708122,121.20812 -73.5,120.5 l 1.791878,-0.70812 z"
       id="path10536-2"
       style="display:inline;overflow:visible;opacity:0.2;fill-rule:evenodd;stroke:none;stroke-width:4;stroke-linecap:butt;stroke-linejoin:miter;stroke-miterlimit:4;stroke-dashoffset:0;stroke-opacity:1;marker:none;marker-start:none;marker-mid:none;marker-end:none;enable-background:accumulate" />
    <path
       d="m -69.653643,120.5 c 0,0.74319 -0.603167,1.34636 -1.346356,1.34636 -0.743189,0 -1.346357,-0.60317 -1.346357,-1.34636 0,-0.74319 0.603168,-1.34636 1.346357,-1.34636 0.743189,0 1.346356,0.60317 1.346356,1.34636 z"
       id="path10538-7"
       style="display:inline;overflow:visible;opacity:0.3;fill-rule:evenodd;stroke:none;stroke-width:4;stroke-linecap:butt;stroke-linejoin:miter;stroke-miterlimit:4;stroke-dashoffset:0;stroke-opacity:1;marker:none;marker-start:none;marker-mid:none;marker-end:none;enable-background:accumulate" />
    <path
       d="m -71.956621,120.5 c 0,0.52806 0.428567,0.95662 0.956622,0.95662 0.528055,0 0.956622,-0.42856 0.956622,-0.95662 0,-0.52806 -0.428567,-0.95662 -0.956622,-0.95662 -0.528055,0 -0.956622,0.42856 -0.956622,0.95662 z"
       id="path10540-06"
       style="display:inline;overflow:visible;fill-rule:evenodd;stroke:none;stroke-width:4;stroke-linecap:butt;stroke-linejoin:miter;stroke-miterlimit:4;stroke-dashoffset:0;stroke-opacity:1;marker:none;marker-start:none;marker-mid:none;marker-end:none;enable-background:accumulate" />
  </g>
  <g
     transform="matrix(6.2853553,2.5950547,-2.5950547,6.2853553,1555.7702,-131.11636)"
     id="use9385-36-1"
     style="fill:#7fa7ca;fill-opacity:1">
    <path
       d="m -70.999999,118 0.708122,1.79188 L -68.5,120.5 -70.291877,121.20812 -70.999999,123 -71.708122,121.20812 -73.5,120.5 l 1.791878,-0.70812 z"
       id="path10536-2-7"
       style="display:inline;overflow:visible;opacity:0.2;fill-rule:evenodd;stroke:none;stroke-width:4;stroke-linecap:butt;stroke-linejoin:miter;stroke-miterlimit:4;stroke-dashoffset:0;stroke-opacity:1;marker:none;marker-start:none;marker-mid:none;marker-end:none;enable-background:accumulate" />
    <path
       d="m -69.653643,120.5 c 0,0.74319 -0.603167,1.34636 -1.346356,1.34636 -0.743189,0 -1.346357,-0.60317 -1.346357,-1.34636 0,-0.74319 0.603168,-1.34636 1.346357,-1.34636 0.743189,0 1.346356,0.60317 1.346356,1.34636 z"
       id="path10538-7-6"
       style="display:inline;overflow:visible;opacity:0.3;fill-rule:evenodd;stroke:none;stroke-width:4;stroke-linecap:butt;stroke-linejoin:miter;stroke-miterlimit:4;stroke-dashoffset:0;stroke-opacity:1;marker:none;marker-start:none;marker-mid:none;marker-end:none;enable-background:accumulate" />
    <path
       d="m -71.956621,120.5 c 0,0.52806 0.428567,0.95662 0.956622,0.95662 0.528055,0 0.956622,-0.42856 0.956622,-0.95662 0,-0.52806 -0.428567,-0.95662 -0.956622,-0.95662 -0.528055,0 -0.956622,0.42856 -0.956622,0.95662 z"
       id="path10540-06-0"
       style="display:inline;overflow:visible;fill-rule:evenodd;stroke:none;stroke-width:4;stroke-linecap:butt;stroke-linejoin:miter;stroke-miterlimit:4;stroke-dashoffset:0;stroke-opacity:1;marker:none;marker-start:none;marker-mid:none;marker-end:none;enable-background:accumulate" />
  </g>
  <g
     transform="matrix(6.2091718,2.772397,-2.772397,6.2091718,1578.4833,-283.31856)"
     id="use9385-36-7"
     style="fill:#7fa7ca;fill-opacity:1">
    <path
       d="m -70.999999,118 0.708122,1.79188 L -68.5,120.5 -70.291877,121.20812 -70.999999,123 -71.708122,121.20812 -73.5,120.5 l 1.791878,-0.70812 z"
       id="path10536-2-4"
       style="display:inline;overflow:visible;opacity:0.2;fill-rule:evenodd;stroke:none;stroke-width:4;stroke-linecap:butt;stroke-linejoin:miter;stroke-miterlimit:4;stroke-dashoffset:0;stroke-opacity:1;marker:none;marker-start:none;marker-mid:none;marker-end:none;enable-background:accumulate" />
    <path
       d="m -69.653643,120.5 c 0,0.74319 -0.603167,1.34636 -1.346356,1.34636 -0.743189,0 -1.346357,-0.60317 -1.346357,-1.34636 0,-0.74319 0.603168,-1.34636 1.346357,-1.34636 0.743189,0 1.346356,0.60317 1.346356,1.34636 z"
       id="path10538-7-7"
       style="display:inline;overflow:visible;opacity:0.3;fill-rule:evenodd;stroke:none;stroke-width:4;stroke-linecap:butt;stroke-linejoin:miter;stroke-miterlimit:4;stroke-dashoffset:0;stroke-opacity:1;marker:none;marker-start:none;marker-mid:none;marker-end:none;enable-background:accumulate" />
    <path
       d="m -71.956621,120.5 c 0,0.52806 0.428567,0.95662 0.956622,0.95662 0.528055,0 0.956622,-0.42856 0.956622,-0.95662 0,-0.52806 -0.428567,-0.95662 -0.956622,-0.95662 -0.528055,0 -0.956622,0.42856 -0.956622,0.95662 z"
       id="path10540-06-6"
       style="display:inline;overflow:visible;fill-rule:evenodd;stroke:none;stroke-width:4;stroke-linecap:butt;stroke-linejoin:miter;stroke-miterlimit:4;stroke-dashoffset:0;stroke-opacity:1;marker:none;marker-start:none;marker-mid:none;marker-end:none;enable-background:accumulate" />
  </g>
  <g
     transform="matrix(7.6,0,0,7.6,1128.5057,-790.70246)"
     id="use9385-36-2"
     style="fill:#7fa7ca;fill-opacity:1">
    <path
       d="m -70.999999,118 0.708122,1.79188 L -68.5,120.5 -70.291877,121.20812 -70.999999,123 -71.708122,121.20812 -73.5,120.5 l 1.791878,-0.70812 z"
       id="path10536-2-6"
       style="display:inline;overflow:visible;opacity:0.2;fill-rule:evenodd;stroke:none;stroke-width:4;stroke-linecap:butt;stroke-linejoin:miter;stroke-miterlimit:4;stroke-dashoffset:0;stroke-opacity:1;marker:none;marker-start:none;marker-mid:none;marker-end:none;enable-background:accumulate" />
    <path
       d="m -69.653643,120.5 c 0,0.74319 -0.603167,1.34636 -1.346356,1.34636 -0.743189,0 -1.346357,-0.60317 -1.346357,-1.34636 0,-0.74319 0.603168,-1.34636 1.346357,-1.34636 0.743189,0 1.346356,0.60317 1.346356,1.34636 z"
       id="path10538-7-77"
       style="display:inline;overflow:visible;opacity:0.3;fill-rule:evenodd;stroke:none;stroke-width:4;stroke-linecap:butt;stroke-linejoin:miter;stroke-miterlimit:4;stroke-dashoffset:0;stroke-opacity:1;marker:none;marker-start:none;marker-mid:none;marker-end:none;enable-background:accumulate" />
    <path
       d="m -71.956621,120.5 c 0,0.52806 0.428567,0.95662 0.956622,0.95662 0.528055,0 0.956622,-0.42856 0.956622,-0.95662 0,-0.52806 -0.428567,-0.95662 -0.956622,-0.95662 -0.528055,0 -0.956622,0.42856 -0.956622,0.95662 z"
       id="path10540-06-5"
       style="display:inline;overflow:visible;fill-rule:evenodd;stroke:none;stroke-width:4;stroke-linecap:butt;stroke-linejoin:miter;stroke-miterlimit:4;stroke-dashoffset:0;stroke-opacity:1;marker:none;marker-start:none;marker-mid:none;marker-end:none;enable-background:accumulate" />
  </g>
  <g
     transform="matrix(7.6,-2.3524814,2.3524814,7.6,667.79077,-821.05955)"
     id="use9385-36-3"
     style="fill:#7fa7ca;fill-opacity:1">
    <path
       d="m -70.999999,118 0.708122,1.79188 L -68.5,120.5 -70.291877,121.20812 -70.999999,123 -71.708122,121.20812 -73.5,120.5 l 1.791878,-0.70812 z"
       id="path10536-2-1"
       style="display:inline;overflow:visible;opacity:0.2;fill-rule:evenodd;stroke:none;stroke-width:4;stroke-linecap:butt;stroke-linejoin:miter;stroke-miterlimit:4;stroke-dashoffset:0;stroke-opacity:1;marker:none;marker-start:none;marker-mid:none;marker-end:none;enable-background:accumulate" />
    <path
       d="m -69.653643,120.5 c 0,0.74319 -0.603167,1.34636 -1.346356,1.34636 -0.743189,0 -1.346357,-0.60317 -1.346357,-1.34636 0,-0.74319 0.603168,-1.34636 1.346357,-1.34636 0.743189,0 1.346356,0.60317 1.346356,1.34636 z"
       id="path10538-7-4"
       style="display:inline;overflow:visible;opacity:0.3;fill-rule:evenodd;stroke:none;stroke-width:4;stroke-linecap:butt;stroke-linejoin:miter;stroke-miterlimit:4;stroke-dashoffset:0;stroke-opacity:1;marker:none;marker-start:none;marker-mid:none;marker-end:none;enable-background:accumulate" />
    <path
       d="m -71.956621,120.5 c 0,0.52806 0.428567,0.95662 0.956622,0.95662 0.528055,0 0.956622,-0.42856 0.956622,-0.95662 0,-0.52806 -0.428567,-0.95662 -0.956622,-0.95662 -0.528055,0 -0.956622,0.42856 -0.956622,0.95662 z"
       id="path10540-06-4"
       style="display:inline;overflow:visible;fill-rule:evenodd;stroke:none;stroke-width:4;stroke-linecap:butt;stroke-linejoin:miter;stroke-miterlimit:4;stroke-dashoffset:0;stroke-opacity:1;marker:none;marker-start:none;marker-mid:none;marker-end:none;enable-background:accumulate" />
  </g>
  <g
     transform="matrix(6.637277,1.4786999,-1.4786999,6.637277,1139.078,-285.53334)"
     id="use9385-36-5"
     style="fill:#7fa7ca;fill-opacity:1">
    <path
       d="m -70.999999,118 0.708122,1.79188 L -68.5,120.5 -70.291877,121.20812 -70.999999,123 -71.708122,121.20812 -73.5,120.5 l 1.791878,-0.70812 z"
       id="path10536-2-3"
       style="display:inline;overflow:visible;opacity:0.2;fill-rule:evenodd;stroke:none;stroke-width:4;stroke-linecap:butt;stroke-linejoin:miter;stroke-miterlimit:4;stroke-dashoffset:0;stroke-opacity:1;marker:none;marker-start:none;marker-mid:none;marker-end:none;enable-background:accumulate" />
    <path
       d="m -69.653643,120.5 c 0,0.74319 -0.603167,1.34636 -1.346356,1.34636 -0.743189,0 -1.346357,-0.60317 -1.346357,-1.34636 0,-0.74319 0.603168,-1.34636 1.346357,-1.34636 0.743189,0 1.346356,0.60317 1.346356,1.34636 z"
       id="path10538-7-2"
       style="display:inline;overflow:visible;opacity:0.3;fill-rule:evenodd;stroke:none;stroke-width:4;stroke-linecap:butt;stroke-linejoin:miter;stroke-miterlimit:4;stroke-dashoffset:0;stroke-opacity:1;marker:none;marker-start:none;marker-mid:none;marker-end:none;enable-background:accumulate" />
    <path
       d="m -71.956621,120.5 c 0,0.52806 0.428567,0.95662 0.956622,0.95662 0.528055,0 0.956622,-0.42856 0.956622,-0.95662 0,-0.52806 -0.428567,-0.95662 -0.956622,-0.95662 -0.528055,0 -0.956622,0.42856 -0.956622,0.95662 z"
       id="path10540-06-43"
       style="display:inline;overflow:visible;fill-rule:evenodd;stroke:none;stroke-width:4;stroke-linecap:butt;stroke-linejoin:miter;stroke-miterlimit:4;stroke-dashoffset:0;stroke-opacity:1;marker:none;marker-start:none;marker-mid:none;marker-end:none;enable-background:accumulate" />
  </g>
  <g
     transform="matrix(4.8,4.1738548,-4.1738548,4.8,1331.3939,212.11094)"
     id="use9385-36-10"
     style="fill:#7fa7ca;fill-opacity:1">
    <path
       d="m -70.999999,118 0.708122,1.79188 L -68.5,120.5 -70.291877,121.20812 -70.999999,123 -71.708122,121.20812 -73.5,120.5 l 1.791878,-0.70812 z"
       id="path10536-2-5"
       style="display:inline;overflow:visible;opacity:0.2;fill-rule:evenodd;stroke:none;stroke-width:4;stroke-linecap:butt;stroke-linejoin:miter;stroke-miterlimit:4;stroke-dashoffset:0;stroke-opacity:1;marker:none;marker-start:none;marker-mid:none;marker-end:none;enable-background:accumulate" />
    <path
       d="m -69.653643,120.5 c 0,0.74319 -0.603167,1.34636 -1.346356,1.34636 -0.743189,0 -1.346357,-0.60317 -1.346357,-1.34636 0,-0.74319 0.603168,-1.34636 1.346357,-1.34636 0.743189,0 1.346356,0.60317 1.346356,1.34636 z"
       id="path10538-7-23"
       style="display:inline;overflow:visible;opacity:0.3;fill-rule:evenodd;stroke:none;stroke-width:4;stroke-linecap:butt;stroke-linejoin:miter;stroke-miterlimit:4;stroke-dashoffset:0;stroke-opacity:1;marker:none;marker-start:none;marker-mid:none;marker-end:none;enable-background:accumulate" />
    <path
       d="m -71.956621,120.5 c 0,0.52806 0.428567,0.95662 0.956622,0.95662 0.528055,0 0.956622,-0.42856 0.956622,-0.95662 0,-0.52806 -0.428567,-0.95662 -0.956622,-0.95662 -0.528055,0 -0.956622,0.42856 -0.956622,0.95662 z"
       id="path10540-06-3"
       style="display:inline;overflow:visible;fill-rule:evenodd;stroke:none;stroke-width:4;stroke-linecap:butt;stroke-linejoin:miter;stroke-miterlimit:4;stroke-dashoffset:0;stroke-opacity:1;marker:none;marker-start:none;marker-mid:none;marker-end:none;enable-background:accumulate" />
  </g>
</svg>
