<?xml version="1.0" encoding="UTF-8" standalone="no"?>
<svg
   viewBox="0 0 1280 1280"
   version="1.1"
   id="svg21608"
   sodipodi:docname="sagittarius.svg"
   inkscape:version="1.2.2 (732a01da63, 2022-12-09)"
   xmlns:inkscape="http://www.inkscape.org/namespaces/inkscape"
   xmlns:sodipodi="http://sodipodi.sourceforge.net/DTD/sodipodi-0.dtd"
   xmlns="http://www.w3.org/2000/svg"
   xmlns:svg="http://www.w3.org/2000/svg">
  <sodipodi:namedview
     id="namedview10346"
     pagecolor="#ffffff"
     bordercolor="#cccccc"
     borderopacity="1"
     inkscape:showpageshadow="0"
     inkscape:pageopacity="1"
     inkscape:pagecheckerboard="0"
     inkscape:deskcolor="#d1d1d1"
     showgrid="false"
     inkscape:zoom="0.74798639"
     inkscape:cx="292.11761"
     inkscape:cy="594.93061"
     inkscape:current-layer="svg21608" />
  <defs
     id="defs21612" />
  <path
     d="m 736.98996,191.344 c 0.436,1.768 -0.648,3.548 -2.412,3.984 -1.768,0.432 -3.548,-0.652 -3.98,-2.416 -0.436,-1.764 0.648,-3.548 2.412,-3.98 1.764,-0.436 3.548,0.648 3.98,2.412"
     style="fill:#ffffff;fill-opacity:0.25;fill-rule:nonzero;stroke:none;stroke-width:0.4"
     id="path202" />
  <path
     d="m 740.54196,172.496 c 0.432,1.768 -0.648,3.552 -2.416,3.988 -1.764,0.428 -3.544,-0.652 -3.98,-2.416 -0.432,-1.764 0.648,-3.552 2.416,-3.984 1.764,-0.428 3.544,0.648 3.98,2.412"
     style="fill:#ffffff;fill-opacity:0.25;fill-rule:nonzero;stroke:none;stroke-width:0.4"
     id="path204" />
  <path
     d="m 744.29396,155.964 c 0.436,1.764 -0.648,3.548 -2.412,3.98 -1.768,0.432 -3.548,-0.644 -3.98,-2.412 -0.436,-1.764 0.648,-3.548 2.412,-3.984 1.768,-0.428 3.548,0.648 3.98,2.416"
     style="fill:#ffffff;fill-opacity:0.25;fill-rule:nonzero;stroke:none;stroke-width:0.4"
     id="path206" />
  <path
     d="m 635.45795,453.04401 c -1.244,1.324 -3.328,1.392 -4.652,0.144 -1.324,-1.244 -1.388,-3.328 -0.144,-4.652 1.248,-1.324 3.328,-1.388 4.652,-0.144 1.328,1.248 1.392,3.328 0.144,4.652"
     style="fill:#ffffff;fill-opacity:0.25;fill-rule:nonzero;stroke:none;stroke-width:0.4"
     id="path208" />
  <path
     d="m 642.99795,467.73601 c -1.244,1.328 -3.328,1.392 -4.652,0.144 -1.324,-1.24 -1.392,-3.328 -0.144,-4.652 1.244,-1.324 3.328,-1.392 4.652,-0.144 1.324,1.244 1.392,3.328 0.144,4.652"
     style="fill:#ffffff;fill-opacity:0.25;fill-rule:nonzero;stroke:none;stroke-width:0.4"
     id="path210" />
  <path
     d="m 649.99795,481.38001 c -1.244,1.324 -3.328,1.388 -4.656,0.14 -1.324,-1.24 -1.388,-3.328 -0.144,-4.652 1.244,-1.324 3.332,-1.384 4.656,-0.144 1.324,1.248 1.388,3.328 0.144,4.656"
     style="fill:#ffffff;fill-opacity:0.25;fill-rule:nonzero;stroke:none;stroke-width:0.4"
     id="path212" />
  <path
     d="m 447.78994,493.20401 c -1.752,-0.484 -2.784,-2.292 -2.3,-4.044 0.48,-1.756 2.292,-2.788 4.048,-2.308 1.748,0.484 2.78,2.3 2.3,4.048 -0.48,1.756 -2.292,2.784 -4.048,2.304"
     style="fill:#ffffff;fill-opacity:0.25;fill-rule:nonzero;stroke:none;stroke-width:0.4"
     id="path214" />
  <path
     d="m 803.66196,252.024 c -0.088,-1.772 1.272,-3.28 3.04,-3.368 1.772,-0.092 3.28,1.268 3.372,3.036 0.088,1.776 -1.272,3.284 -3.04,3.372 -1.772,0.092 -3.28,-1.268 -3.372,-3.04"
     style="fill:#ffffff;fill-opacity:0.25;fill-rule:nonzero;stroke:none;stroke-width:0.4"
     id="path216" />
  <path
     d="m 788.50596,247.484 c -0.092,-1.772 1.268,-3.28 3.04,-3.372 1.768,-0.092 3.28,1.272 3.372,3.044 0.088,1.768 -1.276,3.276 -3.044,3.368 -1.772,0.092 -3.276,-1.272 -3.368,-3.04"
     style="fill:#ffffff;fill-opacity:0.25;fill-rule:nonzero;stroke:none;stroke-width:0.4"
     id="path218" />
  <path
     d="m 773.09796,242.868 c -0.092,-1.772 1.268,-3.28 3.04,-3.372 1.772,-0.092 3.28,1.272 3.368,3.04 0.096,1.776 -1.268,3.284 -3.04,3.372 -1.772,0.088 -3.28,-1.268 -3.368,-3.04"
     style="fill:#ffffff;fill-opacity:0.25;fill-rule:nonzero;stroke:none;stroke-width:0.4"
     id="path220" />
  <path
     d="m 758.35796,238.452 c -0.092,-1.772 1.268,-3.28 3.04,-3.372 1.768,-0.088 3.28,1.272 3.368,3.044 0.092,1.768 -1.268,3.276 -3.04,3.372 -1.772,0.088 -3.28,-1.276 -3.368,-3.044"
     style="fill:#ffffff;fill-opacity:0.25;fill-rule:nonzero;stroke:none;stroke-width:0.4"
     id="path222" />
  <path
     d="m 743.70996,234.064 c -0.092,-1.768 1.268,-3.28 3.04,-3.372 1.772,-0.088 3.28,1.272 3.368,3.044 0.092,1.768 -1.268,3.276 -3.036,3.368 -1.776,0.092 -3.284,-1.272 -3.372,-3.04"
     style="fill:#ffffff;fill-opacity:0.25;fill-rule:nonzero;stroke:none;stroke-width:0.4"
     id="path224" />
  <path
     d="m 641.32195,336.38801 c 1.504,-1.02 3.552,-0.628 4.576,0.876 1.024,1.504 0.628,3.552 -0.876,4.572 -1.5,1.02 -3.552,0.632 -4.572,-0.872 -1.02,-1.504 -0.632,-3.552 0.872,-4.576"
     style="fill:#ffffff;fill-opacity:0.25;fill-rule:nonzero;stroke:none;stroke-width:0.4"
     id="path226" />
  <path
     d="m 636.88995,319.34801 c 1.504,-1.02 3.552,-0.628 4.572,0.876 1.024,1.504 0.636,3.552 -0.868,4.572 -1.504,1.024 -3.552,0.632 -4.576,-0.872 -1.024,-1.504 -0.632,-3.552 0.872,-4.576"
     style="fill:#ffffff;fill-opacity:0.25;fill-rule:nonzero;stroke:none;stroke-width:0.4"
     id="path228" />
  <path
     d="m 632.41795,302.156 c 1.504,-1.024 3.548,-0.636 4.572,0.868 1.02,1.504 0.628,3.552 -0.876,4.576 -1.504,1.02001 -3.548,0.62801 -4.568,-0.876 -1.024,-1.504 -0.632,-3.552 0.872,-4.568"
     style="fill:#ffffff;fill-opacity:0.25;fill-rule:nonzero;stroke:none;stroke-width:0.4"
     id="path230" />
  <path
     d="m 628.20995,285.976 c 1.504,-1.024 3.552,-0.636 4.568,0.868 1.024,1.504 0.636,3.552 -0.868,4.576 -1.504,1.02 -3.552,0.628 -4.576,-0.872 -1.02,-1.508 -0.628,-3.552 0.876,-4.572"
     style="fill:#ffffff;fill-opacity:0.25;fill-rule:nonzero;stroke:none;stroke-width:0.4"
     id="path232" />
  <path
     d="m 624.03395,269.924 c 1.504,-1.02 3.552,-0.628 4.572,0.876 1.02,1.504 0.632,3.548 -0.872,4.568 -1.504,1.024 -3.552,0.632 -4.576,-0.872 -1.02,-1.5 -0.628,-3.548 0.876,-4.572"
     style="fill:#ffffff;fill-opacity:0.25;fill-rule:nonzero;stroke:none;stroke-width:0.4"
     id="path234" />
  <path
     d="m 582.62995,217.88 c -0.572,1.676 -2.4,2.572 -4.076,1.992 -1.676,-0.576 -2.568,-2.4 -1.992,-4.076 0.576,-1.68 2.404,-2.572 4.08,-1.992 1.676,0.576 2.568,2.4 1.988,4.076"
     style="fill:#ffffff;fill-opacity:0.25;fill-rule:nonzero;stroke:none;stroke-width:0.4"
     id="path246" />
  <path
     d="m 595.21795,227.928 c -0.58,1.676 -2.408,2.568 -4.084,1.992 -1.676,-0.58 -2.564,-2.408 -1.988,-4.084 0.576,-1.676 2.404,-2.564 4.08,-1.988 1.676,0.576 2.564,2.404 1.992,4.08"
     style="fill:#ffffff;fill-opacity:0.25;fill-rule:nonzero;stroke:none;stroke-width:0.4"
     id="path248" />
  <path
     d="m 518.88995,165.96 c -0.58,1.676 -2.404,2.564 -4.08,1.988 -1.68,-0.58 -2.564,-2.408 -1.988,-4.084 0.576,-1.676 2.404,-2.564 4.08,-1.988 1.676,0.58 2.564,2.408 1.988,4.084"
     style="fill:#ffffff;fill-opacity:0.25;fill-rule:nonzero;stroke:none;stroke-width:0.4"
     id="path250" />
  <path
     d="m 531.24995,175.836 c -0.58,1.676 -2.404,2.568 -4.08,1.992 -1.676,-0.58 -2.568,-2.408 -1.988,-4.084 0.58,-1.676 2.404,-2.564 4.08,-1.988 1.672,0.576 2.564,2.404 1.988,4.08"
     style="fill:#ffffff;fill-opacity:0.25;fill-rule:nonzero;stroke:none;stroke-width:0.4"
     id="path252" />
  <path
     d="m 543.81395,185.88 c -0.576,1.676 -2.404,2.568 -4.08,1.988 -1.676,-0.576 -2.568,-2.4 -1.988,-4.08 0.576,-1.676 2.404,-2.564 4.08,-1.984 1.676,0.572 2.568,2.4 1.988,4.076"
     style="fill:#ffffff;fill-opacity:0.25;fill-rule:nonzero;stroke:none;stroke-width:0.4"
     id="path254" />
  <path
     d="m 555.82995,195.492 c -0.572,1.672 -2.4,2.564 -4.076,1.988 -1.676,-0.58 -2.568,-2.408 -1.988,-4.084 0.576,-1.676 2.4,-2.568 4.076,-1.988 1.68,0.58 2.568,2.408 1.988,4.084"
     style="fill:#ffffff;fill-opacity:0.25;fill-rule:nonzero;stroke:none;stroke-width:0.4"
     id="path256" />
  <path
     d="m 567.77395,205.036 c -0.576,1.676 -2.404,2.568 -4.08,1.988 -1.676,-0.576 -2.568,-2.404 -1.988,-4.08 0.576,-1.676 2.404,-2.568 4.08,-1.988 1.676,0.576 2.568,2.404 1.988,4.08"
     style="fill:#ffffff;fill-opacity:0.25;fill-rule:nonzero;stroke:none;stroke-width:0.4"
     id="path258" />
  <path
     d="m 690.39395,484.15201 c -1.296,-1.208 -1.368,-3.24 -0.156,-4.536 1.204,-1.296 3.236,-1.368 4.532,-0.156 1.3,1.204 1.368,3.236 0.16,4.536 -1.212,1.296 -3.244,1.364 -4.536,0.156"
     style="fill:#ffffff;fill-opacity:0.25;fill-rule:nonzero;stroke:none;stroke-width:0.4"
     id="path262" />
  <path
     d="m 676.10595,491.54401 c -1.296,-1.212 -1.364,-3.24 -0.156,-4.536 1.208,-1.296 3.24,-1.364 4.536,-0.16 1.296,1.212 1.368,3.244 0.156,4.54 -1.208,1.296 -3.24,1.368 -4.536,0.156"
     style="fill:#ffffff;fill-opacity:0.25;fill-rule:nonzero;stroke:none;stroke-width:0.4"
     id="path264" />
  <path
     d="m 859.06996,247.66 c 1.092,1.392 0.848,3.412 -0.548,4.504 -1.396,1.096 -3.412,0.852 -4.508,-0.54 -1.092,-1.396 -0.848,-3.416 0.548,-4.508 1.392,-1.096 3.408,-0.852 4.508,0.544"
     style="fill:#ffffff;fill-opacity:0.25;fill-rule:nonzero;stroke:none;stroke-width:0.4"
     id="path266" />
  <path
     d="m 875.49796,242.16 c 1.096,1.396 0.852,3.412 -0.544,4.504 -1.396,1.1 -3.412,0.852 -4.508,-0.54 -1.092,-1.396 -0.848,-3.412 0.544,-4.508 1.396,-1.096 3.416,-0.848 4.508,0.544"
     style="fill:#ffffff;fill-opacity:0.25;fill-rule:nonzero;stroke:none;stroke-width:0.4"
     id="path268" />
  <path
     d="m 565.65795,439.26401 c -1.056,-1.424 -0.764,-3.436 0.656,-4.492 1.424,-1.06 3.432,-0.768 4.492,0.656 1.06,1.42 0.768,3.428 -0.656,4.492 -1.42,1.06 -3.432,0.764 -4.492,-0.656"
     style="fill:#ffffff;fill-opacity:0.25;fill-rule:nonzero;stroke:none;stroke-width:0.4"
     id="path272" />
  <path
     d="m 550.53395,443.90801 c -1.064,-1.42 -0.768,-3.432 0.656,-4.492 1.416,-1.06 3.428,-0.764 4.488,0.656 1.064,1.424 0.764,3.432 -0.652,4.492 -1.424,1.06 -3.432,0.764 -4.492,-0.656"
     style="fill:#ffffff;fill-opacity:0.25;fill-rule:nonzero;stroke:none;stroke-width:0.4"
     id="path274" />
  <path
     d="m 535.15795,448.63601 c -1.06,-1.424 -0.764,-3.436 0.652,-4.492 1.424,-1.06 3.436,-0.768 4.492,0.656 1.06,1.416 0.768,3.428 -0.656,4.488 -1.416,1.06 -3.428,0.764 -4.488,-0.652"
     style="fill:#ffffff;fill-opacity:0.25;fill-rule:nonzero;stroke:none;stroke-width:0.4"
     id="path276" />
  <path
     d="m 520.44595,453.15201 c -1.056,-1.42 -0.764,-3.432 0.656,-4.492 1.424,-1.06 3.436,-0.764 4.496,0.656 1.056,1.42 0.764,3.432 -0.66,4.492 -1.42,1.06 -3.432,0.764 -4.492,-0.656"
     style="fill:#ffffff;fill-opacity:0.25;fill-rule:nonzero;stroke:none;stroke-width:0.4"
     id="path278" />
  <path
     d="m 505.82995,457.64401 c -1.06,-1.424 -0.764,-3.436 0.656,-4.492 1.424,-1.06 3.436,-0.768 4.492,0.656 1.06,1.42 0.768,3.432 -0.656,4.492 -1.42,1.056 -3.428,0.764 -4.492,-0.656"
     style="fill:#ffffff;fill-opacity:0.25;fill-rule:nonzero;stroke:none;stroke-width:0.4"
     id="path280" />
  <path
     d="m 490.70594,462.29201 c -1.06,-1.424 -0.768,-3.436 0.656,-4.492 1.42,-1.06 3.432,-0.768 4.492,0.656 1.06,1.42 0.764,3.428 -0.656,4.492 -1.424,1.056 -3.432,0.764 -4.492,-0.656"
     style="fill:#ffffff;fill-opacity:0.25;fill-rule:nonzero;stroke:none;stroke-width:0.4"
     id="path282" />
  <path
     d="m 579.93395,434.71601 c -1.06,-1.42 -0.764,-3.432 0.656,-4.492 1.42,-1.06 3.432,-0.764 4.492,0.656 1.056,1.424 0.764,3.432 -0.656,4.492 -1.424,1.06 -3.432,0.768 -4.492,-0.656"
     style="fill:#ffffff;fill-opacity:0.25;fill-rule:nonzero;stroke:none;stroke-width:0.4"
     id="path284" />
  <path
     d="m 637.38995,394.14801 c -1.768,-0.176 -3.052,-1.752 -2.876,-3.512 0.176,-1.768 1.752,-3.052 3.516,-2.876 1.76,0.176 3.048,1.748 2.872,3.512 -0.176,1.764 -1.752,3.052 -3.512,2.876"
     style="fill:#ffffff;fill-opacity:0.25;fill-rule:nonzero;stroke:none;stroke-width:0.4"
     id="path290" />
  <path
     d="m 693.13795,228.984 c -0.936,-1.504 -0.48,-3.488 1.028,-4.424 1.504,-0.936 3.48,-0.476 4.424,1.028 0.936,1.504 0.476,3.484 -1.028,4.42 -1.504,0.94 -3.484,0.48 -4.424,-1.024"
     style="fill:#ffffff;fill-opacity:0.25;fill-rule:nonzero;stroke:none;stroke-width:0.4"
     id="path294" />
  <path
     d="m 678.10595,232.268 c -0.936,-1.504 -0.48,-3.484 1.024,-4.424 1.504,-0.936 3.484,-0.476 4.424,1.028 0.936,1.504 0.48,3.484 -1.024,4.424 -1.504,0.936 -3.484,0.476 -4.424,-1.028"
     style="fill:#ffffff;fill-opacity:0.25;fill-rule:nonzero;stroke:none;stroke-width:0.4"
     id="path296" />
  <path
     d="m 663.16995,235.532 c -0.94,-1.504 -0.48,-3.484 1.024,-4.42 1.504,-0.94 3.484,-0.48 4.42,1.028 0.94,1.504 0.484,3.48 -1.02,4.42 -1.508,0.936 -3.488,0.476 -4.424,-1.028"
     style="fill:#ffffff;fill-opacity:0.25;fill-rule:nonzero;stroke:none;stroke-width:0.4"
     id="path298" />
  <path
     d="m 647.70995,238.912 c -0.94,-1.504 -0.476,-3.484 1.028,-4.42 1.504,-0.94 3.484,-0.484 4.42,1.02 0.94,1.504 0.476,3.484 -1.028,4.424 -1.504,0.936 -3.484,0.48 -4.42,-1.024"
     style="fill:#ffffff;fill-opacity:0.25;fill-rule:nonzero;stroke:none;stroke-width:0.4"
     id="path300" />
  <path
     d="m 442.13394,435.92001 c -0.76,1.648 -2.716,2.368 -4.368,1.6 -1.652,-0.76 -2.368,-2.716 -1.604,-4.368 0.764,-1.652 2.72,-2.368 4.372,-1.604 1.648,0.764 2.368,2.72 1.6,4.372"
     style="fill:#ffffff;fill-opacity:0.25;fill-rule:nonzero;stroke:none;stroke-width:0.4"
     id="path304" />
  <g
     transform="matrix(6.8,0,0,6.8,917.75563,-315.66564)"
     id="use9385-36"
     style="fill:#7fa7ca;fill-opacity:1">
    <path
       d="m -70.999999,118 0.708122,1.79188 L -68.5,120.5 -70.291877,121.20812 -70.999999,123 -71.708122,121.20812 -73.5,120.5 l 1.791878,-0.70812 z"
       id="path10536-2"
       style="display:inline;overflow:visible;opacity:0.2;fill-rule:evenodd;stroke:none;stroke-width:4;stroke-linecap:butt;stroke-linejoin:miter;stroke-miterlimit:4;stroke-dashoffset:0;stroke-opacity:1;marker:none;marker-start:none;marker-mid:none;marker-end:none;enable-background:accumulate" />
    <path
       d="m -69.653643,120.5 c 0,0.74319 -0.603167,1.34636 -1.346356,1.34636 -0.743189,0 -1.346357,-0.60317 -1.346357,-1.34636 0,-0.74319 0.603168,-1.34636 1.346357,-1.34636 0.743189,0 1.346356,0.60317 1.346356,1.34636 z"
       id="path10538-7"
       style="display:inline;overflow:visible;opacity:0.3;fill-rule:evenodd;stroke:none;stroke-width:4;stroke-linecap:butt;stroke-linejoin:miter;stroke-miterlimit:4;stroke-dashoffset:0;stroke-opacity:1;marker:none;marker-start:none;marker-mid:none;marker-end:none;enable-background:accumulate" />
    <path
       d="m -71.956621,120.5 c 0,0.52806 0.428567,0.95662 0.956622,0.95662 0.528055,0 0.956622,-0.42856 0.956622,-0.95662 0,-0.52806 -0.428567,-0.95662 -0.956622,-0.95662 -0.528055,0 -0.956622,0.42856 -0.956622,0.95662 z"
       id="path10540-06"
       style="display:inline;overflow:visible;fill-rule:evenodd;stroke:none;stroke-width:4;stroke-linecap:butt;stroke-linejoin:miter;stroke-miterlimit:4;stroke-dashoffset:0;stroke-opacity:1;marker:none;marker-start:none;marker-mid:none;marker-end:none;enable-background:accumulate" />
  </g>
  <g
     transform="matrix(9.6,-2.8584926,2.8584926,9.6,797.12,-896.06217)"
     id="use9385-36-9"
     style="fill:#7fa7ca;fill-opacity:1">
    <path
       d="m -70.999999,118 0.708122,1.79188 L -68.5,120.5 -70.291877,121.20812 -70.999999,123 -71.708122,121.20812 -73.5,120.5 l 1.791878,-0.70812 z"
       id="path10536-2-8"
       style="display:inline;overflow:visible;opacity:0.2;fill-rule:evenodd;stroke:none;stroke-width:4;stroke-linecap:butt;stroke-linejoin:miter;stroke-miterlimit:4;stroke-dashoffset:0;stroke-opacity:1;marker:none;marker-start:none;marker-mid:none;marker-end:none;enable-background:accumulate" />
    <path
       d="m -69.653643,120.5 c 0,0.74319 -0.603167,1.34636 -1.346356,1.34636 -0.743189,0 -1.346357,-0.60317 -1.346357,-1.34636 0,-0.74319 0.603168,-1.34636 1.346357,-1.34636 0.743189,0 1.346356,0.60317 1.346356,1.34636 z"
       id="path10538-7-3"
       style="display:inline;overflow:visible;opacity:0.3;fill-rule:evenodd;stroke:none;stroke-width:4;stroke-linecap:butt;stroke-linejoin:miter;stroke-miterlimit:4;stroke-dashoffset:0;stroke-opacity:1;marker:none;marker-start:none;marker-mid:none;marker-end:none;enable-background:accumulate" />
    <path
       d="m -71.956621,120.5 c 0,0.52806 0.428567,0.95662 0.956622,0.95662 0.528055,0 0.956622,-0.42856 0.956622,-0.95662 0,-0.52806 -0.428567,-0.95662 -0.956622,-0.95662 -0.528055,0 -0.956622,0.42856 -0.956622,0.95662 z"
       id="path10540-06-7"
       style="display:inline;overflow:visible;fill-rule:evenodd;stroke:none;stroke-width:4;stroke-linecap:butt;stroke-linejoin:miter;stroke-miterlimit:4;stroke-dashoffset:0;stroke-opacity:1;marker:none;marker-start:none;marker-mid:none;marker-end:none;enable-background:accumulate" />
  </g>
  <g
     transform="matrix(6.8,0,0,6.8,909.62423,-408.29217)"
     id="use9385-36-8"
     style="fill:#7fa7ca;fill-opacity:1">
    <path
       d="m -70.999999,118 0.708122,1.79188 L -68.5,120.5 -70.291877,121.20812 -70.999999,123 -71.708122,121.20812 -73.5,120.5 l 1.791878,-0.70812 z"
       id="path10536-2-2"
       style="display:inline;overflow:visible;opacity:0.2;fill-rule:evenodd;stroke:none;stroke-width:4;stroke-linecap:butt;stroke-linejoin:miter;stroke-miterlimit:4;stroke-dashoffset:0;stroke-opacity:1;marker:none;marker-start:none;marker-mid:none;marker-end:none;enable-background:accumulate" />
    <path
       d="m -69.653643,120.5 c 0,0.74319 -0.603167,1.34636 -1.346356,1.34636 -0.743189,0 -1.346357,-0.60317 -1.346357,-1.34636 0,-0.74319 0.603168,-1.34636 1.346357,-1.34636 0.743189,0 1.346356,0.60317 1.346356,1.34636 z"
       id="path10538-7-1"
       style="display:inline;overflow:visible;opacity:0.3;fill-rule:evenodd;stroke:none;stroke-width:4;stroke-linecap:butt;stroke-linejoin:miter;stroke-miterlimit:4;stroke-dashoffset:0;stroke-opacity:1;marker:none;marker-start:none;marker-mid:none;marker-end:none;enable-background:accumulate" />
    <path
       d="m -71.956621,120.5 c 0,0.52806 0.428567,0.95662 0.956622,0.95662 0.528055,0 0.956622,-0.42856 0.956622,-0.95662 0,-0.52806 -0.428567,-0.95662 -0.956622,-0.95662 -0.528055,0 -0.956622,0.42856 -0.956622,0.95662 z"
       id="path10540-06-8"
       style="display:inline;overflow:visible;fill-rule:evenodd;stroke:none;stroke-width:4;stroke-linecap:butt;stroke-linejoin:miter;stroke-miterlimit:4;stroke-dashoffset:0;stroke-opacity:1;marker:none;marker-start:none;marker-mid:none;marker-end:none;enable-background:accumulate" />
  </g>
  <g
     transform="matrix(8.8,0,0,8.8,1242.8577,-637.91107)"
     id="use9385-36-7"
     style="fill:#7fa7ca;fill-opacity:1">
    <path
       d="m -70.999999,118 0.708122,1.79188 L -68.5,120.5 -70.291877,121.20812 -70.999999,123 -71.708122,121.20812 -73.5,120.5 l 1.791878,-0.70812 z"
       id="path10536-2-9"
       style="display:inline;overflow:visible;opacity:0.2;fill-rule:evenodd;stroke:none;stroke-width:4;stroke-linecap:butt;stroke-linejoin:miter;stroke-miterlimit:4;stroke-dashoffset:0;stroke-opacity:1;marker:none;marker-start:none;marker-mid:none;marker-end:none;enable-background:accumulate" />
    <path
       d="m -69.653643,120.5 c 0,0.74319 -0.603167,1.34636 -1.346356,1.34636 -0.743189,0 -1.346357,-0.60317 -1.346357,-1.34636 0,-0.74319 0.603168,-1.34636 1.346357,-1.34636 0.743189,0 1.346356,0.60317 1.346356,1.34636 z"
       id="path10538-7-9"
       style="display:inline;overflow:visible;opacity:0.3;fill-rule:evenodd;stroke:none;stroke-width:4;stroke-linecap:butt;stroke-linejoin:miter;stroke-miterlimit:4;stroke-dashoffset:0;stroke-opacity:1;marker:none;marker-start:none;marker-mid:none;marker-end:none;enable-background:accumulate" />
    <path
       d="m -71.956621,120.5 c 0,0.52806 0.428567,0.95662 0.956622,0.95662 0.528055,0 0.956622,-0.42856 0.956622,-0.95662 0,-0.52806 -0.428567,-0.95662 -0.956622,-0.95662 -0.528055,0 -0.956622,0.42856 -0.956622,0.95662 z"
       id="path10540-06-6"
       style="display:inline;overflow:visible;fill-rule:evenodd;stroke:none;stroke-width:4;stroke-linecap:butt;stroke-linejoin:miter;stroke-miterlimit:4;stroke-dashoffset:0;stroke-opacity:1;marker:none;marker-start:none;marker-mid:none;marker-end:none;enable-background:accumulate" />
  </g>
  <g
     transform="matrix(6.8,0,0,6.8,1134.2978,-446.65612)"
     id="use9385-36-1"
     style="fill:#7fa7ca;fill-opacity:1">
    <path
       d="m -70.999999,118 0.708122,1.79188 L -68.5,120.5 -70.291877,121.20812 -70.999999,123 -71.708122,121.20812 -73.5,120.5 l 1.791878,-0.70812 z"
       id="path10536-2-20"
       style="display:inline;overflow:visible;opacity:0.2;fill-rule:evenodd;stroke:none;stroke-width:4;stroke-linecap:butt;stroke-linejoin:miter;stroke-miterlimit:4;stroke-dashoffset:0;stroke-opacity:1;marker:none;marker-start:none;marker-mid:none;marker-end:none;enable-background:accumulate" />
    <path
       d="m -69.653643,120.5 c 0,0.74319 -0.603167,1.34636 -1.346356,1.34636 -0.743189,0 -1.346357,-0.60317 -1.346357,-1.34636 0,-0.74319 0.603168,-1.34636 1.346357,-1.34636 0.743189,0 1.346356,0.60317 1.346356,1.34636 z"
       id="path10538-7-34"
       style="display:inline;overflow:visible;opacity:0.3;fill-rule:evenodd;stroke:none;stroke-width:4;stroke-linecap:butt;stroke-linejoin:miter;stroke-miterlimit:4;stroke-dashoffset:0;stroke-opacity:1;marker:none;marker-start:none;marker-mid:none;marker-end:none;enable-background:accumulate" />
    <path
       d="m -71.956621,120.5 c 0,0.52806 0.428567,0.95662 0.956622,0.95662 0.528055,0 0.956622,-0.42856 0.956622,-0.95662 0,-0.52806 -0.428567,-0.95662 -0.956622,-0.95662 -0.528055,0 -0.956622,0.42856 -0.956622,0.95662 z"
       id="path10540-06-2"
       style="display:inline;overflow:visible;fill-rule:evenodd;stroke:none;stroke-width:4;stroke-linecap:butt;stroke-linejoin:miter;stroke-miterlimit:4;stroke-dashoffset:0;stroke-opacity:1;marker:none;marker-start:none;marker-mid:none;marker-end:none;enable-background:accumulate" />
  </g>
  <g
     transform="matrix(9.2,0,0,9.2,1270.3758,-866.25436)"
     id="use9385-36-71"
     style="fill:#7fa7ca;fill-opacity:1">
    <path
       d="m -70.999999,118 0.708122,1.79188 L -68.5,120.5 -70.291877,121.20812 -70.999999,123 -71.708122,121.20812 -73.5,120.5 l 1.791878,-0.70812 z"
       id="path10536-2-1"
       style="display:inline;overflow:visible;opacity:0.2;fill-rule:evenodd;stroke:none;stroke-width:4;stroke-linecap:butt;stroke-linejoin:miter;stroke-miterlimit:4;stroke-dashoffset:0;stroke-opacity:1;marker:none;marker-start:none;marker-mid:none;marker-end:none;enable-background:accumulate" />
    <path
       d="m -69.653643,120.5 c 0,0.74319 -0.603167,1.34636 -1.346356,1.34636 -0.743189,0 -1.346357,-0.60317 -1.346357,-1.34636 0,-0.74319 0.603168,-1.34636 1.346357,-1.34636 0.743189,0 1.346356,0.60317 1.346356,1.34636 z"
       id="path10538-7-12"
       style="display:inline;overflow:visible;opacity:0.3;fill-rule:evenodd;stroke:none;stroke-width:4;stroke-linecap:butt;stroke-linejoin:miter;stroke-miterlimit:4;stroke-dashoffset:0;stroke-opacity:1;marker:none;marker-start:none;marker-mid:none;marker-end:none;enable-background:accumulate" />
    <path
       d="m -71.956621,120.5 c 0,0.52806 0.428567,0.95662 0.956622,0.95662 0.528055,0 0.956622,-0.42856 0.956622,-0.95662 0,-0.52806 -0.428567,-0.95662 -0.956622,-0.95662 -0.528055,0 -0.956622,0.42856 -0.956622,0.95662 z"
       id="path10540-06-79"
       style="display:inline;overflow:visible;fill-rule:evenodd;stroke:none;stroke-width:4;stroke-linecap:butt;stroke-linejoin:miter;stroke-miterlimit:4;stroke-dashoffset:0;stroke-opacity:1;marker:none;marker-start:none;marker-mid:none;marker-end:none;enable-background:accumulate" />
  </g>
  <g
     transform="matrix(8.8,0,0,8.8,1124.9433,-910.6995)"
     id="use9385-36-6"
     style="fill:#7fa7ca;fill-opacity:1">
    <path
       d="m -70.999999,118 0.708122,1.79188 L -68.5,120.5 -70.291877,121.20812 -70.999999,123 -71.708122,121.20812 -73.5,120.5 l 1.791878,-0.70812 z"
       id="path10536-2-80"
       style="display:inline;overflow:visible;opacity:0.2;fill-rule:evenodd;stroke:none;stroke-width:4;stroke-linecap:butt;stroke-linejoin:miter;stroke-miterlimit:4;stroke-dashoffset:0;stroke-opacity:1;marker:none;marker-start:none;marker-mid:none;marker-end:none;enable-background:accumulate" />
    <path
       d="m -69.653643,120.5 c 0,0.74319 -0.603167,1.34636 -1.346356,1.34636 -0.743189,0 -1.346357,-0.60317 -1.346357,-1.34636 0,-0.74319 0.603168,-1.34636 1.346357,-1.34636 0.743189,0 1.346356,0.60317 1.346356,1.34636 z"
       id="path10538-7-8"
       style="display:inline;overflow:visible;opacity:0.3;fill-rule:evenodd;stroke:none;stroke-width:4;stroke-linecap:butt;stroke-linejoin:miter;stroke-miterlimit:4;stroke-dashoffset:0;stroke-opacity:1;marker:none;marker-start:none;marker-mid:none;marker-end:none;enable-background:accumulate" />
    <path
       d="m -71.956621,120.5 c 0,0.52806 0.428567,0.95662 0.956622,0.95662 0.528055,0 0.956622,-0.42856 0.956622,-0.95662 0,-0.52806 -0.428567,-0.95662 -0.956622,-0.95662 -0.528055,0 -0.956622,0.42856 -0.956622,0.95662 z"
       id="path10540-06-72"
       style="display:inline;overflow:visible;fill-rule:evenodd;stroke:none;stroke-width:4;stroke-linecap:butt;stroke-linejoin:miter;stroke-miterlimit:4;stroke-dashoffset:0;stroke-opacity:1;marker:none;marker-start:none;marker-mid:none;marker-end:none;enable-background:accumulate" />
  </g>
  <g
     transform="matrix(7.2,-0.88784115,0.88784115,7.2,1128.7699,-709.54276)"
     id="use9385-36-88"
     style="fill:#7fa7ca;fill-opacity:1">
    <path
       d="m -70.999999,118 0.708122,1.79188 L -68.5,120.5 -70.291877,121.20812 -70.999999,123 -71.708122,121.20812 -73.5,120.5 l 1.791878,-0.70812 z"
       id="path10536-2-0"
       style="display:inline;overflow:visible;opacity:0.2;fill-rule:evenodd;stroke:none;stroke-width:4;stroke-linecap:butt;stroke-linejoin:miter;stroke-miterlimit:4;stroke-dashoffset:0;stroke-opacity:1;marker:none;marker-start:none;marker-mid:none;marker-end:none;enable-background:accumulate" />
    <path
       d="m -69.653643,120.5 c 0,0.74319 -0.603167,1.34636 -1.346356,1.34636 -0.743189,0 -1.346357,-0.60317 -1.346357,-1.34636 0,-0.74319 0.603168,-1.34636 1.346357,-1.34636 0.743189,0 1.346356,0.60317 1.346356,1.34636 z"
       id="path10538-7-0"
       style="display:inline;overflow:visible;opacity:0.3;fill-rule:evenodd;stroke:none;stroke-width:4;stroke-linecap:butt;stroke-linejoin:miter;stroke-miterlimit:4;stroke-dashoffset:0;stroke-opacity:1;marker:none;marker-start:none;marker-mid:none;marker-end:none;enable-background:accumulate" />
    <path
       d="m -71.956621,120.5 c 0,0.52806 0.428567,0.95662 0.956622,0.95662 0.528055,0 0.956622,-0.42856 0.956622,-0.95662 0,-0.52806 -0.428567,-0.95662 -0.956622,-0.95662 -0.528055,0 -0.956622,0.42856 -0.956622,0.95662 z"
       id="path10540-06-62"
       style="display:inline;overflow:visible;fill-rule:evenodd;stroke:none;stroke-width:4;stroke-linecap:butt;stroke-linejoin:miter;stroke-miterlimit:4;stroke-dashoffset:0;stroke-opacity:1;marker:none;marker-start:none;marker-mid:none;marker-end:none;enable-background:accumulate" />
  </g>
  <g
     transform="matrix(9.6,0,0,9.6,1433.2972,-1023.8325)"
     id="use9385-36-3"
     style="fill:#7fa7ca;fill-opacity:1">
    <path
       d="m -70.999999,118 0.708122,1.79188 L -68.5,120.5 -70.291877,121.20812 -70.999999,123 -71.708122,121.20812 -73.5,120.5 l 1.791878,-0.70812 z"
       id="path10536-2-4"
       style="display:inline;overflow:visible;opacity:0.2;fill-rule:evenodd;stroke:none;stroke-width:4;stroke-linecap:butt;stroke-linejoin:miter;stroke-miterlimit:4;stroke-dashoffset:0;stroke-opacity:1;marker:none;marker-start:none;marker-mid:none;marker-end:none;enable-background:accumulate" />
    <path
       d="m -69.653643,120.5 c 0,0.74319 -0.603167,1.34636 -1.346356,1.34636 -0.743189,0 -1.346357,-0.60317 -1.346357,-1.34636 0,-0.74319 0.603168,-1.34636 1.346357,-1.34636 0.743189,0 1.346356,0.60317 1.346356,1.34636 z"
       id="path10538-7-4"
       style="display:inline;overflow:visible;opacity:0.3;fill-rule:evenodd;stroke:none;stroke-width:4;stroke-linecap:butt;stroke-linejoin:miter;stroke-miterlimit:4;stroke-dashoffset:0;stroke-opacity:1;marker:none;marker-start:none;marker-mid:none;marker-end:none;enable-background:accumulate" />
    <path
       d="m -71.956621,120.5 c 0,0.52806 0.428567,0.95662 0.956622,0.95662 0.528055,0 0.956622,-0.42856 0.956622,-0.95662 0,-0.52806 -0.428567,-0.95662 -0.956622,-0.95662 -0.528055,0 -0.956622,0.42856 -0.956622,0.95662 z"
       id="path10540-06-5"
       style="display:inline;overflow:visible;fill-rule:evenodd;stroke:none;stroke-width:4;stroke-linecap:butt;stroke-linejoin:miter;stroke-miterlimit:4;stroke-dashoffset:0;stroke-opacity:1;marker:none;marker-start:none;marker-mid:none;marker-end:none;enable-background:accumulate" />
  </g>
  <g
     transform="matrix(6.8,0,0,6.8,1313.5238,-561.32024)"
     id="use9385-36-4"
     style="fill:#7fa7ca;fill-opacity:1">
    <path
       d="m -70.999999,118 0.708122,1.79188 L -68.5,120.5 -70.291877,121.20812 -70.999999,123 -71.708122,121.20812 -73.5,120.5 l 1.791878,-0.70812 z"
       id="path10536-2-7"
       style="display:inline;overflow:visible;opacity:0.2;fill-rule:evenodd;stroke:none;stroke-width:4;stroke-linecap:butt;stroke-linejoin:miter;stroke-miterlimit:4;stroke-dashoffset:0;stroke-opacity:1;marker:none;marker-start:none;marker-mid:none;marker-end:none;enable-background:accumulate" />
    <path
       d="m -69.653643,120.5 c 0,0.74319 -0.603167,1.34636 -1.346356,1.34636 -0.743189,0 -1.346357,-0.60317 -1.346357,-1.34636 0,-0.74319 0.603168,-1.34636 1.346357,-1.34636 0.743189,0 1.346356,0.60317 1.346356,1.34636 z"
       id="path10538-7-6"
       style="display:inline;overflow:visible;opacity:0.3;fill-rule:evenodd;stroke:none;stroke-width:4;stroke-linecap:butt;stroke-linejoin:miter;stroke-miterlimit:4;stroke-dashoffset:0;stroke-opacity:1;marker:none;marker-start:none;marker-mid:none;marker-end:none;enable-background:accumulate" />
    <path
       d="m -71.956621,120.5 c 0,0.52806 0.428567,0.95662 0.956622,0.95662 0.528055,0 0.956622,-0.42856 0.956622,-0.95662 0,-0.52806 -0.428567,-0.95662 -0.956622,-0.95662 -0.528055,0 -0.956622,0.42856 -0.956622,0.95662 z"
       id="path10540-06-3"
       style="display:inline;overflow:visible;fill-rule:evenodd;stroke:none;stroke-width:4;stroke-linecap:butt;stroke-linejoin:miter;stroke-miterlimit:4;stroke-dashoffset:0;stroke-opacity:1;marker:none;marker-start:none;marker-mid:none;marker-end:none;enable-background:accumulate" />
  </g>
  <g
     transform="matrix(5.2,1.8793229,-1.8793229,5.2,1487.796,-258.15597)"
     id="use9385-36-0"
     style="fill:#7fa7ca;fill-opacity:1">
    <path
       d="m -70.999999,118 0.708122,1.79188 L -68.5,120.5 -70.291877,121.20812 -70.999999,123 -71.708122,121.20812 -73.5,120.5 l 1.791878,-0.70812 z"
       id="path10536-2-02"
       style="display:inline;overflow:visible;opacity:0.2;fill-rule:evenodd;stroke:none;stroke-width:4;stroke-linecap:butt;stroke-linejoin:miter;stroke-miterlimit:4;stroke-dashoffset:0;stroke-opacity:1;marker:none;marker-start:none;marker-mid:none;marker-end:none;enable-background:accumulate" />
    <path
       d="m -69.653643,120.5 c 0,0.74319 -0.603167,1.34636 -1.346356,1.34636 -0.743189,0 -1.346357,-0.60317 -1.346357,-1.34636 0,-0.74319 0.603168,-1.34636 1.346357,-1.34636 0.743189,0 1.346356,0.60317 1.346356,1.34636 z"
       id="path10538-7-99"
       style="display:inline;overflow:visible;opacity:0.3;fill-rule:evenodd;stroke:none;stroke-width:4;stroke-linecap:butt;stroke-linejoin:miter;stroke-miterlimit:4;stroke-dashoffset:0;stroke-opacity:1;marker:none;marker-start:none;marker-mid:none;marker-end:none;enable-background:accumulate" />
    <path
       d="m -71.956621,120.5 c 0,0.52806 0.428567,0.95662 0.956622,0.95662 0.528055,0 0.956622,-0.42856 0.956622,-0.95662 0,-0.52806 -0.428567,-0.95662 -0.956622,-0.95662 -0.528055,0 -0.956622,0.42856 -0.956622,0.95662 z"
       id="path10540-06-38"
       style="display:inline;overflow:visible;fill-rule:evenodd;stroke:none;stroke-width:4;stroke-linecap:butt;stroke-linejoin:miter;stroke-miterlimit:4;stroke-dashoffset:0;stroke-opacity:1;marker:none;marker-start:none;marker-mid:none;marker-end:none;enable-background:accumulate" />
  </g>
  <g
     transform="matrix(5.6,0,0,5.6,1054.7002,-177.28956)"
     id="use9385-36-03"
     style="fill:#7fa7ca;fill-opacity:1">
    <path
       d="m -70.999999,118 0.708122,1.79188 L -68.5,120.5 -70.291877,121.20812 -70.999999,123 -71.708122,121.20812 -73.5,120.5 l 1.791878,-0.70812 z"
       id="path10536-2-5"
       style="display:inline;overflow:visible;opacity:0.2;fill-rule:evenodd;stroke:none;stroke-width:4;stroke-linecap:butt;stroke-linejoin:miter;stroke-miterlimit:4;stroke-dashoffset:0;stroke-opacity:1;marker:none;marker-start:none;marker-mid:none;marker-end:none;enable-background:accumulate" />
    <path
       d="m -69.653643,120.5 c 0,0.74319 -0.603167,1.34636 -1.346356,1.34636 -0.743189,0 -1.346357,-0.60317 -1.346357,-1.34636 0,-0.74319 0.603168,-1.34636 1.346357,-1.34636 0.743189,0 1.346356,0.60317 1.346356,1.34636 z"
       id="path10538-7-63"
       style="display:inline;overflow:visible;opacity:0.3;fill-rule:evenodd;stroke:none;stroke-width:4;stroke-linecap:butt;stroke-linejoin:miter;stroke-miterlimit:4;stroke-dashoffset:0;stroke-opacity:1;marker:none;marker-start:none;marker-mid:none;marker-end:none;enable-background:accumulate" />
    <path
       d="m -71.956621,120.5 c 0,0.52806 0.428567,0.95662 0.956622,0.95662 0.528055,0 0.956622,-0.42856 0.956622,-0.95662 0,-0.52806 -0.428567,-0.95662 -0.956622,-0.95662 -0.528055,0 -0.956622,0.42856 -0.956622,0.95662 z"
       id="path10540-06-59"
       style="display:inline;overflow:visible;fill-rule:evenodd;stroke:none;stroke-width:4;stroke-linecap:butt;stroke-linejoin:miter;stroke-miterlimit:4;stroke-dashoffset:0;stroke-opacity:1;marker:none;marker-start:none;marker-mid:none;marker-end:none;enable-background:accumulate" />
  </g>
  <g
     transform="matrix(6.6445642,1.4456026,-1.4456026,6.6445642,1360.2155,-227.76963)"
     id="use9385-36-65"
     style="fill:#7fa7ca;fill-opacity:1">
    <path
       d="m -70.999999,118 0.708122,1.79188 L -68.5,120.5 -70.291877,121.20812 -70.999999,123 -71.708122,121.20812 -73.5,120.5 l 1.791878,-0.70812 z"
       id="path10536-2-47"
       style="display:inline;overflow:visible;opacity:0.2;fill-rule:evenodd;stroke:none;stroke-width:4;stroke-linecap:butt;stroke-linejoin:miter;stroke-miterlimit:4;stroke-dashoffset:0;stroke-opacity:1;marker:none;marker-start:none;marker-mid:none;marker-end:none;enable-background:accumulate" />
    <path
       d="m -69.653643,120.5 c 0,0.74319 -0.603167,1.34636 -1.346356,1.34636 -0.743189,0 -1.346357,-0.60317 -1.346357,-1.34636 0,-0.74319 0.603168,-1.34636 1.346357,-1.34636 0.743189,0 1.346356,0.60317 1.346356,1.34636 z"
       id="path10538-7-60"
       style="display:inline;overflow:visible;opacity:0.3;fill-rule:evenodd;stroke:none;stroke-width:4;stroke-linecap:butt;stroke-linejoin:miter;stroke-miterlimit:4;stroke-dashoffset:0;stroke-opacity:1;marker:none;marker-start:none;marker-mid:none;marker-end:none;enable-background:accumulate" />
    <path
       d="m -71.956621,120.5 c 0,0.52806 0.428567,0.95662 0.956622,0.95662 0.528055,0 0.956622,-0.42856 0.956622,-0.95662 0,-0.52806 -0.428567,-0.95662 -0.956622,-0.95662 -0.528055,0 -0.956622,0.42856 -0.956622,0.95662 z"
       id="path10540-06-23"
       style="display:inline;overflow:visible;fill-rule:evenodd;stroke:none;stroke-width:4;stroke-linecap:butt;stroke-linejoin:miter;stroke-miterlimit:4;stroke-dashoffset:0;stroke-opacity:1;marker:none;marker-start:none;marker-mid:none;marker-end:none;enable-background:accumulate" />
  </g>
</svg>
