<?xml version="1.0" encoding="UTF-8" standalone="no"?>
<svg
   viewBox="0 0 1280 1280"
   version="1.1"
   id="svg23668"
   xmlns="http://www.w3.org/2000/svg"
   xmlns:svg="http://www.w3.org/2000/svg">
  <defs
     id="defs23672" />
  <path
     d="m 581.23399,324.53604 c 1.944,-0.62802 4.03599,0.43599 4.66401,2.388 0.62799,1.944 -0.44001,4.032 -2.38401,4.66398 -1.948,0.62802 -4.036,-0.444 -4.668,-2.388 -0.628,-1.944 0.44,-4.03599 2.388,-4.66398"
     style="fill:#ffffff;fill-opacity:0.25;fill-rule:nonzero;stroke:none;stroke-width:0.399999"
     id="path856" />
  <path
     d="m 559.61399,320.88804 c 1.948,-0.62802 4.036,0.43599 4.664,2.38398 0.632,1.94802 -0.44,4.03602 -2.384,4.66401 -1.948,0.63201 -4.036,-0.43599 -4.664,-2.38401 -0.632,-1.94799 0.436,-4.03599 2.384,-4.66398"
     style="fill:#ffffff;fill-opacity:0.25;fill-rule:nonzero;stroke:none;stroke-width:0.399999"
     id="path858" />
  <path
     d="m 715.294,535.48404 c -0.144,2.04 -1.91601,3.576 -3.96,3.432 -2.04,-0.1479 -3.576,-1.92399 -3.42801,-3.96399 0.1479,-2.03601 1.92,-3.576 3.96,-3.42801 2.04402,0.1479 3.576,1.92 3.42801,3.96"
     style="fill:#ffffff;fill-opacity:0.25;fill-rule:nonzero;stroke:none;stroke-width:0.399999"
     id="path860" />
  <path
     d="m 733.43401,543.45603 c -0.144,2.04 -1.91601,3.576 -3.96,3.432 -2.04,-0.1479 -3.57201,-1.92399 -3.42801,-3.96 0.1479,-2.04399 1.92,-3.57999 3.96,-3.432 2.04399,0.144 3.576,1.92 3.42801,3.96"
     style="fill:#ffffff;fill-opacity:0.25;fill-rule:nonzero;stroke:none;stroke-width:0.399999"
     id="path862" />
  <path
     d="m 796.054,525.95205 c 1.70799,1.12398 2.18799,3.41598 1.07199,5.13198 -1.11999,1.70802 -3.41199,2.18802 -5.12799,1.07202 -1.71201,-1.12002 -2.19201,-3.41601 -1.07601,-5.12802 1.12401,-1.71198 3.41601,-2.196 5.13201,-1.07598"
     style="fill:#ffffff;fill-opacity:0.25;fill-rule:nonzero;stroke:none;stroke-width:0.399999"
     id="path864" />
  <path
     d="m 811.83001,513.96405 c 1.716,1.12398 2.196,3.42 1.07598,5.13198 -1.11999,1.71201 -3.41598,2.19201 -5.12799,1.07202 -1.71201,-1.116 -2.196,-3.41202 -1.07601,-5.124 1.12002,-1.716 3.41601,-2.196 5.12802,-1.08"
     style="fill:#ffffff;fill-opacity:0.25;fill-rule:nonzero;stroke:none;stroke-width:0.399999"
     id="path866" />
  <path
     d="m 664.03801,370.81602 c 0.55599,-1.91199 2.56398,-3.01599 4.47999,-2.45598 1.91199,0.564 3.01599,2.568 2.45601,4.47999 -0.56001,1.92 -2.56401,3.01599 -4.48002,2.45601 -1.91598,-0.56001 -3.01599,-2.56401 -2.45598,-4.48002"
     style="fill:#ffffff;fill-opacity:0.25;fill-rule:nonzero;stroke:none;stroke-width:0.399999"
     id="path870" />
  <path
     d="m 650.01001,360.66003 c 0.564,-1.91199 2.568,-3.012 4.47999,-2.45199 1.92,0.55998 3.01599,2.56398 2.45601,4.47999 -0.55602,1.91199 -2.56401,3.01599 -4.48002,2.45199 -1.91598,-0.55599 -3.01599,-2.55999 -2.45598,-4.47999"
     style="fill:#ffffff;fill-opacity:0.25;fill-rule:nonzero;stroke:none;stroke-width:0.399999"
     id="path872" />
  <path
     d="m 636.07399,350.57202 c 0.56001,-1.91598 2.56401,-3.012 4.47999,-2.45598 1.91601,0.55998 3.01203,2.568 2.45202,4.48398 -0.56001,1.91202 -2.56401,3.012 -4.48002,2.45202 -1.91598,-0.56001 -3.012,-2.56401 -2.45199,-4.48002"
     style="fill:#ffffff;fill-opacity:0.25;fill-rule:nonzero;stroke:none;stroke-width:0.399999"
     id="path874" />
  <path
     d="m 470.77799,153.82803 c 1.612,1.17999 1.96,3.43998 0.776,5.04798 -1.18001,1.608 -3.44,1.956 -5.048,0.77601 -1.608,-1.17999 -1.956,-3.44001 -0.77601,-5.04801 1.18001,-1.608 3.44001,-1.956 5.04801,-0.77598"
     style="fill:#ffffff;fill-opacity:0.25;fill-rule:nonzero;stroke:none;stroke-width:0.399999"
     id="path876" />
  <path
     d="m 486.91799,142.88802 c 1.608,1.17999 1.956,3.44001 0.776,5.04801 -1.18,1.608 -3.44,1.956 -5.048,0.77598 -1.608,-1.17999 -1.956,-3.43998 -0.776,-5.04798 1.18,-1.608 3.44,-1.956 5.048,-0.77601"
     style="fill:#ffffff;fill-opacity:0.25;fill-rule:nonzero;stroke:none;stroke-width:0.399999"
     id="path878" />
  <path
     d="m 549.71799,160.97601 c -0.868,1.85202 -3.072,2.652 -4.928,1.788 -1.852,-0.86799 -2.652,-3.072 -1.788,-4.92798 0.868,-1.85202 3.076,-2.652 4.928,-1.78401 1.852,0.86799 2.652,3.06801 1.788,4.92399"
     style="fill:#ffffff;fill-opacity:0.25;fill-rule:nonzero;stroke:none;stroke-width:0.399999"
     id="path882" />
  <path
     d="m 652.32199,514.19205 c 1.86801,0.828 2.71602,3.01599 1.88802,4.88799 -0.83202,1.86801 -3.02001,2.712 -4.89201,1.884 -1.872,-0.828 -2.71599,-3.01599 -1.88799,-4.884 0.828,-1.872 3.01998,-2.71599 4.89198,-1.88799"
     style="fill:#ffffff;fill-opacity:0.25;fill-rule:nonzero;stroke:none;stroke-width:0.399999"
     id="path886" />
  <path
     d="m 727.882,443.91603 c -1.8,0.852 -3.96,0.084 -4.80801,-1.71999 -0.85599,-1.8 -0.0879,-3.95601 1.71201,-4.80801 1.80399,-0.85599 3.96,-0.0921 4.812,1.71201 0.85599,1.80798 0.0879,3.96 -1.716,4.81599"
     style="fill:#ffffff;fill-opacity:0.25;fill-rule:nonzero;stroke:none;stroke-width:0.399999"
     id="path888" />
  <path
     d="m 488.07799,308.36404 c 0.32,1.968 -1.012,3.82398 -2.984,4.14798 -1.968,0.32001 -3.824,-1.01598 -4.148,-2.98398 -0.32,-1.968 1.016,-3.828 2.984,-4.14801 1.972,-0.32001 3.824,1.01601 4.148,2.98401"
     style="fill:#ffffff;fill-opacity:0.25;fill-rule:nonzero;stroke:none;stroke-width:0.399999"
     id="path892" />
  <path
     d="m 505.88599,313.61202 c 0.32,1.97202 -1.016,3.828 -2.984,4.152 -1.972,0.32001 -3.824,-1.01598 -4.148,-2.988 -0.32,-1.968 1.016,-3.82398 2.984,-4.14798 1.968,-0.32001 3.828,1.01598 4.148,2.98398"
     style="fill:#ffffff;fill-opacity:0.25;fill-rule:nonzero;stroke:none;stroke-width:0.399999"
     id="path894" />
  <path
     d="m 456.16598,265.88001 c 1.78001,-1.008 4.04001,-0.37998 5.04801,1.39602 1.008,1.78398 0.38,4.044 -1.40001,5.052 -1.77999,1.008 -4.03999,0.37998 -5.04799,-1.40001 -1.008,-1.77999 -0.38,-4.04001 1.39999,-5.04801"
     style="fill:#ffffff;fill-opacity:0.25;fill-rule:nonzero;stroke:none;stroke-width:0.399999"
     id="path900" />
  <path
     d="m 453.02999,247.88802 c 1.784,-1.008 4.044,-0.38001 5.052,1.40001 1.004,1.78398 0.37599,4.03998 -1.404,5.04798 -1.78,1.008 -4.04001,0.384 -5.04801,-1.39998 -1.008,-1.78002 -0.38,-4.04001 1.40001,-5.04801"
     style="fill:#ffffff;fill-opacity:0.25;fill-rule:nonzero;stroke:none;stroke-width:0.399999"
     id="path902" />
  <path
     d="m 449.62998,228.36801 c 1.78001,-1.008 4.04,-0.37998 5.048,1.40001 1.008,1.77999 0.38001,4.04001 -1.39999,5.04801 -1.78001,1.008 -4.04,0.37998 -5.048,-1.40001 -1.008,-1.78401 -0.38001,-4.04001 1.39999,-5.04801"
     style="fill:#ffffff;fill-opacity:0.25;fill-rule:nonzero;stroke:none;stroke-width:0.399999"
     id="path904" />
  <path
     d="m 446.19798,208.66803 c 1.78001,-1.008 4.04,-0.384 5.04801,1.39998 1.00799,1.78002 0.38,4.04001 -1.40001,5.04402 -1.78,1.008 -4.03999,0.384 -5.04799,-1.39602 -1.008,-1.77999 -0.384,-4.044 1.39999,-5.04798"
     style="fill:#ffffff;fill-opacity:0.25;fill-rule:nonzero;stroke:none;stroke-width:0.399999"
     id="path906" />
  <path
     d="m 755.074,510.51603 c 1.32399,1.56 1.12401,3.9 -0.43599,5.22 -1.56,1.32 -3.9,1.12401 -5.22402,-0.43998 -1.32,-1.56 -1.12398,-3.89601 0.44001,-5.21601 1.56,-1.32 3.89601,-1.128 5.22,0.43599"
     style="fill:#ffffff;fill-opacity:0.25;fill-rule:nonzero;stroke:none;stroke-width:0.399999"
     id="path910" />
  <path
     d="m 750.57001,491.97204 c 1.32,1.56399 1.12398,3.9 -0.44001,5.22 -1.56,1.32399 -3.89601,1.128 -5.21601,-0.432 -1.32399,-1.56402 -1.128,-3.90402 0.43602,-5.22402 1.56399,-1.32 3.9,-1.12398 5.22,0.43602"
     style="fill:#ffffff;fill-opacity:0.25;fill-rule:nonzero;stroke:none;stroke-width:0.399999"
     id="path912" />
  <g
     transform="matrix(9.6,0,0,9.6,1246.2908,-980.15101)"
     id="use9385-36"
     style="fill:#7fa7ca;fill-opacity:1">
    <path
       d="m -70.999999,118 0.708122,1.79188 L -68.5,120.5 -70.291877,121.20812 -70.999999,123 -71.708122,121.20812 -73.5,120.5 l 1.791878,-0.70812 z"
       id="path10536-2"
       style="display:inline;overflow:visible;opacity:0.2;fill-rule:evenodd;stroke:none;stroke-width:4;stroke-linecap:butt;stroke-linejoin:miter;stroke-miterlimit:4;stroke-dashoffset:0;stroke-opacity:1;marker:none;marker-start:none;marker-mid:none;marker-end:none;enable-background:accumulate" />
    <path
       d="m -69.653643,120.5 c 0,0.74319 -0.603167,1.34636 -1.346356,1.34636 -0.743189,0 -1.346357,-0.60317 -1.346357,-1.34636 0,-0.74319 0.603168,-1.34636 1.346357,-1.34636 0.743189,0 1.346356,0.60317 1.346356,1.34636 z"
       id="path10538-7"
       style="display:inline;overflow:visible;opacity:0.3;fill-rule:evenodd;stroke:none;stroke-width:4;stroke-linecap:butt;stroke-linejoin:miter;stroke-miterlimit:4;stroke-dashoffset:0;stroke-opacity:1;marker:none;marker-start:none;marker-mid:none;marker-end:none;enable-background:accumulate" />
    <path
       d="m -71.956621,120.5 c 0,0.52806 0.428567,0.95662 0.956622,0.95662 0.528055,0 0.956622,-0.42856 0.956622,-0.95662 0,-0.52806 -0.428567,-0.95662 -0.956622,-0.95662 -0.528055,0 -0.956622,0.42856 -0.956622,0.95662 z"
       id="path10540-06"
       style="display:inline;overflow:visible;fill-rule:evenodd;stroke:none;stroke-width:4;stroke-linecap:butt;stroke-linejoin:miter;stroke-miterlimit:4;stroke-dashoffset:0;stroke-opacity:1;marker:none;marker-start:none;marker-mid:none;marker-end:none;enable-background:accumulate" />
  </g>
  <g
     transform="matrix(6.8,0,0,6.8,1015.866,-673.28797)"
     id="use9385-36-6"
     style="fill:#7fa7ca;fill-opacity:1">
    <path
       d="m -70.999999,118 0.708122,1.79188 L -68.5,120.5 -70.291877,121.20812 -70.999999,123 -71.708122,121.20812 -73.5,120.5 l 1.791878,-0.70812 z"
       id="path10536-2-9"
       style="display:inline;overflow:visible;opacity:0.2;fill-rule:evenodd;stroke:none;stroke-width:4;stroke-linecap:butt;stroke-linejoin:miter;stroke-miterlimit:4;stroke-dashoffset:0;stroke-opacity:1;marker:none;marker-start:none;marker-mid:none;marker-end:none;enable-background:accumulate" />
    <path
       d="m -69.653643,120.5 c 0,0.74319 -0.603167,1.34636 -1.346356,1.34636 -0.743189,0 -1.346357,-0.60317 -1.346357,-1.34636 0,-0.74319 0.603168,-1.34636 1.346357,-1.34636 0.743189,0 1.346356,0.60317 1.346356,1.34636 z"
       id="path10538-7-2"
       style="display:inline;overflow:visible;opacity:0.3;fill-rule:evenodd;stroke:none;stroke-width:4;stroke-linecap:butt;stroke-linejoin:miter;stroke-miterlimit:4;stroke-dashoffset:0;stroke-opacity:1;marker:none;marker-start:none;marker-mid:none;marker-end:none;enable-background:accumulate" />
    <path
       d="m -71.956621,120.5 c 0,0.52806 0.428567,0.95662 0.956622,0.95662 0.528055,0 0.956622,-0.42856 0.956622,-0.95662 0,-0.52806 -0.428567,-0.95662 -0.956622,-0.95662 -0.528055,0 -0.956622,0.42856 -0.956622,0.95662 z"
       id="path10540-06-5"
       style="display:inline;overflow:visible;fill-rule:evenodd;stroke:none;stroke-width:4;stroke-linecap:butt;stroke-linejoin:miter;stroke-miterlimit:4;stroke-dashoffset:0;stroke-opacity:1;marker:none;marker-start:none;marker-mid:none;marker-end:none;enable-background:accumulate" />
  </g>
  <g
     transform="matrix(4.9678784,1.5362892,-1.5362892,4.9678784,1043.2359,-356.20554)"
     id="use9385-36-9"
     style="fill:#7fa7ca;fill-opacity:1">
    <path
       d="m -70.999999,118 0.708122,1.79188 L -68.5,120.5 -70.291877,121.20812 -70.999999,123 -71.708122,121.20812 -73.5,120.5 l 1.791878,-0.70812 z"
       id="path10536-2-5"
       style="display:inline;overflow:visible;opacity:0.2;fill-rule:evenodd;stroke:none;stroke-width:4;stroke-linecap:butt;stroke-linejoin:miter;stroke-miterlimit:4;stroke-dashoffset:0;stroke-opacity:1;marker:none;marker-start:none;marker-mid:none;marker-end:none;enable-background:accumulate" />
    <path
       d="m -69.653643,120.5 c 0,0.74319 -0.603167,1.34636 -1.346356,1.34636 -0.743189,0 -1.346357,-0.60317 -1.346357,-1.34636 0,-0.74319 0.603168,-1.34636 1.346357,-1.34636 0.743189,0 1.346356,0.60317 1.346356,1.34636 z"
       id="path10538-7-7"
       style="display:inline;overflow:visible;opacity:0.3;fill-rule:evenodd;stroke:none;stroke-width:4;stroke-linecap:butt;stroke-linejoin:miter;stroke-miterlimit:4;stroke-dashoffset:0;stroke-opacity:1;marker:none;marker-start:none;marker-mid:none;marker-end:none;enable-background:accumulate" />
    <path
       d="m -71.956621,120.5 c 0,0.52806 0.428567,0.95662 0.956622,0.95662 0.528055,0 0.956622,-0.42856 0.956622,-0.95662 0,-0.52806 -0.428567,-0.95662 -0.956622,-0.95662 -0.528055,0 -0.956622,0.42856 -0.956622,0.95662 z"
       id="path10540-06-0"
       style="display:inline;overflow:visible;fill-rule:evenodd;stroke:none;stroke-width:4;stroke-linecap:butt;stroke-linejoin:miter;stroke-miterlimit:4;stroke-dashoffset:0;stroke-opacity:1;marker:none;marker-start:none;marker-mid:none;marker-end:none;enable-background:accumulate" />
  </g>
  <g
     transform="matrix(7.6,-2.8170811,2.8170811,7.6,649.23183,-935.40122)"
     id="use9385-36-0"
     style="fill:#7fa7ca;fill-opacity:1">
    <path
       d="m -70.999999,118 0.708122,1.79188 L -68.5,120.5 -70.291877,121.20812 -70.999999,123 -71.708122,121.20812 -73.5,120.5 l 1.791878,-0.70812 z"
       id="path10536-2-6"
       style="display:inline;overflow:visible;opacity:0.2;fill-rule:evenodd;stroke:none;stroke-width:4;stroke-linecap:butt;stroke-linejoin:miter;stroke-miterlimit:4;stroke-dashoffset:0;stroke-opacity:1;marker:none;marker-start:none;marker-mid:none;marker-end:none;enable-background:accumulate" />
    <path
       d="m -69.653643,120.5 c 0,0.74319 -0.603167,1.34636 -1.346356,1.34636 -0.743189,0 -1.346357,-0.60317 -1.346357,-1.34636 0,-0.74319 0.603168,-1.34636 1.346357,-1.34636 0.743189,0 1.346356,0.60317 1.346356,1.34636 z"
       id="path10538-7-1"
       style="display:inline;overflow:visible;opacity:0.3;fill-rule:evenodd;stroke:none;stroke-width:4;stroke-linecap:butt;stroke-linejoin:miter;stroke-miterlimit:4;stroke-dashoffset:0;stroke-opacity:1;marker:none;marker-start:none;marker-mid:none;marker-end:none;enable-background:accumulate" />
    <path
       d="m -71.956621,120.5 c 0,0.52806 0.428567,0.95662 0.956622,0.95662 0.528055,0 0.956622,-0.42856 0.956622,-0.95662 0,-0.52806 -0.428567,-0.95662 -0.956622,-0.95662 -0.528055,0 -0.956622,0.42856 -0.956622,0.95662 z"
       id="path10540-06-6"
       style="display:inline;overflow:visible;fill-rule:evenodd;stroke:none;stroke-width:4;stroke-linecap:butt;stroke-linejoin:miter;stroke-miterlimit:4;stroke-dashoffset:0;stroke-opacity:1;marker:none;marker-start:none;marker-mid:none;marker-end:none;enable-background:accumulate" />
  </g>
  <g
     transform="matrix(7.2,-2.6052934,2.6052934,7.2,659.17514,-755.00212)"
     id="use9385-36-4"
     style="fill:#7fa7ca;fill-opacity:1">
    <path
       d="m -70.999999,118 0.708122,1.79188 L -68.5,120.5 -70.291877,121.20812 -70.999999,123 -71.708122,121.20812 -73.5,120.5 l 1.791878,-0.70812 z"
       id="path10536-2-7"
       style="display:inline;overflow:visible;opacity:0.2;fill-rule:evenodd;stroke:none;stroke-width:4;stroke-linecap:butt;stroke-linejoin:miter;stroke-miterlimit:4;stroke-dashoffset:0;stroke-opacity:1;marker:none;marker-start:none;marker-mid:none;marker-end:none;enable-background:accumulate" />
    <path
       d="m -69.653643,120.5 c 0,0.74319 -0.603167,1.34636 -1.346356,1.34636 -0.743189,0 -1.346357,-0.60317 -1.346357,-1.34636 0,-0.74319 0.603168,-1.34636 1.346357,-1.34636 0.743189,0 1.346356,0.60317 1.346356,1.34636 z"
       id="path10538-7-77"
       style="display:inline;overflow:visible;opacity:0.3;fill-rule:evenodd;stroke:none;stroke-width:4;stroke-linecap:butt;stroke-linejoin:miter;stroke-miterlimit:4;stroke-dashoffset:0;stroke-opacity:1;marker:none;marker-start:none;marker-mid:none;marker-end:none;enable-background:accumulate" />
    <path
       d="m -71.956621,120.5 c 0,0.52806 0.428567,0.95662 0.956622,0.95662 0.528055,0 0.956622,-0.42856 0.956622,-0.95662 0,-0.52806 -0.428567,-0.95662 -0.956622,-0.95662 -0.528055,0 -0.956622,0.42856 -0.956622,0.95662 z"
       id="path10540-06-59"
       style="display:inline;overflow:visible;fill-rule:evenodd;stroke:none;stroke-width:4;stroke-linecap:butt;stroke-linejoin:miter;stroke-miterlimit:4;stroke-dashoffset:0;stroke-opacity:1;marker:none;marker-start:none;marker-mid:none;marker-end:none;enable-background:accumulate" />
  </g>
  <g
     transform="matrix(7.6,-4.5372471,4.5372471,7.6,523.68919,-917.51528)"
     id="use9385-36-45"
     style="fill:#7fa7ca;fill-opacity:1">
    <path
       d="m -70.999999,118 0.708122,1.79188 L -68.5,120.5 -70.291877,121.20812 -70.999999,123 -71.708122,121.20812 -73.5,120.5 l 1.791878,-0.70812 z"
       id="path10536-2-8"
       style="display:inline;overflow:visible;opacity:0.2;fill-rule:evenodd;stroke:none;stroke-width:4;stroke-linecap:butt;stroke-linejoin:miter;stroke-miterlimit:4;stroke-dashoffset:0;stroke-opacity:1;marker:none;marker-start:none;marker-mid:none;marker-end:none;enable-background:accumulate" />
    <path
       d="m -69.653643,120.5 c 0,0.74319 -0.603167,1.34636 -1.346356,1.34636 -0.743189,0 -1.346357,-0.60317 -1.346357,-1.34636 0,-0.74319 0.603168,-1.34636 1.346357,-1.34636 0.743189,0 1.346356,0.60317 1.346356,1.34636 z"
       id="path10538-7-4"
       style="display:inline;overflow:visible;opacity:0.3;fill-rule:evenodd;stroke:none;stroke-width:4;stroke-linecap:butt;stroke-linejoin:miter;stroke-miterlimit:4;stroke-dashoffset:0;stroke-opacity:1;marker:none;marker-start:none;marker-mid:none;marker-end:none;enable-background:accumulate" />
    <path
       d="m -71.956621,120.5 c 0,0.52806 0.428567,0.95662 0.956622,0.95662 0.528055,0 0.956622,-0.42856 0.956622,-0.95662 0,-0.52806 -0.428567,-0.95662 -0.956622,-0.95662 -0.528055,0 -0.956622,0.42856 -0.956622,0.95662 z"
       id="path10540-06-57"
       style="display:inline;overflow:visible;fill-rule:evenodd;stroke:none;stroke-width:4;stroke-linecap:butt;stroke-linejoin:miter;stroke-miterlimit:4;stroke-dashoffset:0;stroke-opacity:1;marker:none;marker-start:none;marker-mid:none;marker-end:none;enable-background:accumulate" />
  </g>
  <g
     transform="matrix(8.8,0,0,8.8,1238.2777,-723.50355)"
     id="use9385-36-1"
     style="fill:#7fa7ca;fill-opacity:1">
    <path
       d="m -70.999999,118 0.708122,1.79188 L -68.5,120.5 -70.291877,121.20812 -70.999999,123 -71.708122,121.20812 -73.5,120.5 l 1.791878,-0.70812 z"
       id="path10536-2-95"
       style="display:inline;overflow:visible;opacity:0.2;fill-rule:evenodd;stroke:none;stroke-width:4;stroke-linecap:butt;stroke-linejoin:miter;stroke-miterlimit:4;stroke-dashoffset:0;stroke-opacity:1;marker:none;marker-start:none;marker-mid:none;marker-end:none;enable-background:accumulate" />
    <path
       d="m -69.653643,120.5 c 0,0.74319 -0.603167,1.34636 -1.346356,1.34636 -0.743189,0 -1.346357,-0.60317 -1.346357,-1.34636 0,-0.74319 0.603168,-1.34636 1.346357,-1.34636 0.743189,0 1.346356,0.60317 1.346356,1.34636 z"
       id="path10538-7-46"
       style="display:inline;overflow:visible;opacity:0.3;fill-rule:evenodd;stroke:none;stroke-width:4;stroke-linecap:butt;stroke-linejoin:miter;stroke-miterlimit:4;stroke-dashoffset:0;stroke-opacity:1;marker:none;marker-start:none;marker-mid:none;marker-end:none;enable-background:accumulate" />
    <path
       d="m -71.956621,120.5 c 0,0.52806 0.428567,0.95662 0.956622,0.95662 0.528055,0 0.956622,-0.42856 0.956622,-0.95662 0,-0.52806 -0.428567,-0.95662 -0.956622,-0.95662 -0.528055,0 -0.956622,0.42856 -0.956622,0.95662 z"
       id="path10540-06-2"
       style="display:inline;overflow:visible;fill-rule:evenodd;stroke:none;stroke-width:4;stroke-linecap:butt;stroke-linejoin:miter;stroke-miterlimit:4;stroke-dashoffset:0;stroke-opacity:1;marker:none;marker-start:none;marker-mid:none;marker-end:none;enable-background:accumulate" />
  </g>
  <g
     transform="matrix(8.8,0,0,8.8,1313.9197,-670.85683)"
     id="use9385-36-99"
     style="fill:#7fa7ca;fill-opacity:1">
    <path
       d="m -70.999999,118 0.708122,1.79188 L -68.5,120.5 -70.291877,121.20812 -70.999999,123 -71.708122,121.20812 -73.5,120.5 l 1.791878,-0.70812 z"
       id="path10536-2-63"
       style="display:inline;overflow:visible;opacity:0.2;fill-rule:evenodd;stroke:none;stroke-width:4;stroke-linecap:butt;stroke-linejoin:miter;stroke-miterlimit:4;stroke-dashoffset:0;stroke-opacity:1;marker:none;marker-start:none;marker-mid:none;marker-end:none;enable-background:accumulate" />
    <path
       d="m -69.653643,120.5 c 0,0.74319 -0.603167,1.34636 -1.346356,1.34636 -0.743189,0 -1.346357,-0.60317 -1.346357,-1.34636 0,-0.74319 0.603168,-1.34636 1.346357,-1.34636 0.743189,0 1.346356,0.60317 1.346356,1.34636 z"
       id="path10538-7-6"
       style="display:inline;overflow:visible;opacity:0.3;fill-rule:evenodd;stroke:none;stroke-width:4;stroke-linecap:butt;stroke-linejoin:miter;stroke-miterlimit:4;stroke-dashoffset:0;stroke-opacity:1;marker:none;marker-start:none;marker-mid:none;marker-end:none;enable-background:accumulate" />
    <path
       d="m -71.956621,120.5 c 0,0.52806 0.428567,0.95662 0.956622,0.95662 0.528055,0 0.956622,-0.42856 0.956622,-0.95662 0,-0.52806 -0.428567,-0.95662 -0.956622,-0.95662 -0.528055,0 -0.956622,0.42856 -0.956622,0.95662 z"
       id="path10540-06-3"
       style="display:inline;overflow:visible;fill-rule:evenodd;stroke:none;stroke-width:4;stroke-linecap:butt;stroke-linejoin:miter;stroke-miterlimit:4;stroke-dashoffset:0;stroke-opacity:1;marker:none;marker-start:none;marker-mid:none;marker-end:none;enable-background:accumulate" />
  </g>
  <g
     transform="matrix(5.1827033,4.4022252,-4.4022252,5.1827033,1614.9781,105.00367)"
     id="use9385-36-15"
     style="fill:#7fa7ca;fill-opacity:1">
    <path
       d="m -70.999999,118 0.708122,1.79188 L -68.5,120.5 -70.291877,121.20812 -70.999999,123 -71.708122,121.20812 -73.5,120.5 l 1.791878,-0.70812 z"
       id="path10536-2-78"
       style="display:inline;overflow:visible;opacity:0.2;fill-rule:evenodd;stroke:none;stroke-width:4;stroke-linecap:butt;stroke-linejoin:miter;stroke-miterlimit:4;stroke-dashoffset:0;stroke-opacity:1;marker:none;marker-start:none;marker-mid:none;marker-end:none;enable-background:accumulate" />
    <path
       d="m -69.653643,120.5 c 0,0.74319 -0.603167,1.34636 -1.346356,1.34636 -0.743189,0 -1.346357,-0.60317 -1.346357,-1.34636 0,-0.74319 0.603168,-1.34636 1.346357,-1.34636 0.743189,0 1.346356,0.60317 1.346356,1.34636 z"
       id="path10538-7-9"
       style="display:inline;overflow:visible;opacity:0.3;fill-rule:evenodd;stroke:none;stroke-width:4;stroke-linecap:butt;stroke-linejoin:miter;stroke-miterlimit:4;stroke-dashoffset:0;stroke-opacity:1;marker:none;marker-start:none;marker-mid:none;marker-end:none;enable-background:accumulate" />
    <path
       d="m -71.956621,120.5 c 0,0.52806 0.428567,0.95662 0.956622,0.95662 0.528055,0 0.956622,-0.42856 0.956622,-0.95662 0,-0.52806 -0.428567,-0.95662 -0.956622,-0.95662 -0.528055,0 -0.956622,0.42856 -0.956622,0.95662 z"
       id="path10540-06-7"
       style="display:inline;overflow:visible;fill-rule:evenodd;stroke:none;stroke-width:4;stroke-linecap:butt;stroke-linejoin:miter;stroke-miterlimit:4;stroke-dashoffset:0;stroke-opacity:1;marker:none;marker-start:none;marker-mid:none;marker-end:none;enable-background:accumulate" />
  </g>
  <g
     transform="matrix(8,4.6531755,-4.6531755,8,1866.9913,-167.07045)"
     id="use9385-36-07"
     style="fill:#7fa7ca;fill-opacity:1">
    <path
       d="m -70.999999,118 0.708122,1.79188 L -68.5,120.5 -70.291877,121.20812 -70.999999,123 -71.708122,121.20812 -73.5,120.5 l 1.791878,-0.70812 z"
       id="path10536-2-1"
       style="display:inline;overflow:visible;opacity:0.2;fill-rule:evenodd;stroke:none;stroke-width:4;stroke-linecap:butt;stroke-linejoin:miter;stroke-miterlimit:4;stroke-dashoffset:0;stroke-opacity:1;marker:none;marker-start:none;marker-mid:none;marker-end:none;enable-background:accumulate" />
    <path
       d="m -69.653643,120.5 c 0,0.74319 -0.603167,1.34636 -1.346356,1.34636 -0.743189,0 -1.346357,-0.60317 -1.346357,-1.34636 0,-0.74319 0.603168,-1.34636 1.346357,-1.34636 0.743189,0 1.346356,0.60317 1.346356,1.34636 z"
       id="path10538-7-17"
       style="display:inline;overflow:visible;opacity:0.3;fill-rule:evenodd;stroke:none;stroke-width:4;stroke-linecap:butt;stroke-linejoin:miter;stroke-miterlimit:4;stroke-dashoffset:0;stroke-opacity:1;marker:none;marker-start:none;marker-mid:none;marker-end:none;enable-background:accumulate" />
    <path
       d="m -71.956621,120.5 c 0,0.52806 0.428567,0.95662 0.956622,0.95662 0.528055,0 0.956622,-0.42856 0.956622,-0.95662 0,-0.52806 -0.428567,-0.95662 -0.956622,-0.95662 -0.528055,0 -0.956622,0.42856 -0.956622,0.95662 z"
       id="path10540-06-21"
       style="display:inline;overflow:visible;fill-rule:evenodd;stroke:none;stroke-width:4;stroke-linecap:butt;stroke-linejoin:miter;stroke-miterlimit:4;stroke-dashoffset:0;stroke-opacity:1;marker:none;marker-start:none;marker-mid:none;marker-end:none;enable-background:accumulate" />
  </g>
  <g
     transform="matrix(9.6,5.0393025,-5.0393025,9.6,2051.4955,-250.27381)"
     id="use9385-36-2"
     style="fill:#7fa7ca;fill-opacity:1">
    <path
       d="m -70.999999,118 0.708122,1.79188 L -68.5,120.5 -70.291877,121.20812 -70.999999,123 -71.708122,121.20812 -73.5,120.5 l 1.791878,-0.70812 z"
       id="path10536-2-82"
       style="display:inline;overflow:visible;opacity:0.2;fill-rule:evenodd;stroke:none;stroke-width:4;stroke-linecap:butt;stroke-linejoin:miter;stroke-miterlimit:4;stroke-dashoffset:0;stroke-opacity:1;marker:none;marker-start:none;marker-mid:none;marker-end:none;enable-background:accumulate" />
    <path
       d="m -69.653643,120.5 c 0,0.74319 -0.603167,1.34636 -1.346356,1.34636 -0.743189,0 -1.346357,-0.60317 -1.346357,-1.34636 0,-0.74319 0.603168,-1.34636 1.346357,-1.34636 0.743189,0 1.346356,0.60317 1.346356,1.34636 z"
       id="path10538-7-8"
       style="display:inline;overflow:visible;opacity:0.3;fill-rule:evenodd;stroke:none;stroke-width:4;stroke-linecap:butt;stroke-linejoin:miter;stroke-miterlimit:4;stroke-dashoffset:0;stroke-opacity:1;marker:none;marker-start:none;marker-mid:none;marker-end:none;enable-background:accumulate" />
    <path
       d="m -71.956621,120.5 c 0,0.52806 0.428567,0.95662 0.956622,0.95662 0.528055,0 0.956622,-0.42856 0.956622,-0.95662 0,-0.52806 -0.428567,-0.95662 -0.956622,-0.95662 -0.528055,0 -0.956622,0.42856 -0.956622,0.95662 z"
       id="path10540-06-30"
       style="display:inline;overflow:visible;fill-rule:evenodd;stroke:none;stroke-width:4;stroke-linecap:butt;stroke-linejoin:miter;stroke-miterlimit:4;stroke-dashoffset:0;stroke-opacity:1;marker:none;marker-start:none;marker-mid:none;marker-end:none;enable-background:accumulate" />
  </g>
  <g
     transform="matrix(6.8,0,0,6.8,1313.3106,-321.0376)"
     id="use9385-36-5"
     style="fill:#7fa7ca;fill-opacity:1">
    <path
       d="m -70.999999,118 0.708122,1.79188 L -68.5,120.5 -70.291877,121.20812 -70.999999,123 -71.708122,121.20812 -73.5,120.5 l 1.791878,-0.70812 z"
       id="path10536-2-83"
       style="display:inline;overflow:visible;opacity:0.2;fill-rule:evenodd;stroke:none;stroke-width:4;stroke-linecap:butt;stroke-linejoin:miter;stroke-miterlimit:4;stroke-dashoffset:0;stroke-opacity:1;marker:none;marker-start:none;marker-mid:none;marker-end:none;enable-background:accumulate" />
    <path
       d="m -69.653643,120.5 c 0,0.74319 -0.603167,1.34636 -1.346356,1.34636 -0.743189,0 -1.346357,-0.60317 -1.346357,-1.34636 0,-0.74319 0.603168,-1.34636 1.346357,-1.34636 0.743189,0 1.346356,0.60317 1.346356,1.34636 z"
       id="path10538-7-72"
       style="display:inline;overflow:visible;opacity:0.3;fill-rule:evenodd;stroke:none;stroke-width:4;stroke-linecap:butt;stroke-linejoin:miter;stroke-miterlimit:4;stroke-dashoffset:0;stroke-opacity:1;marker:none;marker-start:none;marker-mid:none;marker-end:none;enable-background:accumulate" />
    <path
       d="m -71.956621,120.5 c 0,0.52806 0.428567,0.95662 0.956622,0.95662 0.528055,0 0.956622,-0.42856 0.956622,-0.95662 0,-0.52806 -0.428567,-0.95662 -0.956622,-0.95662 -0.528055,0 -0.956622,0.42856 -0.956622,0.95662 z"
       id="path10540-06-8"
       style="display:inline;overflow:visible;fill-rule:evenodd;stroke:none;stroke-width:4;stroke-linecap:butt;stroke-linejoin:miter;stroke-miterlimit:4;stroke-dashoffset:0;stroke-opacity:1;marker:none;marker-start:none;marker-mid:none;marker-end:none;enable-background:accumulate" />
  </g>
  <g
     transform="matrix(7.2,-3.2755467,3.2755467,7.2,798.02308,-575.56944)"
     id="use9385-36-54"
     style="fill:#7fa7ca;fill-opacity:1">
    <path
       d="m -70.999999,118 0.708122,1.79188 L -68.5,120.5 -70.291877,121.20812 -70.999999,123 -71.708122,121.20812 -73.5,120.5 l 1.791878,-0.70812 z"
       id="path10536-2-3"
       style="display:inline;overflow:visible;opacity:0.2;fill-rule:evenodd;stroke:none;stroke-width:4;stroke-linecap:butt;stroke-linejoin:miter;stroke-miterlimit:4;stroke-dashoffset:0;stroke-opacity:1;marker:none;marker-start:none;marker-mid:none;marker-end:none;enable-background:accumulate" />
    <path
       d="m -69.653643,120.5 c 0,0.74319 -0.603167,1.34636 -1.346356,1.34636 -0.743189,0 -1.346357,-0.60317 -1.346357,-1.34636 0,-0.74319 0.603168,-1.34636 1.346357,-1.34636 0.743189,0 1.346356,0.60317 1.346356,1.34636 z"
       id="path10538-7-5"
       style="display:inline;overflow:visible;opacity:0.3;fill-rule:evenodd;stroke:none;stroke-width:4;stroke-linecap:butt;stroke-linejoin:miter;stroke-miterlimit:4;stroke-dashoffset:0;stroke-opacity:1;marker:none;marker-start:none;marker-mid:none;marker-end:none;enable-background:accumulate" />
    <path
       d="m -71.956621,120.5 c 0,0.52806 0.428567,0.95662 0.956622,0.95662 0.528055,0 0.956622,-0.42856 0.956622,-0.95662 0,-0.52806 -0.428567,-0.95662 -0.956622,-0.95662 -0.528055,0 -0.956622,0.42856 -0.956622,0.95662 z"
       id="path10540-06-04"
       style="display:inline;overflow:visible;fill-rule:evenodd;stroke:none;stroke-width:4;stroke-linecap:butt;stroke-linejoin:miter;stroke-miterlimit:4;stroke-dashoffset:0;stroke-opacity:1;marker:none;marker-start:none;marker-mid:none;marker-end:none;enable-background:accumulate" />
  </g>
  <g
     transform="matrix(6.8,0,0,6.8,1105.3046,-310.7009)"
     id="use9385-36-452"
     style="fill:#7fa7ca;fill-opacity:1">
    <path
       d="m -70.999999,118 0.708122,1.79188 L -68.5,120.5 -70.291877,121.20812 -70.999999,123 -71.708122,121.20812 -73.5,120.5 l 1.791878,-0.70812 z"
       id="path10536-2-75"
       style="display:inline;overflow:visible;opacity:0.2;fill-rule:evenodd;stroke:none;stroke-width:4;stroke-linecap:butt;stroke-linejoin:miter;stroke-miterlimit:4;stroke-dashoffset:0;stroke-opacity:1;marker:none;marker-start:none;marker-mid:none;marker-end:none;enable-background:accumulate" />
    <path
       d="m -69.653643,120.5 c 0,0.74319 -0.603167,1.34636 -1.346356,1.34636 -0.743189,0 -1.346357,-0.60317 -1.346357,-1.34636 0,-0.74319 0.603168,-1.34636 1.346357,-1.34636 0.743189,0 1.346356,0.60317 1.346356,1.34636 z"
       id="path10538-7-16"
       style="display:inline;overflow:visible;opacity:0.3;fill-rule:evenodd;stroke:none;stroke-width:4;stroke-linecap:butt;stroke-linejoin:miter;stroke-miterlimit:4;stroke-dashoffset:0;stroke-opacity:1;marker:none;marker-start:none;marker-mid:none;marker-end:none;enable-background:accumulate" />
    <path
       d="m -71.956621,120.5 c 0,0.52806 0.428567,0.95662 0.956622,0.95662 0.528055,0 0.956622,-0.42856 0.956622,-0.95662 0,-0.52806 -0.428567,-0.95662 -0.956622,-0.95662 -0.528055,0 -0.956622,0.42856 -0.956622,0.95662 z"
       id="path10540-06-4"
       style="display:inline;overflow:visible;fill-rule:evenodd;stroke:none;stroke-width:4;stroke-linecap:butt;stroke-linejoin:miter;stroke-miterlimit:4;stroke-dashoffset:0;stroke-opacity:1;marker:none;marker-start:none;marker-mid:none;marker-end:none;enable-background:accumulate" />
  </g>
</svg>
