<?xml version="1.0" encoding="UTF-8" standalone="no"?>
<svg
   viewBox="0 0 1280 1280"
   version="1.1"
   id="svg25573"
   xmlns="http://www.w3.org/2000/svg"
   xmlns:svg="http://www.w3.org/2000/svg">
  <defs
     id="defs25577" />
  <path
     d="m 559.58401,499.8 c 1.392,0.39201 2.20401,1.84002 1.81599,3.23202 -0.39198,1.39599 -1.83999,2.208 -3.23199,1.81599 -1.39599,-0.38799 -2.208,-1.836 -1.81599,-3.228 0.39198,-1.39599 1.836,-2.208 3.23199,-1.82001"
     style="fill:#ffffff;fill-opacity:0.25;fill-rule:nonzero;stroke:none;stroke-width:0.399999"
     id="path942" />
  <path
     d="m 567.04402,489.25602 c 1.39599,0.39198 2.208,1.836 1.81599,3.23199 -0.38799,1.392 -1.836,2.208 -3.23199,1.812 -1.392,-0.38799 -2.20401,-1.836 -1.812,-3.228 0.38799,-1.39599 1.836,-2.208 3.228,-1.81599"
     style="fill:#ffffff;fill-opacity:0.25;fill-rule:nonzero;stroke:none;stroke-width:0.399999"
     id="path944" />
  <path
     d="m 574.63201,478.536 c 1.392,0.39201 2.20401,1.84002 1.81599,3.23202 -0.39198,1.392 -1.83999,2.20398 -3.23199,1.81599 -1.392,-0.39201 -2.208,-1.83999 -1.81599,-3.23199 0.39198,-1.392 1.83999,-2.208 3.23199,-1.81602"
     style="fill:#ffffff;fill-opacity:0.25;fill-rule:nonzero;stroke:none;stroke-width:0.399999"
     id="path946" />
  <path
     d="m 581.88802,468.28002 c 1.392,0.39198 2.20398,1.83999 1.81599,3.23199 -0.39201,1.392 -1.83999,2.20401 -3.23199,1.81599 -1.392,-0.39198 -2.208,-1.83999 -1.81602,-3.23199 0.39201,-1.392 1.84002,-2.208 3.23202,-1.81599"
     style="fill:#ffffff;fill-opacity:0.25;fill-rule:nonzero;stroke:none;stroke-width:0.399999"
     id="path948" />
  <path
     d="m 589.10002,458.088 c 1.392,0.39201 2.20398,1.84002 1.81599,3.23202 -0.39201,1.392 -1.83999,2.208 -3.23199,1.81599 -1.39602,-0.39201 -2.208,-1.83999 -1.81602,-3.23199 0.38802,-1.392 1.836,-2.20401 3.23202,-1.81602"
     style="fill:#ffffff;fill-opacity:0.25;fill-rule:nonzero;stroke:none;stroke-width:0.399999"
     id="path950" />
  <path
     d="m 596.56,447.54402 c 1.39602,0.38799 2.208,1.836 1.81602,3.23199 -0.38802,1.392 -1.836,2.20401 -3.23202,1.812 -1.392,-0.38799 -2.20398,-1.836 -1.812,-3.228 0.38802,-1.39599 1.836,-2.208 3.228,-1.81599"
     style="fill:#ffffff;fill-opacity:0.25;fill-rule:nonzero;stroke:none;stroke-width:0.399999"
     id="path952" />
  <path
     d="m 604.66,436.10001 c 1.392,0.39201 2.20401,1.836 1.812,3.23199 -0.38799,1.392 -1.836,2.208 -3.228,1.81602 -1.39599,-0.39201 -2.208,-1.84002 -1.81998,-3.23202 0.396,-1.39599 1.83999,-2.208 3.23598,-1.81599"
     style="fill:#ffffff;fill-opacity:0.25;fill-rule:nonzero;stroke:none;stroke-width:0.399999"
     id="path954" />
  <path
     d="m 612.832,424.55202 c 1.392,0.39198 2.20401,1.836 1.812,3.23199 -0.39198,1.392 -1.836,2.20401 -3.228,1.81599 -1.39599,-0.39198 -2.208,-1.83999 -1.81998,-3.23199 0.39198,-1.39599 1.83999,-2.208 3.23598,-1.81599"
     style="fill:#ffffff;fill-opacity:0.25;fill-rule:nonzero;stroke:none;stroke-width:0.399999"
     id="path956" />
  <path
     d="m 620.51602,413.688 c 1.39599,0.39201 2.208,1.836 1.81599,3.23202 -0.39201,1.392 -1.836,2.208 -3.23199,1.812 -1.392,-0.38802 -2.20401,-1.836 -1.81602,-3.228 0.39201,-1.392 1.84002,-2.208 3.23202,-1.81602"
     style="fill:#ffffff;fill-opacity:0.25;fill-rule:nonzero;stroke:none;stroke-width:0.399999"
     id="path958" />
  <path
     d="m 628.144,402.912 c 1.392,0.38802 2.20401,1.836 1.81602,3.228 -0.39201,1.39602 -1.84002,2.208 -3.23202,1.82001 -1.39599,-0.396 -2.208,-1.83999 -1.81599,-3.23601 0.39201,-1.392 1.836,-2.20398 3.23199,-1.812"
     style="fill:#ffffff;fill-opacity:0.25;fill-rule:nonzero;stroke:none;stroke-width:0.399999"
     id="path960" />
  <path
     d="m 635.73601,392.18001 c 1.392,0.38799 2.208,1.836 1.81599,3.228 -0.39198,1.39599 -1.836,2.208 -3.23199,1.81599 -1.392,-0.38799 -2.208,-1.836 -1.81599,-3.23199 0.39198,-1.392 1.836,-2.20401 3.23199,-1.812"
     style="fill:#ffffff;fill-opacity:0.25;fill-rule:nonzero;stroke:none;stroke-width:0.399999"
     id="path962" />
  <path
     d="m 666.14401,345.756 c 1.392,0.38802 2.20401,1.836 1.81602,3.228 -0.39201,1.39602 -1.84002,2.208 -3.23202,1.81602 -1.392,-0.38802 -2.208,-1.836 -1.81599,-3.228 0.39201,-1.39602 1.836,-2.208 3.23199,-1.81602"
     style="fill:#ffffff;fill-opacity:0.25;fill-rule:nonzero;stroke:none;stroke-width:0.399999"
     id="path964" />
  <path
     d="m 680.96803,314.36802 c 1.392,0.38799 2.20398,1.836 1.81599,3.228 -0.39201,1.39599 -1.83999,2.208 -3.23601,1.81599 -1.38798,-0.38799 -2.20398,-1.836 -1.812,-3.228 0.39201,-1.39599 1.836,-2.208 3.23202,-1.81599"
     style="fill:#ffffff;fill-opacity:0.25;fill-rule:nonzero;stroke:none;stroke-width:0.399999"
     id="path966" />
  <path
     d="m 640.3,312.44802 c 1.39602,0.38799 2.208,1.836 1.81602,3.228 -0.38802,1.39599 -1.836,2.208 -3.228,1.81599 -1.39602,-0.38799 -2.208,-1.836 -1.81602,-3.228 0.38802,-1.39599 1.836,-2.208 3.228,-1.81599"
     style="fill:#ffffff;fill-opacity:0.25;fill-rule:nonzero;stroke:none;stroke-width:0.399999"
     id="path968" />
  <path
     d="m 669.27601,304.67601 c 1.39602,0.39201 2.208,1.83999 1.81602,3.23199 -0.39201,1.392 -1.836,2.208 -3.23202,1.81602 -1.392,-0.39201 -2.20398,-1.84002 -1.81599,-3.23202 0.39201,-1.392 1.836,-2.20398 3.23199,-1.81599"
     style="fill:#ffffff;fill-opacity:0.25;fill-rule:nonzero;stroke:none;stroke-width:0.399999"
     id="path970" />
  <path
     d="m 642.78802,382.21602 c 1.392,0.39198 2.20398,1.836 1.812,3.23199 -0.38802,1.392 -1.836,2.20401 -3.228,1.81599 -1.39602,-0.39198 -2.208,-1.83999 -1.81602,-3.23199 0.38802,-1.39599 1.836,-2.208 3.23202,-1.81599"
     style="fill:#ffffff;fill-opacity:0.25;fill-rule:nonzero;stroke:none;stroke-width:0.399999"
     id="path972" />
  <path
     d="m 702.81202,291.27201 c 1.21599,0.78 1.56801,2.4 0.78801,3.61998 -0.78,1.21602 -2.40402,1.572 -3.62001,0.792 -1.22001,-0.78399 -1.572,-2.40399 -0.792,-3.624 0.78399,-1.21599 2.40399,-1.572 3.624,-0.78798"
     style="fill:#ffffff;fill-opacity:0.25;fill-rule:nonzero;stroke:none;stroke-width:0.399999"
     id="path974" />
  <path
     d="m 713.33602,283.128 c 1.21599,0.78 1.572,2.40399 0.792,3.62001 -0.78399,1.21599 -2.40399,1.572 -3.624,0.792 -1.21599,-0.78 -1.56801,-2.40402 -0.78801,-3.62001 0.78402,-1.22001 2.40402,-1.572 3.62001,-0.792"
     style="fill:#ffffff;fill-opacity:0.25;fill-rule:nonzero;stroke:none;stroke-width:0.399999"
     id="path976" />
  <path
     d="m 723.78001,275.04801 c 1.22001,0.78399 1.572,2.40399 0.792,3.624 -0.78,1.21599 -2.4,1.572 -3.61998,0.792 -1.22001,-0.78402 -1.57602,-2.40402 -0.792,-3.624 0.78,-1.21602 2.4,-1.572 3.61998,-0.792"
     style="fill:#ffffff;fill-opacity:0.25;fill-rule:nonzero;stroke:none;stroke-width:0.399999"
     id="path978" />
  <path
     d="m 522.664,552.19602 c 1.392,0.39201 2.20401,1.83999 1.81602,3.23199 -0.39201,1.392 -1.84002,2.20401 -3.23202,1.81602 -1.39599,-0.39201 -2.208,-1.84002 -1.81599,-3.23202 0.39201,-1.392 1.836,-2.208 3.23199,-1.81599"
     style="fill:#ffffff;fill-opacity:0.25;fill-rule:nonzero;stroke:none;stroke-width:0.399999"
     id="path980" />
  <path
     d="m 530.34802,541.33203 c 1.39599,0.39198 2.208,1.836 1.81998,3.23199 -0.39198,1.39599 -1.83999,2.208 -3.23598,1.81599 -1.392,-0.39198 -2.20401,-1.836 -1.812,-3.23199 0.38799,-1.39599 1.836,-2.208 3.228,-1.81599"
     style="fill:#ffffff;fill-opacity:0.25;fill-rule:nonzero;stroke:none;stroke-width:0.399999"
     id="path982" />
  <path
     d="m 537.976,530.55603 c 1.392,0.39198 2.20401,1.836 1.81602,3.23199 -0.39201,1.392 -1.84002,2.20401 -3.23202,1.81599 -1.392,-0.39198 -2.208,-1.83999 -1.81599,-3.23199 0.39201,-1.39599 1.83999,-2.208 3.23199,-1.81599"
     style="fill:#ffffff;fill-opacity:0.25;fill-rule:nonzero;stroke:none;stroke-width:0.399999"
     id="path984" />
  <path
     d="m 545.572,519.82401 c 1.392,0.38802 2.20401,1.836 1.812,3.228 -0.38799,1.39602 -1.836,2.208 -3.228,1.82001 -1.39599,-0.39201 -2.208,-1.83999 -1.81998,-3.23199 0.39198,-1.39602 1.83999,-2.208 3.23598,-1.81602"
     style="fill:#ffffff;fill-opacity:0.25;fill-rule:nonzero;stroke:none;stroke-width:0.399999"
     id="path986" />
  <path
     d="m 552.62002,509.86002 c 1.392,0.39201 2.208,1.83999 1.81599,3.23199 -0.39201,1.392 -1.83999,2.20401 -3.23199,1.81602 -1.392,-0.39201 -2.20401,-1.84002 -1.81602,-3.23202 0.39201,-1.392 1.84002,-2.208 3.23202,-1.81599"
     style="fill:#ffffff;fill-opacity:0.25;fill-rule:nonzero;stroke:none;stroke-width:0.399999"
     id="path988" />
  <path
     d="m 486.424,410.36001 c 1.152,0.876 1.38,2.52 0.504,3.672 -0.876,1.152 -2.52,1.37601 -3.672,0.504 -1.15599,-0.876 -1.38,-2.52 -0.504,-3.672 0.876,-1.152 2.52,-1.38 3.672,-0.504"
     style="fill:#ffffff;fill-opacity:0.25;fill-rule:nonzero;stroke:none;stroke-width:0.399999"
     id="path992" />
  <path
     d="m 497.236,403.29201 c 1.15602,0.87201 1.38,2.51601 0.504,3.672 -0.876,1.152 -2.52,1.37601 -3.672,0.50001 -1.152,-0.876 -1.38,-2.52 -0.504,-3.672 0.876,-1.152 2.52,-1.38 3.672,-0.50001"
     style="fill:#ffffff;fill-opacity:0.25;fill-rule:nonzero;stroke:none;stroke-width:0.399999"
     id="path994" />
  <path
     d="m 508.228,396.10002 c 1.152,0.876 1.37601,2.52 0.504,3.67599 -0.876,1.152 -2.52,1.37601 -3.672,0.50001 -1.152,-0.876 -1.38,-2.52 -0.504,-3.672 0.876,-1.152 2.52,-1.38 3.672,-0.504"
     style="fill:#ffffff;fill-opacity:0.25;fill-rule:nonzero;stroke:none;stroke-width:0.399999"
     id="path996" />
  <path
     d="m 518.74402,389.22402 c 1.152,0.876 1.37598,2.52 0.49998,3.672 -0.876,1.152 -2.51598,1.38 -3.672,0.504 -1.152,-0.87201 -1.37598,-2.52 -0.49998,-3.672 0.87198,-1.152 2.51598,-1.37601 3.672,-0.504"
     style="fill:#ffffff;fill-opacity:0.25;fill-rule:nonzero;stroke:none;stroke-width:0.399999"
     id="path998" />
  <path
     d="m 529.192,382.392 c 1.152,0.876 1.37601,2.52 0.50001,3.672 -0.87201,1.152 -2.52,1.38 -3.672,0.504 -1.152,-0.876 -1.37601,-2.52 -0.50001,-3.672 0.876,-1.152 2.52,-1.37598 3.672,-0.504"
     style="fill:#ffffff;fill-opacity:0.25;fill-rule:nonzero;stroke:none;stroke-width:0.399999"
     id="path1000" />
  <path
     d="m 540.004,375.324 c 1.152,0.876 1.37601,2.51601 0.50001,3.672 -0.87201,1.152 -2.51601,1.37601 -3.66801,0.50001 -1.15599,-0.87201 -1.38,-2.52 -0.504,-3.672 0.876,-1.152 2.52,-1.37601 3.672,-0.50001"
     style="fill:#ffffff;fill-opacity:0.25;fill-rule:nonzero;stroke:none;stroke-width:0.399999"
     id="path1002" />
  <path
     d="m 551.73601,367.64802 c 1.152,0.87999 1.37601,2.52 0.504,3.67599 -0.876,1.152 -2.52,1.37601 -3.672,0.50001 -1.152,-0.87201 -1.38,-2.52 -0.504,-3.672 0.876,-1.152 2.52,-1.37601 3.672,-0.504"
     style="fill:#ffffff;fill-opacity:0.25;fill-rule:nonzero;stroke:none;stroke-width:0.399999"
     id="path1004" />
  <path
     d="m 563.57602,359.90802 c 1.152,0.876 1.37598,2.52 0.504,3.672 -0.876,1.152 -2.52,1.38 -3.672,0.504 -1.15602,-0.876 -1.38,-2.52 -0.504,-3.672 0.876,-1.15602 2.51598,-1.38 3.672,-0.504"
     style="fill:#ffffff;fill-opacity:0.25;fill-rule:nonzero;stroke:none;stroke-width:0.399999"
     id="path1006" />
  <path
     d="m 574.71601,352.62402 c 1.152,0.876 1.37601,2.52 0.50001,3.672 -0.876,1.152 -2.52,1.37598 -3.672,0.49998 -1.152,-0.87198 -1.37601,-2.51598 -0.50001,-3.66798 0.876,-1.15602 2.51601,-1.38 3.672,-0.504"
     style="fill:#ffffff;fill-opacity:0.25;fill-rule:nonzero;stroke:none;stroke-width:0.399999"
     id="path1008" />
  <path
     d="m 585.76402,345.396 c 1.152,0.876 1.38,2.52 0.49998,3.672 -0.87198,1.15602 -2.51598,1.38 -3.672,0.504 -1.152,-0.87198 -1.37598,-2.52 -0.49998,-3.672 0.876,-1.152 2.52,-1.37598 3.672,-0.504"
     style="fill:#ffffff;fill-opacity:0.25;fill-rule:nonzero;stroke:none;stroke-width:0.399999"
     id="path1010" />
  <path
     d="m 596.764,338.20401 c 1.15602,0.87201 1.38,2.51601 0.504,3.672 -0.87198,1.152 -2.51598,1.37601 -3.672,0.504 -1.152,-0.876 -1.37598,-2.52 -0.504,-3.672 0.88002,-1.15599 2.52,-1.38 3.672,-0.504"
     style="fill:#ffffff;fill-opacity:0.25;fill-rule:nonzero;stroke:none;stroke-width:0.399999"
     id="path1012" />
  <path
     d="m 606.98401,331.524 c 1.152,0.87201 1.37601,2.52 0.50001,3.672 -0.876,1.152 -2.52,1.37601 -3.672,0.504 -1.152,-0.876 -1.37601,-2.52 -0.50001,-3.67599 0.87201,-1.152 2.51601,-1.37601 3.672,-0.50001"
     style="fill:#ffffff;fill-opacity:0.25;fill-rule:nonzero;stroke:none;stroke-width:0.399999"
     id="path1014" />
  <path
     d="m 432.84799,445.54401 c 1.15602,0.876 1.38,2.52 0.504,3.672 -0.876,1.15599 -2.52,1.38 -3.672,0.504 -1.152,-0.876 -1.38,-2.52 -0.504,-3.672 0.876,-1.152 2.52,-1.38 3.672,-0.504"
     style="fill:#ffffff;fill-opacity:0.25;fill-rule:nonzero;stroke:none;stroke-width:0.399999"
     id="path1016" />
  <path
     d="m 443.98801,438.26001 c 1.152,0.876 1.37598,2.52 0.504,3.672 -0.876,1.152 -2.52,1.38 -3.672,0.504 -1.15602,-0.876 -1.38,-2.52 -0.504,-3.672 0.876,-1.152 2.52,-1.38 3.672,-0.504"
     style="fill:#ffffff;fill-opacity:0.25;fill-rule:nonzero;stroke:none;stroke-width:0.399999"
     id="path1018" />
  <path
     d="m 455.03602,431.03601 c 1.152,0.876 1.38,2.51601 0.504,3.672 -0.876,1.152 -2.52,1.37601 -3.672,0.504 -1.152,-0.876 -1.37601,-2.52 -0.504,-3.672 0.876,-1.15599 2.52,-1.38 3.672,-0.504"
     style="fill:#ffffff;fill-opacity:0.25;fill-rule:nonzero;stroke:none;stroke-width:0.399999"
     id="path1020" />
  <path
     d="m 466.04002,423.84 c 1.152,0.87201 1.38,2.52 0.504,3.672 -0.876,1.152 -2.52,1.37601 -3.672,0.504 -1.15602,-0.876 -1.38,-2.52 -0.504,-3.672 0.876,-1.152 2.52,-1.38 3.672,-0.504"
     style="fill:#ffffff;fill-opacity:0.25;fill-rule:nonzero;stroke:none;stroke-width:0.399999"
     id="path1022" />
  <path
     d="m 476.25601,417.16002 c 1.152,0.876 1.37601,2.52 0.50001,3.672 -0.87201,1.152 -2.51601,1.38 -3.66801,0.504 -1.15599,-0.876 -1.38,-2.52 -0.504,-3.672 0.876,-1.15602 2.51601,-1.38 3.672,-0.504"
     style="fill:#ffffff;fill-opacity:0.25;fill-rule:nonzero;stroke:none;stroke-width:0.399999"
     id="path1024" />
  <path
     d="m 759.3121,244.32399 c 1.3599,0.50802 2.0439,2.016 1.5399,3.372 -0.504,1.356 -2.016,2.04801 -3.3681,1.54401 -1.356,-0.50799 -2.0478,-2.016 -1.5438,-3.372 0.5079,-1.356 2.016,-2.04801 3.372,-1.54401"
     style="fill:#ffffff;fill-opacity:0.25;fill-rule:nonzero;stroke:none;stroke-width:0.399999"
     id="path1042" />
  <path
     d="m 767.392,234.708 c 1.356,0.504 2.0481,2.01201 1.5441,3.36801 -0.5082,1.35999 -2.016,2.04798 -3.372,1.54398 -1.356,-0.504 -2.0481,-2.016 -1.5441,-3.372 0.5079,-1.356 2.016,-2.04399 3.372,-1.53999"
     style="fill:#ffffff;fill-opacity:0.25;fill-rule:nonzero;stroke:none;stroke-width:0.399999"
     id="path1044" />
  <path
     d="m 775.4239,225.14799 c 1.356,0.504 2.0481,2.01201 1.5441,3.372 -0.5079,1.356 -2.016,2.04402 -3.372,1.54002 -1.3599,-0.504 -2.0481,-2.01201 -1.5441,-3.36801 0.504,-1.35999 2.016,-2.04801 3.372,-1.54401"
     style="fill:#ffffff;fill-opacity:0.25;fill-rule:nonzero;stroke:none;stroke-width:0.399999"
     id="path1046" />
  <path
     d="m 783.7321,215.256 c 1.356,0.504 2.0478,2.016 1.5438,3.372 -0.504,1.356 -2.016,2.04399 -3.372,1.53999 -1.356,-0.504 -2.0478,-2.016 -1.5438,-3.372 0.5079,-1.356 2.016,-2.04399 3.372,-1.53999"
     style="fill:#ffffff;fill-opacity:0.25;fill-rule:nonzero;stroke:none;stroke-width:0.399999"
     id="path1048" />
  <path
     d="m 792.7519,204.52401 c 1.356,0.504 2.0481,2.01198 1.5402,3.36798 -0.504,1.356 -2.0121,2.04801 -3.372,1.54401 -1.356,-0.504 -2.0481,-2.016 -1.5402,-3.372 0.504,-1.356 2.0121,-2.04399 3.372,-1.53999"
     style="fill:#ffffff;fill-opacity:0.25;fill-rule:nonzero;stroke:none;stroke-width:0.399999"
     id="path1050" />
  <path
     d="m 801.8479,193.68 c 1.356,0.51999 2.0481,2.04 1.5441,3.36 -0.5079,1.35999 -2.016,2.07999 -3.372,1.56 -1.356,-0.48 -2.0439,-2.00001 -1.5399,-3.36 0.504,-1.35999 2.016,-2.04 3.3678,-1.56"
     style="fill:#ffffff;fill-opacity:0.25;fill-rule:nonzero;stroke:none;stroke-width:0.399999"
     id="path1052" />
  <path
     d="m 810.412,183.51999 c 1.356,0.48 2.0439,2.00001 1.5399,3.36 -0.504,1.36002 -2.0118,2.04 -3.372,1.52001 -1.356,-0.48 -2.0478,-2.00001 -1.5399,-3.36 0.504,-1.35999 2.0121,-2.04 3.372,-1.52001"
     style="fill:#ffffff;fill-opacity:0.25;fill-rule:nonzero;stroke:none;stroke-width:0.399999"
     id="path1054" />
  <path
     d="m 818.9041,173.4 c 1.356,0.48 2.0478,2.00001 1.5399,3.36 -0.504,1.35999 -2.0121,2.04 -3.372,1.56 -1.356,-0.51999 -2.0481,-2.04 -1.5399,-3.39999 0.504,-1.36002 2.0118,-2.04 3.372,-1.52001"
     style="fill:#ffffff;fill-opacity:0.25;fill-rule:nonzero;stroke:none;stroke-width:0.399999"
     id="path1056" />
  <path
     d="m 827.356,163.32 c 1.3599,0.51999 2.0481,2.00001 1.5441,3.36 -0.504,1.35999 -2.016,2.07999 -3.372,1.56 -1.356,-0.51999 -2.0442,-2.00001 -1.536,-3.36 0.504,-1.35999 2.0079,-2.07999 3.3639,-1.56"
     style="fill:#ffffff;fill-opacity:0.25;fill-rule:nonzero;stroke:none;stroke-width:0.399999"
     id="path1058" />
  <g
     transform="matrix(8.8,0,0,8.8,1036.6863,-593.38913)"
     id="use9385-36"
     style="fill:#7fa7ca;fill-opacity:1">
    <path
       d="m -70.999999,118 0.708122,1.79188 L -68.5,120.5 -70.291877,121.20812 -70.999999,123 -71.708122,121.20812 -73.5,120.5 l 1.791878,-0.70812 z"
       id="path10536-2"
       style="display:inline;overflow:visible;opacity:0.2;fill-rule:evenodd;stroke:none;stroke-width:4;stroke-linecap:butt;stroke-linejoin:miter;stroke-miterlimit:4;stroke-dashoffset:0;stroke-opacity:1;marker:none;marker-start:none;marker-mid:none;marker-end:none;enable-background:accumulate" />
    <path
       d="m -69.653643,120.5 c 0,0.74319 -0.603167,1.34636 -1.346356,1.34636 -0.743189,0 -1.346357,-0.60317 -1.346357,-1.34636 0,-0.74319 0.603168,-1.34636 1.346357,-1.34636 0.743189,0 1.346356,0.60317 1.346356,1.34636 z"
       id="path10538-7"
       style="display:inline;overflow:visible;opacity:0.3;fill-rule:evenodd;stroke:none;stroke-width:4;stroke-linecap:butt;stroke-linejoin:miter;stroke-miterlimit:4;stroke-dashoffset:0;stroke-opacity:1;marker:none;marker-start:none;marker-mid:none;marker-end:none;enable-background:accumulate" />
    <path
       d="m -71.956621,120.5 c 0,0.52806 0.428567,0.95662 0.956622,0.95662 0.528055,0 0.956622,-0.42856 0.956622,-0.95662 0,-0.52806 -0.428567,-0.95662 -0.956622,-0.95662 -0.528055,0 -0.956622,0.42856 -0.956622,0.95662 z"
       id="path10540-06"
       style="display:inline;overflow:visible;fill-rule:evenodd;stroke:none;stroke-width:4;stroke-linecap:butt;stroke-linejoin:miter;stroke-miterlimit:4;stroke-dashoffset:0;stroke-opacity:1;marker:none;marker-start:none;marker-mid:none;marker-end:none;enable-background:accumulate" />
  </g>
  <g
     transform="matrix(6.7200827,-1.0394652,1.0394652,6.7200827,860.12146,-310.1008)"
     id="use9385-36-6"
     style="fill:#7fa7ca;fill-opacity:1">
    <path
       d="m -70.999999,118 0.708122,1.79188 L -68.5,120.5 -70.291877,121.20812 -70.999999,123 -71.708122,121.20812 -73.5,120.5 l 1.791878,-0.70812 z"
       id="path10536-2-9"
       style="display:inline;overflow:visible;opacity:0.2;fill-rule:evenodd;stroke:none;stroke-width:4;stroke-linecap:butt;stroke-linejoin:miter;stroke-miterlimit:4;stroke-dashoffset:0;stroke-opacity:1;marker:none;marker-start:none;marker-mid:none;marker-end:none;enable-background:accumulate" />
    <path
       d="m -69.653643,120.5 c 0,0.74319 -0.603167,1.34636 -1.346356,1.34636 -0.743189,0 -1.346357,-0.60317 -1.346357,-1.34636 0,-0.74319 0.603168,-1.34636 1.346357,-1.34636 0.743189,0 1.346356,0.60317 1.346356,1.34636 z"
       id="path10538-7-9"
       style="display:inline;overflow:visible;opacity:0.3;fill-rule:evenodd;stroke:none;stroke-width:4;stroke-linecap:butt;stroke-linejoin:miter;stroke-miterlimit:4;stroke-dashoffset:0;stroke-opacity:1;marker:none;marker-start:none;marker-mid:none;marker-end:none;enable-background:accumulate" />
    <path
       d="m -71.956621,120.5 c 0,0.52806 0.428567,0.95662 0.956622,0.95662 0.528055,0 0.956622,-0.42856 0.956622,-0.95662 0,-0.52806 -0.428567,-0.95662 -0.956622,-0.95662 -0.528055,0 -0.956622,0.42856 -0.956622,0.95662 z"
       id="path10540-06-7"
       style="display:inline;overflow:visible;fill-rule:evenodd;stroke:none;stroke-width:4;stroke-linecap:butt;stroke-linejoin:miter;stroke-miterlimit:4;stroke-dashoffset:0;stroke-opacity:1;marker:none;marker-start:none;marker-mid:none;marker-end:none;enable-background:accumulate" />
  </g>
  <g
     transform="matrix(7.6,-1.0474204,1.0474204,7.6,1067.3707,-624.2765)"
     id="use9385-36-9"
     style="fill:#7fa7ca;fill-opacity:1">
    <path
       d="m -70.999999,118 0.708122,1.79188 L -68.5,120.5 -70.291877,121.20812 -70.999999,123 -71.708122,121.20812 -73.5,120.5 l 1.791878,-0.70812 z"
       id="path10536-2-2"
       style="display:inline;overflow:visible;opacity:0.2;fill-rule:evenodd;stroke:none;stroke-width:4;stroke-linecap:butt;stroke-linejoin:miter;stroke-miterlimit:4;stroke-dashoffset:0;stroke-opacity:1;marker:none;marker-start:none;marker-mid:none;marker-end:none;enable-background:accumulate" />
    <path
       d="m -69.653643,120.5 c 0,0.74319 -0.603167,1.34636 -1.346356,1.34636 -0.743189,0 -1.346357,-0.60317 -1.346357,-1.34636 0,-0.74319 0.603168,-1.34636 1.346357,-1.34636 0.743189,0 1.346356,0.60317 1.346356,1.34636 z"
       id="path10538-7-0"
       style="display:inline;overflow:visible;opacity:0.3;fill-rule:evenodd;stroke:none;stroke-width:4;stroke-linecap:butt;stroke-linejoin:miter;stroke-miterlimit:4;stroke-dashoffset:0;stroke-opacity:1;marker:none;marker-start:none;marker-mid:none;marker-end:none;enable-background:accumulate" />
    <path
       d="m -71.956621,120.5 c 0,0.52806 0.428567,0.95662 0.956622,0.95662 0.528055,0 0.956622,-0.42856 0.956622,-0.95662 0,-0.52806 -0.428567,-0.95662 -0.956622,-0.95662 -0.528055,0 -0.956622,0.42856 -0.956622,0.95662 z"
       id="path10540-06-70"
       style="display:inline;overflow:visible;fill-rule:evenodd;stroke:none;stroke-width:4;stroke-linecap:butt;stroke-linejoin:miter;stroke-miterlimit:4;stroke-dashoffset:0;stroke-opacity:1;marker:none;marker-start:none;marker-mid:none;marker-end:none;enable-background:accumulate" />
  </g>
  <g
     transform="matrix(6.4,0,0,6.4,1076.2656,-449.24578)"
     id="use9385-36-3"
     style="fill:#7fa7ca;fill-opacity:1">
    <path
       d="m -70.999999,118 0.708122,1.79188 L -68.5,120.5 -70.291877,121.20812 -70.999999,123 -71.708122,121.20812 -73.5,120.5 l 1.791878,-0.70812 z"
       id="path10536-2-5"
       style="display:inline;overflow:visible;opacity:0.2;fill-rule:evenodd;stroke:none;stroke-width:4;stroke-linecap:butt;stroke-linejoin:miter;stroke-miterlimit:4;stroke-dashoffset:0;stroke-opacity:1;marker:none;marker-start:none;marker-mid:none;marker-end:none;enable-background:accumulate" />
    <path
       d="m -69.653643,120.5 c 0,0.74319 -0.603167,1.34636 -1.346356,1.34636 -0.743189,0 -1.346357,-0.60317 -1.346357,-1.34636 0,-0.74319 0.603168,-1.34636 1.346357,-1.34636 0.743189,0 1.346356,0.60317 1.346356,1.34636 z"
       id="path10538-7-8"
       style="display:inline;overflow:visible;opacity:0.3;fill-rule:evenodd;stroke:none;stroke-width:4;stroke-linecap:butt;stroke-linejoin:miter;stroke-miterlimit:4;stroke-dashoffset:0;stroke-opacity:1;marker:none;marker-start:none;marker-mid:none;marker-end:none;enable-background:accumulate" />
    <path
       d="m -71.956621,120.5 c 0,0.52806 0.428567,0.95662 0.956622,0.95662 0.528055,0 0.956622,-0.42856 0.956622,-0.95662 0,-0.52806 -0.428567,-0.95662 -0.956622,-0.95662 -0.528055,0 -0.956622,0.42856 -0.956622,0.95662 z"
       id="path10540-06-6"
       style="display:inline;overflow:visible;fill-rule:evenodd;stroke:none;stroke-width:4;stroke-linecap:butt;stroke-linejoin:miter;stroke-miterlimit:4;stroke-dashoffset:0;stroke-opacity:1;marker:none;marker-start:none;marker-mid:none;marker-end:none;enable-background:accumulate" />
  </g>
  <g
     transform="matrix(4.3586576,2.0104985,-2.0104985,4.3586576,1205.6822,-71.341217)"
     id="use9385-36-35"
     style="fill:#7fa7ca;fill-opacity:1">
    <path
       d="m -70.999999,118 0.708122,1.79188 L -68.5,120.5 -70.291877,121.20812 -70.999999,123 -71.708122,121.20812 -73.5,120.5 l 1.791878,-0.70812 z"
       id="path10536-2-1"
       style="display:inline;overflow:visible;opacity:0.2;fill-rule:evenodd;stroke:none;stroke-width:4;stroke-linecap:butt;stroke-linejoin:miter;stroke-miterlimit:4;stroke-dashoffset:0;stroke-opacity:1;marker:none;marker-start:none;marker-mid:none;marker-end:none;enable-background:accumulate" />
    <path
       d="m -69.653643,120.5 c 0,0.74319 -0.603167,1.34636 -1.346356,1.34636 -0.743189,0 -1.346357,-0.60317 -1.346357,-1.34636 0,-0.74319 0.603168,-1.34636 1.346357,-1.34636 0.743189,0 1.346356,0.60317 1.346356,1.34636 z"
       id="path10538-7-6"
       style="display:inline;overflow:visible;opacity:0.3;fill-rule:evenodd;stroke:none;stroke-width:4;stroke-linecap:butt;stroke-linejoin:miter;stroke-miterlimit:4;stroke-dashoffset:0;stroke-opacity:1;marker:none;marker-start:none;marker-mid:none;marker-end:none;enable-background:accumulate" />
    <path
       d="m -71.956621,120.5 c 0,0.52806 0.428567,0.95662 0.956622,0.95662 0.528055,0 0.956622,-0.42856 0.956622,-0.95662 0,-0.52806 -0.428567,-0.95662 -0.956622,-0.95662 -0.528055,0 -0.956622,0.42856 -0.956622,0.95662 z"
       id="path10540-06-5"
       style="display:inline;overflow:visible;fill-rule:evenodd;stroke:none;stroke-width:4;stroke-linecap:butt;stroke-linejoin:miter;stroke-miterlimit:4;stroke-dashoffset:0;stroke-opacity:1;marker:none;marker-start:none;marker-mid:none;marker-end:none;enable-background:accumulate" />
  </g>
  <g
     transform="matrix(5.2,-0.99512372,0.99512372,5.2,922.32318,-366.22669)"
     id="use9385-36-5"
     style="fill:#7fa7ca;fill-opacity:1">
    <path
       d="m -70.999999,118 0.708122,1.79188 L -68.5,120.5 -70.291877,121.20812 -70.999999,123 -71.708122,121.20812 -73.5,120.5 l 1.791878,-0.70812 z"
       id="path10536-2-3"
       style="display:inline;overflow:visible;opacity:0.2;fill-rule:evenodd;stroke:none;stroke-width:4;stroke-linecap:butt;stroke-linejoin:miter;stroke-miterlimit:4;stroke-dashoffset:0;stroke-opacity:1;marker:none;marker-start:none;marker-mid:none;marker-end:none;enable-background:accumulate" />
    <path
       d="m -69.653643,120.5 c 0,0.74319 -0.603167,1.34636 -1.346356,1.34636 -0.743189,0 -1.346357,-0.60317 -1.346357,-1.34636 0,-0.74319 0.603168,-1.34636 1.346357,-1.34636 0.743189,0 1.346356,0.60317 1.346356,1.34636 z"
       id="path10538-7-7"
       style="display:inline;overflow:visible;opacity:0.3;fill-rule:evenodd;stroke:none;stroke-width:4;stroke-linecap:butt;stroke-linejoin:miter;stroke-miterlimit:4;stroke-dashoffset:0;stroke-opacity:1;marker:none;marker-start:none;marker-mid:none;marker-end:none;enable-background:accumulate" />
    <path
       d="m -71.956621,120.5 c 0,0.52806 0.428567,0.95662 0.956622,0.95662 0.528055,0 0.956622,-0.42856 0.956622,-0.95662 0,-0.52806 -0.428567,-0.95662 -0.956622,-0.95662 -0.528055,0 -0.956622,0.42856 -0.956622,0.95662 z"
       id="path10540-06-8"
       style="display:inline;overflow:visible;fill-rule:evenodd;stroke:none;stroke-width:4;stroke-linecap:butt;stroke-linejoin:miter;stroke-miterlimit:4;stroke-dashoffset:0;stroke-opacity:1;marker:none;marker-start:none;marker-mid:none;marker-end:none;enable-background:accumulate" />
  </g>
  <g
     transform="matrix(6,0,0,6,1113.1492,-421.97291)"
     id="use9385-36-4"
     style="fill:#7fa7ca;fill-opacity:1">
    <path
       d="m -70.999999,118 0.708122,1.79188 L -68.5,120.5 -70.291877,121.20812 -70.999999,123 -71.708122,121.20812 -73.5,120.5 l 1.791878,-0.70812 z"
       id="path10536-2-6"
       style="display:inline;overflow:visible;opacity:0.2;fill-rule:evenodd;stroke:none;stroke-width:4;stroke-linecap:butt;stroke-linejoin:miter;stroke-miterlimit:4;stroke-dashoffset:0;stroke-opacity:1;marker:none;marker-start:none;marker-mid:none;marker-end:none;enable-background:accumulate" />
    <path
       d="m -69.653643,120.5 c 0,0.74319 -0.603167,1.34636 -1.346356,1.34636 -0.743189,0 -1.346357,-0.60317 -1.346357,-1.34636 0,-0.74319 0.603168,-1.34636 1.346357,-1.34636 0.743189,0 1.346356,0.60317 1.346356,1.34636 z"
       id="path10538-7-2"
       style="display:inline;overflow:visible;opacity:0.3;fill-rule:evenodd;stroke:none;stroke-width:4;stroke-linecap:butt;stroke-linejoin:miter;stroke-miterlimit:4;stroke-dashoffset:0;stroke-opacity:1;marker:none;marker-start:none;marker-mid:none;marker-end:none;enable-background:accumulate" />
    <path
       d="m -71.956621,120.5 c 0,0.52806 0.428567,0.95662 0.956622,0.95662 0.528055,0 0.956622,-0.42856 0.956622,-0.95662 0,-0.52806 -0.428567,-0.95662 -0.956622,-0.95662 -0.528055,0 -0.956622,0.42856 -0.956622,0.95662 z"
       id="path10540-06-1"
       style="display:inline;overflow:visible;fill-rule:evenodd;stroke:none;stroke-width:4;stroke-linecap:butt;stroke-linejoin:miter;stroke-miterlimit:4;stroke-dashoffset:0;stroke-opacity:1;marker:none;marker-start:none;marker-mid:none;marker-end:none;enable-background:accumulate" />
  </g>
  <g
     transform="matrix(8.4,0,0,8.4,1338.3866,-749.32239)"
     id="use9385-36-7"
     style="fill:#7fa7ca;fill-opacity:1">
    <path
       d="m -70.999999,118 0.708122,1.79188 L -68.5,120.5 -70.291877,121.20812 -70.999999,123 -71.708122,121.20812 -73.5,120.5 l 1.791878,-0.70812 z"
       id="path10536-2-13"
       style="display:inline;overflow:visible;opacity:0.2;fill-rule:evenodd;stroke:none;stroke-width:4;stroke-linecap:butt;stroke-linejoin:miter;stroke-miterlimit:4;stroke-dashoffset:0;stroke-opacity:1;marker:none;marker-start:none;marker-mid:none;marker-end:none;enable-background:accumulate" />
    <path
       d="m -69.653643,120.5 c 0,0.74319 -0.603167,1.34636 -1.346356,1.34636 -0.743189,0 -1.346357,-0.60317 -1.346357,-1.34636 0,-0.74319 0.603168,-1.34636 1.346357,-1.34636 0.743189,0 1.346356,0.60317 1.346356,1.34636 z"
       id="path10538-7-89"
       style="display:inline;overflow:visible;opacity:0.3;fill-rule:evenodd;stroke:none;stroke-width:4;stroke-linecap:butt;stroke-linejoin:miter;stroke-miterlimit:4;stroke-dashoffset:0;stroke-opacity:1;marker:none;marker-start:none;marker-mid:none;marker-end:none;enable-background:accumulate" />
    <path
       d="m -71.956621,120.5 c 0,0.52806 0.428567,0.95662 0.956622,0.95662 0.528055,0 0.956622,-0.42856 0.956622,-0.95662 0,-0.52806 -0.428567,-0.95662 -0.956622,-0.95662 -0.528055,0 -0.956622,0.42856 -0.956622,0.95662 z"
       id="path10540-06-9"
       style="display:inline;overflow:visible;fill-rule:evenodd;stroke:none;stroke-width:4;stroke-linecap:butt;stroke-linejoin:miter;stroke-miterlimit:4;stroke-dashoffset:0;stroke-opacity:1;marker:none;marker-start:none;marker-mid:none;marker-end:none;enable-background:accumulate" />
  </g>
  <g
     transform="matrix(6.8,0,0,6.8,1325.6247,-670.38966)"
     id="use9385-36-2"
     style="fill:#7fa7ca;fill-opacity:1">
    <path
       d="m -70.999999,118 0.708122,1.79188 L -68.5,120.5 -70.291877,121.20812 -70.999999,123 -71.708122,121.20812 -73.5,120.5 l 1.791878,-0.70812 z"
       id="path10536-2-92"
       style="display:inline;overflow:visible;opacity:0.2;fill-rule:evenodd;stroke:none;stroke-width:4;stroke-linecap:butt;stroke-linejoin:miter;stroke-miterlimit:4;stroke-dashoffset:0;stroke-opacity:1;marker:none;marker-start:none;marker-mid:none;marker-end:none;enable-background:accumulate" />
    <path
       d="m -69.653643,120.5 c 0,0.74319 -0.603167,1.34636 -1.346356,1.34636 -0.743189,0 -1.346357,-0.60317 -1.346357,-1.34636 0,-0.74319 0.603168,-1.34636 1.346357,-1.34636 0.743189,0 1.346356,0.60317 1.346356,1.34636 z"
       id="path10538-7-72"
       style="display:inline;overflow:visible;opacity:0.3;fill-rule:evenodd;stroke:none;stroke-width:4;stroke-linecap:butt;stroke-linejoin:miter;stroke-miterlimit:4;stroke-dashoffset:0;stroke-opacity:1;marker:none;marker-start:none;marker-mid:none;marker-end:none;enable-background:accumulate" />
    <path
       d="m -71.956621,120.5 c 0,0.52806 0.428567,0.95662 0.956622,0.95662 0.528055,0 0.956622,-0.42856 0.956622,-0.95662 0,-0.52806 -0.428567,-0.95662 -0.956622,-0.95662 -0.528055,0 -0.956622,0.42856 -0.956622,0.95662 z"
       id="path10540-06-60"
       style="display:inline;overflow:visible;fill-rule:evenodd;stroke:none;stroke-width:4;stroke-linecap:butt;stroke-linejoin:miter;stroke-miterlimit:4;stroke-dashoffset:0;stroke-opacity:1;marker:none;marker-start:none;marker-mid:none;marker-end:none;enable-background:accumulate" />
  </g>
  <g
     transform="matrix(3.127619,-3.2,3.2,3.127619,646.92973,-455.7984)"
     id="use9385-36-92"
     style="fill:#7fa7ca;fill-opacity:1">
    <path
       d="m -70.999999,118 0.708122,1.79188 L -68.5,120.5 -70.291877,121.20812 -70.999999,123 -71.708122,121.20812 -73.5,120.5 l 1.791878,-0.70812 z"
       id="path10536-2-68"
       style="display:inline;overflow:visible;opacity:0.2;fill-rule:evenodd;stroke:none;stroke-width:4;stroke-linecap:butt;stroke-linejoin:miter;stroke-miterlimit:4;stroke-dashoffset:0;stroke-opacity:1;marker:none;marker-start:none;marker-mid:none;marker-end:none;enable-background:accumulate" />
    <path
       d="m -69.653643,120.5 c 0,0.74319 -0.603167,1.34636 -1.346356,1.34636 -0.743189,0 -1.346357,-0.60317 -1.346357,-1.34636 0,-0.74319 0.603168,-1.34636 1.346357,-1.34636 0.743189,0 1.346356,0.60317 1.346356,1.34636 z"
       id="path10538-7-4"
       style="display:inline;overflow:visible;opacity:0.3;fill-rule:evenodd;stroke:none;stroke-width:4;stroke-linecap:butt;stroke-linejoin:miter;stroke-miterlimit:4;stroke-dashoffset:0;stroke-opacity:1;marker:none;marker-start:none;marker-mid:none;marker-end:none;enable-background:accumulate" />
    <path
       d="m -71.956621,120.5 c 0,0.52806 0.428567,0.95662 0.956622,0.95662 0.528055,0 0.956622,-0.42856 0.956622,-0.95662 0,-0.52806 -0.428567,-0.95662 -0.956622,-0.95662 -0.528055,0 -0.956622,0.42856 -0.956622,0.95662 z"
       id="path10540-06-93"
       style="display:inline;overflow:visible;fill-rule:evenodd;stroke:none;stroke-width:4;stroke-linecap:butt;stroke-linejoin:miter;stroke-miterlimit:4;stroke-dashoffset:0;stroke-opacity:1;marker:none;marker-start:none;marker-mid:none;marker-end:none;enable-background:accumulate" />
  </g>
</svg>
