<?xml version="1.0" encoding="UTF-8" standalone="no"?>
<svg
   viewBox="0 0 1280 1280"
   version="1.1"
   id="svg28467"
   xmlns="http://www.w3.org/2000/svg"
   xmlns:svg="http://www.w3.org/2000/svg">
  <defs
     id="defs28471" />
  <path
     d="m 664.60795,375.99606 c 0.088,1.444 -1.012,2.688 -2.456,2.776 -1.444,0.088 -2.688,-1.012 -2.776,-2.456 -0.092,-1.448 1.012,-2.688 2.456,-2.776 1.444,-0.088 2.688,1.012 2.776,2.456"
     style="fill:#ffffff;fill-opacity:0.25;fill-rule:nonzero;stroke:none;stroke-width:0.4"
     id="path504" />
  <path
     d="m 677.02395,379.58406 c 0.084,1.444 -1.012,2.688 -2.456,2.776 -1.448,0.088 -2.688,-1.012 -2.78,-2.456 -0.088,-1.448 1.012,-2.688 2.46,-2.776 1.444,-0.088 2.684,1.012 2.776,2.456"
     style="fill:#ffffff;fill-opacity:0.25;fill-rule:nonzero;stroke:none;stroke-width:0.4"
     id="path506" />
  <path
     d="m 689.63995,383.23206 c 0.092,1.444 -1.012,2.684 -2.456,2.772 -1.444,0.092 -2.688,-1.012 -2.772,-2.456 -0.092,-1.444 1.008,-2.688 2.452,-2.776 1.444,-0.088 2.692,1.012 2.776,2.46"
     style="fill:#ffffff;fill-opacity:0.25;fill-rule:nonzero;stroke:none;stroke-width:0.4"
     id="path508" />
  <path
     d="m 701.71596,386.72006 c 0.084,1.444 -1.01601,2.684 -2.46001,2.776 -1.444,0.088 -2.688,-1.012 -2.776,-2.456 -0.088,-1.448 1.012,-2.692 2.456,-2.78 1.448,-0.088 2.68801,1.012 2.78001,2.46"
     style="fill:#ffffff;fill-opacity:0.25;fill-rule:nonzero;stroke:none;stroke-width:0.4"
     id="path510" />
  <path
     d="m 713.71196,390.18406 c 0.084,1.448 -1.012,2.688 -2.456,2.78 -1.448,0.088 -2.688,-1.012 -2.78,-2.46 -0.088,-1.444 1.012,-2.688 2.456,-2.776 1.448,-0.088 2.688,1.012 2.78,2.456"
     style="fill:#ffffff;fill-opacity:0.25;fill-rule:nonzero;stroke:none;stroke-width:0.4"
     id="path512" />
  <path
     d="m 726.12396,393.77206 c 0.088,1.448 -1.012,2.688 -2.456,2.78 -1.444,0.088 -2.688,-1.016 -2.776,-2.46 -0.092,-1.444 1.012,-2.688 2.456,-2.776 1.444,-0.088 2.688,1.012 2.776,2.456"
     style="fill:#ffffff;fill-opacity:0.25;fill-rule:nonzero;stroke:none;stroke-width:0.4"
     id="path514" />
  <path
     d="m 641.08795,369.32806 c 0.092,1.444 -1.008,2.688 -2.456,2.776 -1.444,0.088 -2.688,-1.012 -2.772,-2.456 -0.092,-1.444 1.012,-2.688 2.456,-2.776 1.44,-0.088 2.688,1.012 2.772,2.456"
     style="fill:#ffffff;fill-opacity:0.25;fill-rule:nonzero;stroke:none;stroke-width:0.4"
     id="path516" />
  <path
     d="m 652.81995,372.72006 c 0.088,1.444 -1.012,2.684 -2.456,2.776 -1.444,0.088 -2.688,-1.012 -2.776,-2.456 -0.092,-1.448 1.008,-2.692 2.456,-2.78 1.444,-0.088 2.688,1.012 2.776,2.46"
     style="fill:#ffffff;fill-opacity:0.25;fill-rule:nonzero;stroke:none;stroke-width:0.4"
     id="path518" />
  <path
     d="m 595.67195,239.68005 c -0.144,-1.44 0.908,-2.724 2.348,-2.872 1.436,-0.144 2.724,0.908 2.872,2.344 0.144,1.444 -0.908,2.728 -2.348,2.872 -1.444,0.148 -2.728,-0.904 -2.872,-2.344"
     style="fill:#ffffff;fill-opacity:0.25;fill-rule:nonzero;stroke:none;stroke-width:0.4"
     id="path522" />
  <path
     d="m 583.12395,236.58405 c -0.144,-1.44 0.908,-2.728 2.348,-2.872 1.444,-0.144 2.728,0.908 2.872,2.348 0.144,1.44 -0.908,2.724 -2.348,2.868 -1.436,0.144 -2.724,-0.904 -2.872,-2.344"
     style="fill:#ffffff;fill-opacity:0.25;fill-rule:nonzero;stroke:none;stroke-width:0.4"
     id="path524" />
  <path
     d="m 570.37595,233.43605 c -0.144,-1.44 0.9,-2.724 2.344,-2.868 1.44,-0.148 2.724,0.904 2.868,2.34 0.148,1.444 -0.904,2.728 -2.34,2.872 -1.444,0.144 -2.728,-0.904 -2.872,-2.344"
     style="fill:#ffffff;fill-opacity:0.25;fill-rule:nonzero;stroke:none;stroke-width:0.4"
     id="path526" />
  <path
     d="m 558.17595,230.42405 c -0.148,-1.44 0.904,-2.724 2.344,-2.868 1.44,-0.148 2.728,0.904 2.872,2.344 0.144,1.44 -0.908,2.724 -2.344,2.872 -1.444,0.144 -2.728,-0.908 -2.872,-2.348"
     style="fill:#ffffff;fill-opacity:0.25;fill-rule:nonzero;stroke:none;stroke-width:0.4"
     id="path528" />
  <path
     d="m 546.05195,227.43205 c -0.144,-1.44 0.904,-2.724 2.344,-2.868 1.44,-0.148 2.724,0.904 2.868,2.344 0.148,1.44 -0.9,2.724 -2.344,2.872 -1.44,0.144 -2.724,-0.908 -2.868,-2.348"
     style="fill:#ffffff;fill-opacity:0.25;fill-rule:nonzero;stroke:none;stroke-width:0.4"
     id="path530" />
  <path
     d="m 533.50395,224.33605 c -0.144,-1.44 0.908,-2.728 2.348,-2.872 1.44,-0.144 2.728,0.908 2.872,2.348 0.144,1.44 -0.908,2.724 -2.348,2.868 -1.444,0.144 -2.728,-0.904 -2.872,-2.344"
     style="fill:#ffffff;fill-opacity:0.25;fill-rule:nonzero;stroke:none;stroke-width:0.4"
     id="path532" />
  <path
     d="m 512.92795,505.73206 c 1.48,0.144 2.56,1.46 2.416,2.936 -0.144,1.48 -1.46,2.56 -2.936,2.412 -1.48,-0.144 -2.56,-1.46 -2.416,-2.936 0.144,-1.48 1.46,-2.56 2.936,-2.412"
     style="fill:#ffffff;fill-opacity:0.25;fill-rule:nonzero;stroke:none;stroke-width:0.4"
     id="path536" />
  <path
     d="m 518.38795,494.14406 c 1.476,0.144 2.556,1.46 2.412,2.936 -0.144,1.48 -1.46,2.56 -2.94,2.416 -1.476,-0.144 -2.556,-1.46 -2.412,-2.936 0.144,-1.48 1.464,-2.56 2.94,-2.416"
     style="fill:#ffffff;fill-opacity:0.25;fill-rule:nonzero;stroke:none;stroke-width:0.4"
     id="path538" />
  <path
     d="m 524.03195,482.15206 c 1.476,0.148 2.556,1.464 2.412,2.94 -0.144,1.476 -1.46,2.56 -2.936,2.412 -1.48,-0.144 -2.56,-1.46 -2.416,-2.936 0.148,-1.48 1.464,-2.56 2.94,-2.416"
     style="fill:#ffffff;fill-opacity:0.25;fill-rule:nonzero;stroke:none;stroke-width:0.4"
     id="path540" />
  <path
     d="m 530.15595,469.14806 c 1.48,0.144 2.56,1.456 2.416,2.936 -0.148,1.476 -1.464,2.556 -2.94,2.412 -1.476,-0.144 -2.556,-1.46 -2.412,-2.936 0.144,-1.48 1.46,-2.56 2.936,-2.412"
     style="fill:#ffffff;fill-opacity:0.25;fill-rule:nonzero;stroke:none;stroke-width:0.4"
     id="path542" />
  <path
     d="m 536.79195,457.51606 c 1.48,0.144 2.56,1.46 2.416,2.936 -0.144,1.48 -1.46,2.56 -2.94,2.416 -1.476,-0.148 -2.556,-1.464 -2.412,-2.94 0.144,-1.476 1.46,-2.556 2.936,-2.412"
     style="fill:#ffffff;fill-opacity:0.25;fill-rule:nonzero;stroke:none;stroke-width:0.4"
     id="path544" />
  <path
     d="m 693.32795,303.84805 c 1.348,-0.62 2.944,-0.032 3.572,1.316 0.62,1.344 0.032,2.944 -1.316,3.568 -1.348,0.62 -2.944,0.032 -3.568,-1.316 -0.62,-1.348 -0.036,-2.944 1.312,-3.568"
     style="fill:#ffffff;fill-opacity:0.25;fill-rule:nonzero;stroke:none;stroke-width:0.4"
     id="path546" />
  <path
     d="m 692.16395,291.01605 c 1.348,-0.624 2.944,-0.036 3.572,1.312 0.62,1.348 0.028,2.944 -1.316,3.568 -1.348,0.624 -2.948,0.036 -3.568,-1.312 -0.62,-1.348 -0.036,-2.944 1.312,-3.568"
     style="fill:#ffffff;fill-opacity:0.25;fill-rule:nonzero;stroke:none;stroke-width:0.4"
     id="path548" />
  <path
     d="m 691.00795,278.26005 c 1.348,-0.62 2.944,-0.032 3.568,1.312 0.624,1.348 0.032,2.948 -1.316,3.572 -1.344,0.62 -2.944,0.032 -3.564,-1.316 -0.624,-1.344 -0.036,-2.944 1.312,-3.568"
     style="fill:#ffffff;fill-opacity:0.25;fill-rule:nonzero;stroke:none;stroke-width:0.4"
     id="path550" />
  <path
     d="m 689.80795,265.06405 c 1.348,-0.624 2.948,-0.036 3.572,1.312 0.62,1.348 0.036,2.944 -1.312,3.568 -1.348,0.624 -2.948,0.036 -3.572,-1.312 -0.62,-1.348 -0.036,-2.948 1.312,-3.568"
     style="fill:#ffffff;fill-opacity:0.25;fill-rule:nonzero;stroke:none;stroke-width:0.4"
     id="path552" />
  <path
     d="m 688.51195,250.74005 c 1.348,-0.62 2.944,-0.032 3.568,1.316 0.624,1.348 0.032,2.944 -1.316,3.568 -1.344,0.62 -2.944,0.032 -3.564,-1.312 -0.624,-1.348 -0.036,-2.948 1.312,-3.572"
     style="fill:#ffffff;fill-opacity:0.25;fill-rule:nonzero;stroke:none;stroke-width:0.4"
     id="path554" />
  <path
     d="m 688.35195,237.35205 c 1.348,-0.62 2.944,-0.032 3.568,1.312 0.624,1.348 0.032,2.948 -1.316,3.572 -1.348,0.62 -2.944,0.032 -3.568,-1.316 -0.62,-1.348 -0.032,-2.944 1.316,-3.568"
     style="fill:#ffffff;fill-opacity:0.25;fill-rule:nonzero;stroke:none;stroke-width:0.4"
     id="path556" />
  <path
     d="m 542.43995,445.52406 c 1.48,0.144 2.56,1.464 2.412,2.94 -0.144,1.476 -1.456,2.556 -2.936,2.412 -1.48,-0.144 -2.56,-1.46 -2.416,-2.94 0.148,-1.476 1.46,-2.556 2.94,-2.412"
     style="fill:#ffffff;fill-opacity:0.25;fill-rule:nonzero;stroke:none;stroke-width:0.4"
     id="path558" />
  <path
     d="m 548.56795,432.51606 c 1.476,0.144 2.556,1.46 2.412,2.936 -0.148,1.48 -1.46,2.56 -2.94,2.416 -1.476,-0.144 -2.556,-1.464 -2.412,-2.94 0.144,-1.476 1.46,-2.556 2.94,-2.412"
     style="fill:#ffffff;fill-opacity:0.25;fill-rule:nonzero;stroke:none;stroke-width:0.4"
     id="path560" />
  <path
     d="m 594.51995,380.78406 c 0.636,-1.344 2.24,-1.916 3.58,-1.28 1.344,0.636 1.916,2.236 1.28,3.58 -0.632,1.344 -2.24,1.916 -3.58,1.28 -1.344,-0.636 -1.912,-2.24 -1.28,-3.58"
     style="fill:#ffffff;fill-opacity:0.25;fill-rule:nonzero;stroke:none;stroke-width:0.4"
     id="path566" />
  <path
     d="m 582.56395,390.89606 c 0.636,-1.34 2.236,-1.912 3.576,-1.28 1.344,0.636 1.92,2.24 1.28,3.58 -0.636,1.344 -2.236,1.916 -3.58,1.28 -1.34,-0.636 -1.916,-2.24 -1.276,-3.58"
     style="fill:#ffffff;fill-opacity:0.25;fill-rule:nonzero;stroke:none;stroke-width:0.4"
     id="path568" />
  <path
     d="m 571.66395,399.44006 c 0.636,-1.344 2.24,-1.916 3.584,-1.28 1.34,0.636 1.912,2.24 1.276,3.58 -0.632,1.34 -2.24,1.912 -3.58,1.28 -1.344,-0.636 -1.916,-2.24 -1.28,-3.58"
     style="fill:#ffffff;fill-opacity:0.25;fill-rule:nonzero;stroke:none;stroke-width:0.4"
     id="path570" />
  <path
     d="m 615.11195,335.58406 c 1.38,-0.556 2.948,0.112 3.5,1.488 0.552,1.38 -0.116,2.944 -1.492,3.5 -1.376,0.552 -2.944,-0.116 -3.5,-1.492 -0.548,-1.376 0.12,-2.944 1.492,-3.496"
     style="fill:#ffffff;fill-opacity:0.25;fill-rule:nonzero;stroke:none;stroke-width:0.4"
     id="path572" />
  <path
     d="m 614.58395,322.34005 c 1.376,-0.552 2.944,0.116 3.5,1.492 0.552,1.376 -0.116,2.944 -1.496,3.496 -1.376,0.556 -2.944,-0.112 -3.496,-1.492 -0.552,-1.376 0.116,-2.94 1.492,-3.496"
     style="fill:#ffffff;fill-opacity:0.25;fill-rule:nonzero;stroke:none;stroke-width:0.4"
     id="path574" />
  <path
     d="m 614.04395,308.88005 c 1.376,-0.556 2.944,0.112 3.5,1.492 0.552,1.376 -0.116,2.944 -1.492,3.496 -1.38,0.552 -2.948,-0.112 -3.496,-1.492 -0.556,-1.376 0.112,-2.944 1.488,-3.496"
     style="fill:#ffffff;fill-opacity:0.25;fill-rule:nonzero;stroke:none;stroke-width:0.4"
     id="path576" />
  <path
     d="m 613.52795,296.00405 c 1.38,-0.556 2.944,0.112 3.5,1.488 0.552,1.38 -0.112,2.944 -1.492,3.5 -1.38,0.556 -2.948,-0.112 -3.496,-1.492 -0.556,-1.376 0.112,-2.944 1.488,-3.496"
     style="fill:#ffffff;fill-opacity:0.25;fill-rule:nonzero;stroke:none;stroke-width:0.4"
     id="path578" />
  <path
     d="m 613.01595,283.20805 c 1.38,-0.556 2.944,0.112 3.496,1.492 0.556,1.376 -0.112,2.94 -1.488,3.496 -1.38,0.552 -2.944,-0.116 -3.5,-1.492 -0.552,-1.38 0.116,-2.944 1.492,-3.496"
     style="fill:#ffffff;fill-opacity:0.25;fill-rule:nonzero;stroke:none;stroke-width:0.4"
     id="path580" />
  <path
     d="m 612.48395,269.96405 c 1.38,-0.556 2.944,0.112 3.5,1.492 0.552,1.376 -0.116,2.944 -1.492,3.496 -1.38,0.556 -2.944,-0.112 -3.496,-1.488 -0.556,-1.38 0.112,-2.944 1.488,-3.5"
     style="fill:#ffffff;fill-opacity:0.25;fill-rule:nonzero;stroke:none;stroke-width:0.4"
     id="path582" />
  <path
     d="m 693.18795,194.04005 c 1.468,-0.22 2.84,0.796 3.056,2.264 0.216,1.468 -0.796,2.836 -2.264,3.056 -1.468,0.216 -2.836,-0.796 -3.056,-2.264 -0.216,-1.468 0.8,-2.836 2.264,-3.056"
     style="fill:#ffffff;fill-opacity:0.25;fill-rule:nonzero;stroke:none;stroke-width:0.4"
     id="path584" />
  <path
     d="m 695.96795,179.93205 c 1.468,-0.216 2.836,0.796 3.056,2.264 0.22,1.468 -0.792,2.836 -2.264,3.056 -1.468,0.22 -2.836,-0.796 -3.052,-2.264 -0.22,-1.468 0.792,-2.836 2.26,-3.056"
     style="fill:#ffffff;fill-opacity:0.25;fill-rule:nonzero;stroke:none;stroke-width:0.4"
     id="path586" />
  <path
     d="m 616.24395,259.54005 c 0.892,1.136 0.696,2.784 -0.44,3.68 -1.136,0.896 -2.784,0.7 -3.684,-0.436 -0.892,-1.136 -0.7,-2.788 0.44,-3.68 1.14,-0.896 2.788,-0.7 3.684,0.436"
     style="fill:#ffffff;fill-opacity:0.25;fill-rule:nonzero;stroke:none;stroke-width:0.4"
     id="path590" />
  <path
     d="m 663.17595,231.77605 c -0.588,-1.324 0.012,-2.872 1.336,-3.456 1.324,-0.584 2.872,0.012 3.456,1.336 0.588,1.324 -0.012,2.872 -1.336,3.46 -1.324,0.584 -2.872,-0.016 -3.456,-1.34"
     style="fill:#ffffff;fill-opacity:0.25;fill-rule:nonzero;stroke:none;stroke-width:0.4"
     id="path592" />
  <path
     d="m 650.72395,232.70405 c -0.588,-1.324 0.012,-2.872 1.336,-3.46 1.324,-0.584 2.868,0.016 3.456,1.34 0.584,1.32 -0.012,2.872 -1.336,3.456 -1.324,0.588 -2.872,-0.012 -3.456,-1.336"
     style="fill:#ffffff;fill-opacity:0.25;fill-rule:nonzero;stroke:none;stroke-width:0.4"
     id="path594" />
  <path
     d="m 637.83595,233.66405 c -0.584,-1.324 0.012,-2.872 1.336,-3.46 1.324,-0.584 2.872,0.016 3.456,1.34 0.588,1.324 -0.012,2.868 -1.336,3.456 -1.324,0.584 -2.872,-0.012 -3.456,-1.336"
     style="fill:#ffffff;fill-opacity:0.25;fill-rule:nonzero;stroke:none;stroke-width:0.4"
     id="path596" />
  <path
     d="m 732.61196,422.16006 c -1.472,-0.2 -2.504,-1.552 -2.3,-3.024 0.2,-1.472 1.552,-2.504 3.024,-2.304 1.472,0.2 2.504,1.556 2.304,3.024 -0.2,1.472 -1.552,2.504 -3.028,2.304"
     style="fill:#ffffff;fill-opacity:0.25;fill-rule:nonzero;stroke:none;stroke-width:0.4"
     id="path600" />
  <path
     d="m 726.73596,433.53606 c -1.476,-0.2 -2.504,-1.552 -2.308,-3.024 0.2,-1.472 1.556,-2.504 3.028,-2.304 1.468,0.2 2.5,1.556 2.3,3.028 -0.196,1.468 -1.552,2.5 -3.02,2.3"
     style="fill:#ffffff;fill-opacity:0.25;fill-rule:nonzero;stroke:none;stroke-width:0.4"
     id="path602" />
  <path
     d="m 720.64796,445.31206 c -1.472,-0.204 -2.504,-1.556 -2.304,-3.028 0.2,-1.472 1.556,-2.5 3.028,-2.3 1.468,0.196 2.5,1.552 2.3,3.024 -0.2,1.472 -1.556,2.5 -3.024,2.304"
     style="fill:#ffffff;fill-opacity:0.25;fill-rule:nonzero;stroke:none;stroke-width:0.4"
     id="path604" />
  <path
     d="m 714.04396,458.08406 c -1.468,-0.2 -2.5,-1.556 -2.3,-3.024 0.196,-1.476 1.548,-2.504 3.02,-2.304 1.476,0.2 2.504,1.552 2.308,3.024 -0.204,1.472 -1.556,2.504 -3.028,2.304"
     style="fill:#ffffff;fill-opacity:0.25;fill-rule:nonzero;stroke:none;stroke-width:0.4"
     id="path606" />
  <path
     d="m 706.97996,469.46006 c -1.472,-0.2 -2.504,-1.556 -2.304,-3.024 0.204,-1.472 1.556,-2.504 3.028,-2.304 1.472,0.2 2.504,1.552 2.3,3.024 -0.2,1.472 -1.552,2.504 -3.024,2.304"
     style="fill:#ffffff;fill-opacity:0.25;fill-rule:nonzero;stroke:none;stroke-width:0.4"
     id="path608" />
  <path
     d="m 700.89595,481.23206 c -1.476,-0.2 -2.504,-1.556 -2.304,-3.024 0.2,-1.472 1.552,-2.504 3.02401,-2.304 1.472,0.2 2.504,1.556 2.304,3.024 -0.2,1.472 -1.552,2.504 -3.02401,2.304"
     style="fill:#ffffff;fill-opacity:0.25;fill-rule:nonzero;stroke:none;stroke-width:0.4"
     id="path610" />
  <path
     d="m 694.29195,494.00406 c -1.472,-0.196 -2.504,-1.552 -2.304,-3.024 0.2,-1.472 1.556,-2.5 3.028,-2.304 1.468,0.2 2.5,1.556 2.3,3.028 -0.2,1.468 -1.556,2.5 -3.024,2.3"
     style="fill:#ffffff;fill-opacity:0.25;fill-rule:nonzero;stroke:none;stroke-width:0.4"
     id="path612" />
  <path
     d="m 733.73596,381.16006 c 1.288,0.74 1.732,2.384 0.992,3.672 -0.74,1.288 -2.384,1.732 -3.672,0.988 -1.288,-0.74 -1.732,-2.38 -0.988,-3.668 0.736,-1.288 2.38,-1.732 3.668,-0.992"
     style="fill:#ffffff;fill-opacity:0.25;fill-rule:nonzero;stroke:none;stroke-width:0.4"
     id="path616" />
  <path
     d="m 724.60396,368.43606 c 1.292,0.74 1.732,2.384 0.992,3.672 -0.74,1.288 -2.38,1.728 -3.672,0.988 -1.284,-0.74 -1.728,-2.384 -0.988,-3.672 0.74,-1.284 2.384,-1.728 3.668,-0.988"
     style="fill:#ffffff;fill-opacity:0.25;fill-rule:nonzero;stroke:none;stroke-width:0.4"
     id="path618" />
  <path
     d="m 716.95596,356.89606 c 1.288,0.74 1.732,2.38 0.988,3.668 -0.736,1.288 -2.38,1.732 -3.668,0.992 -1.288,-0.74 -1.728,-2.384 -0.992,-3.672 0.744,-1.288 2.384,-1.732 3.672,-0.988"
     style="fill:#ffffff;fill-opacity:0.25;fill-rule:nonzero;stroke:none;stroke-width:0.4"
     id="path620" />
  <path
     d="m 708.25196,344.23606 c 1.284,0.74 1.728,2.38 0.988,3.668 -0.74,1.288 -2.384,1.732 -3.668,0.992 -1.292,-0.744 -1.732,-2.384 -0.992,-3.672 0.74,-1.288 2.38,-1.732 3.672,-0.988"
     style="fill:#ffffff;fill-opacity:0.25;fill-rule:nonzero;stroke:none;stroke-width:0.4"
     id="path622" />
  <path
     d="m 610.85995,558.68007 c -0.128,1.476 -1.432,2.576 -2.912,2.448 -1.476,-0.128 -2.572,-1.428 -2.448,-2.908 0.128,-1.48 1.428,-2.576 2.912,-2.448 1.48,0.128 2.572,1.428 2.448,2.908"
     style="fill:#ffffff;fill-opacity:0.25;fill-rule:nonzero;stroke:none;stroke-width:0.4"
     id="path626" />
  <path
     d="m 618.53195,545.02407 c -0.124,1.48 -1.432,2.576 -2.908,2.452 -1.48,-0.128 -2.576,-1.428 -2.448,-2.908 0.124,-1.48 1.424,-2.576 2.908,-2.452 1.48,0.128 2.572,1.432 2.448,2.908"
     style="fill:#ffffff;fill-opacity:0.25;fill-rule:nonzero;stroke:none;stroke-width:0.4"
     id="path628" />
  <path
     d="m 625.75595,533.21207 c -0.128,1.48 -1.428,2.576 -2.908,2.452 -1.476,-0.128 -2.576,-1.428 -2.448,-2.908 0.128,-1.48001 1.428,-2.57601 2.908,-2.45201 1.48,0.128 2.576,1.432 2.448,2.90801"
     style="fill:#ffffff;fill-opacity:0.25;fill-rule:nonzero;stroke:none;stroke-width:0.4"
     id="path630" />
  <path
     d="m 633.55195,519.97206 c -0.132,1.476 -1.432,2.576 -2.912,2.448 -1.48,-0.128 -2.572,-1.428 -2.448,-2.908 0.128,-1.48 1.428,-2.576 2.908,-2.448 1.48,0.124 2.576,1.428 2.452,2.908"
     style="fill:#ffffff;fill-opacity:0.25;fill-rule:nonzero;stroke:none;stroke-width:0.4"
     id="path632" />
  <path
     d="m 658.42395,503.82006 c 1.428,-0.412 2.916,0.412 3.332,1.836 0.408,1.428 -0.416,2.916 -1.84,3.332 -1.428,0.412 -2.92,-0.412 -3.328,-1.84 -0.412,-1.424 0.408,-2.916 1.836,-3.328"
     style="fill:#ffffff;fill-opacity:0.25;fill-rule:nonzero;stroke:none;stroke-width:0.4"
     id="path640" />
  <path
     d="m 700.89995,130.34804 c 1.40801,-0.456 2.92801,0.316 3.38401,1.728 0.46,1.41201 -0.316,2.92801 -1.724,3.38801 -1.41601,0.456 -2.93201,-0.316 -3.39201,-1.728 -0.456,-1.41601 0.316,-2.92801 1.732,-3.38801"
     style="fill:#ffffff;fill-opacity:0.25;fill-rule:nonzero;stroke:none;stroke-width:0.4"
     id="path644" />
  <path
     d="m 701.30795,115.97604 c 1.41601,-0.46 2.93201,0.316 3.38801,1.728 0.46,1.412 -0.316,2.928 -1.728,3.384 -1.412,0.46 -2.92801,-0.316 -3.38401,-1.728 -0.46,-1.412 0.316,-2.928 1.724,-3.384"
     style="fill:#ffffff;fill-opacity:0.25;fill-rule:nonzero;stroke:none;stroke-width:0.4"
     id="path646" />
  <path
     d="m 701.72796,101.46804 c 1.408,-0.46 2.924,0.316 3.384,1.728 0.46,1.412 -0.316,2.928 -1.728,3.388 -1.412,0.456 -2.92801,-0.316 -3.38801,-1.728 -0.456,-1.412 0.316,-2.928 1.73201,-3.388"
     style="fill:#ffffff;fill-opacity:0.25;fill-rule:nonzero;stroke:none;stroke-width:0.4"
     id="path648" />
  <path
     d="m 702.11596,87.820043 c 1.412,-0.456 2.928,0.316 3.388,1.732 0.456,1.412 -0.316,2.928 -1.732,3.384 -1.408,0.46 -2.92401,-0.316 -3.38401,-1.728 -0.46,-1.412 0.316,-2.928 1.72801,-3.388"
     style="fill:#ffffff;fill-opacity:0.25;fill-rule:nonzero;stroke:none;stroke-width:0.4"
     id="path650" />
  <g
     transform="matrix(9.6,-2.7960121,2.7960121,9.6,844.77389,-820.97245)"
     id="use9385-36"
     style="fill:#7fa7ca;fill-opacity:1">
    <path
       d="m -70.999999,118 0.708122,1.79188 L -68.5,120.5 -70.291877,121.20812 -70.999999,123 -71.708122,121.20812 -73.5,120.5 l 1.791878,-0.70812 z"
       id="path10536-2"
       style="display:inline;overflow:visible;opacity:0.2;fill-rule:evenodd;stroke:none;stroke-width:4;stroke-linecap:butt;stroke-linejoin:miter;stroke-miterlimit:4;stroke-dashoffset:0;stroke-opacity:1;marker:none;marker-start:none;marker-mid:none;marker-end:none;enable-background:accumulate" />
    <path
       d="m -69.653643,120.5 c 0,0.74319 -0.603167,1.34636 -1.346356,1.34636 -0.743189,0 -1.346357,-0.60317 -1.346357,-1.34636 0,-0.74319 0.603168,-1.34636 1.346357,-1.34636 0.743189,0 1.346356,0.60317 1.346356,1.34636 z"
       id="path10538-7"
       style="display:inline;overflow:visible;opacity:0.3;fill-rule:evenodd;stroke:none;stroke-width:4;stroke-linecap:butt;stroke-linejoin:miter;stroke-miterlimit:4;stroke-dashoffset:0;stroke-opacity:1;marker:none;marker-start:none;marker-mid:none;marker-end:none;enable-background:accumulate" />
    <path
       d="m -71.956621,120.5 c 0,0.52806 0.428567,0.95662 0.956622,0.95662 0.528055,0 0.956622,-0.42856 0.956622,-0.95662 0,-0.52806 -0.428567,-0.95662 -0.956622,-0.95662 -0.528055,0 -0.956622,0.42856 -0.956622,0.95662 z"
       id="path10540-06"
       style="display:inline;overflow:visible;fill-rule:evenodd;stroke:none;stroke-width:4;stroke-linecap:butt;stroke-linejoin:miter;stroke-miterlimit:4;stroke-dashoffset:0;stroke-opacity:1;marker:none;marker-start:none;marker-mid:none;marker-end:none;enable-background:accumulate" />
  </g>
  <g
     transform="matrix(6.8,0,0,6.8,1078.0969,-243.56839)"
     id="use9385-36-7"
     style="fill:#7fa7ca;fill-opacity:1">
    <path
       d="m -70.999999,118 0.708122,1.79188 L -68.5,120.5 -70.291877,121.20812 -70.999999,123 -71.708122,121.20812 -73.5,120.5 l 1.791878,-0.70812 z"
       id="path10536-2-0"
       style="display:inline;overflow:visible;opacity:0.2;fill-rule:evenodd;stroke:none;stroke-width:4;stroke-linecap:butt;stroke-linejoin:miter;stroke-miterlimit:4;stroke-dashoffset:0;stroke-opacity:1;marker:none;marker-start:none;marker-mid:none;marker-end:none;enable-background:accumulate" />
    <path
       d="m -69.653643,120.5 c 0,0.74319 -0.603167,1.34636 -1.346356,1.34636 -0.743189,0 -1.346357,-0.60317 -1.346357,-1.34636 0,-0.74319 0.603168,-1.34636 1.346357,-1.34636 0.743189,0 1.346356,0.60317 1.346356,1.34636 z"
       id="path10538-7-3"
       style="display:inline;overflow:visible;opacity:0.3;fill-rule:evenodd;stroke:none;stroke-width:4;stroke-linecap:butt;stroke-linejoin:miter;stroke-miterlimit:4;stroke-dashoffset:0;stroke-opacity:1;marker:none;marker-start:none;marker-mid:none;marker-end:none;enable-background:accumulate" />
    <path
       d="m -71.956621,120.5 c 0,0.52806 0.428567,0.95662 0.956622,0.95662 0.528055,0 0.956622,-0.42856 0.956622,-0.95662 0,-0.52806 -0.428567,-0.95662 -0.956622,-0.95662 -0.528055,0 -0.956622,0.42856 -0.956622,0.95662 z"
       id="path10540-06-8"
       style="display:inline;overflow:visible;fill-rule:evenodd;stroke:none;stroke-width:4;stroke-linecap:butt;stroke-linejoin:miter;stroke-miterlimit:4;stroke-dashoffset:0;stroke-opacity:1;marker:none;marker-start:none;marker-mid:none;marker-end:none;enable-background:accumulate" />
  </g>
  <g
     transform="matrix(2.3245588,4.8,-4.8,2.3245588,1383.2719,564.19102)"
     id="use9385-36-1"
     style="fill:#7fa7ca;fill-opacity:1">
    <path
       d="m -70.999999,118 0.708122,1.79188 L -68.5,120.5 -70.291877,121.20812 -70.999999,123 -71.708122,121.20812 -73.5,120.5 l 1.791878,-0.70812 z"
       id="path10536-2-1"
       style="display:inline;overflow:visible;opacity:0.2;fill-rule:evenodd;stroke:none;stroke-width:4;stroke-linecap:butt;stroke-linejoin:miter;stroke-miterlimit:4;stroke-dashoffset:0;stroke-opacity:1;marker:none;marker-start:none;marker-mid:none;marker-end:none;enable-background:accumulate" />
    <path
       d="m -69.653643,120.5 c 0,0.74319 -0.603167,1.34636 -1.346356,1.34636 -0.743189,0 -1.346357,-0.60317 -1.346357,-1.34636 0,-0.74319 0.603168,-1.34636 1.346357,-1.34636 0.743189,0 1.346356,0.60317 1.346356,1.34636 z"
       id="path10538-7-2"
       style="display:inline;overflow:visible;opacity:0.3;fill-rule:evenodd;stroke:none;stroke-width:4;stroke-linecap:butt;stroke-linejoin:miter;stroke-miterlimit:4;stroke-dashoffset:0;stroke-opacity:1;marker:none;marker-start:none;marker-mid:none;marker-end:none;enable-background:accumulate" />
    <path
       d="m -71.956621,120.5 c 0,0.52806 0.428567,0.95662 0.956622,0.95662 0.528055,0 0.956622,-0.42856 0.956622,-0.95662 0,-0.52806 -0.428567,-0.95662 -0.956622,-0.95662 -0.528055,0 -0.956622,0.42856 -0.956622,0.95662 z"
       id="path10540-06-85"
       style="display:inline;overflow:visible;fill-rule:evenodd;stroke:none;stroke-width:4;stroke-linecap:butt;stroke-linejoin:miter;stroke-miterlimit:4;stroke-dashoffset:0;stroke-opacity:1;marker:none;marker-start:none;marker-mid:none;marker-end:none;enable-background:accumulate" />
  </g>
  <g
     transform="matrix(6.6021823,-1.628247,1.628247,6.6021823,952.89188,-402.13966)"
     id="use9385-36-0"
     style="fill:#7fa7ca;fill-opacity:1">
    <path
       d="m -70.999999,118 0.708122,1.79188 L -68.5,120.5 -70.291877,121.20812 -70.999999,123 -71.708122,121.20812 -73.5,120.5 l 1.791878,-0.70812 z"
       id="path10536-2-12"
       style="display:inline;overflow:visible;opacity:0.2;fill-rule:evenodd;stroke:none;stroke-width:4;stroke-linecap:butt;stroke-linejoin:miter;stroke-miterlimit:4;stroke-dashoffset:0;stroke-opacity:1;marker:none;marker-start:none;marker-mid:none;marker-end:none;enable-background:accumulate" />
    <path
       d="m -69.653643,120.5 c 0,0.74319 -0.603167,1.34636 -1.346356,1.34636 -0.743189,0 -1.346357,-0.60317 -1.346357,-1.34636 0,-0.74319 0.603168,-1.34636 1.346357,-1.34636 0.743189,0 1.346356,0.60317 1.346356,1.34636 z"
       id="path10538-7-8"
       style="display:inline;overflow:visible;opacity:0.3;fill-rule:evenodd;stroke:none;stroke-width:4;stroke-linecap:butt;stroke-linejoin:miter;stroke-miterlimit:4;stroke-dashoffset:0;stroke-opacity:1;marker:none;marker-start:none;marker-mid:none;marker-end:none;enable-background:accumulate" />
    <path
       d="m -71.956621,120.5 c 0,0.52806 0.428567,0.95662 0.956622,0.95662 0.528055,0 0.956622,-0.42856 0.956622,-0.95662 0,-0.52806 -0.428567,-0.95662 -0.956622,-0.95662 -0.528055,0 -0.956622,0.42856 -0.956622,0.95662 z"
       id="path10540-06-0"
       style="display:inline;overflow:visible;fill-rule:evenodd;stroke:none;stroke-width:4;stroke-linecap:butt;stroke-linejoin:miter;stroke-miterlimit:4;stroke-dashoffset:0;stroke-opacity:1;marker:none;marker-start:none;marker-mid:none;marker-end:none;enable-background:accumulate" />
  </g>
  <g
     transform="matrix(6.8,0,0,6.8,1041.4824,-403.35568)"
     id="use9385-36-5"
     style="fill:#7fa7ca;fill-opacity:1">
    <path
       d="m -70.999999,118 0.708122,1.79188 L -68.5,120.5 -70.291877,121.20812 -70.999999,123 -71.708122,121.20812 -73.5,120.5 l 1.791878,-0.70812 z"
       id="path10536-2-6"
       style="display:inline;overflow:visible;opacity:0.2;fill-rule:evenodd;stroke:none;stroke-width:4;stroke-linecap:butt;stroke-linejoin:miter;stroke-miterlimit:4;stroke-dashoffset:0;stroke-opacity:1;marker:none;marker-start:none;marker-mid:none;marker-end:none;enable-background:accumulate" />
    <path
       d="m -69.653643,120.5 c 0,0.74319 -0.603167,1.34636 -1.346356,1.34636 -0.743189,0 -1.346357,-0.60317 -1.346357,-1.34636 0,-0.74319 0.603168,-1.34636 1.346357,-1.34636 0.743189,0 1.346356,0.60317 1.346356,1.34636 z"
       id="path10538-7-1"
       style="display:inline;overflow:visible;opacity:0.3;fill-rule:evenodd;stroke:none;stroke-width:4;stroke-linecap:butt;stroke-linejoin:miter;stroke-miterlimit:4;stroke-dashoffset:0;stroke-opacity:1;marker:none;marker-start:none;marker-mid:none;marker-end:none;enable-background:accumulate" />
    <path
       d="m -71.956621,120.5 c 0,0.52806 0.428567,0.95662 0.956622,0.95662 0.528055,0 0.956622,-0.42856 0.956622,-0.95662 0,-0.52806 -0.428567,-0.95662 -0.956622,-0.95662 -0.528055,0 -0.956622,0.42856 -0.956622,0.95662 z"
       id="path10540-06-4"
       style="display:inline;overflow:visible;fill-rule:evenodd;stroke:none;stroke-width:4;stroke-linecap:butt;stroke-linejoin:miter;stroke-miterlimit:4;stroke-dashoffset:0;stroke-opacity:1;marker:none;marker-start:none;marker-mid:none;marker-end:none;enable-background:accumulate" />
  </g>
  <g
     transform="matrix(8.8,-5.410034,5.410034,8.8,589.04848,-1082.7502)"
     id="use9385-36-4"
     style="fill:#7fa7ca;fill-opacity:1">
    <path
       d="m -70.999999,118 0.708122,1.79188 L -68.5,120.5 -70.291877,121.20812 -70.999999,123 -71.708122,121.20812 -73.5,120.5 l 1.791878,-0.70812 z"
       id="path10536-2-5"
       style="display:inline;overflow:visible;opacity:0.2;fill-rule:evenodd;stroke:none;stroke-width:4;stroke-linecap:butt;stroke-linejoin:miter;stroke-miterlimit:4;stroke-dashoffset:0;stroke-opacity:1;marker:none;marker-start:none;marker-mid:none;marker-end:none;enable-background:accumulate" />
    <path
       d="m -69.653643,120.5 c 0,0.74319 -0.603167,1.34636 -1.346356,1.34636 -0.743189,0 -1.346357,-0.60317 -1.346357,-1.34636 0,-0.74319 0.603168,-1.34636 1.346357,-1.34636 0.743189,0 1.346356,0.60317 1.346356,1.34636 z"
       id="path10538-7-9"
       style="display:inline;overflow:visible;opacity:0.3;fill-rule:evenodd;stroke:none;stroke-width:4;stroke-linecap:butt;stroke-linejoin:miter;stroke-miterlimit:4;stroke-dashoffset:0;stroke-opacity:1;marker:none;marker-start:none;marker-mid:none;marker-end:none;enable-background:accumulate" />
    <path
       d="m -71.956621,120.5 c 0,0.52806 0.428567,0.95662 0.956622,0.95662 0.528055,0 0.956622,-0.42856 0.956622,-0.95662 0,-0.52806 -0.428567,-0.95662 -0.956622,-0.95662 -0.528055,0 -0.956622,0.42856 -0.956622,0.95662 z"
       id="path10540-06-6"
       style="display:inline;overflow:visible;fill-rule:evenodd;stroke:none;stroke-width:4;stroke-linecap:butt;stroke-linejoin:miter;stroke-miterlimit:4;stroke-dashoffset:0;stroke-opacity:1;marker:none;marker-start:none;marker-mid:none;marker-end:none;enable-background:accumulate" />
  </g>
  <g
     transform="matrix(6.8,0,0,6.8,1224.44,-416.54394)"
     id="use9385-36-08"
     style="fill:#7fa7ca;fill-opacity:1">
    <path
       d="m -70.999999,118 0.708122,1.79188 L -68.5,120.5 -70.291877,121.20812 -70.999999,123 -71.708122,121.20812 -73.5,120.5 l 1.791878,-0.70812 z"
       id="path10536-2-7"
       style="display:inline;overflow:visible;opacity:0.2;fill-rule:evenodd;stroke:none;stroke-width:4;stroke-linecap:butt;stroke-linejoin:miter;stroke-miterlimit:4;stroke-dashoffset:0;stroke-opacity:1;marker:none;marker-start:none;marker-mid:none;marker-end:none;enable-background:accumulate" />
    <path
       d="m -69.653643,120.5 c 0,0.74319 -0.603167,1.34636 -1.346356,1.34636 -0.743189,0 -1.346357,-0.60317 -1.346357,-1.34636 0,-0.74319 0.603168,-1.34636 1.346357,-1.34636 0.743189,0 1.346356,0.60317 1.346356,1.34636 z"
       id="path10538-7-4"
       style="display:inline;overflow:visible;opacity:0.3;fill-rule:evenodd;stroke:none;stroke-width:4;stroke-linecap:butt;stroke-linejoin:miter;stroke-miterlimit:4;stroke-dashoffset:0;stroke-opacity:1;marker:none;marker-start:none;marker-mid:none;marker-end:none;enable-background:accumulate" />
    <path
       d="m -71.956621,120.5 c 0,0.52806 0.428567,0.95662 0.956622,0.95662 0.528055,0 0.956622,-0.42856 0.956622,-0.95662 0,-0.52806 -0.428567,-0.95662 -0.956622,-0.95662 -0.528055,0 -0.956622,0.42856 -0.956622,0.95662 z"
       id="path10540-06-5"
       style="display:inline;overflow:visible;fill-rule:evenodd;stroke:none;stroke-width:4;stroke-linecap:butt;stroke-linejoin:miter;stroke-miterlimit:4;stroke-dashoffset:0;stroke-opacity:1;marker:none;marker-start:none;marker-mid:none;marker-end:none;enable-background:accumulate" />
  </g>
  <g
     transform="matrix(4.8,2.814297,-2.814297,4.8,1376.2059,-52.614951)"
     id="use9385-36-3"
     style="fill:#7fa7ca;fill-opacity:1">
    <path
       d="m -70.999999,118 0.708122,1.79188 L -68.5,120.5 -70.291877,121.20812 -70.999999,123 -71.708122,121.20812 -73.5,120.5 l 1.791878,-0.70812 z"
       id="path10536-2-18"
       style="display:inline;overflow:visible;opacity:0.2;fill-rule:evenodd;stroke:none;stroke-width:4;stroke-linecap:butt;stroke-linejoin:miter;stroke-miterlimit:4;stroke-dashoffset:0;stroke-opacity:1;marker:none;marker-start:none;marker-mid:none;marker-end:none;enable-background:accumulate" />
    <path
       d="m -69.653643,120.5 c 0,0.74319 -0.603167,1.34636 -1.346356,1.34636 -0.743189,0 -1.346357,-0.60317 -1.346357,-1.34636 0,-0.74319 0.603168,-1.34636 1.346357,-1.34636 0.743189,0 1.346356,0.60317 1.346356,1.34636 z"
       id="path10538-7-0"
       style="display:inline;overflow:visible;opacity:0.3;fill-rule:evenodd;stroke:none;stroke-width:4;stroke-linecap:butt;stroke-linejoin:miter;stroke-miterlimit:4;stroke-dashoffset:0;stroke-opacity:1;marker:none;marker-start:none;marker-mid:none;marker-end:none;enable-background:accumulate" />
    <path
       d="m -71.956621,120.5 c 0,0.52806 0.428567,0.95662 0.956622,0.95662 0.528055,0 0.956622,-0.42856 0.956622,-0.95662 0,-0.52806 -0.428567,-0.95662 -0.956622,-0.95662 -0.528055,0 -0.956622,0.42856 -0.956622,0.95662 z"
       id="path10540-06-81"
       style="display:inline;overflow:visible;fill-rule:evenodd;stroke:none;stroke-width:4;stroke-linecap:butt;stroke-linejoin:miter;stroke-miterlimit:4;stroke-dashoffset:0;stroke-opacity:1;marker:none;marker-start:none;marker-mid:none;marker-end:none;enable-background:accumulate" />
  </g>
  <g
     transform="matrix(5.7179575,3.6803481,-3.6803481,5.7179575,1534.236,-208.05422)"
     id="use9385-36-56"
     style="fill:#7fa7ca;fill-opacity:1">
    <path
       d="m -70.999999,118 0.708122,1.79188 L -68.5,120.5 -70.291877,121.20812 -70.999999,123 -71.708122,121.20812 -73.5,120.5 l 1.791878,-0.70812 z"
       id="path10536-2-61"
       style="display:inline;overflow:visible;opacity:0.2;fill-rule:evenodd;stroke:none;stroke-width:4;stroke-linecap:butt;stroke-linejoin:miter;stroke-miterlimit:4;stroke-dashoffset:0;stroke-opacity:1;marker:none;marker-start:none;marker-mid:none;marker-end:none;enable-background:accumulate" />
    <path
       d="m -69.653643,120.5 c 0,0.74319 -0.603167,1.34636 -1.346356,1.34636 -0.743189,0 -1.346357,-0.60317 -1.346357,-1.34636 0,-0.74319 0.603168,-1.34636 1.346357,-1.34636 0.743189,0 1.346356,0.60317 1.346356,1.34636 z"
       id="path10538-7-23"
       style="display:inline;overflow:visible;opacity:0.3;fill-rule:evenodd;stroke:none;stroke-width:4;stroke-linecap:butt;stroke-linejoin:miter;stroke-miterlimit:4;stroke-dashoffset:0;stroke-opacity:1;marker:none;marker-start:none;marker-mid:none;marker-end:none;enable-background:accumulate" />
    <path
       d="m -71.956621,120.5 c 0,0.52806 0.428567,0.95662 0.956622,0.95662 0.528055,0 0.956622,-0.42856 0.956622,-0.95662 0,-0.52806 -0.428567,-0.95662 -0.956622,-0.95662 -0.528055,0 -0.956622,0.42856 -0.956622,0.95662 z"
       id="path10540-06-04"
       style="display:inline;overflow:visible;fill-rule:evenodd;stroke:none;stroke-width:4;stroke-linecap:butt;stroke-linejoin:miter;stroke-miterlimit:4;stroke-dashoffset:0;stroke-opacity:1;marker:none;marker-start:none;marker-mid:none;marker-end:none;enable-background:accumulate" />
  </g>
  <g
     transform="matrix(3.7188461,4.4,-4.4,3.7188461,1413.8024,102.20078)"
     id="use9385-36-72"
     style="fill:#7fa7ca;fill-opacity:1">
    <path
       d="m -70.999999,118 0.708122,1.79188 L -68.5,120.5 -70.291877,121.20812 -70.999999,123 -71.708122,121.20812 -73.5,120.5 l 1.791878,-0.70812 z"
       id="path10536-2-3"
       style="display:inline;overflow:visible;opacity:0.2;fill-rule:evenodd;stroke:none;stroke-width:4;stroke-linecap:butt;stroke-linejoin:miter;stroke-miterlimit:4;stroke-dashoffset:0;stroke-opacity:1;marker:none;marker-start:none;marker-mid:none;marker-end:none;enable-background:accumulate" />
    <path
       d="m -69.653643,120.5 c 0,0.74319 -0.603167,1.34636 -1.346356,1.34636 -0.743189,0 -1.346357,-0.60317 -1.346357,-1.34636 0,-0.74319 0.603168,-1.34636 1.346357,-1.34636 0.743189,0 1.346356,0.60317 1.346356,1.34636 z"
       id="path10538-7-13"
       style="display:inline;overflow:visible;opacity:0.3;fill-rule:evenodd;stroke:none;stroke-width:4;stroke-linecap:butt;stroke-linejoin:miter;stroke-miterlimit:4;stroke-dashoffset:0;stroke-opacity:1;marker:none;marker-start:none;marker-mid:none;marker-end:none;enable-background:accumulate" />
    <path
       d="m -71.956621,120.5 c 0,0.52806 0.428567,0.95662 0.956622,0.95662 0.528055,0 0.956622,-0.42856 0.956622,-0.95662 0,-0.52806 -0.428567,-0.95662 -0.956622,-0.95662 -0.528055,0 -0.956622,0.42856 -0.956622,0.95662 z"
       id="path10540-06-9"
       style="display:inline;overflow:visible;fill-rule:evenodd;stroke:none;stroke-width:4;stroke-linecap:butt;stroke-linejoin:miter;stroke-miterlimit:4;stroke-dashoffset:0;stroke-opacity:1;marker:none;marker-start:none;marker-mid:none;marker-end:none;enable-background:accumulate" />
  </g>
  <g
     transform="matrix(6.8,0,0,6.8,1000.2505,-604.27445)"
     id="use9385-36-19"
     style="fill:#7fa7ca;fill-opacity:1">
    <path
       d="m -70.999999,118 0.708122,1.79188 L -68.5,120.5 -70.291877,121.20812 -70.999999,123 -71.708122,121.20812 -73.5,120.5 l 1.791878,-0.70812 z"
       id="path10536-2-75"
       style="display:inline;overflow:visible;opacity:0.2;fill-rule:evenodd;stroke:none;stroke-width:4;stroke-linecap:butt;stroke-linejoin:miter;stroke-miterlimit:4;stroke-dashoffset:0;stroke-opacity:1;marker:none;marker-start:none;marker-mid:none;marker-end:none;enable-background:accumulate" />
    <path
       d="m -69.653643,120.5 c 0,0.74319 -0.603167,1.34636 -1.346356,1.34636 -0.743189,0 -1.346357,-0.60317 -1.346357,-1.34636 0,-0.74319 0.603168,-1.34636 1.346357,-1.34636 0.743189,0 1.346356,0.60317 1.346356,1.34636 z"
       id="path10538-7-90"
       style="display:inline;overflow:visible;opacity:0.3;fill-rule:evenodd;stroke:none;stroke-width:4;stroke-linecap:butt;stroke-linejoin:miter;stroke-miterlimit:4;stroke-dashoffset:0;stroke-opacity:1;marker:none;marker-start:none;marker-mid:none;marker-end:none;enable-background:accumulate" />
    <path
       d="m -71.956621,120.5 c 0,0.52806 0.428567,0.95662 0.956622,0.95662 0.528055,0 0.956622,-0.42856 0.956622,-0.95662 0,-0.52806 -0.428567,-0.95662 -0.956622,-0.95662 -0.528055,0 -0.956622,0.42856 -0.956622,0.95662 z"
       id="path10540-06-01"
       style="display:inline;overflow:visible;fill-rule:evenodd;stroke:none;stroke-width:4;stroke-linecap:butt;stroke-linejoin:miter;stroke-miterlimit:4;stroke-dashoffset:0;stroke-opacity:1;marker:none;marker-start:none;marker-mid:none;marker-end:none;enable-background:accumulate" />
  </g>
  <g
     transform="matrix(4.6643192,4.9481438,-4.9481438,4.6643192,1628.3929,-53.458987)"
     id="use9385-36-74"
     style="fill:#7fa7ca;fill-opacity:1">
    <path
       d="m -70.999999,118 0.708122,1.79188 L -68.5,120.5 -70.291877,121.20812 -70.999999,123 -71.708122,121.20812 -73.5,120.5 l 1.791878,-0.70812 z"
       id="path10536-2-8"
       style="display:inline;overflow:visible;opacity:0.2;fill-rule:evenodd;stroke:none;stroke-width:4;stroke-linecap:butt;stroke-linejoin:miter;stroke-miterlimit:4;stroke-dashoffset:0;stroke-opacity:1;marker:none;marker-start:none;marker-mid:none;marker-end:none;enable-background:accumulate" />
    <path
       d="m -69.653643,120.5 c 0,0.74319 -0.603167,1.34636 -1.346356,1.34636 -0.743189,0 -1.346357,-0.60317 -1.346357,-1.34636 0,-0.74319 0.603168,-1.34636 1.346357,-1.34636 0.743189,0 1.346356,0.60317 1.346356,1.34636 z"
       id="path10538-7-6"
       style="display:inline;overflow:visible;opacity:0.3;fill-rule:evenodd;stroke:none;stroke-width:4;stroke-linecap:butt;stroke-linejoin:miter;stroke-miterlimit:4;stroke-dashoffset:0;stroke-opacity:1;marker:none;marker-start:none;marker-mid:none;marker-end:none;enable-background:accumulate" />
    <path
       d="m -71.956621,120.5 c 0,0.52806 0.428567,0.95662 0.956622,0.95662 0.528055,0 0.956622,-0.42856 0.956622,-0.95662 0,-0.52806 -0.428567,-0.95662 -0.956622,-0.95662 -0.528055,0 -0.956622,0.42856 -0.956622,0.95662 z"
       id="path10540-06-52"
       style="display:inline;overflow:visible;fill-rule:evenodd;stroke:none;stroke-width:4;stroke-linecap:butt;stroke-linejoin:miter;stroke-miterlimit:4;stroke-dashoffset:0;stroke-opacity:1;marker:none;marker-start:none;marker-mid:none;marker-end:none;enable-background:accumulate" />
  </g>
  <g
     transform="matrix(6.7244887,7.6,-7.6,6.7244887,2097.8733,-206.36766)"
     id="use9385-36-46"
     style="fill:#7fa7ca;fill-opacity:1">
    <path
       d="m -70.999999,118 0.708122,1.79188 L -68.5,120.5 -70.291877,121.20812 -70.999999,123 -71.708122,121.20812 -73.5,120.5 l 1.791878,-0.70812 z"
       id="path10536-2-9"
       style="display:inline;overflow:visible;opacity:0.2;fill-rule:evenodd;stroke:none;stroke-width:4;stroke-linecap:butt;stroke-linejoin:miter;stroke-miterlimit:4;stroke-dashoffset:0;stroke-opacity:1;marker:none;marker-start:none;marker-mid:none;marker-end:none;enable-background:accumulate" />
    <path
       d="m -69.653643,120.5 c 0,0.74319 -0.603167,1.34636 -1.346356,1.34636 -0.743189,0 -1.346357,-0.60317 -1.346357,-1.34636 0,-0.74319 0.603168,-1.34636 1.346357,-1.34636 0.743189,0 1.346356,0.60317 1.346356,1.34636 z"
       id="path10538-7-92"
       style="display:inline;overflow:visible;opacity:0.3;fill-rule:evenodd;stroke:none;stroke-width:4;stroke-linecap:butt;stroke-linejoin:miter;stroke-miterlimit:4;stroke-dashoffset:0;stroke-opacity:1;marker:none;marker-start:none;marker-mid:none;marker-end:none;enable-background:accumulate" />
    <path
       d="m -71.956621,120.5 c 0,0.52806 0.428567,0.95662 0.956622,0.95662 0.528055,0 0.956622,-0.42856 0.956622,-0.95662 0,-0.52806 -0.428567,-0.95662 -0.956622,-0.95662 -0.528055,0 -0.956622,0.42856 -0.956622,0.95662 z"
       id="path10540-06-94"
       style="display:inline;overflow:visible;fill-rule:evenodd;stroke:none;stroke-width:4;stroke-linecap:butt;stroke-linejoin:miter;stroke-miterlimit:4;stroke-dashoffset:0;stroke-opacity:1;marker:none;marker-start:none;marker-mid:none;marker-end:none;enable-background:accumulate" />
  </g>
</svg>
